<svg viewBox="0 0 20 20" xmlns="http://www.w3.org/2000/svg">
<path d="M12.0328 11.782C12.1098 11.9584 12.1482 12.175 12.1482 12.4319C12.1482 12.6887 12.1098 12.9053 12.0328 13.0817C11.9571 13.2581 11.8499 13.3919 11.7114 13.483C11.573 13.5741 11.4108 13.6197 11.2249 13.6197C11.0391 13.6197 10.8769 13.5741 10.7384 13.483C10.5999 13.3919 10.4922 13.2581 10.4153 13.0817C10.3395 12.9053 10.3016 12.6887 10.3016 12.4319C10.3016 12.175 10.3395 11.9584 10.4153 11.782C10.4922 11.6056 10.5999 11.4719 10.7384 11.3807C10.8769 11.2896 11.0391 11.244 11.2249 11.244C11.4108 11.244 11.573 11.2896 11.7114 11.3807C11.8499 11.4719 11.9571 11.6056 12.0328 11.782Z"/>
<path fill-rule="evenodd" clip-rule="evenodd" d="M6 2C4.89543 2 4 2.89543 4 4V9H3C2.44772 9 2 9.44772 2 10V15C2 15.5523 2.44772 16 3 16H4C4 17.1046 4.89543 18 6 18H14C15.1046 18 16 17.1046 16 16H17C17.5523 16 18 15.5523 18 15V10C18 9.44772 17.5523 9 17 9H16V7.62132C16 7.59436 15.9995 7.56746 15.9984 7.54063C15.9995 7.52723 16 7.51368 16 7.5C16 7.45831 15.9949 7.41782 15.9853 7.37911C15.9315 6.93793 15.7317 6.52463 15.4142 6.20711L11.7929 2.58579C11.4754 2.26826 11.0621 2.06853 10.6209 2.01471C10.5822 2.0051 10.5417 2 10.5 2C10.4863 2 10.4728 2.00055 10.4594 2.00163C10.4325 2.00054 10.4056 2 10.3787 2H6ZM15 9V8H11.5C10.6716 8 10 7.32843 10 6.5V3H6C5.44772 3 5 3.44772 5 4V9H15ZM15 16H5C5 16.5523 5.44772 17 6 17H14C14.5523 17 15 16.5523 15 16ZM14.7836 7C14.7599 6.97011 14.7344 6.94146 14.7071 6.91421L11.0858 3.29289C11.0585 3.26565 11.0299 3.24014 11 3.21644V6.5C11 6.77614 11.2239 7 11.5 7H14.7836ZM8.62957 11.6595C8.4624 11.6595 8.32857 11.5345 8.20214 11.4163C8.17954 11.3952 8.15718 11.3743 8.13491 11.3544C8.12373 11.3444 8.11192 11.3348 8.0995 11.3257C7.99178 11.2464 7.84559 11.2067 7.66093 11.2067C7.53546 11.2067 7.42952 11.2245 7.3431 11.26C7.25669 11.2943 7.19041 11.3423 7.14424 11.4038C7.09926 11.4654 7.07677 11.5352 7.07677 11.6133C7.0744 11.6784 7.08801 11.7352 7.11761 11.7838C7.14838 11.8323 7.19041 11.8743 7.24367 11.9098C7.29694 11.9442 7.35849 11.9744 7.42833 12.0004C7.49817 12.0253 7.57274 12.0466 7.65205 12.0643L7.97876 12.1424C8.13738 12.178 8.28297 12.2253 8.41555 12.2845C8.54812 12.3437 8.66294 12.4165 8.76001 12.5029C8.85707 12.5893 8.93224 12.6911 8.98551 12.8083C9.03996 12.9255 9.06777 13.0598 9.06896 13.2113C9.06777 13.4339 9.01095 13.6268 8.8985 13.7902C8.78723 13.9523 8.62625 14.0784 8.41555 14.1684C8.20603 14.2571 7.95331 14.3015 7.65738 14.3015C7.36382 14.3015 7.10814 14.2566 6.89033 14.1666C6.67371 14.0766 6.50444 13.9435 6.38252 13.7671C6.32625 13.6843 6.28245 13.5925 6.25112 13.4915C6.18793 13.2877 6.36805 13.1084 6.58134 13.1084H6.609C6.79336 13.1084 6.9303 13.2665 7.04126 13.4138C7.10399 13.4942 7.18745 13.5552 7.29161 13.5966C7.39696 13.6369 7.51593 13.657 7.6485 13.657C7.77871 13.657 7.89176 13.6381 7.98764 13.6002C8.0847 13.5623 8.15987 13.5096 8.21313 13.4422C8.2664 13.3747 8.29303 13.2972 8.29303 13.2096C8.29303 13.1279 8.26877 13.0592 8.22023 13.0036C8.17289 12.948 8.10305 12.9006 8.01072 12.8616C7.91957 12.8225 7.80771 12.787 7.67514 12.755L7.27918 12.6556C6.9726 12.581 6.73053 12.4644 6.55298 12.3058C6.37542 12.1472 6.28723 11.9335 6.28842 11.6648C6.28723 11.4446 6.34583 11.2523 6.4642 11.0878C6.58375 10.9232 6.7477 10.7948 6.95603 10.7025C7.16436 10.6101 7.40111 10.564 7.66626 10.564C7.93614 10.564 8.1717 10.6101 8.37293 10.7025C8.57535 10.7948 8.73278 10.9232 8.84523 11.0878C8.88637 11.1479 8.92022 11.2116 8.94678 11.2788C9.02556 11.4779 8.84374 11.6595 8.62957 11.6595ZM4.91413 10.9937C4.91413 10.7838 5.08425 10.6137 5.2941 10.6137C5.50395 10.6137 5.67407 10.7838 5.67407 10.9937V13.1492C5.67407 13.3836 5.6214 13.5872 5.51604 13.76C5.41188 13.9328 5.26687 14.066 5.08103 14.1595C4.89519 14.253 4.67916 14.2998 4.43295 14.2998C4.21396 14.2998 4.0151 14.2613 3.83636 14.1843C3.6588 14.1062 3.51794 13.9879 3.41377 13.8292C3.37046 13.7628 3.33626 13.6893 3.31116 13.6087C3.24759 13.4047 3.432 13.2273 3.64572 13.2273H3.76858C3.91097 13.2273 4.01604 13.3485 4.08316 13.4741C4.12104 13.5416 4.17253 13.5937 4.23764 13.6304C4.30392 13.6659 4.38205 13.6836 4.47201 13.6836C4.56671 13.6836 4.64661 13.6635 4.71171 13.6233C4.778 13.5818 4.82831 13.5215 4.86264 13.4422C4.89696 13.3629 4.91413 13.2652 4.91413 13.1492V10.9937ZM12.7022 13.4439C12.8525 13.1658 12.9277 12.8284 12.9277 12.4319C12.9277 12.0353 12.8525 11.698 12.7022 11.4198C12.5531 11.1416 12.3495 10.9297 12.0914 10.7841C11.8346 10.6374 11.5457 10.564 11.2249 10.564C10.9018 10.564 10.6118 10.6374 10.3549 10.7841C10.098 10.9297 9.89504 11.1416 9.74589 11.4198C9.59674 11.698 9.52217 12.0353 9.52217 12.4319C9.52217 12.8272 9.59674 13.164 9.74589 13.4422C9.89504 13.7203 10.098 13.9328 10.3549 14.0796C10.6118 14.2264 10.9018 14.2998 11.2249 14.2998C11.5457 14.2998 11.8346 14.227 12.0914 14.0814C12.3495 13.9346 12.5531 13.7221 12.7022 13.4439ZM16.1561 10.6137C16.3675 10.6137 16.5388 10.785 16.5388 10.9963V13.8144C16.5388 14.055 16.3437 14.25 16.1032 14.25C15.9601 14.25 15.8262 14.1798 15.7448 14.0621L14.2979 11.9689C14.2946 11.9642 14.2893 11.9613 14.2835 11.9613C14.2739 11.9613 14.266 11.9692 14.266 11.9788V13.8656C14.266 14.0779 14.0939 14.25 13.8816 14.25C13.6693 14.25 13.4972 14.0779 13.4972 13.8656V11.0557C13.4972 10.8116 13.6951 10.6137 13.9392 10.6137C14.0849 10.6137 14.2212 10.6855 14.3036 10.8056L15.7353 12.8915C15.7392 12.8972 15.7457 12.9006 15.7526 12.9006C15.7641 12.9006 15.7735 12.8912 15.7735 12.8797V10.9963C15.7735 10.785 15.9448 10.6137 16.1561 10.6137Z"/>
</svg>
