<svg viewBox="0 0 24 24" xmlns="http://www.w3.org/2000/svg">
<path d="M14.4394 14.2883C14.5317 14.5 14.5779 14.7599 14.5779 15.0681C14.5779 15.3764 14.5317 15.6363 14.4394 15.848C14.3485 16.0596 14.2199 16.2201 14.0537 16.3295C13.8875 16.4389 13.6929 16.4936 13.4699 16.4936C13.2469 16.4936 13.0523 16.4389 12.8861 16.3295C12.7199 16.2201 12.5907 16.0596 12.4983 15.848C12.4074 15.6363 12.362 15.3764 12.362 15.0681C12.362 14.7599 12.4074 14.5 12.4983 14.2883C12.5907 14.0767 12.7199 13.9161 12.8861 13.8068C13.0523 13.6974 13.2469 13.6427 13.4699 13.6427C13.6929 13.6427 13.8875 13.6974 14.0537 13.8068C14.2199 13.9161 14.3485 14.0767 14.4394 14.2883Z"/>
<path fill-rule="evenodd" clip-rule="evenodd" d="M4 11V4.25C4 3.00736 5.00736 1.99999 6.25001 2L12.112 2.00002C12.7235 2.00003 13.3086 2.24889 13.7328 2.68933L19.3707 8.54414C19.4165 8.59165 19.4599 8.64096 19.501 8.6919C19.5899 8.77177 19.6597 8.87257 19.7024 8.98655C19.8959 9.32428 20 9.70933 20 10.1048V11H20.5C21.3284 11 22 11.6716 22 12.5V17.5C22 18.3284 21.3284 19 20.5 19H20V19.75C20 20.9927 18.9926 22 17.75 22H6.25C5.00736 22 4 20.9927 4 19.75V19H3.5C2.67157 19 2 18.3284 2 17.5V12.5C2 11.6716 2.67157 11 3.5 11H4ZM5.5 4.25C5.5 3.83579 5.83579 3.5 6.25 3.5L12 3.50002V7.74999C12 8.99263 13.0074 9.99999 14.25 9.99999H18.4926C18.4975 10.0345 18.5 10.0696 18.5 10.1048V11H5.5V4.25ZM5.5 19V19.75C5.5 20.1642 5.83578 20.5 6.25 20.5H17.75C18.1642 20.5 18.5 20.1642 18.5 19.75V19H5.5ZM17.2458 8.49999H14.25C13.8358 8.49999 13.5 8.16421 13.5 7.74999V4.61012L17.2458 8.49999ZM10.3555 14.1413C10.1549 14.1413 9.99428 13.9912 9.84256 13.8495C9.81545 13.8242 9.78861 13.7991 9.76189 13.7752C9.74847 13.7632 9.73431 13.7517 9.7194 13.7407C9.59013 13.6456 9.41471 13.598 9.19312 13.598C9.04255 13.598 8.91542 13.6193 8.81172 13.6619C8.70803 13.7031 8.62849 13.7606 8.57309 13.8345C8.51911 13.9083 8.49212 13.9921 8.49212 14.0859C8.48928 14.164 8.50562 14.2322 8.54113 14.2904C8.57806 14.3487 8.62849 14.3991 8.69241 14.4417C8.75633 14.4829 8.83019 14.5191 8.914 14.5504C8.9978 14.5802 9.08729 14.6058 9.18246 14.6271L9.57451 14.7208C9.76485 14.7634 9.93957 14.8203 10.0987 14.8913C10.2577 14.9623 10.3955 15.0497 10.512 15.1534C10.6285 15.2571 10.7187 15.3792 10.7826 15.5198C10.8479 15.6605 10.8813 15.8217 10.8827 16.0035C10.8813 16.2706 10.8131 16.5021 10.6782 16.6981C10.5447 16.8927 10.3515 17.044 10.0987 17.1519C9.84724 17.2585 9.54397 17.3117 9.18886 17.3117C8.83658 17.3117 8.52976 17.2578 8.2684 17.1498C8.00846 17.0419 7.80533 16.8821 7.65903 16.6704C7.5915 16.5711 7.53894 16.4609 7.50135 16.3397C7.42551 16.0952 7.64166 15.8799 7.89761 15.8799H7.9308C8.15203 15.8799 8.31636 16.0697 8.44951 16.2464C8.52479 16.343 8.62494 16.4161 8.74994 16.4659C8.87636 16.5142 9.01911 16.5383 9.1782 16.5383C9.33445 16.5383 9.47011 16.5156 9.58516 16.4701C9.70164 16.4247 9.79184 16.3615 9.85576 16.2805C9.91968 16.1995 9.95164 16.1065 9.95164 16.0014C9.95164 15.9034 9.92252 15.821 9.86428 15.7542C9.80746 15.6875 9.72366 15.6306 9.61286 15.5838C9.50349 15.5369 9.36925 15.4943 9.21016 15.4559L8.73502 15.3366C8.36712 15.2471 8.07664 15.1072 7.86357 14.9169C7.6505 14.7265 7.54468 14.4701 7.5461 14.1477C7.54468 13.8835 7.61499 13.6527 7.75704 13.4552C7.9005 13.2578 8.09724 13.1036 8.34724 12.9929C8.59724 12.8821 8.88133 12.8267 9.19951 12.8267C9.52337 12.8267 9.80604 12.8821 10.0475 12.9929C10.2904 13.1036 10.4793 13.2578 10.6143 13.4552C10.6636 13.5274 10.7043 13.6038 10.7361 13.6844C10.8307 13.9234 10.6125 14.1413 10.3555 14.1413ZM5.89695 13.3423C5.89695 13.0905 6.1011 12.8863 6.35292 12.8863C6.60474 12.8863 6.80888 13.0905 6.80888 13.3423V15.9289C6.80888 16.2102 6.74567 16.4545 6.61925 16.6619C6.49425 16.8693 6.32025 17.0291 6.09724 17.1413C5.87422 17.2535 5.61499 17.3096 5.31954 17.3096C5.05675 17.3096 4.81812 17.2635 4.60363 17.1711C4.39056 17.0774 4.22153 16.9353 4.09653 16.745C4.04455 16.6653 4.00351 16.5771 3.97339 16.4804C3.89711 16.2355 4.1184 16.0227 4.37486 16.0227H4.5223C4.69316 16.0227 4.81925 16.1682 4.89979 16.3188C4.94525 16.3998 5.00704 16.4623 5.08516 16.5063C5.16471 16.549 5.25846 16.5703 5.36641 16.5703C5.48005 16.5703 5.57593 16.5461 5.65405 16.4978C5.7336 16.4481 5.79397 16.3757 5.83516 16.2805C5.87636 16.1853 5.89695 16.0681 5.89695 15.9289V13.3423ZM15.2427 16.2826C15.4231 15.9488 15.5133 15.544 15.5133 15.0681C15.5133 14.5923 15.4231 14.1875 15.2427 13.8536C15.0637 13.5198 14.8194 13.2656 14.5097 13.0909C14.2015 12.9147 13.8549 12.8267 13.4699 12.8267C13.0821 12.8267 12.7341 12.9147 12.4259 13.0909C12.1177 13.2656 11.874 13.5198 11.6951 13.8536C11.5161 14.1875 11.4266 14.5923 11.4266 15.0681C11.4266 15.5426 11.5161 15.9467 11.6951 16.2805C11.874 16.6143 12.1177 16.8693 12.4259 17.0454C12.7341 17.2215 13.0821 17.3096 13.4699 17.3096C13.8549 17.3096 14.2015 17.2223 14.5097 17.0475C14.8194 16.8714 15.0637 16.6164 15.2427 16.2826ZM19.3874 12.8863C19.641 12.8863 19.8465 13.0919 19.8465 13.3455V16.7272C19.8465 17.0159 19.6125 17.25 19.3238 17.25C19.1521 17.25 18.9914 17.1657 18.8938 17.0245L17.1512 14.5035H17.1193V16.7887C17.1193 17.0434 16.9127 17.25 16.658 17.25C16.4032 17.25 16.1967 17.0434 16.1967 16.7887V13.4167C16.1967 13.1238 16.4341 12.8863 16.7271 12.8863C16.9019 12.8863 17.0654 12.9725 17.1644 13.1166L18.8899 15.6306H18.9282V13.3455C18.9282 13.0919 19.1338 12.8863 19.3874 12.8863Z"/>
</svg>
