<svg viewBox="0 0 24 24" xmlns="http://www.w3.org/2000/svg">
<path fill-rule="evenodd" clip-rule="evenodd" d="M17.475 2.54701L16.875 3.28015L16.275 2.54701C16.0391 2.25881 15.6275 2.18734 15.3083 2.37914L13.4201 3.51371C13.1009 3.70551 12.9707 4.1025 13.1145 4.44605L13.4167 5.16851L12.6418 5.28152C12.2733 5.33526 12 5.65126 12 6.02367V8.22655C12 8.59896 12.2733 8.91496 12.6418 8.9687L13.4167 9.08172L13.1145 9.80418C12.9707 10.1477 13.1009 10.5447 13.4201 10.7365L15.3083 11.8711C15.6275 12.0629 16.0391 11.9914 16.275 11.7032L16.875 10.9701L17.475 11.7032C17.7109 11.9914 18.1225 12.0629 18.4417 11.8711L20.3299 10.7365C20.6492 10.5447 20.7793 10.1477 20.6356 9.80418L20.3333 9.08171L21.1082 8.9687C21.4767 8.91496 21.75 8.59896 21.75 8.22655V6.02366C21.75 5.65126 21.4767 5.33526 21.1082 5.28152L20.3333 5.1685L20.6355 4.44605C20.7793 4.10249 20.6492 3.70551 20.3299 3.51371L18.4417 2.37914C18.1225 2.18733 17.7109 2.25881 17.475 2.54701ZM18.6844 5.22333C19.0551 5.57613 19.3228 6.03619 19.4376 6.55375L20.25 6.67222V7.57799L19.4377 7.69646C19.3228 8.21404 19.0551 8.67412 18.6844 9.02693L19.0015 9.7848L18.2251 10.2513L17.7052 9.61614C17.4443 9.70306 17.1652 9.75014 16.875 9.75014C16.5849 9.75014 16.3057 9.70306 16.0448 9.61614L15.525 10.2513L14.7486 9.7848L15.0656 9.02693C14.6949 8.67412 14.4272 8.21404 14.3124 7.69646L13.5 7.57799V6.67223L14.3124 6.55376C14.4273 6.03619 14.6949 5.57613 15.0656 5.22334L14.7486 4.46543L15.525 3.99892L16.0448 4.63413C16.3057 4.54721 16.5849 4.50014 16.875 4.50014C17.1651 4.50014 17.4443 4.54721 17.7052 4.63413L18.2251 3.99892L19.0015 4.46543L18.6844 5.22333Z" />
<path d="M8.25001 17.2501C9.07844 17.2501 9.75001 16.5786 9.75001 15.7501C9.75001 14.9217 9.07844 14.2501 8.25001 14.2501C7.42158 14.2501 6.75001 14.9217 6.75001 15.7501C6.75001 16.5786 7.42158 17.2501 8.25001 17.2501Z" />
<path fill-rule="evenodd" clip-rule="evenodd" d="M7.66039 10.5334L7.28506 10.0769C7.04896 9.7897 6.63812 9.71884 6.31946 9.91031L4.00009 11.3039C3.68143 11.4954 3.55112 11.8914 3.69383 12.2347L3.92068 12.7804C3.74955 13.0299 3.60033 13.2936 3.47468 13.5687L2.89009 13.6553C2.52234 13.7098 2.25 14.0254 2.25 14.3972V17.1031C2.25 17.4748 2.52234 17.7905 2.89009 17.845L3.47467 17.9316C3.6003 18.2066 3.7495 18.4703 3.92067 18.7199L3.69383 19.2655C3.55112 19.6088 3.68143 20.0048 4.00009 20.1963L6.31946 21.5899C6.63812 21.7814 7.04896 21.7105 7.28506 21.4234L7.66036 20.9669C8.05206 21.0112 8.44766 21.0112 8.83965 20.9669L9.21495 21.4234C9.45105 21.7105 9.86189 21.7814 10.1806 21.5899L12.4999 20.1963C12.8186 20.0048 12.9489 19.6088 12.8062 19.2655L12.5793 18.7199C12.7504 18.4704 12.8997 18.2067 13.0254 17.9316L13.6099 17.845C13.9777 17.7905 14.25 17.4748 14.25 17.1031V14.3972C14.25 14.0254 13.9777 13.7098 13.6099 13.6553L13.0253 13.5687C12.8997 13.2935 12.7504 13.0298 12.5793 12.7804L12.8062 12.2347C12.9489 11.8914 12.8186 11.4954 12.4999 11.3039L10.1805 9.91031C9.86189 9.71884 9.45105 9.7897 9.21495 10.0769L8.83962 10.5334C8.44783 10.4891 8.05225 10.4891 7.66039 10.5334ZM7.36794 12.1045C7.26974 12.1281 7.17305 12.1557 7.07803 12.1869L6.53737 11.5293L5.3273 12.2564L5.6545 13.0435C5.5999 13.0959 5.54688 13.1499 5.49551 13.2055C5.08533 13.6495 4.78858 14.1861 4.63051 14.7695L4.6296 14.7692C4.61617 14.8189 4.60374 14.869 4.59233 14.9195L3.75 15.0443V16.456L4.59232 16.5808C4.60104 16.6193 4.61034 16.6576 4.62024 16.6957L4.62112 16.6955C4.7735 17.2804 5.06502 17.8199 5.47086 18.2678C5.52986 18.3329 5.5911 18.396 5.65449 18.4568L5.3273 19.2438L6.53737 19.9709L7.07801 19.3134C7.15353 19.3382 7.23012 19.3607 7.30767 19.3807L7.3079 19.3799C7.6153 19.4597 7.93043 19.4998 8.24574 19.5001L8.25794 19.5001C8.5387 19.4995 8.81951 19.4674 9.09503 19.4037L9.09522 19.4045C9.20611 19.379 9.31512 19.3485 9.422 19.3134L9.96264 19.9709L11.1727 19.2438L10.8455 18.4568C10.892 18.4122 10.9373 18.3665 10.9814 18.3196C11.3956 17.8794 11.6972 17.3455 11.8605 16.7635L11.8614 16.7637C11.8783 16.7034 11.8938 16.6423 11.9077 16.5808L12.75 16.456V15.0443L11.9077 14.9195C11.8924 14.8517 11.8752 14.7847 11.8563 14.7184L11.8554 14.7187C11.6891 14.1375 11.3848 13.6052 10.9684 13.167C10.9284 13.1249 10.8874 13.0837 10.8455 13.0435L11.1727 12.2564L9.96264 11.5293L9.42198 12.1869C9.33458 12.1582 9.24575 12.1326 9.15564 12.1102L9.15542 12.1111C8.85901 12.0373 8.55581 12.0003 8.25256 12.0001L8.24455 12.0001C7.95035 12.0006 7.65617 12.0356 7.36814 12.1053L7.36794 12.1045Z" />
</svg>
