<svg viewBox="0 0 24 24" xmlns="http://www.w3.org/2000/svg">
<path fill-rule="evenodd" clip-rule="evenodd" d="M19 20.25C19.2761 20.25 19.5 20.0262 19.5 19.75V9.68066L12.3293 3.40626C12.1407 3.24131 11.8593 3.24131 11.6707 3.40626L4.5 9.68066V19.75C4.5 20.0262 4.72386 20.25 5 20.25H7.75C8.02614 20.25 8.25 20.0262 8.25 19.75V14.25C8.25 13.2145 9.08947 12.375 10.125 12.375H13.875C14.9105 12.375 15.75 13.2145 15.75 14.25V19.75C15.75 20.0262 15.9739 20.25 16.25 20.25H19ZM3.51224 8.5518C3.18672 8.83663 3 9.24812 3 9.68066V20.25C3 21.0784 3.67157 21.75 4.5 21.75H8.25C9.07843 21.75 9.75 21.0784 9.75 20.25V14.25C9.75 14.0429 9.91789 13.875 10.125 13.875H13.875C14.0821 13.875 14.25 14.0429 14.25 14.25V20.25C14.25 21.0784 14.9216 21.75 15.75 21.75H19.5C20.3284 21.75 21 21.0784 21 20.25V9.68066C21 9.24812 20.8133 8.83663 20.4878 8.5518L12.9878 1.9893C12.4222 1.49445 11.5778 1.49445 11.0122 1.9893L3.51224 8.5518Z"/>
</svg>
