<svg viewBox="0 0 24 24" xmlns="http://www.w3.org/2000/svg">
<path d="M18.75 18.75C19.5784 18.75 20.25 18.0784 20.25 17.25V7.875C20.25 7.13632 20.1045 6.40486 19.8218 5.72241C19.5391 5.03995 19.1248 4.41985 18.6025 3.89752C18.0801 3.37519 17.4601 2.96086 16.7776 2.67818C16.0951 2.39549 15.3637 2.25 14.625 2.25H9C8.17157 2.25 7.5 2.92157 7.5 3.75H14.625C15.1667 3.75 15.7031 3.8567 16.2036 4.064C16.704 4.2713 17.1588 4.57514 17.5418 4.95818C17.9249 5.34123 18.2287 5.79596 18.436 6.29643C18.6433 6.7969 18.75 7.3333 18.75 7.875V18.75Z"/>
<path fill-rule="evenodd" clip-rule="evenodd" d="M6.75 5.25C5.09315 5.25 3.75 6.59315 3.75 8.25V18.75C3.75 20.4069 5.09315 21.75 6.75 21.75H14.25C15.9069 21.75 17.25 20.4069 17.25 18.75V8.25C17.25 6.59315 15.9069 5.25 14.25 5.25H6.75ZM14.25 6.75H6.75C5.92157 6.75 5.25 7.42157 5.25 8.25V18.75C5.25 19.5784 5.92157 20.25 6.75 20.25H14.25C15.0784 20.25 15.75 19.5784 15.75 18.75V8.25C15.75 7.42157 15.0784 6.75 14.25 6.75Z"/>
</svg>
