<svg viewBox="0 0 32 32" xmlns="http://www.w3.org/2000/svg">
<path fill-rule="evenodd" clip-rule="evenodd" d="M3 7.5C3 5.01472 5.01472 3 7.5 3H24.5C26.9853 3 29 5.01472 29 7.5V24.5C29 26.9853 26.9853 29 24.5 29H7.5C5.01472 29 3 26.9853 3 24.5V7.5ZM7.5 5C6.11929 5 5 6.11929 5 7.5V24.5C5 25.8807 6.11929 27 7.5 27H24.5C25.8807 27 27 25.8807 27 24.5V7.5C27 6.11929 25.8807 5 24.5 5H7.5ZM16 9C16.5523 9 17 9.44772 17 10V13.5858L19.5356 11.0502C19.9261 10.6597 20.5593 10.6597 20.9498 11.0503C21.3403 11.4408 21.3403 12.074 20.9498 12.4645L18.4142 15L22 15C22.5523 15 23 15.4477 23 16C23 16.5523 22.5523 17 22 17L18.4142 17L20.9498 19.5355C21.3403 19.9261 21.3403 20.5592 20.9498 20.9497C20.5593 21.3403 19.9261 21.3403 19.5356 20.9497L17 18.4142V22C17 22.5523 16.5523 23 16 23C15.4477 23 15 22.5523 15 22V18.4142L12.4645 20.9497C12.074 21.3403 11.4408 21.3403 11.0503 20.9498C10.6598 20.5592 10.6598 19.9261 11.0503 19.5355L13.5858 17L10 17C9.44772 17 9 16.5523 9 16C9 15.4477 9.44771 15 9.99999 15L13.5858 15L11.0503 12.4645C10.6598 12.0739 10.6598 11.4408 11.0503 11.0503C11.4408 10.6597 12.074 10.6597 12.4645 11.0503L15 13.5857V10C15 9.44772 15.4477 9 16 9Z"/>
</svg>
