<svg viewBox="0 0 16 16" xmlns="http://www.w3.org/2000/svg">
<path fill-rule="evenodd" clip-rule="evenodd" d="M2 4.5C2 3.11929 3.11929 2 4.5 2H11.5C12.8807 2 14 3.11929 14 4.5V11.5C14 12.8807 12.8807 14 11.5 14H4.5C3.11929 14 2 12.8807 2 11.5V4.5ZM4.5 3C3.67157 3 3 3.67157 3 4.5V11.5C3 12.3284 3.67157 13 4.5 13H11.5C12.3284 13 13 12.3284 13 11.5V4.5C13 3.67157 12.3284 3 11.5 3H4.5Z"/>
<path fill-rule="evenodd" clip-rule="evenodd" d="M8 4.5C8.27614 4.5 8.5 4.72386 8.5 5V6.79292L9.76779 5.52513C9.96305 5.32986 10.2796 5.32986 10.4749 5.52513C10.6702 5.72039 10.6702 6.03697 10.4749 6.23223L9.20713 7.5H11C11.2761 7.5 11.5 7.72386 11.5 8C11.5 8.27614 11.2761 8.5 11 8.5H9.20713L10.4749 9.76777C10.6702 9.96303 10.6702 10.2796 10.4749 10.4749C10.2796 10.6701 9.96305 10.6701 9.76779 10.4749L8.5 9.20708V11C8.5 11.2761 8.27614 11.5 8 11.5C7.72386 11.5 7.5 11.2761 7.5 11V9.20713L6.23226 10.4749C6.037 10.6701 5.72041 10.6701 5.52515 10.4749C5.32989 10.2796 5.32989 9.96303 5.52515 9.76777L6.79292 8.5H5C4.72386 8.5 4.5 8.27614 4.5 8C4.5 7.72386 4.72386 7.5 5 7.5H6.79292L5.52515 6.23223C5.32989 6.03697 5.32989 5.72039 5.52515 5.52513C5.72041 5.32986 6.037 5.32986 6.23226 5.52513L7.5 6.79287V5C7.5 4.72386 7.72386 4.5 8 4.5Z"/>
</svg>
