<svg viewBox="0 0 24 24" xmlns="http://www.w3.org/2000/svg">
<path fill-rule="evenodd" clip-rule="evenodd" d="M3 6.25C3 4.45507 4.45507 3 6.25 3H17.75C19.5449 3 21 4.45507 21 6.25V17.75C21 19.5449 19.5449 21 17.75 21H6.25C4.45507 21 3 19.5449 3 17.75V6.25ZM6.25 4.5C5.2835 4.5 4.5 5.2835 4.5 6.25V17.75C4.5 18.7165 5.2835 19.5 6.25 19.5H17.75C18.7165 19.5 19.5 18.7165 19.5 17.75V6.25C19.5 5.2835 18.7165 4.5 17.75 4.5H6.25Z"/>
<path fill-rule="evenodd" clip-rule="evenodd" d="M12 7.25C12.4142 7.25 12.75 7.58579 12.75 8V10.1894L14.2981 8.64124C14.591 8.34835 15.0659 8.34835 15.3588 8.64124C15.6517 8.93414 15.6517 9.40901 15.3588 9.7019L13.8107 11.25H16C16.4142 11.25 16.75 11.5858 16.75 12C16.75 12.4142 16.4142 12.75 16 12.75H13.8107L15.3588 14.2981C15.6517 14.591 15.6517 15.0659 15.3588 15.3588C15.0659 15.6516 14.591 15.6516 14.2981 15.3588L12.75 13.8106V16C12.75 16.4142 12.4142 16.75 12 16.75C11.5858 16.75 11.25 16.4142 11.25 16V13.8107L9.70194 15.3588C9.40904 15.6516 8.93417 15.6516 8.64128 15.3588C8.34838 15.0659 8.34838 14.591 8.64128 14.2981L10.1894 12.75H8C7.58579 12.75 7.25 12.4142 7.25 12C7.25 11.5858 7.58579 11.25 8 11.25H10.1894L8.64128 9.7019C8.34838 9.40901 8.34838 8.93414 8.64128 8.64124C8.93417 8.34835 9.40904 8.34835 9.70194 8.64124L11.25 10.1893V8C11.25 7.58579 11.5858 7.25 12 7.25Z"/>
</svg>
