<svg viewBox="0 0 24 24" xmlns="http://www.w3.org/2000/svg">
<path fill-rule="evenodd" clip-rule="evenodd" d="M3.75 3C2.92157 3 2.25 3.67157 2.25 4.5V19.5C2.25 20.3284 2.92157 21 3.75 21H6C6.82843 21 7.5 20.3284 7.5 19.5V4.5C7.5 3.67157 6.82843 3 6 3H3.75ZM6 5C6 4.72386 5.77614 4.5 5.5 4.5H4.25C3.97386 4.5 3.75 4.72386 3.75 5L3.75 19C3.75 19.2761 3.97386 19.5 4.25 19.5H5.5C5.77614 19.5 6 19.2761 6 19V5Z" />
<path fill-rule="evenodd" clip-rule="evenodd" d="M10.875 3C10.0466 3 9.375 3.67157 9.375 4.5V19.5C9.375 20.3284 10.0466 21 10.875 21H13.125C13.9534 21 14.625 20.3284 14.625 19.5V4.5C14.625 3.67157 13.9534 3 13.125 3H10.875ZM13.125 5C13.125 4.72386 12.9011 4.5 12.625 4.5H11.375C11.0989 4.5 10.875 4.72386 10.875 5V19C10.875 19.2761 11.0989 19.5 11.375 19.5H12.625C12.9011 19.5 13.125 19.2761 13.125 19V5Z" />
<path fill-rule="evenodd" clip-rule="evenodd" d="M16.5 4.5C16.5 3.67157 17.1716 3 18 3H20.25C21.0784 3 21.75 3.67157 21.75 4.5V19.5C21.75 20.3284 21.0784 21 20.25 21H18C17.1716 21 16.5 20.3284 16.5 19.5V4.5ZM18 5C18 4.72386 18.2239 4.5 18.5 4.5H19.75C20.0261 4.5 20.25 4.72386 20.25 5V19C20.25 19.2761 20.0261 19.5 19.75 19.5H18.5C18.2239 19.5 18 19.2761 18 19V5Z" />
</svg>
