<svg viewBox="0 0 16 16" xmlns="http://www.w3.org/2000/svg">
<path fill-rule="evenodd" clip-rule="evenodd" d="M6.49999 2C5.67157 2 4.99999 2.67157 4.99999 3.5V10.5C4.99999 11.3284 5.67157 12 6.49999 12H11.5C12.3284 12 13 11.3284 13 10.5V3.5C13 2.67157 12.3284 2 11.5 2H6.49999ZM5.99999 3.5C5.99999 3.22386 6.22385 3 6.49999 3H11.5C11.7761 3 12 3.22386 12 3.5V10.5C12 10.7761 11.7761 11 11.5 11H6.49999C6.22385 11 5.99999 10.7761 5.99999 10.5V3.5ZM3 5.00001C3 4.25973 3.4022 3.61338 4 3.26757V5.00001V9.99999V10.5C4 11.8807 5.11929 13 6.5 13H11L11.0052 13H12.7324C12.3866 13.5978 11.7403 14 11 14H6.5C4.567 14 3 12.433 3 10.5V5.00001Z"/>
</svg>
