<svg viewBox="0 0 24 24" xmlns="http://www.w3.org/2000/svg">
<path fill-rule="evenodd" clip-rule="evenodd" d="M10.409 4.84835L12.3107 6.75H18.75C20.4069 6.75 21.75 8.09315 21.75 9.75V17.25C21.75 18.9069 20.4069 20.25 18.75 20.25H5.25C3.59315 20.25 2.25 18.9069 2.25 17.25V6C2.25 4.75736 3.25736 3.75 4.5 3.75H7.75736C8.75192 3.75 9.70575 4.14509 10.409 4.84835ZM16.5 8.25H15V9.75H16.5V8.25ZM14.25 11.25H15V12H14.25C13.8358 12 13.5 12.3358 13.5 12.75C13.5 13.1642 13.8358 13.5 14.25 13.5H15V15H14.25C13.8358 15 13.5 15.3358 13.5 15.75C13.5 16.1642 13.8358 16.5 14.25 16.5H15V18.75H5.25C4.42157 18.75 3.75 18.0784 3.75 17.25V10.372C3.98458 10.4549 4.23702 10.5 4.5 10.5H8C8.81139 10.5 9.60089 10.2368 10.25 9.75L12.25 8.25H13.5V10.5C13.5 10.9142 13.8358 11.25 14.25 11.25ZM16.5 15V16.5H17.25C17.6642 16.5 18 16.8358 18 17.25C18 17.6642 17.6642 18 17.25 18H16.5V18.75H18.75C19.5784 18.75 20.25 18.0784 20.25 17.25V9.75C20.25 8.92157 19.5784 8.25 18.75 8.25H18V10.5C18 10.9142 17.6642 11.25 17.25 11.25H16.5V13.5H17.25C17.6642 13.5 18 13.8358 18 14.25C18 14.6642 17.6642 15 17.25 15H16.5ZM3.75 6C3.75 5.58579 4.08579 5.25 4.5 5.25H7.75736C8.3541 5.25 8.92639 5.48705 9.34835 5.90901L10.8582 7.41885L9.35 8.55C8.96053 8.8421 8.48683 9 8 9H4.5C4.08579 9 3.75 8.66421 3.75 8.25V6Z" />
</svg>
