<svg viewBox="0 0 24 24" xmlns="http://www.w3.org/2000/svg">
<path d="M10.5 12C10.5 11.5858 10.8358 11.25 11.25 11.25H16.5C16.9142 11.25 17.25 11.5858 17.25 12C17.25 12.4142 16.9142 12.75 16.5 12.75H11.25C10.8358 12.75 10.5 12.4142 10.5 12Z"/>
<path d="M11.25 15C10.8358 15 10.5 15.3358 10.5 15.75C10.5 16.1642 10.8358 16.5 11.25 16.5H16.5C16.9142 16.5 17.25 16.1642 17.25 15.75C17.25 15.3358 16.9142 15 16.5 15H11.25Z"/>
<path d="M9 12C9 12.6213 8.49632 13.125 7.875 13.125C7.25368 13.125 6.75 12.6213 6.75 12C6.75 11.3787 7.25368 10.875 7.875 10.875C8.49632 10.875 9 11.3787 9 12Z" />
<path d="M7.875 16.875C8.49632 16.875 9 16.3713 9 15.75C9 15.1287 8.49632 14.625 7.875 14.625C7.25368 14.625 6.75 15.1287 6.75 15.75C6.75 16.3713 7.25368 16.875 7.875 16.875Z" />
<path fill-rule="evenodd" clip-rule="evenodd" d="M3 6C3 4.34315 4.34315 3 6 3H18C19.6569 3 21 4.34315 21 6V18C21 19.6569 19.6569 21 18 21H6C4.34315 21 3 19.6569 3 18V6ZM6 4.5H18C18.8284 4.5 19.5 5.17157 19.5 6V7.5H4.5V6C4.5 5.17157 5.17157 4.5 6 4.5ZM19.5 9V18C19.5 18.8284 18.8284 19.5 18 19.5H6C5.17157 19.5 4.5 18.8284 4.5 18V9H19.5Z"/>
</svg>
