<svg viewBox="0 0 16 16" xmlns="http://www.w3.org/2000/svg">
<path d="M6.05279 6.97361L6.27639 7.42082H6.27639L6.05279 6.97361ZM7.55279 6.22361L7.32918 5.77639H7.32918L7.55279 6.22361ZM8.44721 6.22361L8.67082 5.77639H8.67082L8.44721 6.22361ZM9.94721 6.97361L9.72361 7.42082L9.94721 6.97361ZM9.94721 10.5264L10.1708 10.9736L10.1708 10.9736L9.94721 10.5264ZM8.44721 11.2764L8.22361 10.8292V10.8292L8.44721 11.2764ZM7.55279 11.2764L7.32918 11.7236H7.32918L7.55279 11.2764ZM6.05279 10.5264L6.27639 10.0792L6.27639 10.0792L6.05279 10.5264ZM7.50001 6.00005C7.50001 6.27619 7.72387 6.50005 8.00001 6.50005C8.27615 6.50005 8.50001 6.27619 8.50001 6.00005H7.50001ZM8.50001 5.00005C8.50001 4.72391 8.27615 4.50005 8.00001 4.50005C7.72387 4.50005 7.50001 4.72391 7.50001 5.00005H8.50001ZM5.95356 10.7535C6.14882 10.5583 6.14881 10.2417 5.95355 10.0464C5.75829 9.85118 5.4417 9.85119 5.24644 10.0465L5.95356 10.7535ZM4.14642 11.1465L3.79287 11.5001L4.49998 12.2072L4.85353 11.8536L4.14642 11.1465ZM10.6429 10.032C10.4397 9.84507 10.1234 9.85824 9.93639 10.0615C9.74942 10.2647 9.76259 10.581 9.9658 10.768L10.6429 10.032ZM11.1614 11.868L11.5294 12.2065L12.2065 11.4706L11.8385 11.1321L11.1614 11.868ZM9 3C9 3.55228 8.55228 4 8 4V5C9.10457 5 10 4.10457 10 3H9ZM8 4C7.44772 4 7 3.55228 7 3H6C6 4.10457 6.89543 5 8 5V4ZM7 3C7 2.44772 7.44772 2 8 2V1C6.89543 1 6 1.89543 6 3H7ZM8 2C8.55228 2 9 2.44772 9 3H10C10 1.89543 9.10457 1 8 1V2ZM14 13C14 13.5523 13.5523 14 13 14V15C14.1046 15 15 14.1046 15 13H14ZM13 14C12.4477 14 12 13.5523 12 13H11C11 14.1046 11.8954 15 13 15V14ZM12 13C12 12.4477 12.4477 12 13 12V11C11.8954 11 11 11.8954 11 13H12ZM13 12C13.5523 12 14 12.4477 14 13H15C15 11.8954 14.1046 11 13 11V12ZM4 13C4 13.5523 3.55228 14 3 14V15C4.10457 15 5 14.1046 5 13H4ZM3 14C2.44772 14 2 13.5523 2 13H1C1 14.1046 1.89543 15 3 15V14ZM2 13C2 12.4477 2.44772 12 3 12V11C1.89543 11 1 11.8954 1 13H2ZM3 12C3.55228 12 4 12.4477 4 13H5C5 11.8954 4.10457 11 3 11V12ZM6.27639 7.42082L7.77639 6.67082L7.32918 5.77639L5.82918 6.52639L6.27639 7.42082ZM8.22361 6.67082L9.72361 7.42082L10.1708 6.52639L8.67082 5.77639L8.22361 6.67082ZM10 7.86803V9.63197H11V7.86803H10ZM9.72361 10.0792L8.22361 10.8292L8.67082 11.7236L10.1708 10.9736L9.72361 10.0792ZM7.77639 10.8292L6.27639 10.0792L5.82918 10.9736L7.32918 11.7236L7.77639 10.8292ZM6 9.63197V7.86803H5V9.63197H6ZM6.27639 10.0792C6.107 9.99448 6 9.82135 6 9.63197H5C5 10.2001 5.321 10.7195 5.82918 10.9736L6.27639 10.0792ZM8.22361 10.8292C8.08284 10.8996 7.91716 10.8996 7.77639 10.8292L7.32918 11.7236C7.75147 11.9348 8.24853 11.9348 8.67082 11.7236L8.22361 10.8292ZM10 9.63197C10 9.82135 9.893 9.99448 9.72361 10.0792L10.1708 10.9736C10.679 10.7195 11 10.2001 11 9.63197H10ZM9.72361 7.42082C9.893 7.50552 10 7.67865 10 7.86803H11C11 7.29988 10.679 6.78048 10.1708 6.52639L9.72361 7.42082ZM7.77639 6.67082C7.91716 6.60044 8.08284 6.60044 8.22361 6.67082L8.67082 5.77639C8.24853 5.56525 7.75147 5.56525 7.32918 5.77639L7.77639 6.67082ZM5.82918 6.52639C5.321 6.78048 5 7.29988 5 7.86803H6C6 7.67865 6.107 7.50552 6.27639 7.42082L5.82918 6.52639ZM8.50001 6.00005V5.00005H7.50001V6.00005H8.50001ZM5.24644 10.0465L4.14642 11.1465L4.85353 11.8536L5.95356 10.7535L5.24644 10.0465ZM9.9658 10.768L11.1614 11.868L11.8385 11.1321L10.6429 10.032L9.9658 10.768Z" />
</svg>
