<svg viewBox="0 0 32 32" xmlns="http://www.w3.org/2000/svg">
<path d="M16 10C17.6569 10 19 8.65685 19 7C19 5.34315 17.6569 4 16 4C14.3431 4 13 5.34315 13 7C13 8.65685 14.3431 10 16 10ZM16 10V12.5M11 21L9 22.5M21 21L23 22.5M10 25C10 26.6569 8.65685 28 7 28C5.34315 28 4 26.6569 4 25C4 23.3431 5.34315 22 7 22C8.65685 22 10 23.3431 10 25ZM28 25C28 26.6569 26.6569 28 25 28C23.3431 28 22 26.6569 22 25C22 23.3431 23.3431 22 25 22C26.6569 22 28 23.3431 28 25ZM11.8292 14.5854L15.3292 12.8354C15.7515 12.6243 16.2485 12.6243 16.6708 12.8354L20.1708 14.5854C20.679 14.8395 21 15.3589 21 15.9271V20.0729C21 20.6411 20.679 21.1605 20.1708 21.4146L16.6708 23.1646C16.2485 23.3757 15.7515 23.3757 15.3292 23.1646L11.8292 21.4146C11.321 21.1605 11 20.6411 11 20.0729V15.9271C11 15.3589 11.321 14.8395 11.8292 14.5854Z" stroke="#666666" stroke-width="2" stroke-linecap="round"/>
</svg>
