<svg width="20" height="20" viewBox="0 0 20 20" fill="none" xmlns="http://www.w3.org/2000/svg">
<path d="M10 6.5C11.1046 6.5 12 5.60457 12 4.5C12 3.39543 11.1046 2.5 10 2.5C8.89543 2.5 8 3.39543 8 4.5C8 5.60457 8.89543 6.5 10 6.5ZM10 6.5V8M7 13L6 14M13 13L14 14M6.5 15.5C6.5 16.6046 5.60457 17.5 4.5 17.5C3.39543 17.5 2.5 16.6046 2.5 15.5C2.5 14.3954 3.39543 13.5 4.5 13.5C5.60457 13.5 6.5 14.3954 6.5 15.5ZM17.5 15.5C17.5 16.6046 16.6046 17.5 15.5 17.5C14.3954 17.5 13.5 16.6046 13.5 15.5C13.5 14.3954 14.3954 13.5 15.5 13.5C16.6046 13.5 17.5 14.3954 17.5 15.5ZM7.55823 9.11901L9.55823 8.13416C9.83677 7.997 10.1632 7.997 10.4418 8.13416L12.4418 9.11901C12.7835 9.28731 13 9.63518 13 10.0161V12.3171C13 12.6981 12.7835 13.0459 12.4418 13.2142L10.4418 14.1991C10.1632 14.3362 9.83677 14.3363 9.55823 14.1991L7.55823 13.2142C7.21646 13.0459 7 12.6981 7 12.3171V10.0161C7 9.63518 7.21646 9.28731 7.55823 9.11901Z" stroke="#666666" stroke-linecap="round"/>
</svg>
