<svg viewBox="0 0 32 32" xmlns="http://www.w3.org/2000/svg">
<path fill-rule="evenodd" clip-rule="evenodd" d="M3 4C3 3.44772 3.44772 3 4 3H28C28.5523 3 29 3.44772 29 4C29 4.55228 28.5523 5 28 5H4C3.44772 5 3 4.55228 3 4ZM5 10C5 8.34315 6.34315 7 8 7H12C13.6569 7 15 8.34315 15 10V26C15 27.6569 13.6569 29 12 29H8C6.34315 29 5 27.6569 5 26V10ZM8 9C7.44772 9 7 9.44772 7 10V26C7 26.5523 7.44772 27 8 27H12C12.5523 27 13 26.5523 13 26V10C13 9.44772 12.5523 9 12 9H8ZM17 10C17 8.34315 18.3431 7 20 7H24C25.6569 7 27 8.34315 27 10V20C27 21.6569 25.6569 23 24 23H20C18.3431 23 17 21.6569 17 20V10ZM20 9C19.4477 9 19 9.44772 19 10V20C19 20.5523 19.4477 21 20 21H24C24.5523 21 25 20.5523 25 20V10C25 9.44772 24.5523 9 24 9H20Z"/>
</svg>
