<svg   viewBox="0 0 24 24"   xmlns="http://www.w3.org/2000/svg">
<path d="M18.25 10.75V15.0683L19.75 16.5683V10.75C19.75 8.69457 18.9335 6.72333 17.4801 5.26992C16.2045 3.99437 14.5301 3.20937 12.75 3.03635V2.75C12.75 2.33579 12.4142 2 12 2C11.5858 2 11.25 2.33579 11.25 2.75V3.03635C9.92503 3.16513 8.65863 3.63295 7.57168 4.38974L8.65338 5.47146C9.64645 4.84189 10.8056 4.5 12 4.5C13.6576 4.5 15.2473 5.15848 16.4194 6.33058C17.5915 7.50269 18.25 9.0924 18.25 10.75Z"  />
<path fill-rule="evenodd" clip-rule="evenodd" d="M5.48772 6.54844C4.68593 7.79124 4.25 9.24814 4.25 10.75V18H3.75C3.33579 18 3 18.3358 3 18.75C3 19.1642 3.33579 19.5 3.75 19.5H9.09526C9.19855 19.9 9.38348 20.2749 9.63891 20.6007C9.91993 20.9593 10.2789 21.2491 10.6886 21.4482C11.0983 21.6473 11.548 21.7505 12.0035 21.75C12.4591 21.7495 12.9085 21.6452 13.3177 21.4451C13.727 21.245 14.0852 20.9544 14.3654 20.5952C14.6186 20.2706 14.802 19.8977 14.9047 19.5H18.439L20.7194 21.7805C21.0123 22.0734 21.4872 22.0734 21.7801 21.7805C22.073 21.4876 22.073 21.0127 21.7801 20.7198L3.28034 2.21968C2.98745 1.92678 2.51257 1.92677 2.21968 2.21966C1.92678 2.51255 1.92677 2.98743 2.21966 3.28032L5.48772 6.54844ZM6.5789 7.63964L16.939 18H5.75V10.75C5.75 9.64912 6.04044 8.57819 6.5789 7.63964ZM10.701 19.5C10.7362 19.561 10.7758 19.6196 10.8195 19.6754C10.96 19.8546 11.1395 19.9995 11.3443 20.0991C11.5492 20.1987 11.774 20.2503 12.0018 20.25C12.2295 20.2497 12.4542 20.1976 12.6589 20.0976C12.8635 19.9975 13.0426 19.8522 13.1827 19.6726C13.2256 19.6177 13.2644 19.56 13.299 19.5H10.701Z"  />
</svg>
