<svg viewBox="0 0 20 20"   xmlns="http://www.w3.org/2000/svg">
<path d="M15 9V12.8787L16 13.8787V9C16 7.4087 15.3679 5.88258 14.2426 4.75736C13.2359 3.7506 11.9082 3.13856 10.5 3.02085V2.5C10.5 2.22386 10.2761 2 10 2C9.72386 2 9.5 2.22386 9.5 2.5V3.02085C8.35556 3.11651 7.26428 3.53868 6.35522 4.23388L7.06986 4.94852C7.917 4.33584 8.94119 4 10 4C11.3261 4 12.5979 4.52678 13.5355 5.46447C14.4732 6.40215 15 7.67392 15 9Z"  />
<path fill-rule="evenodd" clip-rule="evenodd" d="M4.99054 5.69764C4.34921 6.67052 4 7.81726 4 9V15H3.5C3.22386 15 3 15.2239 3 15.5C3 15.7761 3.22386 16 3.5 16H7.55051C7.58235 16.156 7.62909 16.3089 7.6903 16.4567C7.81594 16.76 8.00009 17.0356 8.23223 17.2678C8.46438 17.4999 8.73998 17.6841 9.04329 17.8097C9.34661 17.9353 9.6717 18 10 18C10.3283 18 10.6534 17.9353 10.9567 17.8097C11.26 17.6841 11.5356 17.4999 11.7678 17.2678C11.9999 17.0356 12.1841 16.76 12.3097 16.4567C12.3709 16.3089 12.4177 16.156 12.4495 16H15.2929L17.1464 17.8536C17.3417 18.0488 17.6583 18.0488 17.8536 17.8536C18.0488 17.6583 18.0488 17.3417 17.8536 17.1464L2.85355 2.14645C2.65829 1.95118 2.34171 1.95118 2.14645 2.14645C1.95118 2.34171 1.95118 2.65829 2.14645 2.85355L4.99054 5.69764ZM5.71548 6.42259L14.2929 15H5V9C5 8.08425 5.25121 7.1944 5.71548 6.42259ZM8.61418 16.074C8.60405 16.0496 8.59459 16.0249 8.58579 16H11.4142C11.4054 16.0249 11.3959 16.0496 11.3858 16.074C11.3104 16.256 11.1999 16.4214 11.0607 16.5607C10.9214 16.6999 10.756 16.8104 10.574 16.8858C10.392 16.9612 10.197 17 10 17C9.80302 17 9.60796 16.9612 9.42597 16.8858C9.24399 16.8104 9.07863 16.6999 8.93934 16.5607C8.80005 16.4214 8.68956 16.256 8.61418 16.074Z"  />
</svg>
