<svg viewBox="0 0 20 20"   xmlns="http://www.w3.org/2000/svg">
<path fill-rule="evenodd" clip-rule="evenodd" d="M6.14645 3.14645C6.34171 2.95118 6.65829 2.95118 6.85355 3.14645L10.3536 6.64645C10.5488 6.84171 10.5488 7.15829 10.3536 7.35355C10.1583 7.54882 9.84171 7.54882 9.64645 7.35355L7 4.70711V16.5C7 16.7761 6.77614 17 6.5 17C6.22386 17 6 16.7761 6 16.5V4.70711L3.35355 7.35355C3.15829 7.54882 2.84171 7.54882 2.64645 7.35355C2.45118 7.15829 2.45118 6.84171 2.64645 6.64645L6.14645 3.14645Z"  />
<path fill-rule="evenodd" clip-rule="evenodd" d="M9 15.5C9 15.2239 9.22386 15 9.5 15H16.5C16.7761 15 17 15.2239 17 15.5C17 15.7761 16.7761 16 16.5 16H9.5C9.22386 16 9 15.7761 9 15.5Z"  />
<path fill-rule="evenodd" clip-rule="evenodd" d="M9 12.5C9 12.2239 9.22386 12 9.5 12H14.5C14.7761 12 15 12.2239 15 12.5C15 12.7761 14.7761 13 14.5 13H9.5C9.22386 13 9 12.7761 9 12.5Z"  />
<path fill-rule="evenodd" clip-rule="evenodd" d="M9 9.5C9 9.22386 9.22386 9 9.5 9H11.5C11.7761 9 12 9.22386 12 9.5C12 9.77614 11.7761 10 11.5 10H9.5C9.22386 10 9 9.77614 9 9.5Z"  />
</svg>
