<svg   viewBox="0 0 24 24"   xmlns="http://www.w3.org/2000/svg">
<path fill-rule="evenodd" clip-rule="evenodd" d="M7.71967 4.21967C8.01256 3.92678 8.48744 3.92678 8.78033 4.21967L13.2803 8.71967C13.5732 9.01256 13.5732 9.48744 13.2803 9.78033C12.9874 10.0732 12.5126 10.0732 12.2197 9.78033L9 6.56066V19.25C9 19.6642 8.66421 20 8.25 20C7.83579 20 7.5 19.6642 7.5 19.25V6.56066L4.28033 9.78033C3.98744 10.0732 3.51256 10.0732 3.21967 9.78033C2.92678 9.48744 2.92678 9.01256 3.21967 8.71967L7.71967 4.21967ZM11.5 12.75C11.5 12.3358 11.8358 12 12.25 12H15.25C15.6642 12 16 12.3358 16 12.75C16 13.1642 15.6642 13.5 15.25 13.5H12.25C11.8358 13.5 11.5 13.1642 11.5 12.75ZM11.5 15.75C11.5 15.3358 11.8358 15 12.25 15H17.25C17.6642 15 18 15.3358 18 15.75C18 16.1642 17.6642 16.5 17.25 16.5H12.25C11.8358 16.5 11.5 16.1642 11.5 15.75ZM11.5 18.75C11.5 18.3358 11.8358 18 12.25 18H20.22C20.6342 18 20.97 18.3358 20.97 18.75C20.97 19.1642 20.6342 19.5 20.22 19.5H12.25C11.8358 19.5 11.5 19.1642 11.5 18.75Z"  />
</svg>
