<svg viewBox="0 0 32 32" xmlns="http://www.w3.org/2000/svg">
<path fill-rule="evenodd" clip-rule="evenodd" d="M26.9552 8H27V24.5C27 25.2215 26.7161 25.9368 26.1627 26.6048C25.6099 27.272 24.7997 27.8783 23.7782 28.3891C22.7567 28.8998 21.5441 29.3049 20.2095 29.5813C18.8749 29.8577 17.4445 30 16 30C14.5555 30 13.1251 29.8577 11.7905 29.5813C10.4559 29.3049 9.24327 28.8998 8.22182 28.3891C7.20034 27.8783 6.3901 27.272 5.83732 26.6048C5.28393 25.9368 5 25.2215 5 24.5V7.5C5 4.46243 9.92487 2 16 2C22.0751 2 27 4.46243 27 7.5C27 7.66854 26.9848 7.83532 26.9552 8ZM22.8837 9.60023C24.6617 8.71123 25 7.85313 25 7.5C25 7.14687 24.6617 6.28877 22.8837 5.39977C21.2254 4.57058 18.7944 4 16 4C13.2056 4 10.7746 4.57058 9.11625 5.39977C7.33825 6.28877 7 7.14687 7 7.5C7 7.85313 7.33825 8.71123 9.11625 9.60023C10.7746 10.4294 13.2056 11 16 11C18.7944 11 21.2254 10.4294 22.8837 9.60023ZM7 10.6631V24.5C7 24.6687 7.06065 24.9464 7.37748 25.3289C7.70625 25.7257 8.26815 26.1762 9.11625 26.6002C9.95634 27.0203 10.9995 27.3751 12.1961 27.6229C13.3895 27.8701 14.6836 28 16 28C17.3164 28 18.6105 27.8701 19.8039 27.6229C21.0005 27.3751 22.0437 27.0203 22.8837 26.6002C23.7318 26.1762 24.2937 25.7257 24.6225 25.3289C24.9394 24.9464 25 24.6687 25 24.5V10.6631C23.0093 12.0766 19.7203 13 16 13C12.2797 13 8.99073 12.0766 7 10.6631Z" />
</svg>
