<svg width="24" height="24" viewBox="0 0 24 24" xmlns="http://www.w3.org/2000/svg">
<path d="M8.25 6.75C7.83579 6.75 7.5 7.08579 7.5 7.5C7.5 7.91421 7.83579 8.25 8.25 8.25H15.75C16.1642 8.25 16.5 7.91421 16.5 7.5C16.5 7.08579 16.1642 6.75 15.75 6.75H8.25Z"/>
<path d="M7.5 12C7.5 11.5858 7.83579 11.25 8.25 11.25H15.75C16.1642 11.25 16.5 11.5858 16.5 12C16.5 12.4142 16.1642 12.75 15.75 12.75H8.25C7.83579 12.75 7.5 12.4142 7.5 12Z" />
<path d="M8.25 15.75C7.83579 15.75 7.5 16.0858 7.5 16.5C7.5 16.9142 7.83579 17.25 8.25 17.25H15.75C16.1642 17.25 16.5 16.9142 16.5 16.5C16.5 16.0858 16.1642 15.75 15.75 15.75H8.25Z" />
<path fill-rule="evenodd" clip-rule="evenodd" d="M3.75 5.25C3.75 3.59315 5.09315 2.25 6.75 2.25H17.25C18.9069 2.25 20.25 3.59315 20.25 5.25V18.75C20.25 20.4069 18.9069 21.75 17.25 21.75H6.75C5.09315 21.75 3.75 20.4069 3.75 18.75V5.25ZM6.75 3.75H17.25C18.0784 3.75 18.75 4.42157 18.75 5.25V18.75C18.75 19.5784 18.0784 20.25 17.25 20.25H6.75C5.92157 20.25 5.25 19.5784 5.25 18.75V5.25C5.25 4.42157 5.92157 3.75 6.75 3.75Z"/>
</svg>
