<svg width="24" height="24" viewBox="0 0 24 24" xmlns="http://www.w3.org/2000/svg">
<path fill-rule="evenodd" clip-rule="evenodd" d="M20.25 5.25V18C20.25 18.8284 19.5784 19.5 18.75 19.5H5.45067C5.71003 19.9484 6.19479 20.25 6.75 20.25H19.5C19.9142 20.25 20.25 20.5858 20.25 21C20.25 21.4142 19.9142 21.75 19.5 21.75H6.75C5.35212 21.75 4.17755 20.7939 3.84451 19.5C3.78281 19.2603 3.75 19.009 3.75 18.75V5.25C3.75 3.59315 5.09315 2.25 6.75 2.25H17.25C18.9069 2.25 20.25 3.59315 20.25 5.25ZM6.75 3.75H17.25C18.0784 3.75 18.75 4.42157 18.75 5.25V18H5.25V5.25C5.25 4.42157 5.92157 3.75 6.75 3.75Z"/>
</svg>
