<svg viewBox="0 0 24 24" xmlns="http://www.w3.org/2000/svg">
<path fill-rule="evenodd" clip-rule="evenodd" d="M7.62803 3.75C7.93691 2.87611 8.77034 2.25 9.75 2.25H14.25C15.2297 2.25 16.0631 2.87611 16.372 3.75H17.25C18.9069 3.75 20.25 5.09315 20.25 6.75V18.75C20.25 20.4069 18.9069 21.75 17.25 21.75H6.75C5.09315 21.75 3.75 20.4069 3.75 18.75V6.75C3.75 5.09315 5.09315 3.75 6.75 3.75H7.62803ZM9.75 3.75H14.25C14.6642 3.75 15 4.08579 15 4.5C15 4.91421 14.6642 5.25 14.25 5.25H9.75C9.33579 5.25 9 4.91421 9 4.5C9 4.08579 9.33579 3.75 9.75 3.75ZM7.62803 5.25H6.75C5.92157 5.25 5.25 5.92157 5.25 6.75V18.75C5.25 19.5784 5.92157 20.25 6.75 20.25H17.25C18.0784 20.25 18.75 19.5784 18.75 18.75V6.75C18.75 5.92157 18.0784 5.25 17.25 5.25H16.372C16.0631 6.12389 15.2297 6.75 14.25 6.75H9.75C8.77034 6.75 7.93691 6.12389 7.62803 5.25Z" />
</svg>
