<svg width="24" height="24" viewBox="0 0 24 24" xmlns="http://www.w3.org/2000/svg">
<path d="M21.5694 4.23811C21.839 3.92361 21.8026 3.45014 21.4881 3.18057C21.1736 2.911 20.7001 2.94743 20.4306 3.26192L11.9119 13.2003L7.98014 9.92385C7.66193 9.65868 7.18901 9.70167 6.92384 10.0199C6.65866 10.3381 6.70166 10.811 7.01986 11.0762L11.5199 14.8262C11.835 15.0888 12.3025 15.0495 12.5694 14.7381L21.5694 4.23811Z" />
<path d="M6 5.25001H16.7509L17.9634 3.83536C17.7348 3.77958 17.4958 3.75001 17.25 3.75001H6C4.34315 3.75001 3 5.09316 3 6.75001V18C3 19.6569 4.34315 21 6 21H17.25C18.9069 21 20.25 19.6569 20.25 18V8.08235L18.75 9.83235V18C18.75 18.8284 18.0784 19.5 17.25 19.5H6C5.17157 19.5 4.5 18.8284 4.5 18V6.75001C4.5 5.92159 5.17157 5.25001 6 5.25001Z" />
</svg>
