<svg width="24" height="24" viewBox="0 0 24 24" xmlns="http://www.w3.org/2000/svg">
<path d="M7.75 6.75C7.19772 6.75 6.75 7.19772 6.75 7.75V16.25C6.75 16.8023 7.19772 17.25 7.75 17.25H16.25C16.8023 17.25 17.25 16.8023 17.25 16.25V7.75C17.25 7.19772 16.8023 6.75 16.25 6.75H7.75Z" />
<path fill-rule="evenodd" clip-rule="evenodd" d="M3 6C3 4.34315 4.34315 3 6 3H18C19.6569 3 21 4.34315 21 6V18C21 19.6569 19.6569 21 18 21H6C4.34315 21 3 19.6569 3 18V6ZM6 4.5H18C18.8284 4.5 19.5 5.17157 19.5 6V18C19.5 18.8284 18.8284 19.5 18 19.5H6C5.17157 19.5 4.5 18.8284 4.5 18V6C4.5 5.17157 5.17157 4.5 6 4.5Z" />
</svg>
