<svg width="24" height="24" viewBox="0 0 24 24" xmlns="http://www.w3.org/2000/svg">
<path fill-rule="evenodd" clip-rule="evenodd" d="M18.3726 17.25C19.4296 17.2506 20.4467 16.8454 21.2137 16.1179C21.9821 15.3891 22.4408 14.3926 22.4947 13.3349C22.5486 12.2772 22.1936 11.2393 21.5032 10.4362C20.9431 9.78446 20.1969 9.32783 19.3724 9.12239C19.0688 7.49723 18.2352 6.01258 16.9948 4.90522C15.6276 3.68462 13.8608 3.0069 12.028 3.00005C10.1953 2.9932 8.42342 3.65769 7.04713 4.86803C5.7844 5.9785 4.93484 7.47793 4.6276 9.12239C3.80135 9.32827 3.05389 9.78637 2.49342 10.4401C1.80508 11.2429 1.45138 12.2795 1.50539 13.3357C1.5594 14.3918 2.01699 15.3869 2.78365 16.1154C3.5503 16.8438 4.56746 17.25 5.625 17.25H7.50001V19.5C7.50001 20.3284 8.17158 21 9.00001 21H15C15.8284 21 16.5 20.3284 16.5 19.5V17.25H18.3726ZM15 15.75H12.75C12.3358 15.75 12 16.0858 12 16.5C12 16.9142 12.3358 17.25 12.75 17.25H15V19.125C15 19.3321 14.8321 19.5 14.625 19.5H9.37501C9.1679 19.5 9.00001 19.3321 9.00001 19.125V13.875C9.00001 13.6679 9.1679 13.5 9.37501 13.5H14.625C14.8321 13.5 15 13.6679 15 13.875V15.75ZM16.5 15.75H18.3651L18.3699 15.75C19.0438 15.7513 19.6925 15.4934 20.1815 15.0296C20.6704 14.5658 20.9623 13.9317 20.9966 13.2586C21.0309 12.5855 20.805 11.925 20.3657 11.4139C19.9264 10.9028 19.3073 10.5803 18.6367 10.5131C18.2754 10.4769 17.9998 10.1899 17.9651 9.84195C17.9627 9.82813 17.9607 9.81415 17.959 9.80004C17.788 8.34383 17.0896 7.00065 15.9959 6.02417C14.9021 5.0477 13.4886 4.50552 12.0224 4.50004C10.5562 4.49456 9.13874 5.02615 8.03771 5.99443C6.93667 6.9627 6.2283 8.30062 6.04637 9.75552C6.04172 9.79274 6.03441 9.82898 6.02466 9.86408C5.98118 10.2017 5.71046 10.4775 5.35723 10.5137C4.68776 10.5823 4.07022 10.9055 3.63218 11.4164C3.19414 11.9273 2.96906 12.587 3.00343 13.2591C3.0378 13.9312 3.329 14.5644 3.81687 15.028C4.30474 15.4915 4.95202 15.75 5.625 15.75H7.50001V13.5C7.50001 12.6716 8.17158 12 9.00001 12H15C15.8284 12 16.5 12.6716 16.5 13.5V15.75Z" />
</svg>
