<svg width="24" height="24" viewBox="0 0 24 24" xmlns="http://www.w3.org/2000/svg">
<path d="M8.25782 9.66681C8.69716 10.1062 8.69716 10.8185 8.25782 11.2578C7.81848 11.6971 7.10617 11.6971 6.66683 11.2578C6.22749 10.8185 6.22749 10.1062 6.66683 9.66681C7.10617 9.22747 7.81848 9.22747 8.25782 9.66681Z" />
<path d="M13.5611 10.7275C14.0005 11.1668 14.0005 11.8791 13.5611 12.3185C13.1218 12.7578 12.4095 12.7578 11.9701 12.3185C11.5308 11.8791 11.5308 11.1668 11.9701 10.7275C12.4095 10.2881 13.1218 10.2881 13.5611 10.7275Z" />
<path d="M14.6218 17.6218C15.0611 17.1824 15.0611 16.4701 14.6218 16.0308C14.1824 15.5914 13.4701 15.5914 13.0308 16.0308C12.5914 16.4701 12.5914 17.1824 13.0308 17.6218C13.4701 18.0611 14.1824 18.0611 14.6218 17.6218Z" />
<path d="M9.31848 14.9701C9.75782 15.4095 9.75782 16.1218 9.31848 16.5611C8.87914 17.0004 8.16683 17.0004 7.72749 16.5611C7.28815 16.1218 7.28815 15.4095 7.72749 14.9701C8.16683 14.5308 8.87914 14.5308 9.31848 14.9701Z" />
<path fill-rule="evenodd" clip-rule="evenodd" d="M20.9295 10.6486C20.7068 10.6636 20.5133 10.7743 20.3866 10.938C20.3513 10.9638 20.3178 10.993 20.2865 11.0257C20.0496 11.2732 19.7082 11.4387 19.2859 11.4724C18.8596 11.5065 18.3754 11.4027 17.908 11.1479C17.4411 10.8933 17.0343 10.5113 16.7497 10.0594C16.4648 9.60702 16.3284 9.12678 16.3336 8.69447C16.3338 8.67977 16.3336 8.66515 16.3329 8.65064C16.3331 8.64514 16.3332 8.63963 16.3333 8.6341C16.3333 8.63107 16.3333 8.62804 16.3333 8.62501C16.3333 8.21079 15.9976 7.87501 15.5833 7.87501C15.197 7.87501 14.8108 7.74818 14.472 7.49737C14.1319 7.24559 13.8529 6.87781 13.6815 6.43026C13.5101 5.9825 13.4579 5.48364 13.5343 4.99812C13.6108 4.51263 13.8107 4.07285 14.0987 3.73014C14.1254 3.69844 14.1489 3.66519 14.1695 3.63073C14.2532 3.53297 14.3129 3.41235 14.3374 3.27653C14.411 2.8689 14.1402 2.47879 13.7326 2.40519C11.7344 2.04436 9.67343 2.31639 7.83729 3.1833C6.00115 4.05022 4.48148 5.46876 3.49038 7.24095C2.49927 9.01314 2.08618 11.0505 2.30877 13.0688C2.53135 15.0871 3.3785 16.9855 4.73198 18.4991C6.08546 20.0127 7.87774 21.066 9.85867 21.512C11.8396 21.9579 13.9103 21.7743 15.7819 20.9867C17.6534 20.1991 19.2323 18.8468 20.2983 17.1186C21.3643 15.3905 21.8642 13.3726 21.7281 11.3466C21.7003 10.9334 21.3428 10.6208 20.9295 10.6486ZM12.3421 3.75709C11.0152 3.70203 9.68867 3.96798 8.47771 4.53972C6.92405 5.27326 5.63818 6.47357 4.79955 7.97311C3.96092 9.47265 3.61139 11.1966 3.79973 12.9044C3.98807 14.6121 4.70489 16.2185 5.85014 17.4992C6.99539 18.78 8.51194 19.6712 10.1881 20.0486C11.8643 20.4259 13.6164 20.2705 15.2 19.6041C16.7836 18.9377 18.1197 17.7935 19.0217 16.3312C19.6852 15.2554 20.0895 14.0469 20.2111 12.8007C19.9546 12.8894 19.684 12.9454 19.4054 12.9677C18.6549 13.0277 17.8821 12.8421 17.1901 12.4649C16.4976 12.0874 15.9012 11.5269 15.4804 10.8587C15.1758 10.3749 14.9683 9.84227 14.8806 9.29873C14.4146 9.19653 13.9722 8.99369 13.5795 8.70293C12.9946 8.26993 12.5474 7.66308 12.2807 6.96658C12.0141 6.27029 11.9359 5.50581 12.0526 4.76477C12.1075 4.41584 12.205 4.07686 12.3421 3.75709Z"/>
</svg>
