<svg width="24" height="24" viewBox="0 0 24 24"  xmlns="http://www.w3.org/2000/svg">
<path fill-rule="evenodd" clip-rule="evenodd" d="M13.3946 3.2635C13.5427 2.87667 13.3492 2.44302 12.9624 2.29491C12.841 2.24841 12.7149 2.23558 12.5945 2.25183C12.5828 2.25152 12.571 2.25147 12.5592 2.25171C10.8903 2.28437 9.25769 2.74497 7.81779 3.58938C6.37789 4.43379 5.17889 5.63374 4.33563 7.07431C3.49236 8.51488 3.03306 10.1478 3.00172 11.8168C2.97038 13.4857 3.36804 15.1347 4.15662 16.606C4.9452 18.0772 6.0983 19.3213 7.50548 20.2192C8.91265 21.1171 10.5268 21.6386 12.1933 21.7339C13.8598 21.8292 15.5229 21.4951 17.0232 20.7635C18.5236 20.0319 19.811 18.9274 20.7622 17.5556C20.8005 17.5005 20.8303 17.4419 20.852 17.3816C20.892 17.3147 20.9221 17.2405 20.94 17.1604C21.0304 16.7561 20.776 16.3551 20.3718 16.2647C19.0056 15.9592 17.7212 15.3629 16.606 14.5167C15.4908 13.6704 14.5709 12.5938 13.9089 11.3603C13.2469 10.1267 12.8584 8.76507 12.7696 7.36792C12.6809 5.97078 12.894 4.5709 13.3946 3.2635ZM18.9618 17.429C17.7897 17.0406 16.687 16.4611 15.6992 15.7115C14.4125 14.7351 13.3511 13.4929 12.5872 12.0696C11.8234 10.6462 11.375 9.07511 11.2726 7.46302C11.1947 6.23612 11.3185 5.00741 11.6368 3.82529C10.56 3.97193 9.51945 4.33037 8.57659 4.8833C7.35821 5.5978 6.34368 6.61314 5.63015 7.83208C4.91661 9.05103 4.52798 10.4327 4.50145 11.8449C4.47493 13.2571 4.81142 14.6524 5.47868 15.8973C6.14594 17.1422 7.12164 18.1949 8.31233 18.9547C9.50302 19.7144 10.8688 20.1557 12.2789 20.2364C13.6891 20.317 15.0963 20.0343 16.3658 19.4152C17.3578 18.9316 18.2397 18.2553 18.9618 17.429Z" />
</svg>
