<svg width="24" height="24" viewBox="0 0 24 24" xmlns="http://www.w3.org/2000/svg">
<path d="M11.2419 12.2607C11.0969 12.6079 11.0244 13.0737 11.0244 13.6582H12.5208C12.5295 13.0254 12.679 12.5442 12.969 12.2146L13.7798 11.417C14.4478 10.7227 14.7817 10.0173 14.7817 9.30103C14.7817 8.49683 14.5334 7.87061 14.0369 7.42236C13.5447 6.97412 12.8569 6.75 11.9736 6.75C11.1167 6.75 10.4268 6.97632 9.90381 7.42896C9.38525 7.88159 9.12158 8.49683 9.11279 9.27466H10.7146C10.7146 8.90991 10.8289 8.62207 11.0574 8.41113C11.2903 8.1958 11.5957 8.08813 11.9736 8.08813C12.3691 8.08813 12.668 8.198 12.8701 8.41772C13.0767 8.63306 13.1799 8.94727 13.1799 9.36035C13.1799 9.67236 13.092 9.9624 12.9163 10.2305C12.802 10.4062 12.5295 10.7029 12.0989 11.1204C11.6726 11.5334 11.387 11.9136 11.2419 12.2607Z" />
<path d="M11.1562 15.082C10.9937 15.2402 10.9124 15.449 10.9124 15.7083C10.9124 15.95 10.9893 16.1521 11.1431 16.3147C11.3013 16.4773 11.5254 16.5586 11.8154 16.5586C12.1055 16.5586 12.3296 16.4773 12.4878 16.3147C12.646 16.1521 12.7251 15.95 12.7251 15.7083C12.7251 15.4578 12.6438 15.2512 12.4812 15.0886C12.3186 14.9216 12.0967 14.8381 11.8154 14.8381C11.5386 14.8381 11.3188 14.9194 11.1562 15.082Z"/>
<path fill-rule="evenodd" clip-rule="evenodd" d="M3 5.25C3 3.59315 4.34315 2.25 6 2.25H18C19.6569 2.25 21 3.59315 21 5.25V18.75C21 20.4069 19.6569 21.75 18 21.75H6C4.34315 21.75 3 20.4069 3 18.75V5.25ZM6 3.75H18C18.8284 3.75 19.5 4.42157 19.5 5.25V18.75C19.5 19.5784 18.8284 20.25 18 20.25H6C5.17157 20.25 4.5 19.5784 4.5 18.75V5.25C4.5 4.42157 5.17157 3.75 6 3.75Z"/>
</svg>
