<svg width="24" height="24" viewBox="0 0 24 24" xmlns="http://www.w3.org/2000/svg">
<path d="M2.25 4.5C2.25 4.08579 2.58579 3.75 3 3.75H9C9.41421 3.75 9.75 4.08579 9.75 4.5V6C9.75 6.41421 9.41421 6.75 9 6.75C8.58579 6.75 8.25 6.41421 8.25 6V5.25H6.75V11.25H7.5C7.91421 11.25 8.25 11.5858 8.25 12C8.25 12.4142 7.91421 12.75 7.5 12.75H4.5C4.08579 12.75 3.75 12.4142 3.75 12C3.75 11.5858 4.08579 11.25 4.5 11.25H5.25V5.25H3.75V6C3.75 6.41421 3.41421 6.75 3 6.75C2.58579 6.75 2.25 6.41421 2.25 6V4.5Z" />
<path d="M12 3.75C11.5858 3.75 11.25 4.08579 11.25 4.5C11.25 4.91421 11.5858 5.25 12 5.25H21C21.4142 5.25 21.75 4.91421 21.75 4.5C21.75 4.08579 21.4142 3.75 21 3.75H12Z" />
<path d="M11.25 8.25C11.25 7.83579 11.5858 7.5 12 7.5H21C21.4142 7.5 21.75 7.83579 21.75 8.25C21.75 8.66421 21.4142 9 21 9H12C11.5858 9 11.25 8.66421 11.25 8.25Z" />
<path d="M12 11.25C11.5858 11.25 11.25 11.5858 11.25 12C11.25 12.4142 11.5858 12.75 12 12.75H21C21.4142 12.75 21.75 12.4142 21.75 12C21.75 11.5858 21.4142 11.25 21 11.25H12Z" />
<path d="M2.25 15.75C2.25 15.3358 2.58579 15 3 15H21C21.4142 15 21.75 15.3358 21.75 15.75C21.75 16.1642 21.4142 16.5 21 16.5H3C2.58579 16.5 2.25 16.1642 2.25 15.75Z" />
<path d="M3 18.75C2.58579 18.75 2.25 19.0858 2.25 19.5C2.25 19.9142 2.58579 20.25 3 20.25H21C21.4142 20.25 21.75 19.9142 21.75 19.5C21.75 19.0858 21.4142 18.75 21 18.75H3Z" />
</svg>
