<svg width="24" height="24" viewBox="0 0 24 24" xmlns="http://www.w3.org/2000/svg">
<path d="M9.75 6.75C9.75 6.33579 10.0858 6 10.5 6H15.75C16.1642 6 16.5 6.33579 16.5 6.75C16.5 7.16421 16.1642 7.5 15.75 7.5H10.5C10.0858 7.5 9.75 7.16421 9.75 6.75Z" />
<path d="M10.5 9.75C10.0858 9.75 9.75 10.0858 9.75 10.5C9.75 10.9142 10.0858 11.25 10.5 11.25H15.75C16.1642 11.25 16.5 10.9142 16.5 10.5C16.5 10.0858 16.1642 9.75 15.75 9.75H10.5Z" />
<path fill-rule="evenodd" clip-rule="evenodd" d="M6 4.5C6 3.25736 7.00736 2.25 8.25 2.25H18C19.2426 2.25 20.25 3.25736 20.25 4.5V17.25C20.25 18.4926 19.2426 19.5 18 19.5H8.25C7.00736 19.5 6 18.4926 6 17.25V4.5ZM8.25 3.75H18C18.4142 3.75 18.75 4.08579 18.75 4.5V17.25C18.75 17.6642 18.4142 18 18 18H8.25C7.83579 18 7.5 17.6642 7.5 17.25V4.5C7.5 4.08579 7.83579 3.75 8.25 3.75Z" />
<path d="M5.25 6C4.42157 6 3.75 6.67157 3.75 7.5V17.25C3.75 17.8409 3.86639 18.4261 4.09254 18.9721C4.31869 19.518 4.65016 20.0141 5.06802 20.432C5.48588 20.8498 5.98196 21.1813 6.52792 21.4075C7.07389 21.6336 7.65905 21.75 8.25 21.75H16.5C17.3284 21.75 18 21.0784 18 20.25H8.25C7.85603 20.25 7.46593 20.1724 7.10195 20.0216C6.73797 19.8709 6.40726 19.6499 6.12868 19.3713C5.8501 19.0927 5.62913 18.762 5.47836 18.3981C5.3276 18.0341 5.25 17.644 5.25 17.25V6Z" />
</svg>
