<svg width="24" height="24" viewBox="0 0 24 24" xmlns="http://www.w3.org/2000/svg">
<path d="M3.75 11.25C3.33579 11.25 3 11.5858 3 12C3 12.4142 3.33579 12.75 3.75 12.75H6.75C7.16421 12.75 7.5 12.4142 7.5 12C7.5 11.5858 7.16421 11.25 6.75 11.25H3.75Z" />
<path d="M9.75 12C9.75 11.5858 10.0858 11.25 10.5 11.25H13.5C13.9142 11.25 14.25 11.5858 14.25 12C14.25 12.4142 13.9142 12.75 13.5 12.75H10.5C10.0858 12.75 9.75 12.4142 9.75 12Z" />
<path d="M16.5 12C16.5 11.5858 16.8358 11.25 17.25 11.25H20.25C20.6642 11.25 21 11.5858 21 12C21 12.4142 20.6642 12.75 20.25 12.75H17.25C16.8358 12.75 16.5 12.4142 16.5 12Z" />
</svg>
