<svg width="24" height="24" viewBox="0 0 24 24" xmlns="http://www.w3.org/2000/svg">
<path fill-rule="evenodd" clip-rule="evenodd" d="M13.1893 1.93934C12.908 1.65803 12.5265 1.5 12.1287 1.5H6C4.34315 1.5 3 2.84315 3 4.5V18C3 19.6569 4.34315 21 6 21H12.093C11.407 20.6194 10.8035 20.1082 10.316 19.5H6C5.17157 19.5 4.5 18.8284 4.5 18V4.5C4.5 3.67157 5.17157 3 6 3H11.25V6.75C11.25 8.40685 12.5931 9.75 14.25 9.75H18V10.5527C18.5646 10.8793 19.0711 11.2953 19.5 11.7813V8.87132C19.5 8.4735 19.342 8.09196 19.0607 7.81066L13.1893 1.93934ZM12.75 3.62132L17.3787 8.25H14.25C13.4216 8.25 12.75 7.57843 12.75 6.75V3.62132Z" />
<path fill-rule="evenodd" clip-rule="evenodd" d="M15 20.25C15.9719 20.25 16.8718 19.9419 17.6074 19.4181L19.682 21.4926C19.9749 21.7855 20.4497 21.7855 20.7426 21.4926C21.0355 21.1997 21.0355 20.7249 20.7426 20.432L18.6681 18.3574C19.1919 17.6218 19.5 16.7219 19.5 15.75C19.5 13.2647 17.4853 11.25 15 11.25C12.5147 11.25 10.5 13.2647 10.5 15.75C10.5 18.2353 12.5147 20.25 15 20.25ZM15 18.75C16.6569 18.75 18 17.4069 18 15.75C18 14.0931 16.6569 12.75 15 12.75C13.3431 12.75 12 14.0931 12 15.75C12 17.4069 13.3431 18.75 15 18.75Z" />
</svg>
