<svg width="24" height="24" viewBox="0 0 24 24" xmlns="http://www.w3.org/2000/svg">
<path fill-rule="evenodd" clip-rule="evenodd" d="M12.3107 6.75L10.409 4.84835C9.70575 4.14509 8.75192 3.75 7.75736 3.75H4.5C3.25736 3.75 2.25 4.75736 2.25 6V17.25C2.25 18.9069 3.59315 20.25 5.25 20.25H11.6367C11.3269 19.7872 11.0728 19.284 10.8841 18.75H5.25C4.42157 18.75 3.75 18.0784 3.75 17.25V10.372C3.98458 10.4549 4.23702 10.5 4.5 10.5H8C8.81139 10.5 9.60089 10.2368 10.25 9.75L12.25 8.25H18.75C19.5784 8.25 20.25 8.92157 20.25 9.75V10.4516C20.7961 10.723 21.3002 11.0662 21.75 11.4688V9.75C21.75 8.09315 20.4069 6.75 18.75 6.75H12.3107ZM4.5 5.25C4.08579 5.25 3.75 5.58579 3.75 6V8.25C3.75 8.66421 4.08579 9 4.5 9H8C8.48683 9 8.96053 8.8421 9.35 8.55L10.8582 7.41885L9.34835 5.90901C8.92639 5.48705 8.3541 5.25 7.75736 5.25H4.5Z" />
<path fill-rule="evenodd" clip-rule="evenodd" d="M22.5 16.5C22.5 19.3995 20.1495 21.75 17.25 21.75C14.3505 21.75 12 19.3995 12 16.5C12 13.6005 14.3505 11.25 17.25 11.25C20.1495 11.25 22.5 13.6005 22.5 16.5ZM17.25 13.5C16.8358 13.5 16.5 13.8358 16.5 14.25V15.75H15C14.5858 15.75 14.25 16.0858 14.25 16.5C14.25 16.9142 14.5858 17.25 15 17.25H16.5V18.75C16.5 19.1642 16.8358 19.5 17.25 19.5C17.6642 19.5 18 19.1642 18 18.75V17.25H19.5C19.9142 17.25 20.25 16.9142 20.25 16.5C20.25 16.0858 19.9142 15.75 19.5 15.75H18V14.25C18 13.8358 17.6642 13.5 17.25 13.5Z"/>
</svg>
