<svg width="24" height="24" viewBox="0 0 24 24" xmlns="http://www.w3.org/2000/svg">
<path fill-rule="evenodd" clip-rule="evenodd" d="M16.5 4.5L17.25 6.75H12.75V9H13.75C14.8546 9 15.75 9.89543 15.75 11V11.2C15.75 11.4761 15.9739 11.7 16.25 11.7H16.75C17.0261 11.7 17.25 11.4761 17.25 11.2V11C17.25 9.89543 18.1454 9 19.25 9H20.25C21.0784 9 21.75 9.67157 21.75 10.5V21C21.75 21.4142 21.4142 21.75 21 21.75H3C2.58579 21.75 2.25 21.4142 2.25 21V10.5C2.25 9.67157 2.92157 9 3.75 9H4.75C5.85457 9 6.75 9.89543 6.75 11V11.5C6.75 11.7761 6.97386 12 7.25 12H7.75C8.02614 12 8.25 11.7761 8.25 11.5V11C8.25 9.89543 9.14543 9 10.25 9H11.25V2.25H17.25L16.5 4.5ZM9.75 10.5V12C9.75 12.8284 9.07843 13.5 8.25 13.5H6.75C5.92157 13.5 5.25 12.8284 5.25 12V11C5.25 10.7239 5.02614 10.5 4.75 10.5H4.25C3.97386 10.5 3.75 10.7239 3.75 11V20.25H8.25V17.25C8.25 15.5931 9.59315 14.25 11.25 14.25H12.75C14.4069 14.25 15.75 15.5931 15.75 17.25V20.25H20.25V11C20.25 10.7239 20.0261 10.5 19.75 10.5H19.25C18.9739 10.5 18.75 10.7239 18.75 11V12C18.75 12.8284 18.0784 13.5 17.25 13.5H15.75C14.9216 13.5 14.25 12.8284 14.25 12V10.5H9.75ZM15.1689 5.25H12.75V3.75H15.1689L14.9189 4.5L15.1689 5.25ZM14.25 17.25V20.25H9.75V17.25C9.75 16.4216 10.4216 15.75 11.25 15.75H12.75C13.5784 15.75 14.25 16.4216 14.25 17.25Z" />
</svg>
