<svg width="24" height="24" viewBox="0 0 24 24" xmlns="http://www.w3.org/2000/svg">
<path fill-rule="evenodd" clip-rule="evenodd" d="M17.0354 3H5.62514C5.28306 2.54458 4.73843 2.25 4.125 2.25C3.08947 2.25 2.25 3.08947 2.25 4.125C2.25 4.73843 2.54458 5.28306 3 5.62514V18.3749C2.54458 18.7169 2.25 19.2616 2.25 19.875C2.25 20.9105 3.08947 21.75 4.125 21.75C4.73843 21.75 5.28306 21.4554 5.62514 21H18.3749C18.7169 21.4554 19.2616 21.75 19.875 21.75C20.9105 21.75 21.75 20.9105 21.75 19.875C21.75 19.2616 21.4554 18.7169 21 18.3749V6.96456C20.8367 6.98791 20.6698 7 20.5 7C20.1525 7 19.8169 6.94936 19.5 6.85506V18.0375C18.7653 18.1866 18.1866 18.7653 18.0375 19.5H5.96249C5.81336 18.7653 5.23467 18.1866 4.5 18.0375V5.96249C5.23467 5.81336 5.81336 5.23467 5.96249 4.5H17.1449C17.0506 4.18315 17 3.84749 17 3.5C17 3.33024 17.0121 3.1633 17.0354 3ZM4.125 4.5C4.33211 4.5 4.5 4.33211 4.5 4.125C4.5 3.91789 4.33211 3.75 4.125 3.75C3.91789 3.75 3.75 3.91789 3.75 4.125C3.75 4.33211 3.91789 4.5 4.125 4.5ZM4.125 20.25C4.33211 20.25 4.5 20.0821 4.5 19.875C4.5 19.6679 4.33211 19.5 4.125 19.5C3.91789 19.5 3.75 19.6679 3.75 19.875C3.75 20.0821 3.91789 20.25 4.125 20.25ZM20.25 19.875C20.25 20.0821 20.0821 20.25 19.875 20.25C19.6679 20.25 19.5 20.0821 19.5 19.875C19.5 19.6679 19.6679 19.5 19.875 19.5C20.0821 19.5 20.25 19.6679 20.25 19.875Z"/>
<path fill-rule="evenodd" clip-rule="evenodd" d="M8.25 6.75C7.42157 6.75 6.75 7.42157 6.75 8.25V9.75C6.75 10.5784 7.42157 11.25 8.25 11.25H15.75C16.5784 11.25 17.25 10.5784 17.25 9.75V8.25C17.25 7.42157 16.5784 6.75 15.75 6.75H8.25ZM15.75 8.75C15.75 8.47386 15.5261 8.25 15.25 8.25H8.75C8.47386 8.25 8.25 8.47386 8.25 8.75V9.25C8.25 9.52614 8.47386 9.75 8.75 9.75H15.25C15.5261 9.75 15.75 9.52614 15.75 9.25V8.75Z" />
<path fill-rule="evenodd" clip-rule="evenodd" d="M6.75 14.25C6.75 13.4216 7.42157 12.75 8.25 12.75H15.75C16.5784 12.75 17.25 13.4216 17.25 14.25V15.75C17.25 16.5784 16.5784 17.25 15.75 17.25H8.25C7.42157 17.25 6.75 16.5784 6.75 15.75V14.25ZM8.25 14.75C8.25 14.4739 8.47386 14.25 8.75 14.25H15.25C15.5261 14.25 15.75 14.4739 15.75 14.75V15.25C15.75 15.5261 15.5261 15.75 15.25 15.75H8.75C8.47386 15.75 8.25 15.5261 8.25 15.25V14.75Z" />
<path d="M23 3.5C23 4.88071 21.8807 6 20.5 6C19.1193 6 18 4.88071 18 3.5C18 2.11929 19.1193 1 20.5 1C21.8807 1 23 2.11929 23 3.5Z" fill="#D9A54C"/>
</svg>
