<svg width="24" height="24" viewBox="0 0 24 24" xmlns="http://www.w3.org/2000/svg">
<path d="M11.1998 12.7969C11.0468 13.1633 10.9702 13.655 10.9702 14.272H12.5497C12.559 13.604 12.7167 13.0961 13.0228 12.7482L13.8787 11.9062C14.5837 11.1733 14.9363 10.4288 14.9363 9.67273C14.9363 8.82385 14.6742 8.16284 14.15 7.6897C13.6305 7.21655 12.9045 6.97998 11.9722 6.97998C11.0676 6.97998 10.3394 7.21887 9.78735 7.69666C9.23999 8.17444 8.96167 8.82385 8.95239 9.6449H10.6432C10.6432 9.25989 10.7638 8.95605 11.005 8.7334C11.2509 8.5061 11.5732 8.39246 11.9722 8.39246C12.3896 8.39246 12.7051 8.50842 12.9185 8.74036C13.1365 8.96765 13.2455 9.29932 13.2455 9.73535C13.2455 10.0647 13.1527 10.3708 12.9672 10.6538C12.8466 10.8394 12.559 11.1525 12.1044 11.5931C11.6544 12.0292 11.3529 12.4304 11.1998 12.7969Z"/>
<path d="M11.1094 15.7749C10.9377 15.9419 10.8519 16.1622 10.8519 16.4359C10.8519 16.691 10.9331 16.9044 11.0955 17.076C11.2625 17.2477 11.499 17.3335 11.8052 17.3335C12.1113 17.3335 12.3479 17.2477 12.5149 17.076C12.6819 16.9044 12.7654 16.691 12.7654 16.4359C12.7654 16.1715 12.6796 15.9535 12.5079 15.7819C12.3363 15.6056 12.1021 15.5175 11.8052 15.5175C11.5129 15.5175 11.281 15.6033 11.1094 15.7749Z"/>
<path fill-rule="evenodd" clip-rule="evenodd" d="M21.75 12C21.75 17.3848 17.3848 21.75 12 21.75C6.61522 21.75 2.25 17.3848 2.25 12C2.25 6.61522 6.61522 2.25 12 2.25C17.3848 2.25 21.75 6.61522 21.75 12ZM20.25 12C20.25 16.5563 16.5563 20.25 12 20.25C7.44365 20.25 3.75 16.5563 3.75 12C3.75 7.44365 7.44365 3.75 12 3.75C16.5563 3.75 20.25 7.44365 20.25 12Z"/>
</svg>
