<svg width="24" height="24" viewBox="0 0 24 24" xmlns="http://www.w3.org/2000/svg">
<path d="M4.84835 7.09835C5.55161 6.39509 6.50544 6 7.5 6H9C9.41421 6 9.75 5.66421 9.75 5.25C9.75 4.83579 9.41421 4.5 9 4.5H7.5C6.10761 4.5 4.77226 5.05312 3.78769 6.03769C2.80312 7.02225 2.25 8.35761 2.25 9.75C2.25 11.1424 2.80312 12.4777 3.78769 13.4623C4.77225 14.4469 6.10761 15 7.5 15H9C9.41421 15 9.75 14.6642 9.75 14.25C9.75 13.8358 9.41421 13.5 9 13.5H7.5C6.50544 13.5 5.55161 13.1049 4.84835 12.4017C4.14509 11.6984 3.75 10.7446 3.75 9.75C3.75 8.75544 4.14509 7.80161 4.84835 7.09835Z" />
<path d="M6.75 9C6.33579 9 6 9.33579 6 9.75C6 10.1642 6.33579 10.5 6.75 10.5H17.25C17.6642 10.5 18 10.1642 18 9.75C18 9.33579 17.6642 9 17.25 9H6.75Z"/>
<path fill-rule="evenodd" clip-rule="evenodd" d="M19.1517 7.09835C18.4484 6.39509 17.4946 6 16.5 6H15C14.5858 6 14.25 5.66421 14.25 5.25C14.25 4.83579 14.5858 4.5 15 4.5H16.5C17.8924 4.5 19.2277 5.05312 20.2123 6.03769C21.1969 7.02225 21.75 8.35761 21.75 9.75C21.75 10.9941 21.3084 12.1927 20.5121 13.1362C21.7233 14.0979 22.5 15.5832 22.5 17.25C22.5 20.1495 20.1495 22.5 17.25 22.5C14.3505 22.5 12 20.1495 12 17.25C12 14.3505 14.3505 12 17.25 12C17.9333 12 18.5861 12.1305 19.1848 12.368C19.8673 11.6682 20.25 10.7288 20.25 9.75C20.25 8.75544 19.8549 7.80161 19.1517 7.09835ZM15.1287 15.1287C14.8358 15.4216 14.8358 15.8964 15.1287 16.1893L16.1893 17.25L15.1287 18.3107C14.8358 18.6036 14.8358 19.0784 15.1287 19.3713C15.4216 19.6642 15.8964 19.6642 16.1893 19.3713L17.25 18.3107L18.3107 19.3713C18.6036 19.6642 19.0784 19.6642 19.3713 19.3713C19.6642 19.0784 19.6642 18.6036 19.3713 18.3107L18.3107 17.25L19.3713 16.1893C19.6642 15.8964 19.6642 15.4216 19.3713 15.1287C19.0784 14.8358 18.6036 14.8358 18.3107 15.1287L17.25 16.1893L16.1893 15.1287C15.8964 14.8358 15.4216 14.8358 15.1287 15.1287Z" />
</svg>
