<svg width="24" height="24" viewBox="0 0 24 24" xmlns="http://www.w3.org/2000/svg">
<path d="M13.5 15C13.5 15.8284 12.8284 16.5 12 16.5C11.1716 16.5 10.5 15.8284 10.5 15C10.5 14.1716 11.1716 13.5 12 13.5C12.8284 13.5 13.5 14.1716 13.5 15Z" />
<path fill-rule="evenodd" clip-rule="evenodd" d="M16.5 8.25H17.25C18.9069 8.25 20.25 9.59315 20.25 11.25V18.75C20.25 20.4069 18.9069 21.75 17.25 21.75H6.75C5.09315 21.75 3.75 20.4069 3.75 18.75V11.25C3.75 9.59315 5.09315 8.25 6.75 8.25H7.5V6.75C7.5 5.55653 7.97411 4.41193 8.81802 3.56802C9.66193 2.72411 10.8065 2.25 12 2.25C13.1935 2.25 14.3381 2.72411 15.182 3.56802C16.0259 4.41193 16.5 5.55653 16.5 6.75V8.25ZM9.87868 4.62868C10.4413 4.06607 11.2044 3.75 12 3.75C12.7956 3.75 13.5587 4.06607 14.1213 4.62868C14.6839 5.19129 15 5.95435 15 6.75V8.25H9V6.75C9 5.95435 9.31607 5.19129 9.87868 4.62868ZM18.75 11.25C18.75 10.4216 18.0784 9.75 17.25 9.75H6.75C5.92157 9.75 5.25 10.4216 5.25 11.25V18.75C5.25 19.5784 5.92157 20.25 6.75 20.25H17.25C18.0784 20.25 18.75 19.5784 18.75 18.75V11.25Z" />
</svg>
