<svg width="24" height="24" viewBox="0 0 24 24" xmlns="http://www.w3.org/2000/svg">
<path fill-rule="evenodd" clip-rule="evenodd" d="M20.5779 3.82546C20.8361 3.95097 21 4.21289 21 4.50001V15C21 15.2189 20.9043 15.427 20.7381 15.5694L15.4881 20.0694C15.2212 20.2982 14.8312 20.3109 14.55 20.1L9.0313 15.961L4.23809 20.0694C4.01571 20.2601 3.70271 20.3038 3.43661 20.1814C3.17051 20.059 3 19.7929 3 19.5V8.62501C3 8.39486 3.10567 8.17746 3.28663 8.03527L8.53663 3.91027C8.79465 3.70754 9.1545 3.69608 9.4249 3.88197L14.9704 7.69448L19.7866 3.91027C20.0124 3.73288 20.3196 3.69995 20.5779 3.82546ZM4.5 8.98953L8.25 6.0431V14.6551L4.5 17.8693V8.98953ZM14.25 18L9.75 14.625V5.92578L14.25 9.01953V18ZM15.75 17.8693L19.5 14.6551V6.0431L15.7499 8.98959C15.75 8.99305 15.75 8.99653 15.75 9.00001V17.8693Z" />
</svg>
