<svg width="24" height="24" viewBox="0 0 24 24" xmlns="http://www.w3.org/2000/svg">
<path d="M23 3.5C23 4.88071 21.8807 6 20.5 6C19.1193 6 18 4.88071 18 3.5C18 2.11929 19.1193 1 20.5 1C21.8807 1 23 2.11929 23 3.5Z" fill="#D9A54C"/>
<path fill-rule="evenodd" clip-rule="evenodd" d="M21 6.96456V18C21 19.6569 19.6569 21 18 21H6C4.34315 21 3 19.6569 3 18V6C3 4.34315 4.34315 3 6 3H17.0354C17.0121 3.1633 17 3.33024 17 3.5C17 3.84749 17.0506 4.18315 17.1449 4.5H6C5.17157 4.5 4.5 5.17157 4.5 6V18C4.5 18.8284 5.17157 19.5 6 19.5H18C18.8284 19.5 19.5 18.8284 19.5 18V6.85506C19.8169 6.94936 20.1525 7 20.5 7C20.6698 7 20.8367 6.98791 21 6.96456ZM6.75 12C6.75 11.5858 7.08579 11.25 7.5 11.25H16.5C16.9142 11.25 17.25 11.5858 17.25 12C17.25 12.4142 16.9142 12.75 16.5 12.75H7.5C7.08579 12.75 6.75 12.4142 6.75 12Z"/>
</svg>
