<svg width="24" height="24" viewBox="0 0 24 24" xmlns="http://www.w3.org/2000/svg">
<path d="M6 3C6 2.58579 6.33579 2.25 6.75 2.25H17.25C17.6642 2.25 18 2.58579 18 3C18 3.41421 17.6642 3.75 17.25 3.75H6.75C6.33579 3.75 6 3.41421 6 3Z" />
<path d="M12.75 7.06066L16.7197 11.0303C17.0126 11.3232 17.4874 11.3232 17.7803 11.0303C18.0732 10.7374 18.0732 10.2626 17.7803 9.96967L12.5303 4.71967C12.2374 4.42678 11.7626 4.42678 11.4697 4.71967L6.21967 9.96967C5.92678 10.2626 5.92678 10.7374 6.21967 11.0303C6.51256 11.3232 6.98744 11.3232 7.28033 11.0303L11.25 7.06066V21C11.25 21.4142 11.5858 21.75 12 21.75C12.4142 21.75 12.75 21.4142 12.75 21V7.06066Z" />
</svg>
