<svg width="24" height="24" viewBox="0 0 24 24" xmlns="http://www.w3.org/2000/svg">
<g clip-path="url(#clip0)">
<path fill-rule="evenodd" clip-rule="evenodd" d="M6.81384 2.75667C6.2868 2.36666 5.54829 2.79304 5.62253 3.44447L7.37408 18.8142C7.44636 19.4484 8.22733 19.7082 8.66508 19.2437L11.3162 16.4305L13.6037 20.3926C14.0179 21.11 14.9353 21.3558 15.6527 20.9416L16.9517 20.1916C17.6692 19.7774 17.915 18.86 17.5008 18.1426L15.2133 14.1805L18.9751 13.2912C19.5963 13.1444 19.7618 12.3381 19.2487 11.9584L6.81384 2.75667ZM7.3082 4.98854L8.6815 17.0391L10.6854 14.9127C11.1448 14.4252 11.9443 14.5184 12.2792 15.0985L14.6527 19.2096C14.7908 19.4487 15.0966 19.5307 15.3357 19.3926L15.7687 19.1426C16.0079 19.0045 16.0898 18.6987 15.9517 18.4596L13.5782 14.3485C13.2433 13.7684 13.5623 13.0295 14.2142 12.8754L17.0577 12.2032L7.3082 4.98854Z"/>
</g>
<defs>
<clipPath id="clip0">
<rect width="24" height="24" />
</clipPath>
</defs>
</svg>
