<svg width="24" height="24" viewBox="0 0 24 24" xmlns="http://www.w3.org/2000/svg">
<path d="M14.764 2.45385C14.4624 2.16996 13.9877 2.18435 13.7039 2.48598C13.42 2.78761 13.4344 3.26226 13.736 3.54615L15.5463 5.25H8.625C7.38625 5.25 6.17432 5.61091 5.13738 6.28861C4.10044 6.96631 3.2834 7.93143 2.78615 9.06601C2.2889 10.2006 2.13298 11.4555 2.33744 12.6772C2.5419 13.899 3.0979 15.0347 3.93745 15.9456C4.21818 16.2502 4.69266 16.2695 4.99723 15.9888C5.3018 15.708 5.32113 15.2336 5.0404 14.929C4.39839 14.2324 3.97322 13.3639 3.81687 12.4296C3.66051 11.4954 3.77975 10.5357 4.16 9.66813C4.54025 8.80051 5.16504 8.06247 5.958 7.54423C6.75095 7.02599 7.67772 6.75 8.625 6.75H15.3434L13.7047 8.48503C13.4203 8.78617 13.4339 9.26085 13.735 9.54526C14.0362 9.82967 14.5109 9.81611 14.7953 9.51497L17.7953 6.3385C17.932 6.19372 18.0055 6.00051 17.9997 5.80146C17.9938 5.60241 17.909 5.41386 17.764 5.27738L14.764 2.45385Z" />
<path d="M9.23598 21.5461C9.53761 21.83 10.0123 21.8157 10.2962 21.514C10.58 21.2124 10.5657 20.7377 10.264 20.4538L8.45368 18.75H15.375C16.6138 18.75 17.8257 18.3891 18.8626 17.7114C19.8996 17.0337 20.7166 16.0686 21.2139 14.934C21.7111 13.7994 21.867 12.5445 21.6626 11.3228C21.4581 10.101 20.9021 8.96527 20.0626 8.05441C19.7818 7.74984 19.3073 7.73051 19.0028 8.01124C18.6982 8.29197 18.6789 8.76645 18.9596 9.07102C19.6016 9.76756 20.0268 10.6361 20.1831 11.5704C20.3395 12.5046 20.2203 13.4643 19.84 14.3319C19.4598 15.1995 18.835 15.9375 18.042 16.4558C17.2491 16.974 16.3223 17.25 15.375 17.25H8.65662L10.2953 15.515C10.5797 15.2138 10.5661 14.7391 10.265 14.4547C9.96383 14.1703 9.48915 14.1839 9.20474 14.485L6.20474 17.6615C6.06801 17.8063 5.99447 17.9995 6.00033 18.1985C6.00619 18.3976 6.09097 18.5861 6.23598 18.7226L9.23598 21.5461Z" />
</svg>
