<svg width="24" height="24" viewBox="0 0 24 24" xmlns="http://www.w3.org/2000/svg">
<path fill-rule="evenodd" clip-rule="evenodd" d="M3.33544 2.32919C3.05959 2.19127 2.72743 2.23627 2.49823 2.44261C2.26902 2.64896 2.1895 2.97458 2.29778 3.26336L5.57403 12L2.29778 20.7367C2.1895 21.0254 2.26902 21.3511 2.49823 21.5574C2.72743 21.7638 3.05959 21.8088 3.33544 21.6708L21.3354 12.6708C21.5895 12.5438 21.75 12.2841 21.75 12C21.75 11.7159 21.5895 11.4562 21.3354 11.3292L3.33544 2.32919ZM6.89478 11.25L4.37289 4.52497L19.323 12L4.37289 19.4751L6.89478 12.75H13.5C13.9142 12.75 14.25 12.4142 14.25 12C14.25 11.5858 13.9142 11.25 13.5 11.25H6.89478Z" />
</svg>
