<svg width="24" height="24" viewBox="0 0 24 24" xmlns="http://www.w3.org/2000/svg">
<path d="M19.5 6C19.5 5.17157 18.8284 4.5 18 4.5H8.25C7.83579 4.5 7.5 4.16421 7.5 3.75C7.5 3.33579 7.83579 3 8.25 3H18C19.6569 3 21 4.34315 21 6V18C21 19.6569 19.6569 21 18 21H8.25C7.83579 21 7.5 20.6642 7.5 20.25C7.5 19.8358 7.83579 19.5 8.25 19.5H18C18.8284 19.5 19.5 18.8284 19.5 18V6Z" />
<path d="M9.21967 7.71967C9.51256 7.42678 9.98744 7.42678 10.2803 7.71967L14.0303 11.4697C14.3232 11.7626 14.3232 12.2374 14.0303 12.5303L10.2803 16.2803C9.98744 16.5732 9.51256 16.5732 9.21967 16.2803C8.92678 15.9874 8.92678 15.5126 9.21967 15.2197L11.6893 12.75H3C2.58579 12.75 2.25 12.4142 2.25 12C2.25 11.5858 2.58579 11.25 3 11.25H11.6893L9.21967 8.78033C8.92678 8.48744 8.92678 8.01256 9.21967 7.71967Z" />
</svg>
