<svg width="24" height="24" viewBox="0 0 24 24" xmlns="http://www.w3.org/2000/svg">
<path d="M12 6C10.9645 6 10.125 5.16053 10.125 4.125C10.125 3.08947 10.9645 2.25 12 2.25C13.0355 2.25 13.875 3.08947 13.875 4.125C13.875 5.16053 13.0355 6 12 6Z" />
<path d="M7.35962 7.73462C6.70061 8.39363 5.63214 8.39363 4.97313 7.73462C4.31412 7.07561 4.31412 6.00714 4.97313 5.34813C5.63214 4.68912 6.70061 4.68912 7.35962 5.34813C8.01863 6.00714 8.01863 7.07561 7.35962 7.73462Z" />
<path d="M3.75 13.875C4.57843 13.875 5.25 13.2034 5.25 12.375C5.25 11.5466 4.57843 10.875 3.75 10.875C2.92157 10.875 2.25 11.5466 2.25 12.375C2.25 13.2034 2.92157 13.875 3.75 13.875Z" />
<path d="M7.09447 17.2805C7.60703 17.7931 7.60703 18.6241 7.09447 19.1367C6.5819 19.6493 5.75087 19.6493 5.23831 19.1367C4.72575 18.6241 4.72575 17.7931 5.23831 17.2805C5.75087 16.768 6.5819 16.768 7.09447 17.2805Z" />
<path d="M13.125 20.625C13.125 20.0037 12.6213 19.5 12 19.5C11.3787 19.5 10.875 20.0037 10.875 20.625C10.875 21.2463 11.3787 21.75 12 21.75C12.6213 21.75 13.125 21.2463 13.125 20.625Z" />
<path d="M17.1707 17.5457C17.5368 17.1796 18.1304 17.1796 18.4965 17.5457C18.8627 17.9118 18.8627 18.5054 18.4965 18.8716C18.1304 19.2377 17.5368 19.2377 17.1707 18.8716C16.8046 18.5054 16.8046 17.9118 17.1707 17.5457Z" />
<path d="M20.25 11.625C19.8358 11.625 19.5 11.9608 19.5 12.375C19.5 12.7892 19.8358 13.125 20.25 13.125C20.6642 13.125 21 12.7892 21 12.375C21 11.9608 20.6642 11.625 20.25 11.625Z" />
<path d="M17.4359 6.93912C17.2162 6.71945 17.2162 6.3633 17.4359 6.14363C17.6556 5.92396 18.0117 5.92396 18.2314 6.14363C18.451 6.3633 18.451 6.71945 18.2314 6.93912C18.0117 7.15879 17.6556 7.15879 17.4359 6.93912Z" />
</svg>
