<svg width="24" height="24" viewBox="0 0 24 24" xmlns="http://www.w3.org/2000/svg">
    <path fill-rule="evenodd" clip-rule="evenodd" d="M21 6.96456V8.25H9.75V3H17.0354C17.0121 3.1633 17 3.33024 17 3.5C17 3.84749 17.0506 4.18315 17.1449 4.5H11.25V6.75H19.1985C19.6008 6.91127 20.04 7 20.5 7C20.6698 7 20.8367 6.98791 21 6.96456ZM17.4697 9.96967L15.2197 12.2197C14.9268 12.5126 14.9268 12.9874 15.2197 13.2803C15.5126 13.5732 15.9874 13.5732 16.2803 13.2803L17.25 12.3107V17.25H12.3107L13.2803 16.2803C13.5732 15.9874 13.5732 15.5126 13.2803 15.2197C12.9874 14.9268 12.5126 14.9268 12.2197 15.2197L9.96967 17.4697C9.67678 17.7626 9.67678 18.2374 9.96967 18.5303L12.2197 20.7803C12.5126 21.0732 12.9874 21.0732 13.2803 20.7803C13.5732 20.4874 13.5732 20.0126 13.2803 19.7197L12.3107 18.75H18C18.4142 18.75 18.75 18.4142 18.75 18V12.3107L19.7197 13.2803C20.0126 13.5732 20.4874 13.5732 20.7803 13.2803C21.0732 12.9874 21.0732 12.5126 20.7803 12.2197L18.5303 9.96967C18.2374 9.67678 17.7626 9.67678 17.4697 9.96967ZM3 9.75V18C3 19.6569 4.34315 21 6 21H8.25V9.75H3ZM6.75 11.25H4.5V18C4.5 18.8284 5.17157 19.5 6 19.5H6.75V11.25ZM6 3C4.34315 3 3 4.34315 3 6V8.25H8.25V3H6ZM6.75 4.5H6C5.17157 4.5 4.5 5.17157 4.5 6V6.75H6.75V4.5Z"/>
    <path d="M23 3.5C23 4.88071 21.8807 6 20.5 6C19.1193 6 18 4.88071 18 3.5C18 2.11929 19.1193 1 20.5 1C21.8807 1 23 2.11929 23 3.5Z" fill="#D9A54C"/>
</svg>