<svg width="24" height="24" viewBox="0 0 24 24" xmlns="http://www.w3.org/2000/svg">
    <path fill-rule="evenodd" clip-rule="evenodd" d="M9.75 3H18C19.6569 3 21 4.34315 21 6V8.25H9.75V3ZM11.25 4.5H18C18.8284 4.5 19.5 5.17157 19.5 6V6.75H11.25V4.5Z"/>
    <path d="M15.2197 12.2197L17.4697 9.96967C17.7626 9.67678 18.2374 9.67678 18.5303 9.96967L20.7803 12.2197C21.0732 12.5126 21.0732 12.9874 20.7803 13.2803C20.4874 13.5732 20.0126 13.5732 19.7197 13.2803L18.75 12.3107V18C18.75 18.4142 18.4142 18.75 18 18.75H12.3107L13.2803 19.7197C13.5732 20.0126 13.5732 20.4874 13.2803 20.7803C12.9874 21.0732 12.5126 21.0732 12.2197 20.7803L9.96967 18.5303C9.67678 18.2374 9.67678 17.7626 9.96967 17.4697L12.2197 15.2197C12.5126 14.9268 12.9874 14.9268 13.2803 15.2197C13.5732 15.5126 13.5732 15.9874 13.2803 16.2803L12.3107 17.25H17.25V12.3107L16.2803 13.2803C15.9874 13.5732 15.5126 13.5732 15.2197 13.2803C14.9268 12.9874 14.9268 12.5126 15.2197 12.2197Z"/>
    <path fill-rule="evenodd" clip-rule="evenodd" d="M3 9.75V18C3 19.6569 4.34315 21 6 21H8.25V9.75H3ZM6.75 11.25H4.5V18C4.5 18.8284 5.17157 19.5 6 19.5H6.75V11.25Z"/>
    <path fill-rule="evenodd" clip-rule="evenodd" d="M3 6C3 4.34315 4.34315 3 6 3H8.25V8.25H3V6ZM6 4.5H6.75V6.75H4.5V6C4.5 5.17157 5.17157 4.5 6 4.5Z"/>
</svg>