<svg width="24" height="24" viewBox="0 0 24 24" xmlns="http://www.w3.org/2000/svg">
<path d="M8.25 6.75C7.83579 6.75 7.5 7.08579 7.5 7.5V9C7.5 9.41421 7.83579 9.75 8.25 9.75C8.66421 9.75 9 9.41421 9 9V8.25H11.25V15.75H10.5C10.0858 15.75 9.75 16.0858 9.75 16.5C9.75 16.9142 10.0858 17.25 10.5 17.25H13.5C13.9142 17.25 14.25 16.9142 14.25 16.5C14.25 16.0858 13.9142 15.75 13.5 15.75H12.75V8.25H15V9C15 9.41421 15.3358 9.75 15.75 9.75C16.1642 9.75 16.5 9.41421 16.5 9V7.5C16.5 7.08579 16.1642 6.75 15.75 6.75H8.25Z" />
<path fill-rule="evenodd" clip-rule="evenodd" d="M2.25 6.75C2.25 5.09315 3.59315 3.75 5.25 3.75H18.75C20.4069 3.75 21.75 5.09315 21.75 6.75V17.25C21.75 18.9069 20.4069 20.25 18.75 20.25H5.25C3.59315 20.25 2.25 18.9069 2.25 17.25V6.75ZM5.25 5.25H18.75C19.5784 5.25 20.25 5.92157 20.25 6.75V17.25C20.25 18.0784 19.5784 18.75 18.75 18.75H5.25C4.42157 18.75 3.75 18.0784 3.75 17.25V6.75C3.75 5.92157 4.42157 5.25 5.25 5.25Z" />
</svg>
