<svg width="24" height="24" viewBox="0 0 24 24" xmlns="http://www.w3.org/2000/svg">
<path d="M9.75 2.25C9.33579 2.25 9 2.58579 9 3C9 3.41421 9.33579 3.75 9.75 3.75H14.25C14.6642 3.75 15 3.41421 15 3C15 2.58579 14.6642 2.25 14.25 2.25H9.75Z" />
<path d="M12 8.25C11.5858 8.25 11.25 8.58579 11.25 9V13.5C11.25 13.9142 11.5858 14.25 12 14.25C12.4142 14.25 12.75 13.9142 12.75 13.5V9C12.75 8.58579 12.4142 8.25 12 8.25Z" />
<path fill-rule="evenodd" clip-rule="evenodd" d="M20.25 13.5C20.25 18.0563 16.5563 21.75 12 21.75C7.44365 21.75 3.75 18.0563 3.75 13.5C3.75 8.94365 7.44365 5.25 12 5.25C16.5563 5.25 20.25 8.94365 20.25 13.5ZM18.75 13.5C18.75 17.2279 15.7279 20.25 12 20.25C8.27208 20.25 5.25 17.2279 5.25 13.5C5.25 9.77208 8.27208 6.75 12 6.75C15.7279 6.75 18.75 9.77208 18.75 13.5Z" />
<path d="M18.5385 4.98908C18.8147 4.6804 19.2888 4.65408 19.5975 4.93028L20.8191 6.02331C21.1277 6.29951 21.1541 6.77365 20.8779 7.08234C20.6017 7.39102 20.1275 7.41734 19.8188 7.14114L18.5973 6.04811C18.2886 5.77191 18.2623 5.29777 18.5385 4.98908Z" />
</svg>
