<svg width="24" height="24" viewBox="0 0 24 24" xmlns="http://www.w3.org/2000/svg">
<path d="M6.74984 3.75C6.74984 3.33579 7.08562 3 7.49984 3C7.91405 3 8.24984 3.33579 8.24984 3.75V6.03416L14.7081 4.65647C15.1132 4.57006 15.5117 4.8284 15.5981 5.2335C15.6845 5.6386 15.4261 6.03705 15.021 6.12347L8.24984 7.56791V9.78416L14.7081 8.40647C15.1132 8.32006 15.5117 8.5784 15.5981 8.9835C15.6845 9.3886 15.4261 9.78705 15.021 9.87347L8.24984 11.3179V19.5H11.2498C12.1363 19.5 13.014 19.3254 13.8329 18.9862C14.6519 18.647 15.396 18.1498 16.0228 17.523C16.6496 16.8962 17.1468 16.1521 17.486 15.3331C17.8252 14.5142 17.9998 13.6364 17.9998 12.75C17.9998 12.3358 18.3356 12 18.7498 12C19.164 12 19.4998 12.3358 19.4998 12.75C19.4998 13.8334 19.2864 14.9062 18.8718 15.9071C18.4572 16.9081 17.8496 17.8175 17.0835 18.5836C16.3174 19.3497 15.4079 19.9574 14.407 20.372C13.406 20.7866 12.3332 21 11.2498 21H7.49984C7.08562 21 6.74984 20.6642 6.74984 20.25V11.6379L4.79627 12.0546C4.39117 12.141 3.99272 11.8827 3.90631 11.4776C3.81989 11.0725 4.07823 10.674 4.48333 10.5876L6.74984 10.1041V7.88789L4.79627 8.30463C4.39117 8.39104 3.99272 8.1327 3.90631 7.7276C3.81989 7.3225 4.07823 6.92405 4.48333 6.83763L6.74984 6.35414V3.75Z" />
</svg>
