<svg width="24" height="24" viewBox="0 0 24 24" xmlns="http://www.w3.org/2000/svg">
<path fill-rule="evenodd" clip-rule="evenodd" d="M11.25 12C13.9424 12 16.125 9.81739 16.125 7.125C16.125 4.43261 13.9424 2.25 11.25 2.25C8.55761 2.25 6.375 4.43261 6.375 7.125C6.375 9.81739 8.55761 12 11.25 12ZM11.25 10.5C13.114 10.5 14.625 8.98896 14.625 7.125C14.625 5.26104 13.114 3.75 11.25 3.75C9.38604 3.75 7.875 5.26104 7.875 7.125C7.875 8.98896 9.38604 10.5 11.25 10.5Z" />
<path d="M5.625 13.5H10.8867C10.5769 13.9628 10.3228 14.466 10.1341 15H5.625C5.47726 15 5.33097 15.0291 5.19448 15.0856C5.05799 15.1422 4.93397 15.225 4.8295 15.3295C4.72504 15.434 4.64217 15.558 4.58564 15.6945C4.5291 15.831 4.5 15.9773 4.5 16.125V16.5C4.5 16.8696 4.61225 17.2716 4.88514 17.6908C5.1623 18.1166 5.60177 18.5523 6.22168 18.9468C6.84034 19.3405 7.60337 19.6701 8.47519 19.8999C9.09854 20.0642 9.75959 20.1727 10.4374 20.2211C10.7106 20.7776 11.0582 21.2909 11.4671 21.7482C11.3948 21.7494 11.3224 21.75 11.25 21.75C10.1666 21.75 9.0938 21.6142 8.09286 21.3504C7.09192 21.0865 6.18245 20.6998 5.41637 20.2123C4.65025 19.7248 4.04258 19.146 3.62799 18.5091C3.21332 17.872 3 17.1893 3 16.5V16.125C3 15.7803 3.0679 15.4389 3.19982 15.1205C3.33173 14.802 3.52509 14.5126 3.76884 14.2688C4.0126 14.0251 4.30198 13.8317 4.62046 13.6998C4.93894 13.5679 5.28028 13.5 5.625 13.5Z" />
<path fill-rule="evenodd" clip-rule="evenodd" d="M21.75 17.25C21.75 20.1495 19.3995 22.5 16.5 22.5C13.6005 22.5 11.25 20.1495 11.25 17.25C11.25 14.3505 13.6005 12 16.5 12C19.3995 12 21.75 14.3505 21.75 17.25ZM14.3787 15.1287C14.0858 15.4216 14.0858 15.8964 14.3787 16.1893L15.4393 17.25L14.3787 18.3107C14.0858 18.6036 14.0858 19.0784 14.3787 19.3713C14.6716 19.6642 15.1464 19.6642 15.4393 19.3713L16.5 18.3107L17.5607 19.3713C17.8536 19.6642 18.3284 19.6642 18.6213 19.3713C18.9142 19.0784 18.9142 18.6036 18.6213 18.3107L17.5607 17.25L18.6213 16.1893C18.9142 15.8964 18.9142 15.4216 18.6213 15.1287C18.3284 14.8358 17.8536 14.8358 17.5607 15.1287L16.5 16.1893L15.4393 15.1287C15.1464 14.8358 14.6716 14.8358 14.3787 15.1287Z" />
</svg>
