<svg width="24" height="24" viewBox="0 0 24 24" xmlns="http://www.w3.org/2000/svg">
<path fill-rule="evenodd" clip-rule="evenodd" d="M16.125 7.125C16.125 9.81739 13.9424 12 11.25 12C8.55761 12 6.375 9.81739 6.375 7.125C6.375 4.43261 8.55761 2.25 11.25 2.25C13.9424 2.25 16.125 4.43261 16.125 7.125ZM14.625 7.125C14.625 8.98896 13.114 10.5 11.25 10.5C9.38604 10.5 7.875 8.98896 7.875 7.125C7.875 5.26104 9.38604 3.75 11.25 3.75C13.114 3.75 14.625 5.26104 14.625 7.125Z" />
<path d="M10.8867 13.5H5.625C5.28028 13.5 4.93894 13.5679 4.62046 13.6998C4.30198 13.8317 4.0126 14.0251 3.76884 14.2688C3.52509 14.5126 3.33173 14.802 3.19982 15.1205C3.0679 15.4389 3 15.7803 3 16.125V16.5C3 17.1893 3.21332 17.872 3.62799 18.5091C4.04258 19.146 4.65025 19.7248 5.41637 20.2123C6.18245 20.6998 7.09192 21.0865 8.09286 21.3504C9.0938 21.6142 10.1666 21.75 11.25 21.75C11.3224 21.75 11.3948 21.7494 11.4671 21.7482C11.0582 21.2909 10.7106 20.7776 10.4374 20.2211C9.75959 20.1727 9.09854 20.0642 8.47519 19.8999C7.60337 19.6701 6.84034 19.3405 6.22168 18.9468C5.60177 18.5523 5.1623 18.1166 4.88514 17.6908C4.61225 17.2716 4.5 16.8696 4.5 16.5V16.125C4.5 15.9773 4.5291 15.831 4.58564 15.6945C4.64217 15.558 4.72504 15.434 4.8295 15.3295C4.93397 15.225 5.05799 15.1422 5.19448 15.0856C5.33097 15.0291 5.47726 15 5.625 15H10.1341C10.3228 14.466 10.5769 13.9628 10.8867 13.5Z" />
<path fill-rule="evenodd" clip-rule="evenodd" d="M21.75 17.25C21.75 20.1495 19.3995 22.5 16.5 22.5C13.6005 22.5 11.25 20.1495 11.25 17.25C11.25 14.3505 13.6005 12 16.5 12C19.3995 12 21.75 14.3505 21.75 17.25ZM16.5 14.25C16.0858 14.25 15.75 14.5858 15.75 15V16.5H14.25C13.8358 16.5 13.5 16.8358 13.5 17.25C13.5 17.6642 13.8358 18 14.25 18H15.75V19.5C15.75 19.9142 16.0858 20.25 16.5 20.25C16.9142 20.25 17.25 19.9142 17.25 19.5V18H18.75C19.1642 18 19.5 17.6642 19.5 17.25C19.5 16.8358 19.1642 16.5 18.75 16.5H17.25V15C17.25 14.5858 16.9142 14.25 16.5 14.25Z" />
</svg>
