<svg width="24" height="24" viewBox="0 0 24 24" xmlns="http://www.w3.org/2000/svg">
<path fill-rule="evenodd" clip-rule="evenodd" d="M17.2107 16.9869C16.9781 18.4122 15.7411 19.5 14.25 19.5H5.25C3.59315 19.5 2.25 18.1569 2.25 16.5V7.5C2.25 5.84315 3.59315 4.5 5.25 4.5H14.25C15.8377 4.5 17.1374 5.73342 17.2431 7.29436L21.4782 5.64738C21.9698 5.45618 22.5 5.81886 22.5 6.34638V17.7094C22.5 18.2213 21.9985 18.5828 21.5128 18.4209L17.2107 16.9869ZM5.25 6H14.25C15.0784 6 15.75 6.67157 15.75 7.5V16.5C15.75 17.3284 15.0784 18 14.25 18H5.25C4.42157 18 3.75 17.3284 3.75 16.5V7.5C3.75 6.67157 4.42157 6 5.25 6ZM17.25 15.4189L21 16.6689V7.44277L17.25 8.9011L17.25 15.4189Z" />
</svg>
