<svg width="24" height="24" viewBox="0 0 24 24" xmlns="http://www.w3.org/2000/svg">
<path d="M11.2495 8.99992C11.2495 8.5857 11.5853 8.24992 11.9995 8.24992C12.4138 8.24992 12.7495 8.5857 12.7495 8.99992V13.4999C12.7495 13.9141 12.4138 14.2499 11.9995 14.2499C11.5853 14.2499 11.2495 13.9141 11.2495 13.4999V8.99992Z" />
<path d="M11.9995 17.9999C12.6209 17.9999 13.1245 17.4962 13.1245 16.8749C13.1245 16.2536 12.6209 15.7499 11.9995 15.7499C11.3782 15.7499 10.8745 16.2536 10.8745 16.8749C10.8745 17.4962 11.3782 17.9999 11.9995 17.9999Z" />
<path fill-rule="evenodd" clip-rule="evenodd" d="M13.9748 3.48874L21.7114 17.6725C22.5292 19.1718 21.444 20.9999 19.7361 20.9999H4.26294C2.55506 20.9999 1.46986 19.1718 2.28768 17.6725L10.0243 3.48874C10.8771 1.9253 13.122 1.9253 13.9748 3.48874ZM12.658 4.20702C12.3737 3.68588 11.6254 3.68588 11.3411 4.20702L3.60452 18.3908C3.33191 18.8906 3.69365 19.4999 4.26294 19.4999H19.7361C20.3054 19.4999 20.6672 18.8906 20.3946 18.3908L12.658 4.20702Z" />
</svg>
