<svg viewBox="0 0 24 24" xmlns="http://www.w3.org/2000/svg">
<path d="M13.125 7.125C13.5392 7.125 13.875 7.46079 13.875 7.875V10.125H16.125C16.5392 10.125 16.875 10.4608 16.875 10.875C16.875 11.2892 16.5392 11.625 16.125 11.625H13.875V13.875C13.875 14.2892 13.5392 14.625 13.125 14.625C12.7108 14.625 12.375 14.2892 12.375 13.875V11.625H10.125C9.71079 11.625 9.375 11.2892 9.375 10.875C9.375 10.4608 9.71079 10.125 10.125 10.125H12.375V7.875C12.375 7.46079 12.7108 7.125 13.125 7.125Z" />
<path fill-rule="evenodd" clip-rule="evenodd" d="M19.5 2.25C20.7426 2.25 21.75 3.25736 21.75 4.5V17.25C21.75 18.4926 20.7426 19.5 19.5 19.5H6.75C5.50736 19.5 4.5 18.4926 4.5 17.25V4.5C4.5 3.25736 5.50736 2.25 6.75 2.25H19.5ZM6.75 3.75H19.5C19.9142 3.75 20.25 4.08579 20.25 4.5V17.25C20.25 17.6642 19.9142 18 19.5 18H6.75C6.33579 18 6 17.6642 6 17.25V4.5C6 4.08579 6.33579 3.75 6.75 3.75Z" />
<path d="M2.25 7.5C2.25 6.67157 2.92157 6 3.75 6V17.25C3.75 17.644 3.8276 18.0341 3.97836 18.398C4.12913 18.762 4.3501 19.0927 4.62868 19.3713C4.90726 19.6499 5.23797 19.8709 5.60195 20.0216C5.96593 20.1724 6.35603 20.25 6.75 20.25H18.75C18.75 21.0784 18.0784 21.75 17.25 21.75H6.75C6.15905 21.75 5.57389 21.6336 5.02792 21.4075C4.48196 21.1813 3.98588 20.8498 3.56802 20.432C3.15016 20.0141 2.81869 19.518 2.59254 18.9721C2.36639 18.4261 2.25 17.8409 2.25 17.25V7.5Z" />
</svg>
