<svg width="24" height="24" viewBox="0 0 24 24"  xmlns="http://www.w3.org/2000/svg">
<path d="M7.71967 8.03033C7.42678 7.73744 7.42678 7.26256 7.71967 6.96967L11.4697 3.21967C11.7626 2.92678 12.2374 2.92678 12.5303 3.21967L16.2803 6.96967C16.5732 7.26256 16.5732 7.73744 16.2803 8.03033C15.9874 8.32322 15.5126 8.32322 15.2197 8.03033L12.75 5.56066V18.4393L15.2197 15.9697C15.5126 15.6768 15.9874 15.6768 16.2803 15.9697C16.5732 16.2626 16.5732 16.7374 16.2803 17.0303L12.5303 20.7803C12.2374 21.0732 11.7626 21.0732 11.4697 20.7803L7.71967 17.0303C7.42678 16.7374 7.42678 16.2626 7.71967 15.9697C8.01256 15.6768 8.48744 15.6768 8.78033 15.9697L11.25 18.4393V5.56066L8.78033 8.03033C8.48744 8.32322 8.01256 8.32322 7.71967 8.03033Z" />
</svg>
