<svg viewBox="0 0 24 24" xmlns="http://www.w3.org/2000/svg">
<path d="M9.53033 7.28033C9.82322 6.98744 9.82322 6.51256 9.53033 6.21967C9.23744 5.92678 8.76256 5.92678 8.46967 6.21967L3.21967 11.4697C2.92678 11.7626 2.92678 12.2374 3.21967 12.5303L8.46967 17.7803C8.76256 18.0732 9.23744 18.0732 9.53033 17.7803C9.82322 17.4874 9.82322 17.0126 9.53033 16.7197L4.81066 12L9.53033 7.28033Z"/>
<path d="M14.0303 7.28033C14.3232 6.98744 14.3232 6.51256 14.0303 6.21967C13.7374 5.92678 13.2626 5.92678 12.9697 6.21967L7.71967 11.4697C7.42678 11.7626 7.42678 12.2374 7.71967 12.5303L12.9697 17.7803C13.2626 18.0732 13.7374 18.0732 14.0303 17.7803C14.3232 17.4874 14.3232 17.0126 14.0303 16.7197L10.0607 12.75H14.25C14.9394 12.75 15.6221 12.8858 16.2591 13.1496C16.896 13.4135 17.4748 13.8002 17.9623 14.2877C18.4498 14.7752 18.8365 15.354 19.1004 15.9909C19.3642 16.6279 19.5 17.3106 19.5 18C19.5 18.4142 19.8358 18.75 20.25 18.75C20.6642 18.75 21 18.4142 21 18C21 17.1136 20.8254 16.2358 20.4862 15.4169C20.147 14.5979 19.6498 13.8538 19.023 13.227C18.3962 12.6002 17.6521 12.103 16.8331 11.7638C16.0142 11.4246 15.1364 11.25 14.25 11.25H10.0607L14.0303 7.28033Z" />
</svg>
