<svg viewBox="0 0 24 24" xmlns="http://www.w3.org/2000/svg">
<path d="M8.66718 9.50844C8.0814 10.0942 7.13165 10.0942 6.54586 9.50844C5.96008 8.92265 5.96008 7.9729 6.54586 7.38712C7.13165 6.80133 8.0814 6.80133 8.66718 7.38712C9.25297 7.9729 9.25297 8.92265 8.66718 9.50844Z" />
<path fill-rule="evenodd" clip-rule="evenodd" d="M2.30322 10.3871C2.30322 11.1828 2.61929 11.9458 3.1819 12.5084L10.2582 19.5847C11.4297 20.7563 13.3292 20.7563 14.5008 19.5847L18.7435 15.3421C19.915 14.1705 19.915 12.271 18.7435 11.0994L11.6672 4.02316C11.1046 3.46055 10.3415 3.14448 9.54586 3.14448L3.80322 3.14448C2.9748 3.14448 2.30322 3.81605 2.30322 4.64447L2.30322 10.3871ZM17.6828 12.1601L10.6065 5.08382C10.3252 4.80251 9.94369 4.64448 9.54586 4.64448L3.80322 4.64448V10.3871C3.80322 10.7849 3.96126 11.1665 4.24256 11.4478L11.3188 18.524C11.9046 19.1098 12.8544 19.1098 13.4402 18.524L17.6828 14.2814C18.2686 13.6956 18.2686 12.7459 17.6828 12.1601Z" />
<path d="M15.5615 19.5847C15.2686 19.8776 15.2686 20.3525 15.5615 20.6454C15.8544 20.9383 16.3292 20.9383 16.6221 20.6454L20.8648 16.4027C21.2826 15.9849 21.6141 15.4888 21.8403 14.9428C22.0664 14.3969 22.1828 13.8117 22.1828 13.2207C22.1828 12.6298 22.0664 12.0446 21.8403 11.4987C21.6141 10.9527 21.2826 10.4566 20.8648 10.0388L13.9705 3.14447C13.6776 2.85158 13.2027 2.85158 12.9098 3.14447C12.6169 3.43737 12.6169 3.91224 12.9098 4.20513L19.8041 11.0994C20.0827 11.378 20.3037 11.7087 20.4544 12.0727C20.6052 12.4367 20.6828 12.8268 20.6828 13.2207C20.6828 13.6147 20.6052 14.0048 20.4544 14.3688C20.3037 14.7328 20.0827 15.0635 19.8041 15.3421L15.5615 19.5847Z" />
</svg>
