<svg viewBox="0 0 32 32" xmlns="http://www.w3.org/2000/svg">
<path fill-rule="evenodd" clip-rule="evenodd" d="M28.3827 3.07615C28.7564 3.23093 29 3.59557 29 4.00003V8.00003C29 10.7615 26.7614 13 24 13H20.4142L18.4142 15H25C25.5523 15 26 15.4477 26 16C26 16.5523 25.5523 17 25 17H16.4142L14.4142 19H24C24.4141 19 24.7853 19.2552 24.9336 19.6418C25.082 20.0283 24.9767 20.4663 24.669 20.7433L24.5004 20.8951C21.2064 23.8596 16.9316 25.5 12.5 25.5H7.91421L4.70711 28.7071C4.31658 29.0977 3.68342 29.0977 3.29289 28.7071C2.90237 28.3166 2.90237 27.6834 3.29289 27.2929L6.5 24.0858V23.5194C6.5 14.1764 12.6725 5.95705 21.645 3.35213L22.7212 3.03968C23.0233 2.95199 23.349 3.01152 23.6005 3.2004C23.852 3.38928 24 3.68549 24 4.00003V6.58581L27.2929 3.29292C27.5789 3.00692 28.009 2.92137 28.3827 3.07615ZM22 8.58581V5.33285C14.4706 7.60905 9.16562 14.2717 8.55825 22.0276L22 8.58581ZM9.91421 23.5H12.5C15.5544 23.5 18.525 22.623 21.07 21H12.4142L9.91421 23.5ZM22.4142 11H24C25.6569 11 27 9.65688 27 8.00003V6.41424L22.4142 11Z" />
</svg>
