<svg viewBox="0 0 24 24" xmlns="http://www.w3.org/2000/svg">
<g clip-path="url(#clip0)">
<path d="M18.932 4.5533C18.5234 4.14467 18.0316 3.82379 17.4824 3.61024C16.9328 3.39659 16.3337 3.29359 15.7178 3.31226C15.1015 3.33093 14.481 3.47109 13.8932 3.72917C13.3052 3.9873 12.7642 4.35715 12.3029 4.81847L3.55241 13.5689C3.25952 13.8618 2.78464 13.8618 2.49175 13.5689C2.19886 13.276 2.19886 12.8011 2.49175 12.5083L11.5074 3.49264C11.5528 3.44719 11.6026 3.4088 11.6555 3.37745C12.1494 2.95942 12.7005 2.6146 13.2902 2.3557C14.0503 2.02199 14.8598 1.83757 15.6723 1.81295C16.4849 1.78832 17.2846 1.92399 18.0259 2.21219C18.7672 2.50039 19.4355 2.93549 19.9926 3.49264C20.5498 4.04979 20.9849 4.71808 21.2731 5.45936C21.5613 6.20064 21.697 7.00039 21.6723 7.81295C21.6477 8.6255 21.4633 9.43494 21.1296 10.1951C20.8707 10.7848 20.5259 11.3359 20.1078 11.8298C20.0765 11.8826 20.0381 11.9325 19.9926 11.9779L11.5074 20.4632C11.1591 20.8114 10.7457 21.0876 10.2908 21.2761C9.8358 21.4646 9.34817 21.5616 8.85571 21.5616C8.36325 21.5616 7.87562 21.4646 7.42065 21.2761C6.96568 21.0876 6.55228 20.8114 6.20406 20.4632C5.85584 20.115 5.57962 19.7016 5.39116 19.2466C5.20271 18.7916 5.10571 18.304 5.10571 17.8116C5.10571 17.3191 5.20271 16.8315 5.39116 16.3765C5.57962 15.9215 5.85584 15.5081 6.20406 15.1599L13.6287 7.73528C13.9216 7.44239 14.3964 7.44239 14.6893 7.73528C14.9822 8.02817 14.9822 8.50305 14.6893 8.79594L7.26472 16.2206C7.05579 16.4295 6.89005 16.6775 6.77698 16.9505C6.66391 17.2235 6.60571 17.5161 6.60571 17.8116C6.60571 18.107 6.66391 18.3996 6.77698 18.6726C6.89005 18.9456 7.05579 19.1936 7.26472 19.4025C7.47365 19.6115 7.72169 19.7772 7.99467 19.8903C8.26765 20.0034 8.56023 20.0616 8.85571 20.0616C9.15118 20.0616 9.44376 20.0034 9.71675 19.8903C9.98973 19.7772 10.2378 19.6115 10.4467 19.4025L18.6668 11.1824C19.1281 10.7211 19.498 10.1801 19.7561 9.59211C20.0142 9.00423 20.1543 8.38376 20.173 7.76751C20.1917 7.15153 20.0887 6.55244 19.875 6.00291C19.6615 5.45366 19.3406 4.96193 18.932 4.5533Z"/>
</g>
<defs>
<clipPath id="clip0">
<rect width="24" height="24"/>
</clipPath>
</defs>
</svg>
