<svg viewBox="0 0 32 32"   xmlns="http://www.w3.org/2000/svg">
<path fill-rule="evenodd" clip-rule="evenodd" d="M8 3C5.23858 3 3 5.23858 3 8V19V24C3 26.7614 5.23858 29 8 29H24C26.7614 29 29 26.7614 29 24V19V8C29 5.23858 26.7614 3 24 3H8ZM5 8C5 6.34315 6.34315 5 8 5H24C25.6569 5 27 6.34315 27 8V18H20C19.4477 18 19 18.4477 19 19C19 19.7957 18.6839 20.5587 18.1213 21.1213C17.5587 21.6839 16.7956 22 16 22C15.2044 22 14.4413 21.6839 13.8787 21.1213C13.3161 20.5587 13 19.7957 13 19C13 18.4477 12.5523 18 12 18H5V8ZM11.101 20H5V24C5 25.6569 6.34315 27 8 27H24C25.6569 27 27 25.6569 27 24V20H20.899C20.7044 20.9534 20.2339 21.8372 19.5355 22.5355C18.5979 23.4732 17.3261 24 16 24C14.6739 24 13.4021 23.4732 12.4645 22.5355C11.7661 21.8372 11.2956 20.9534 11.101 20Z"  />
</svg>
