<svg viewBox="0 0 24 24" xmlns="http://www.w3.org/2000/svg">
<path d="M19.5 3.75H6C5.58579 3.75 5.25 4.08579 5.25 4.5V7.5H3.75V4.5C3.75 3.25736 4.75736 2.25 6 2.25H19.5C20.7426 2.25 21.75 3.25736 21.75 4.5V13.5C21.75 14.7426 20.7426 15.75 19.5 15.75H15.75V17.25H17.25C17.6642 17.25 18 17.5858 18 18C18 18.4142 17.6642 18.75 17.25 18.75H11.25V17.25H14.25V15.75H11.25V14.25H19.5C19.9142 14.25 20.25 13.9142 20.25 13.5V4.5C20.25 4.08579 19.9142 3.75 19.5 3.75Z" />
<path d="M4.5 18.75C4.5 18.3358 4.83579 18 5.25 18H6.75C7.16421 18 7.5 18.3358 7.5 18.75C7.5 19.1642 7.16421 19.5 6.75 19.5H5.25C4.83579 19.5 4.5 19.1642 4.5 18.75Z" />
<path fill-rule="evenodd" clip-rule="evenodd" d="M3.75 9C2.92157 9 2.25 9.67157 2.25 10.5V20.25C2.25 21.0784 2.92157 21.75 3.75 21.75H8.25C9.07843 21.75 9.75 21.0784 9.75 20.25V10.5C9.75 9.67157 9.07843 9 8.25 9H3.75ZM8.25 10.875C8.25 10.6679 8.08211 10.5 7.875 10.5H4.125C3.91789 10.5 3.75 10.6679 3.75 10.875L3.75 19.875C3.75 20.0821 3.91789 20.25 4.125 20.25H7.875C8.08211 20.25 8.25 20.0821 8.25 19.875V10.875Z" />
</svg>
