<svg width="24" height="24" viewBox="0 0 24 24" xmlns="http://www.w3.org/2000/svg">
<path fill-rule="evenodd" clip-rule="evenodd" d="M7.5 2.25C5.84315 2.25 4.5 3.59315 4.5 5.25V16.5C4.5 18.1569 5.84315 19.5 7.5 19.5H18.75C20.4069 19.5 21.75 18.1569 21.75 16.5V5.25C21.75 3.59315 20.4069 2.25 18.75 2.25H7.5ZM18.75 3.75H7.5C6.67157 3.75 6 4.42157 6 5.25V6H20.25V5.25C20.25 4.42157 19.5784 3.75 18.75 3.75ZM6 16.5V7.5H20.25V16.5C20.25 17.3284 19.5784 18 18.75 18H7.5C6.67157 18 6 17.3284 6 16.5Z" />
<path d="M3.75 5.25C2.92157 5.25 2.25 5.92157 2.25 6.75V16.875C2.25 17.5152 2.3761 18.1491 2.62109 18.7406C2.86608 19.332 3.22517 19.8695 3.67785 20.3221C4.13054 20.7748 4.66796 21.1339 5.25942 21.3789C5.85088 21.6239 6.48481 21.75 7.125 21.75H17.25C18.0784 21.75 18.75 21.0784 18.75 20.25H7.125C6.68179 20.25 6.24292 20.1627 5.83344 19.9931C5.42397 19.8235 5.05191 19.5749 4.73851 19.2615C4.42512 18.9481 4.17652 18.576 4.00691 18.1666C3.8373 17.7571 3.75 17.3182 3.75 16.875V5.25Z" />
</svg>
