<svg width="20" height="20" viewBox="0 0 20 20" fill="none" xmlns="http://www.w3.org/2000/svg">
<path fill-rule="evenodd" clip-rule="evenodd" d="M9.2941 2.3098C9.73528 2.07451 10.2647 2.07451 10.7059 2.3098L17.7353 6.05882C17.8942 6.14359 17.9953 6.30731 17.9998 6.48738C18.0044 6.66746 17.9117 6.83607 17.7572 6.92874L10.7717 11.12C10.2967 11.4051 9.70326 11.4051 9.22824 11.12L2.24275 6.92874C2.08829 6.83606 1.99562 6.66746 2.00016 6.48738C2.0047 6.30731 2.10576 6.14359 2.26471 6.05882L9.2941 2.3098ZM10.2353 3.19215C10.0882 3.11372 9.91175 3.11372 9.76469 3.19216L3.51449 6.5256L9.74273 10.2626C9.90108 10.3576 10.0989 10.3576 10.2572 10.2626L16.4855 6.5256L10.2353 3.19215Z" fill="#666666"/>
<path fill-rule="evenodd" clip-rule="evenodd" d="M2.00001 9.00004L9.74273 13.5126C9.90108 13.6076 10.0989 13.6076 10.2572 13.5126L18 9.00004V9.5666C18 9.92176 17.8116 10.2503 17.5051 10.4297L10.7717 14.37C10.2967 14.6551 9.70326 14.6551 9.22824 14.37L2.49451 10.425C2.18821 10.2456 2.00001 9.91717 2.00001 9.56218V9.00004Z" fill="#666666"/>
<path fill-rule="evenodd" clip-rule="evenodd" d="M2 12L9.74272 16.5125C9.90106 16.6075 10.0989 16.6075 10.2572 16.5125L18 12V12.5666C18 12.9217 17.8116 13.2502 17.5051 13.4296L10.7717 17.37C10.2967 17.655 9.70325 17.655 9.22823 17.37L2.4945 13.425C2.1882 13.2455 2 12.9171 2 12.5621V12Z" fill="#666666"/>
</svg>
