<svg width="32" height="32" viewBox="0 0 32 32" fill="none" xmlns="http://www.w3.org/2000/svg">
<path fill-rule="evenodd" clip-rule="evenodd" d="M2 14.75L14.4277 22.1083C15.392 22.7016 16.6081 22.7016 17.5723 22.1083L30 14.75V15.8662C30 16.5695 29.6306 17.2211 29.0272 17.5823L18.6205 23.8116C17.0135 24.8005 14.9866 24.8005 13.3795 23.8116L2.9728 17.5823C2.36937 17.2211 2 16.5695 2 15.8662V14.75Z" fill="#666666"/>
<path fill-rule="evenodd" clip-rule="evenodd" d="M2 20L14.4277 27.3583C15.392 27.9516 16.6081 27.9516 17.5723 27.3583L30 20V21.1162C30 21.8195 29.6306 22.4711 29.0272 22.8323L18.6205 29.0616C17.0135 30.0505 14.9866 30.0505 13.3795 29.0616L2.9728 22.8323C2.36937 22.4711 2 21.8195 2 21.1162V20Z" fill="#666666"/>
<path fill-rule="evenodd" clip-rule="evenodd" d="M13.9036 3.1159C15.1892 2.32475 16.8108 2.32475 18.0964 3.1159L29.5241 10.1483C29.8198 10.3303 30 10.6527 30 11C30 11.3473 29.8198 11.6697 29.5241 11.8517L18.0964 18.8841C16.8108 19.6752 15.1892 19.6752 13.9036 18.8841L2.4759 11.8517C2.18016 11.6697 2 11.3473 2 11C2 10.6527 2.18016 10.3303 2.4759 10.1483L13.9036 3.1159ZM17.0482 4.81922C16.4054 4.42364 15.5946 4.42364 14.9518 4.81922L4.90804 11L14.9518 17.1808C15.5946 17.5764 16.4054 17.5764 17.0482 17.1808L27.092 11L17.0482 4.81922Z" fill="#666666"/>
</svg>
