<svg viewBox="0 0 20 20"   xmlns="http://www.w3.org/2000/svg">
<path fill-rule="evenodd" clip-rule="evenodd" d="M3.14645 3.14645C3.34171 2.95118 3.65829 2.95118 3.85355 3.14645L10 9.29289L16.1464 3.14645C16.3417 2.95118 16.6583 2.95118 16.8536 3.14645C17.0488 3.34171 17.0488 3.65829 16.8536 3.85355L10.7071 10L16.8536 16.1464C17.0488 16.3417 17.0488 16.6583 16.8536 16.8536C16.6583 17.0488 16.3417 17.0488 16.1464 16.8536L10 10.7071L3.85355 16.8536C3.65829 17.0488 3.34171 17.0488 3.14645 16.8536C2.95118 16.6583 2.95118 16.3417 3.14645 16.1464L9.29289 10L3.14645 3.85355C2.95118 3.65829 2.95118 3.34171 3.14645 3.14645Z"  />
</svg>
