<svg viewBox="0 0 24 24" xmlns="http://www.w3.org/2000/svg">
<path fill-rule="evenodd" clip-rule="evenodd" d="M18.5 3.5C17.3954 3.5 16.5 4.39543 16.5 5.5C16.5 6.60457 17.3954 7.5 18.5 7.5C19.6046 7.5 20.5 6.60457 20.5 5.5C20.5 4.39543 19.6046 3.5 18.5 3.5ZM15.3284 4.01777C15.8865 2.82573 17.0968 2 18.5 2C20.433 2 22 3.567 22 5.5C22 7.433 20.433 9 18.5 9C17.0968 9 15.8865 8.17427 15.3284 6.98223L14.0303 8.28033C13.7374 8.57322 13.2626 8.57322 12.9697 8.28033C12.6768 7.98744 12.6768 7.51256 12.9697 7.21967L13.9393 6.25H8.25C7.83579 6.25 7.5 6.58579 7.5 7V9H9.25C10.4926 9 11.5 10.0074 11.5 11.25V12.75C11.5 13.9926 10.4926 15 9.25 15H7.5V17C7.5 17.4142 7.83579 17.75 8.25 17.75H13.9393L12.9697 16.7803C12.6768 16.4874 12.6768 16.0126 12.9697 15.7197C13.2626 15.4268 13.7374 15.4268 14.0303 15.7197L15.3284 17.0178C15.8865 15.8257 17.0968 15 18.5 15C20.433 15 22 16.567 22 18.5C22 20.433 20.433 22 18.5 22C17.0968 22 15.8865 21.1743 15.3284 19.9822L14.0303 21.2803C13.7374 21.5732 13.2626 21.5732 12.9697 21.2803C12.6768 20.9874 12.6768 20.5126 12.9697 20.2197L13.9393 19.25H8.25C7.00736 19.25 6 18.2426 6 17V15H4.25C3.00736 15 2 13.9926 2 12.75V11.25C2 10.0074 3.00736 9 4.25 9H6V7C6 5.75736 7.00736 4.75 8.25 4.75H13.9393L12.9697 3.78033C12.6768 3.48744 12.6768 3.01256 12.9697 2.71967C13.2626 2.42678 13.7374 2.42678 14.0303 2.71967L15.3284 4.01777ZM4.25 10.5C3.83579 10.5 3.5 10.8358 3.5 11.25V12.75C3.5 13.1642 3.83579 13.5 4.25 13.5H9.25C9.66421 13.5 10 13.1642 10 12.75V11.25C10 10.8358 9.66421 10.5 9.25 10.5H4.25ZM18.5 16.5C17.3954 16.5 16.5 17.3954 16.5 18.5C16.5 19.6046 17.3954 20.5 18.5 20.5C19.6046 20.5 20.5 19.6046 20.5 18.5C20.5 17.3954 19.6046 16.5 18.5 16.5Z"/>
</svg>
