<svg viewBox="0 0 20 20" xmlns="http://www.w3.org/2000/svg">
<path fill-rule="evenodd" clip-rule="evenodd" d="M11.1664 2.1276C11.372 1.94334 11.6881 1.96069 11.8724 2.16637L13.1639 3.60791C13.5231 2.66773 14.4336 2 15.5 2C16.8807 2 18 3.11929 18 4.5C18 5.88072 16.8807 7 15.5 7C14.4335 7 13.523 6.33222 13.1638 5.39198L11.8724 6.83362C11.6882 7.0393 11.3721 7.05668 11.1664 6.87243C10.9607 6.68818 10.9433 6.37208 11.1276 6.16639L12.1725 4.99989H7C6.44771 4.99989 6 5.44761 6 5.99989V6.99988H7.5C8.32843 6.99988 9 7.67146 9 8.49988V11.5001C9 12.3286 8.32843 13.0001 7.5 13.0001H6V14.0001C6 14.5524 6.44771 15.0001 7 15.0001H12.1725L11.1276 13.8336C10.9433 13.6279 10.9607 13.3118 11.1664 13.1276C11.3721 12.9433 11.6882 12.9607 11.8724 13.1664L13.1638 14.608C13.523 13.6678 14.4335 13 15.5 13C16.8807 13 18 14.1193 18 15.5C18 16.8807 16.8807 18 15.5 18C14.4336 18 13.5231 17.3323 13.1639 16.3921L11.8724 17.8336C11.6881 18.0393 11.372 18.0567 11.1664 17.8724C10.9607 17.6882 10.9433 17.372 11.1276 17.1664L12.1724 16.0001H7C5.89543 16.0001 5 15.1047 5 14.0001V13.0001H3.5C2.67157 13.0001 2 12.3286 2 11.5001V8.49988C2 7.67146 2.67157 6.99988 3.5 6.99988H5V5.99989C5 4.89532 5.89543 3.99989 7 3.99989H12.1724L11.1276 2.83364C10.9433 2.62796 10.9607 2.31186 11.1664 2.1276ZM15.5 3C14.6716 3 14 3.67158 14 4.5C14 5.32843 14.6716 6 15.5 6C16.3284 6 17 5.32843 17 4.5C17 3.67158 16.3284 3 15.5 3ZM3.5 7.99988C3.22386 7.99988 3 8.22374 3 8.49988V11.5001C3 11.7763 3.22386 12.0001 3.5 12.0001H7.5C7.77614 12.0001 8 11.7763 8 11.5001V8.49988C8 8.22374 7.77614 7.99988 7.5 7.99988H3.5ZM15.5 14C14.6716 14 14 14.6716 14 15.5C14 16.3284 14.6716 17 15.5 17C16.3284 17 17 16.3284 17 15.5C17 14.6716 16.3284 14 15.5 14Z"/>
</svg>
