<svg viewBox="0 0 32 32" xmlns="http://www.w3.org/2000/svg">
<path fill-rule="evenodd" clip-rule="evenodd" d="M25 4C23.3431 4 22 5.34315 22 7C22 8.65685 23.3431 10 25 10C26.6569 10 28 8.65685 28 7C28 5.34315 26.6569 4 25 4ZM20.4155 5.00127C21.1868 3.23469 22.9492 2 25 2C27.7614 2 30 4.23858 30 7C30 9.76142 27.7614 12 25 12C22.9492 12 21.1868 10.7653 20.4155 8.99873L18.7071 10.7071C18.3166 11.0976 17.6834 11.0976 17.2929 10.7071C16.9024 10.3166 16.9024 9.68342 17.2929 9.29289L18.5858 8H11C10.4477 8 10 8.44772 10 9V12H13C14.6569 12 16 13.3431 16 15V17C16 18.6569 14.6569 20 13 20H10V23C10 23.5523 10.4477 24 11 24H18.5858L17.2929 22.7071C16.9024 22.3166 16.9024 21.6834 17.2929 21.2929C17.6834 20.9024 18.3166 20.9024 18.7071 21.2929L20.4155 23.0013C21.1868 21.2347 22.9492 20 25 20C27.7614 20 30 22.2386 30 25C30 27.7614 27.7614 30 25 30C22.9492 30 21.1868 28.7653 20.4155 26.9987L18.7071 28.7071C18.3166 29.0976 17.6834 29.0976 17.2929 28.7071C16.9024 28.3166 16.9024 27.6834 17.2929 27.2929L18.5858 26H11C9.34315 26 8 24.6569 8 23V20H5C3.34315 20 2 18.6569 2 17V15C2 13.3431 3.34315 12 5 12H8V9C8 7.34315 9.34315 6 11 6H18.5858L17.2929 4.70711C16.9024 4.31658 16.9024 3.68342 17.2929 3.29289C17.6834 2.90237 18.3166 2.90237 18.7071 3.29289L20.4155 5.00127ZM5 14C4.44772 14 4 14.4477 4 15V17C4 17.5523 4.44772 18 5 18H13C13.5523 18 14 17.5523 14 17V15C14 14.4477 13.5523 14 13 14H5ZM25 22C23.3431 22 22 23.3431 22 25C22 26.6569 23.3431 28 25 28C26.6569 28 28 26.6569 28 25C28 23.3431 26.6569 22 25 22Z"/>
</svg>
