<svg width="32" height="32" viewBox="0 0 32 32" fill="none" xmlns="http://www.w3.org/2000/svg">
<path d="M11.2438 6.05494L12.8001 2.76482C12.9328 2.48426 13.1879 2.27899 13.4933 2.22378C14.3066 2.07676 15.1443 2 16 2C16.8556 2 17.6934 2.07676 18.5066 2.22377C18.8121 2.27898 19.0671 2.48425 19.1998 2.76481L20.7561 6.05494C21.0232 6.61953 21.6121 6.95956 22.2346 6.90854L25.8594 6.61148C26.1682 6.58617 26.473 6.70401 26.6737 6.94015C27.7544 8.21209 28.6117 9.67968 29.1852 11.2823C29.2897 11.5742 29.2393 11.8972 29.0629 12.1521L27.1013 14.9866C26.4983 14.6774 25.8558 14.4342 25.1834 14.2667C25.2335 14.1788 25.2878 14.0926 25.3461 14.0083L27.1111 11.4579C26.6968 10.4456 26.1477 9.50178 25.4856 8.64882L22.3979 8.90186C20.9455 9.0209 19.5713 8.22749 18.9482 6.91013L17.623 4.10859C17.093 4.03704 16.5513 4 16 4C15.4487 4 14.907 4.03704 14.377 4.10859L13.0518 6.91013C12.4287 8.2275 11.0544 9.0209 9.602 8.90186L6.51443 8.64882C5.85226 9.5018 5.30314 10.4457 4.88884 11.4579L6.65382 14.0083C7.48313 15.2066 7.48312 16.7934 6.65381 17.9917L4.88884 20.5421C5.30314 21.5543 5.85226 22.4982 6.51443 23.3512L9.602 23.0981C11.0544 22.9791 12.4287 23.7725 13.0518 25.0899L14.377 27.8914C14.7488 27.9416 15.1264 27.9748 15.509 27.9902C15.999 28.7244 16.5942 29.3824 17.2729 29.9429C16.8536 29.9807 16.4291 30 16 30C15.1443 30 14.3066 29.9232 13.4933 29.7762C13.1879 29.721 12.9328 29.5157 12.8001 29.2352L11.2438 25.9451C10.9768 25.3805 10.3878 25.0404 9.76536 25.0915L6.14063 25.3885C5.83179 25.4138 5.52696 25.296 5.32633 25.0598C4.24562 23.7879 3.38823 22.3203 2.81474 20.7176C2.71032 20.4258 2.76067 20.1027 2.93705 19.8479L5.00923 16.8536C5.36465 16.34 5.36465 15.66 5.00923 15.1464L2.93705 12.1521C2.76067 11.8973 2.71032 11.5742 2.81474 11.2824C3.38823 9.67971 4.24562 8.21211 5.32633 6.94016C5.52696 6.70401 5.83179 6.58617 6.14063 6.61148L9.76536 6.90854C10.3878 6.95956 10.9768 6.61953 11.2438 6.05494Z" fill="#666666"/>
<path d="M16 11C18.1631 11 20.0053 12.3735 20.7021 14.296C20.048 14.4682 19.423 14.7123 18.836 15.0191C18.4296 13.844 17.3134 13 16 13C14.3432 13 13 14.3431 13 16C13 17.3134 13.844 18.4296 15.0192 18.836C14.7123 19.423 14.4683 20.048 14.296 20.7021C12.3736 20.0053 11 18.1631 11 16C11 13.2386 13.2386 11 16 11Z" fill="#666666"/>
<path fill-rule="evenodd" clip-rule="evenodd" d="M30.5 23C30.5 27.1421 27.1421 30.5 23 30.5C18.8579 30.5 15.5 27.1421 15.5 23C15.5 18.8579 18.8579 15.5 23 15.5C27.1421 15.5 30.5 18.8579 30.5 23ZM20 19.8042C20 19.0188 20.864 18.54 21.53 18.9562L26.6432 22.152C27.2699 22.5437 27.2699 23.4563 26.6432 23.848L21.53 27.0438C20.864 27.46 20 26.9812 20 26.1958V19.8042Z" fill="#666666"/>
</svg>
