<svg viewBox="0 0 24 24" xmlns="http://www.w3.org/2000/svg">
<path fill-rule="evenodd" clip-rule="evenodd" d="M16.5 11.25H12.75V12H17.25C17.6642 12 18 12.3358 18 12.75V14.25H20.25C21.0784 14.25 21.75 14.9216 21.75 15.75V19.5C21.75 20.3284 21.0784 21 20.25 21H14.25C13.4216 21 12.75 20.3284 12.75 19.5V15.75C12.75 14.9216 13.4216 14.25 14.25 14.25H16.5V13.5H7.5V14.25H9.75C10.5784 14.25 11.25 14.9216 11.25 15.75V19.5C11.25 20.3284 10.5784 21 9.75 21H3.75C2.92157 21 2.25 20.3284 2.25 19.5V15.75C2.25 14.9216 2.92157 14.25 3.75 14.25H6V12.75C6 12.3358 6.33579 12 6.75 12H11.25V11.25H7.5C6.67157 11.25 6 10.5784 6 9.75V4.5C6 3.67157 6.67157 3 7.5 3H16.5C17.3284 3 18 3.67157 18 4.5V9.75C18 10.5784 17.3284 11.25 16.5 11.25ZM16.5 5C16.5 4.72386 16.2761 4.5 16 4.5H8C7.72386 4.5 7.5 4.72386 7.5 5V9.25C7.5 9.52614 7.72386 9.75 8 9.75H16C16.2761 9.75 16.5 9.52614 16.5 9.25V5ZM4.25 15.75C3.97386 15.75 3.75 15.9739 3.75 16.25L3.75 19C3.75 19.2761 3.97386 19.5 4.25 19.5H9.25C9.52614 19.5 9.75 19.2761 9.75 19V16.25C9.75 15.9739 9.52614 15.75 9.25 15.75H4.25ZM19.75 15.75C20.0261 15.75 20.25 15.9739 20.25 16.25V19C20.25 19.2761 20.0261 19.5 19.75 19.5H14.75C14.4739 19.5 14.25 19.2761 14.25 19V16.25C14.25 15.9739 14.4739 15.75 14.75 15.75H19.75Z"/>
</svg>
