<svg viewBox="0 0 24 24" xmlns="http://www.w3.org/2000/svg">
<path d="M3.75 3C3.33579 3 3 3.33579 3 3.75V8.25C3 8.66421 3.33579 9 3.75 9C4.16421 9 4.5 8.66421 4.5 8.25V5.56066L7.77297 8.83363C8.06586 9.12653 8.54074 9.12653 8.83363 8.83363C9.12652 8.54074 9.12652 8.06586 8.83363 7.77297L5.56066 4.5H8.25C8.66421 4.5 9 4.16421 9 3.75C9 3.33579 8.66421 3 8.25 3H3.75Z"/>
<path d="M20.3033 3C20.7175 3 21.0533 3.33579 21.0533 3.75V8.25C21.0533 8.66421 20.7175 9 20.3033 9C19.8891 9 19.5533 8.66421 19.5533 8.25V5.56066L16.2803 8.83363C15.9874 9.12653 15.5126 9.12653 15.2197 8.83363C14.9268 8.54074 14.9268 8.06586 15.2197 7.77297L18.4926 4.5H15.8033C15.3891 4.5 15.0533 4.16421 15.0533 3.75C15.0533 3.33579 15.3891 3 15.8033 3H20.3033Z"/>
<path d="M3 20.3033C3 20.7175 3.33579 21.0533 3.75 21.0533H8.25C8.66421 21.0533 9 20.7175 9 20.3033C9 19.8891 8.66421 19.5533 8.25 19.5533H5.56066L8.83363 16.2803C9.12652 15.9874 9.12652 15.5126 8.83363 15.2197C8.54074 14.9268 8.06586 14.9268 7.77297 15.2197L4.5 18.4926V15.8033C4.5 15.3891 4.16421 15.0533 3.75 15.0533C3.33579 15.0533 3 15.3891 3 15.8033V20.3033Z"/>
<path d="M20.3033 21.0533C20.7175 21.0533 21.0533 20.7175 21.0533 20.3033V15.8033C21.0533 15.3891 20.7175 15.0533 20.3033 15.0533C19.8891 15.0533 19.5533 15.3891 19.5533 15.8033V18.4926L16.2803 15.2197C15.9874 14.9268 15.5126 14.9268 15.2197 15.2197C14.9268 15.5126 14.9268 15.9874 15.2197 16.2803L18.4926 19.5533H15.8033C15.3891 19.5533 15.0533 19.8891 15.0533 20.3033C15.0533 20.7175 15.3891 21.0533 15.8033 21.0533H20.3033Z"/>
</svg>
