<svg  viewBox="0 0 32 32"  xmlns="http://www.w3.org/2000/svg">
<path fill-rule="evenodd" clip-rule="evenodd" d="M12.8001 2.76482L11.2438 6.05494C10.9768 6.61953 10.3878 6.95956 9.76536 6.90854L6.14063 6.61148C5.83179 6.58617 5.52696 6.70401 5.32633 6.94016C4.24562 8.21211 3.38823 9.67971 2.81474 11.2824C2.71032 11.5742 2.76067 11.8973 2.93705 12.1521L5.00923 15.1464C5.36465 15.66 5.36465 16.34 5.00923 16.8536L2.93705 19.8479C2.76067 20.1027 2.71032 20.4258 2.81474 20.7176C3.38823 22.3203 4.24562 23.7879 5.32633 25.0598C5.52696 25.296 5.83179 25.4138 6.14063 25.3885L9.76536 25.0915C10.3878 25.0404 10.9768 25.3805 11.2438 25.9451L12.8001 29.2352C12.9328 29.5157 13.1879 29.721 13.4933 29.7762C14.3066 29.9232 15.1443 30 16 30C16.4291 30 16.8536 29.9807 17.2729 29.9429C16.5942 29.3824 15.999 28.7244 15.509 27.9902C15.1264 27.9748 14.7488 27.9416 14.377 27.8914L13.0518 25.0899C12.4287 23.7725 11.0544 22.9791 9.602 23.0981L6.51443 23.3512C5.85226 22.4982 5.30314 21.5543 4.88884 20.5421L6.65381 17.9917C7.48312 16.7934 7.48313 15.2066 6.65382 14.0083L4.88884 11.4579C5.30314 10.4457 5.85226 9.5018 6.51443 8.64882L9.602 8.90186C11.0544 9.0209 12.4287 8.2275 13.0518 6.91013L14.377 4.10859C14.907 4.03704 15.4487 4 16 4C16.5513 4 17.093 4.03704 17.623 4.10859L18.9482 6.91013C19.5713 8.22749 20.9455 9.0209 22.3979 8.90186L25.4856 8.64882C26.1477 9.50178 26.6968 10.4456 27.1111 11.4579L25.3461 14.0083C25.2878 14.0926 25.2335 14.1788 25.1834 14.2667C25.8558 14.4342 26.4983 14.6774 27.1013 14.9866L29.0629 12.1521C29.2393 11.8972 29.2897 11.5742 29.1852 11.2823C28.6117 9.67968 27.7544 8.21209 26.6737 6.94015C26.473 6.70401 26.1682 6.58617 25.8594 6.61148L22.2346 6.90854C21.6121 6.95956 21.0232 6.61953 20.7561 6.05494L19.1998 2.76481C19.0671 2.48425 18.8121 2.27898 18.5066 2.22377C17.6934 2.07676 16.8556 2 16 2C15.1443 2 14.3066 2.07676 13.4933 2.22378C13.1879 2.27899 12.9328 2.48426 12.8001 2.76482ZM20.7021 14.296C20.0053 12.3735 18.1631 11 16 11C13.2386 11 11 13.2386 11 16C11 18.1631 12.3736 20.0053 14.296 20.7021C14.4683 20.048 14.7123 19.423 15.0192 18.836C13.844 18.4296 13 17.3134 13 16C13 14.3431 14.3432 13 16 13C17.3134 13 18.4296 13.844 18.836 15.0191C19.423 14.7123 20.048 14.4682 20.7021 14.296Z" />
<path fill-rule="evenodd" clip-rule="evenodd" d="M23 30.5C27.1422 30.5 30.5 27.1421 30.5 23C30.5 18.8579 27.1422 15.5 23 15.5C18.8579 15.5 15.5 18.8579 15.5 23C15.5 27.1421 18.8579 30.5 23 30.5ZM27.5303 21.2803C27.8232 20.9874 27.8232 20.5126 27.5303 20.2197C27.2374 19.9268 26.7626 19.9268 26.4697 20.2197L21.75 24.9393L19.7803 22.9697C19.4874 22.6768 19.0126 22.6768 18.7197 22.9697C18.4268 23.2626 18.4268 23.7374 18.7197 24.0303L21.2197 26.5303C21.5126 26.8232 21.9874 26.8232 22.2803 26.5303L27.5303 21.2803Z" />
</svg>
