<svg  viewBox="0 0 24 24"  xmlns="http://www.w3.org/2000/svg">
<path fill-rule="evenodd" clip-rule="evenodd" d="M9.28384 2.74222C9.41064 2.47415 9.64929 2.2733 9.93954 2.2125C10.6045 2.07323 11.2937 2 12 2C12.7063 2 13.3955 2.07323 14.0604 2.2125C14.3507 2.2733 14.5893 2.47415 14.7161 2.74222L15.6041 4.61941C15.7821 4.9958 16.1747 5.22249 16.5897 5.18848L18.6568 5.01907C18.952 4.99487 19.245 5.10088 19.4429 5.32128C20.3605 6.34326 21.0708 7.55528 21.5073 8.89109C21.5993 9.17255 21.5445 9.47914 21.376 9.72263L20.1938 11.4309C20.1671 11.4696 20.1433 11.5096 20.1226 11.5508C19.6671 11.3497 19.1841 11.1994 18.6809 11.107C18.7514 10.9226 18.8446 10.7447 18.9604 10.5773L19.9894 9.09042C19.6473 8.1513 19.1437 7.28855 18.5114 6.53601L16.7122 6.68346C15.6748 6.76849 14.6932 6.20177 14.2481 5.26079L13.4755 3.62735C12.9971 3.54373 12.5041 3.5 12 3.5C11.4958 3.5 11.0029 3.54373 10.5245 3.62735L9.75186 5.2608C9.30676 6.20177 8.32518 6.76849 7.28773 6.68346L5.48855 6.53601C4.85628 7.28855 4.35271 8.15131 4.01059 9.09043L5.0396 10.5773C5.63196 11.4333 5.63196 12.5667 5.0396 13.4227L4.01059 14.9096C4.35271 15.8487 4.85628 16.7114 5.48855 17.464L7.28773 17.3165C8.32519 17.2315 9.30677 17.7982 9.75186 18.7392L10.5245 20.3726C10.9172 20.4413 11.3196 20.483 11.7301 20.4958C12.0111 21.0361 12.3659 21.5319 12.781 21.97C12.5232 21.9899 12.2628 22 12 22C11.2937 22 10.6045 21.9268 9.93953 21.7875C9.64929 21.7267 9.41064 21.5259 9.28384 21.2578L8.3959 19.3806C8.21786 19.0042 7.82523 18.7775 7.41025 18.8115L5.34317 18.9809C5.04795 19.0051 4.75501 18.8991 4.5571 18.6787C3.63945 17.6567 2.92922 16.4447 2.49269 15.1089C2.40071 14.8274 2.45543 14.5209 2.62393 14.2774L3.80616 12.5691C4.04311 12.2267 4.04311 11.7733 3.80616 11.4309L2.62393 9.72263C2.45543 9.47915 2.40071 9.17256 2.49269 8.8911C2.92922 7.55528 3.63945 6.34326 4.5571 5.32128C4.75501 5.10088 5.04795 4.99487 5.34317 5.01907L7.41025 5.18848C7.82523 5.22249 8.21786 4.9958 8.3959 4.61941L9.28384 2.74222ZM15.6769 11.2592C15.333 9.54292 13.8175 8.25 12 8.25C9.92897 8.25 8.25003 9.92893 8.25003 12C8.25003 13.8175 9.54295 15.3329 11.2592 15.6768C11.4065 15.1719 11.6133 14.6924 11.8717 14.2464C10.6888 14.1799 9.75003 13.1996 9.75003 12C9.75003 10.7574 10.7574 9.75 12 9.75C13.1996 9.75 14.1799 10.6887 14.2464 11.8717C14.6924 11.6133 15.1719 11.4064 15.6769 11.2592Z" />
<path fill-rule="evenodd" clip-rule="evenodd" d="M17.5 23C20.5376 23 23 20.5376 23 17.5C23 14.4624 20.5376 12 17.5 12C14.4625 12 12 14.4624 12 17.5C12 20.5376 14.4625 23 17.5 23ZM20.8536 15.8536C21.0489 15.6583 21.0489 15.3417 20.8536 15.1464C20.6583 14.9512 20.3417 14.9512 20.1465 15.1464L16.5 18.7929L14.8536 17.1464C14.6583 16.9512 14.3417 16.9512 14.1465 17.1464C13.9512 17.3417 13.9512 17.6583 14.1465 17.8536L16.1465 19.8536C16.3417 20.0488 16.6583 20.0488 16.8536 19.8536L20.8536 15.8536Z" />
</svg>
