<svg width="24" height="24" viewBox="0 0 24 24" xmlns="http://www.w3.org/2000/svg">
<path d="M13.5 3C13.0858 3 12.75 3.33579 12.75 3.75C12.75 4.16421 13.0858 4.5 13.5 4.5H18.4393L10.7197 12.2197C10.4268 12.5126 10.4268 12.9874 10.7197 13.2803C11.0126 13.5732 11.4874 13.5732 11.7803 13.2803L19.5 5.56066V10.5C19.5 10.9142 19.8358 11.25 20.25 11.25C20.6642 11.25 21 10.9142 21 10.5V3.75C21 3.33579 20.6642 3 20.25 3H13.5Z"/>
<path d="M10.5 4.5C10.9142 4.5 11.25 4.83579 11.25 5.25C11.25 5.66421 10.9142 6 10.5 6H6.75C5.92157 6 5.25 6.67157 5.25 7.5V17.25C5.25 18.0784 5.92157 18.75 6.75 18.75H16.5C17.3284 18.75 18 18.0784 18 17.25V13.5C18 13.0858 18.3358 12.75 18.75 12.75C19.1642 12.75 19.5 13.0858 19.5 13.5V17.25C19.5 18.9069 18.1569 20.25 16.5 20.25H6.75C5.09315 20.25 3.75 18.9069 3.75 17.25V7.5C3.75 5.84315 5.09315 4.5 6.75 4.5H10.5Z"/>
</svg>
