<svg viewBox="0 0 24 24" xmlns="http://www.w3.org/2000/svg">
<path d="M12 7.00001C11.5858 7.00001 11.25 7.33579 11.25 7.75001V12.75C11.25 13.1642 11.5858 13.5 12 13.5C12.4142 13.5 12.75 13.1642 12.75 12.75V7.75001C12.75 7.33579 12.4142 7.00001 12 7.00001Z" />
<path d="M13 16C13 16.5523 12.5523 17 12 17C11.4477 17 11 16.5523 11 16C11 15.4477 11.4477 15 12 15C12.5523 15 13 15.4477 13 16Z"/>
<path fill-rule="evenodd" clip-rule="evenodd" d="M3.40389 16.601C2.33898 14.6115 1.99578 12.3109 2.43851 10.0921C2.90012 7.77873 4.18482 5.71113 6.05446 4.2726C7.92411 2.83407 10.2519 2.12218 12.6064 2.26888C14.9608 2.41558 17.1822 3.41093 18.8588 5.07042C20.5354 6.72991 21.5535 8.94099 21.7244 11.2938C21.8953 13.6466 21.2073 15.9816 19.7881 17.8659C18.3688 19.7502 16.3145 21.0561 14.0059 21.5414C11.7958 22.0061 9.49609 21.6885 7.49828 20.6485L3.18192 21.7276C2.92411 21.7921 2.65144 21.7153 2.46516 21.5258C2.27887 21.3362 2.20677 21.0623 2.27565 20.8056L3.40389 16.601ZM6.96917 5.46143C8.55117 4.24422 10.5208 3.64185 12.5131 3.76598C14.5053 3.89011 16.385 4.73233 17.8036 6.13651C19.2223 7.5407 20.0838 9.41161 20.2284 11.4025C20.3729 13.3933 19.7908 15.3691 18.5899 16.9635C17.389 18.5579 15.6507 19.6629 13.6973 20.0735C11.744 20.4842 9.70792 20.1727 7.96665 19.1968C7.77929 19.0918 7.56618 19.0759 7.37617 19.1353C7.35683 19.1385 7.33747 19.1426 7.31812 19.1474L4.05475 19.9632L4.9319 16.6944C4.98984 16.4784 4.94737 16.2592 4.83307 16.0862C3.84863 14.3596 3.52048 12.3353 3.90951 10.3857C4.3001 8.42816 5.38716 6.67865 6.96917 5.46143Z" />
</svg>
