<svg viewBox="0 0 32 32" xmlns="http://www.w3.org/2000/svg">
<path fill-rule="evenodd" clip-rule="evenodd" d="M10 5C10 3.34315 11.3431 2 13 2H19C20.6569 2 22 3.34315 22 5V9C22 10.6569 20.6569 12 19 12H17V15H22C23.6569 15 25 16.3431 25 18V20H27C28.6569 20 30 21.3431 30 23V27C30 28.6569 28.6569 30 27 30H21C19.3431 30 18 28.6569 18 27V23C18 21.3431 19.3431 20 21 20H23V18C23 17.4477 22.5523 17 22 17H10C9.44772 17 9 17.4477 9 18V20H11C12.6569 20 14 21.3431 14 23V27C14 28.6569 12.6569 30 11 30H5C3.34315 30 2 28.6569 2 27V23C2 21.3431 3.34315 20 5 20H7V18C7 16.3431 8.34315 15 10 15H15V12H13C11.3431 12 10 10.6569 10 9V5ZM19 10C19.5523 10 20 9.55228 20 9V5C20 4.44772 19.5523 4 19 4H13C12.4477 4 12 4.44772 12 5V9C12 9.55228 12.4477 10 13 10H19ZM5 22C4.44772 22 4 22.4477 4 23V27C4 27.5523 4.44772 28 5 28H11C11.5523 28 12 27.5523 12 27V23C12 22.4477 11.5523 22 11 22H5ZM21 22C20.4477 22 20 22.4477 20 23V27C20 27.5523 20.4477 28 21 28H27C27.5523 28 28 27.5523 28 27V23C28 22.4477 27.5523 22 27 22H21Z" />
</svg>
