<svg width="24" height="24" viewBox="0 0 24 24" xmlns="http://www.w3.org/2000/svg">
<path d="M17.1996 2.33201C16.9752 2.27839 16.7409 2.25 16.5 2.25H7.5C5.84315 2.25 4.5 3.59315 4.5 5.25V18.75C4.5 20.4069 5.84315 21.75 7.5 21.75H16.5C18.1569 21.75 19.5 20.4069 19.5 18.75V6.85506C18.9238 6.68359 18.4099 6.36775 18 5.94949V18.75C18 19.5784 17.3284 20.25 16.5 20.25H7.5C6.67157 20.25 6 19.5784 6 18.75V5.25C6 4.42157 6.67157 3.75 7.5 3.75H16.5C16.6815 3.75 16.8554 3.78223 17.0164 3.84127C17.0056 3.72898 17 3.61514 17 3.5C17 3.09043 17.0703 2.6973 17.1996 2.33201Z" />
<path fill-rule="evenodd" clip-rule="evenodd" d="M7.5 6.75C7.5 5.92157 8.17157 5.25 9 5.25H15C15.8284 5.25 16.5 5.92157 16.5 6.75V8.25C16.5 9.07843 15.8284 9.75 15 9.75H9C8.17157 9.75 7.5 9.07843 7.5 8.25V6.75ZM9 6.75H15V8.25H9V6.75Z" />
<path d="M9.75 13.125C9.75 13.7463 9.24632 14.25 8.625 14.25C8.00368 14.25 7.5 13.7463 7.5 13.125C7.5 12.5037 8.00368 12 8.625 12C9.24632 12 9.75 12.5037 9.75 13.125Z" />
<path d="M13.125 13.125C13.125 13.7463 12.6213 14.25 12 14.25C11.3787 14.25 10.875 13.7463 10.875 13.125C10.875 12.5037 11.3787 12 12 12C12.6213 12 13.125 12.5037 13.125 13.125Z" />
<path d="M13.125 16.875C13.125 17.4963 12.6213 18 12 18C11.3787 18 10.875 17.4963 10.875 16.875C10.875 16.2537 11.3787 15.75 12 15.75C12.6213 15.75 13.125 16.2537 13.125 16.875Z" />
<path d="M16.5 13.125C16.5 13.7463 15.9963 14.25 15.375 14.25C14.7537 14.25 14.25 13.7463 14.25 13.125C14.25 12.5037 14.7537 12 15.375 12C15.9963 12 16.5 12.5037 16.5 13.125Z" />
<path d="M9.75 16.875C9.75 17.4963 9.24632 18 8.625 18C8.00368 18 7.5 17.4963 7.5 16.875C7.5 16.2537 8.00368 15.75 8.625 15.75C9.24632 15.75 9.75 16.2537 9.75 16.875Z" />
<path d="M16.5 16.875C16.5 17.4963 15.9963 18 15.375 18C14.7537 18 14.25 17.4963 14.25 16.875C14.25 16.2537 14.7537 15.75 15.375 15.75C15.9963 15.75 16.5 16.2537 16.5 16.875Z" />
<path d="M23 3.5C23 4.88071 21.8807 6 20.5 6C19.1193 6 18 4.88071 18 3.5C18 2.11929 19.1193 1 20.5 1C21.8807 1 23 2.11929 23 3.5Z" fill="#D9A54C"/>
</svg>
