<svg viewBox="0 0 32 32" xmlns="http://www.w3.org/2000/svg">
<path fill-rule="evenodd" clip-rule="evenodd" d="M16 2C16.2688 2 16.5264 2.10825 16.7145 2.30033L23.7145 9.44843C24.1009 9.84302 24.0943 10.4762 23.6997 10.8626C23.3051 11.249 22.6719 11.2424 22.2855 10.8478L17 5.45041V22.1481C17 22.7004 16.5523 23.1481 16 23.1481C15.4477 23.1481 15 22.7004 15 22.1481V5.45041L9.71447 10.8478C9.32805 11.2424 8.69492 11.249 8.30033 10.8626C7.90574 10.4762 7.89912 9.84302 8.28553 9.44843L15.2855 2.30033C15.4736 2.10825 15.7312 2 16 2ZM4 22C4.55228 22 5 22.4477 5 23V25.5C5 26.3285 5.67157 27 6.5 27H25.5C26.3284 27 27 26.3285 27 25.5V23C27 22.4477 27.4477 22 28 22C28.5523 22 29 22.4477 29 23V25.5C29 27.433 27.433 29 25.5 29H6.5C4.567 29 3 27.433 3 25.5V23C3 22.4477 3.44772 22 4 22Z"/>
</svg>
