<svg viewBox="0 0 16 16" xmlns="http://www.w3.org/2000/svg">
<path fill-rule="evenodd" clip-rule="evenodd" d="M7.99999 1C8.1326 1 8.25978 1.05268 8.35355 1.14645L11.9535 4.74645C12.1488 4.94171 12.1488 5.25829 11.9535 5.45356C11.7583 5.64882 11.4417 5.64882 11.2464 5.45355L8.49999 2.70711L8.49998 11.6C8.49997 11.8761 8.27612 12.1 7.99997 12.1C7.72383 12.1 7.49997 11.8761 7.49998 11.6L7.49999 2.7071L4.75352 5.45356C4.55825 5.64882 4.24167 5.64882 4.04641 5.45355C3.85115 5.25829 3.85115 4.94171 4.04641 4.74645L7.64644 1.14645C7.74021 1.05268 7.86739 0.999999 7.99999 1ZM2.5 11C2.77614 11 3 11.2239 3 11.5V13C3 13.5523 3.44772 14 4 14H12C12.5523 14 13 13.5523 13 13V11.5C13 11.2239 13.2239 11 13.5 11C13.7761 11 14 11.2239 14 11.5V13C14 14.1046 13.1046 15 12 15H4C2.89543 15 2 14.1046 2 13V11.5C2 11.2239 2.22386 11 2.5 11Z"/>
</svg>
