<svg viewBox="0 0 24 24" xmlns="http://www.w3.org/2000/svg">
<path fill-rule="evenodd" clip-rule="evenodd" d="M12 2C12.2016 2 12.3948 2.08119 12.5359 2.22525L17.7859 7.58632C18.0757 7.88227 18.0707 8.35712 17.7747 8.64693C17.4788 8.93674 17.004 8.93177 16.7141 8.63582L12.75 4.58781V16.6111C12.75 17.0253 12.4142 17.3611 12 17.3611C11.5858 17.3611 11.25 17.0253 11.25 16.6111V4.58781L7.28585 8.63582C6.99604 8.93177 6.52119 8.93674 6.22525 8.64693C5.92931 8.35712 5.92434 7.88227 6.21415 7.58632L11.4641 2.22525C11.6052 2.08119 11.7984 2 12 2ZM3.75 16C4.16421 16 4.5 16.3358 4.5 16.75V19.25C4.5 19.9404 5.05964 20.5 5.75 20.5H18.25C18.9404 20.5 19.5 19.9404 19.5 19.25V16.75C19.5 16.3358 19.8358 16 20.25 16C20.6642 16 21 16.3358 21 16.75V19.25C21 20.7688 19.7688 22 18.25 22H5.75C4.23122 22 3 20.7688 3 19.25V16.75C3 16.3358 3.33579 16 3.75 16Z"/>
</svg>
