<svg viewBox="0 0 24 24" xmlns="http://www.w3.org/2000/svg">
<path fill-rule="evenodd" clip-rule="evenodd" d="M11.4697 3.86966C11.7626 3.57677 12.2374 3.57677 12.5303 3.86966L19.7803 11.1197C20.0732 11.4126 20.0732 11.8874 19.7803 12.1803L12.5303 19.4303C12.2374 19.7232 11.7626 19.7232 11.4697 19.4303L4.21967 12.1803C3.92678 11.8874 3.92678 11.4126 4.21967 11.1197L11.4697 3.86966ZM5.81066 11.65L12 17.8393L18.1893 11.65L12 5.46065L5.81066 11.65Z" />
<path fill-rule="evenodd" clip-rule="evenodd" d="M15 7.99999C15 7.58578 15.3358 7.24999 15.75 7.24999H21.25C21.6642 7.24999 22 7.58578 22 7.99999C22 8.41421 21.6642 8.74999 21.25 8.74999H15.75C15.3358 8.74999 15 8.41421 15 7.99999ZM2 11.75C2 11.3358 2.33579 11 2.75 11H4.5C4.91421 11 5.25 11.3358 5.25 11.75C5.25 12.1642 4.91421 12.5 4.5 12.5H2.75C2.33579 12.5 2 12.1642 2 11.75ZM18.375 11.75C18.375 11.3358 18.7108 11 19.125 11H21.25C21.6642 11 22 11.3358 22 11.75C22 12.1642 21.6642 12.5 21.25 12.5H19.125C18.7108 12.5 18.375 12.1642 18.375 11.75ZM15.375 15.25C15.375 14.8358 15.7108 14.5 16.125 14.5H21.25C21.6642 14.5 22 14.8358 22 15.25C22 15.6642 21.6642 16 21.25 16H16.125C15.7108 16 15.375 15.6642 15.375 15.25Z" />
</svg>
