<svg viewBox="0 0 16 16" xmlns="http://www.w3.org/2000/svg">
<path fill-rule="evenodd" clip-rule="evenodd" d="M8.00002 2.49998C8.13263 2.49998 8.25981 2.55266 8.35358 2.64643L13.3536 7.64643C13.4474 7.7402 13.5 7.86738 13.5 7.99998C13.5 8.13259 13.4474 8.25977 13.3536 8.35354L8.35359 13.3535C8.15833 13.5488 7.84175 13.5488 7.64648 13.3535L2.64648 8.35354C2.45122 8.15828 2.45122 7.84169 2.64648 7.64643L7.64647 2.64643C7.74024 2.55266 7.86742 2.49998 8.00002 2.49998ZM8.00002 3.70709L3.70714 7.99998L8.00004 12.2929L12.2929 7.99998L8.00002 3.70709Z" />
<path fill-rule="evenodd" clip-rule="evenodd" d="M10 5.49996C10 5.22382 10.2239 4.99996 10.5 4.99996H14.5C14.7761 4.99996 15 5.22382 15 5.49996C15 5.7761 14.7761 5.99996 14.5 5.99996H10.5C10.2239 5.99996 10 5.7761 10 5.49996ZM1 7.99996C1 7.72382 1.22386 7.49996 1.5 7.49996H3C3.27614 7.49996 3.5 7.72382 3.5 7.99996C3.5 8.2761 3.27614 8.49996 3 8.49996H1.5C1.22386 8.49996 1 8.2761 1 7.99996ZM12.5 7.99996C12.5 7.72382 12.7239 7.49996 13 7.49996H14.5C14.7761 7.49996 15 7.72382 15 7.99996C15 8.2761 14.7761 8.49996 14.5 8.49996H13C12.7239 8.49996 12.5 8.2761 12.5 7.99996ZM10 10.5C10 10.2238 10.2239 9.99996 10.5 9.99996H14.5C14.7761 9.99996 15 10.2238 15 10.5C15 10.7761 14.7761 11 14.5 11H10.5C10.2239 11 10 10.7761 10 10.5Z" />
</svg>
