<svg viewBox="0 0 20 20" xmlns="http://www.w3.org/2000/svg">
<path fill-rule="evenodd" clip-rule="evenodd" d="M10 3.00005C10.1326 3.00005 10.2598 3.05272 10.3536 3.14649L16.3536 9.14649C16.4474 9.24026 16.5 9.36744 16.5 9.50005C16.5 9.63265 16.4474 9.75983 16.3536 9.8536L10.3536 15.8536C10.1583 16.0489 9.84175 16.0489 9.64649 15.8536L3.64649 9.8536C3.45122 9.65834 3.45122 9.34176 3.64649 9.14649L9.64647 3.14649C9.74023 3.05272 9.86741 3.00005 10 3.00005ZM10 4.20715L4.70715 9.50005L10 14.7929L15.2929 9.50005L10 4.20715Z" />
<path fill-rule="evenodd" clip-rule="evenodd" d="M12.5 6.50005C12.5 6.2239 12.7239 6.00005 13 6.00005H17.5C17.7761 6.00005 18 6.2239 18 6.50005C18 6.77619 17.7761 7.00005 17.5 7.00005H13C12.7239 7.00005 12.5 6.77619 12.5 6.50005ZM2 9.50005C2 9.2239 2.22386 9.00005 2.5 9.00005H4C4.27614 9.00005 4.5 9.2239 4.5 9.50005C4.5 9.77619 4.27614 10 4 10H2.5C2.22386 10 2 9.77619 2 9.50005ZM15.5 9.50005C15.5 9.2239 15.7239 9.00005 16 9.00005H17.5C17.7761 9.00005 18 9.2239 18 9.50005C18 9.77619 17.7761 10 17.5 10H16C15.7239 10 15.5 9.77619 15.5 9.50005ZM12.5 12.5C12.5 12.2239 12.7239 12 13 12H17.5C17.7761 12 18 12.2239 18 12.5C18 12.7762 17.7761 13 17.5 13H13C12.7239 13 12.5 12.7762 12.5 12.5Z" />
</svg>
