<svg viewBox="0 0 24 24" xmlns="http://www.w3.org/2000/svg">
<path d="M6.66064 5.38585C6.19214 5.76461 5.76461 6.19214 5.38584 6.66065L5.73359 7.4401C6.31769 8.74933 5.68343 10.2806 4.34465 10.7933L3.80816 9.39254C4.34367 9.18744 4.59738 8.57494 4.36374 8.05125L3.66174 6.47776C4.40252 5.36147 5.36147 4.40252 6.47776 3.66174L8.05125 4.36374C8.57494 4.59738 9.18744 4.34368 9.39253 3.80816L10.0091 2.19819C10.6525 2.06821 11.3183 2 12 2C12.6817 2 13.3475 2.06821 13.9909 2.19818L14.6075 3.80816C14.8126 4.34368 15.4251 4.59738 15.9487 4.36374L17.5222 3.66174C18.6385 4.40252 19.5975 5.36147 20.3383 6.47775L19.6363 8.05125C19.4026 8.57494 19.6563 9.18744 20.1918 9.39254L21.8018 10.0091C21.8841 10.4164 21.9416 10.8326 21.9727 11.2561C21.4535 11.0477 20.8906 10.9814 20.3435 11.0569L19.6553 10.7933C18.3166 10.2806 17.6823 8.74933 18.2664 7.4401L18.6142 6.66064C18.2354 6.19214 17.8079 5.76461 17.3394 5.38584L16.5599 5.73359C15.2507 6.3177 13.7194 5.68344 13.2067 4.34465L12.9012 3.54709C12.6054 3.51598 12.3048 3.5 12 3.5C11.6952 3.5 11.3945 3.51598 11.0988 3.54709L10.7933 4.34465C10.2806 5.68343 8.74933 6.3177 7.4401 5.73359L6.66064 5.38585Z"/>
<path d="M11.2714 20.4693C11.2137 20.4644 11.1561 20.4589 11.0988 20.4529L10.7933 19.6554C10.2806 18.3166 8.74933 17.6823 7.4401 18.2664L6.66064 18.6142C6.19214 18.2354 5.7646 17.8079 5.38584 17.3394L5.73359 16.5599C6.31769 15.2507 5.68343 13.7194 4.34464 13.2067L3.54709 12.9012C3.51598 12.6055 3.5 12.3048 3.5 12C3.5 11.6952 3.51598 11.3945 3.54709 11.0988L4.34465 10.7933L3.80816 9.39254L2.19819 10.0091C2.06821 10.6525 2 11.3183 2 12C2 12.6817 2.06821 13.3475 2.19818 13.9909L3.80816 14.6075C4.34367 14.8126 4.59738 15.4251 4.36374 15.9487L3.66174 17.5222C4.40252 18.6385 5.36147 19.5975 6.47776 20.3383L8.05125 19.6363C8.57494 19.4026 9.18743 19.6563 9.39253 20.1918L10.0091 21.8018C10.331 21.8668 10.6584 21.9164 10.9907 21.9497C10.9944 21.8319 11.0086 21.7121 11.0342 21.5912L11.2714 20.4693Z"/>
<path fill-rule="evenodd" clip-rule="evenodd" d="M8.25 12C8.25 9.92893 9.92893 8.25 12 8.25C14.0711 8.25 15.75 9.92893 15.75 12C15.75 14.0711 14.0711 15.75 12 15.75C9.92893 15.75 8.25 14.0711 8.25 12ZM12 9.75C10.7574 9.75 9.75 10.7574 9.75 12C9.75 13.2426 10.7574 14.25 12 14.25C13.2426 14.25 14.25 13.2426 14.25 12C14.25 10.7574 13.2426 9.75 12 9.75Z"/>
<path d="M13.1983 22.9832C12.4908 23.1331 11.863 22.5056 12.0126 21.798L12.4785 19.5947C12.5256 19.4336 12.6125 19.2869 12.7312 19.1682L19.2301 12.6693C20.0853 11.8141 21.4742 11.8117 22.3295 12.6669C23.1847 13.5221 23.1847 14.9088 22.3295 15.7641L15.8306 22.263C15.7119 22.3816 15.5652 22.4685 15.4041 22.5157L13.1983 22.9832Z"/>
</svg>
