<svg viewBox="0 0 32 32" xmlns="http://www.w3.org/2000/svg">
<path d="M8.20236 6.87843C7.72753 7.28478 7.28476 7.72756 6.87841 8.20238L7.5731 9.7595C8.39084 11.5924 7.50288 13.7362 5.62858 14.454L4.91326 12.5863C5.71653 12.2786 6.09709 11.3599 5.74663 10.5744L4.56364 7.92276C5.48434 6.62154 6.62152 5.48436 7.92273 4.56366L10.5743 5.74665C11.3599 6.09712 12.2786 5.71656 12.5863 4.91329L13.6252 2.20059C14.3971 2.0687 15.1905 2 16 2C16.8095 2 17.6029 2.0687 18.3747 2.20058L19.4137 4.91329C19.7213 5.71656 20.6401 6.09712 21.4256 5.74665L24.0772 4.56365C25.3785 5.48434 26.5156 6.62151 27.4363 7.92272L26.2533 10.5744C25.9029 11.3599 26.2834 12.2786 27.0867 12.5863L29.7994 13.6252C29.849 13.9156 29.8897 14.2091 29.9211 14.5053C29.7867 14.431 29.648 14.3642 29.5054 14.3054C29.0161 14.1037 28.492 14 27.9628 14C27.4336 14 26.9094 14.1037 26.4201 14.3054C26.3534 14.3329 26.2875 14.3622 26.2226 14.3931C24.4506 13.6213 23.6311 11.5432 24.4268 9.7595L25.1216 8.20235C24.7152 7.72753 24.2724 7.28476 23.7976 6.87842L22.2405 7.57312C20.4076 8.39087 18.2638 7.5029 17.546 5.6286L16.936 4.03587C16.6274 4.01212 16.3153 4 16 4C15.6847 4 15.3726 4.01212 15.064 4.03587L14.454 5.6286C13.7361 7.5029 11.5924 8.39087 9.75948 7.57313L8.20236 6.87843Z"/>
<path d="M14.5522 26.6278L14.454 26.3714C13.7361 24.4971 11.5924 23.6091 9.75948 24.4269L8.20236 25.1216C7.72754 24.7152 7.28476 24.2724 6.87841 23.7976L7.5731 22.2405C8.39084 20.4076 7.50288 18.2638 5.62858 17.546L4.03587 16.936C4.01212 16.6274 4 16.3153 4 16C4 15.6847 4.01212 15.3726 4.03587 15.064L5.62858 14.454L4.91326 12.5863L2.20059 13.6252C2.0687 14.3971 2 15.1905 2 16C2 16.8095 2.0687 17.6029 2.20059 18.3748L4.91326 19.4137C5.71653 19.7214 6.09709 20.6401 5.74663 21.4256L4.56364 24.0772C5.48434 25.3785 6.62152 26.5156 7.92273 27.4363L10.5743 26.2533C11.3599 25.9029 12.2786 26.2834 12.5863 27.0867L13.6252 29.7994C13.7688 29.824 13.9132 29.8463 14.0583 29.8664C14.0123 29.5808 14.0157 29.2797 14.0775 28.9721L14.5167 26.7888C14.5275 26.7349 14.5394 26.6812 14.5522 26.6278Z"/>
<path fill-rule="evenodd" clip-rule="evenodd" d="M11 16C11 13.2386 13.2386 11 16 11C18.7614 11 21 13.2386 21 16C21 18.7614 18.7614 21 16 21C13.2386 21 11 18.7614 11 16ZM16 13C14.3431 13 13 14.3431 13 16C13 17.6569 14.3431 19 16 19C17.6569 19 19 17.6569 19 16C19 14.3431 17.6569 13 16 13Z"/>
<path d="M15.9872 27.0846L15.5481 29.2679C15.4068 29.9705 16.0287 30.5893 16.7306 30.4444L18.8333 30.0104C19.4048 29.8925 19.9296 29.6104 20.3432 29.1987L29.8127 19.774C30.0483 19.5395 30.1794 19.2979 30.3069 18.9916C30.4344 18.6852 30.5 18.3568 30.5 18.0252C30.5 17.6936 30.4344 17.3652 30.3069 17.0588C30.1794 16.7525 29.9925 16.4741 29.7569 16.2396C29.5213 16.0051 29.2416 15.8191 28.9337 15.6922C28.6259 15.5653 28.296 15.5 27.9628 15.5C27.6296 15.5 27.2997 15.5653 26.9918 15.6922C26.684 15.8191 26.4043 16.0051 26.1687 16.2396L16.8123 25.5496C16.3914 25.9684 16.1043 26.5026 15.9872 27.0846Z"/>
</svg>
