<svg viewBox="0 0 20 20" xmlns="http://www.w3.org/2000/svg">
<path d="M6.81127 4.31404L5.30812 3.51961C4.62167 4.01747 4.01742 4.62173 3.51957 5.30818L4.314 6.81132C4.60688 7.36549 4.3236 8.0494 3.72464 8.23416L2.09937 8.73549C2.03397 9.14737 2 9.56972 2 10C2 10.4303 2.03397 10.8526 2.09937 11.2645L3.72464 11.7658C4.3236 11.9506 4.60688 12.6345 4.314 13.1887L3.51957 14.6918C4.01742 15.3783 4.62167 15.9825 5.30812 16.4804L6.81127 15.686C7.36544 15.3931 8.04936 15.6764 8.23411 16.2753L8.73545 17.9006C8.8238 17.9146 8.91264 17.9272 9.00192 17.9383C9.0056 17.8319 9.01782 17.7238 9.03922 17.6146L9.29358 16.3174L9.18968 15.9806C8.82017 14.7826 7.45235 14.2161 6.34401 14.8018L5.41734 15.2916C5.16451 15.0724 4.92753 14.8354 4.70836 14.5826L5.19811 13.6559C5.78389 12.5476 5.21732 11.1798 4.01939 10.8103L3.01763 10.5013C3.00595 10.3358 3 10.1687 3 10C3 9.83132 3.00595 9.66417 3.01763 9.49874L4.01939 9.18973C5.21732 8.82022 5.78389 7.45239 5.19811 6.34405L4.70836 5.41739C4.92753 5.16456 5.16451 4.92758 5.41734 4.7084L6.344 5.19816C7.45235 5.78393 8.82017 5.21737 9.18968 4.01944L9.4987 3.01763C9.66415 3.00595 9.83131 3 10 3C10.1687 3 10.3358 3.00595 10.5012 3.01762L10.8102 4.01944C11.1797 5.21737 12.5476 5.78393 13.6559 5.19816L14.5826 4.70837C14.8354 4.92753 15.0724 5.16451 15.2916 5.41732L14.8018 6.34405C14.2216 7.44191 14.772 8.79437 15.9467 9.17898C16.5959 8.94789 17.3087 8.9473 17.9582 9.1772C17.943 9.02873 17.9238 8.88147 17.9006 8.73552L16.2753 8.23416C15.6763 8.0494 15.393 7.36549 15.6859 6.81132L16.4804 5.3081C15.9825 4.62167 15.3783 4.01743 14.6918 3.51958L13.1886 4.31404C12.6345 4.60693 11.9506 4.32365 11.7658 3.72469L11.2644 2.09936C10.8526 2.03397 10.4303 2 10 2C9.56971 2 9.14734 2.03397 8.73545 2.09938L8.23411 3.72468C8.04936 4.32365 7.36544 4.60693 6.81127 4.31404Z"/>
<path fill-rule="evenodd" clip-rule="evenodd" d="M7 10C7 8.34315 8.34315 7 10 7C11.6569 7 13 8.34315 13 10C13 11.6569 11.6569 13 10 13C8.34315 13 7 11.6569 7 10ZM10 8C8.89543 8 8 8.89543 8 10C8 11.1046 8.89543 12 10 12C11.1046 12 12 11.1046 12 10C12 8.89543 11.1046 8 10 8Z"/>
<path d="M10.0205 17.807L10.3168 16.2958C10.3933 15.9058 10.5842 15.5475 10.8653 15.2665L15.5407 10.591C16.3218 9.80992 17.5881 9.80992 18.3692 10.591C19.1502 11.372 19.1502 12.6383 18.3692 13.4194L13.676 18.1125C13.4061 18.3825 13.0644 18.5696 12.6915 18.6516L11.2167 18.9761C10.5133 19.1308 9.88196 18.5137 10.0205 17.807Z"/>
</svg>
