<svg viewBox="0 0 16 16" xmlns="http://www.w3.org/2000/svg">
<path d="M4.07338 3.46315L4.47375 3.70708C5.63039 4.41179 7.13832 3.78719 7.45789 2.47101L7.56855 2.01523C7.71093 2.00514 7.8548 2 8 2C8.1452 2 8.28907 2.00514 8.43145 2.01523L8.54211 2.47101C8.86168 3.78719 10.3696 4.41179 11.5263 3.70708L11.9266 3.46315C12.1443 3.65173 12.3483 3.85571 12.5368 4.07338L12.2929 4.47375C12.1611 4.69016 12.0757 4.91887 12.0328 5.1498C12.3904 5.03462 12.7654 4.98826 13.137 5.01071C13.1402 5.00514 13.1435 4.99959 13.1469 4.99405L13.7492 4.00554C13.2732 3.32172 12.6783 2.72683 11.9945 2.25083L11.0059 2.8531C10.4276 3.20546 9.67366 2.89316 9.51388 2.23507L9.24062 1.1096C8.83796 1.03759 8.42337 1 8 1C7.57663 1 7.16204 1.03759 6.75938 1.1096L6.48612 2.23507C6.32634 2.89315 5.57237 3.20546 4.99405 2.8531L4.00554 2.25083C3.32172 2.72683 2.72683 3.32172 2.25083 4.00554L2.8531 4.99405C3.20546 5.57237 2.89316 6.32634 2.23507 6.48612L1.1096 6.75938C1.03758 7.16204 1 7.57663 1 8C1 8.42337 1.03759 8.83796 1.1096 9.24062L2.23507 9.51388C2.89315 9.67366 3.20546 10.4276 2.8531 11.0059L2.25083 11.9945C2.72684 12.6783 3.32172 13.2732 4.00554 13.7492L4.99405 13.1469C5.04352 13.1168 5.09428 13.0915 5.14585 13.0709L5.33554 12.1034C5.34196 12.0707 5.34893 12.038 5.35643 12.0056C5.05619 12.0291 4.75461 12.1218 4.47375 12.2929L4.07338 12.5368C3.85572 12.3483 3.65173 12.1443 3.46315 11.9266L3.70708 11.5263C4.41179 10.3696 3.78719 8.86168 2.47101 8.54211L2.01523 8.43145C2.00514 8.28907 2 8.1452 2 8C2 7.8548 2.00514 7.71093 2.01523 7.56855L2.47101 7.45789C3.78719 7.13832 4.41179 5.63039 3.70708 4.47375L3.46315 4.07338C3.65173 3.85571 3.85571 3.65173 4.07338 3.46315Z"/>
<path d="M9.72695 6.99058C9.37982 6.39798 8.73639 6 8 6C6.89543 6 6 6.89543 6 8C6 8.73639 6.39798 9.37982 6.99058 9.72695L7.74923 8.9683C7.31832 8.85702 7 8.46568 7 8C7 7.44772 7.44772 7 8 7C8.46568 7 8.85702 7.31832 8.9683 7.74923L9.72695 6.99058Z"/>
<path d="M6.02054 13.807L6.31685 12.2958C6.39332 11.9058 6.58424 11.5475 6.86526 11.2665L11.5407 6.59097C12.3218 5.80992 13.5881 5.80992 14.3692 6.59097C15.1502 7.37202 15.1502 8.63835 14.3692 9.4194L9.67603 14.1125C9.40605 14.3825 9.06444 14.5696 8.69154 14.6516L7.21671 14.9761C6.51335 15.1308 5.88196 14.5137 6.02054 13.807Z"/>
</svg>
