<svg viewBox="0 0 16 16" xmlns="http://www.w3.org/2000/svg">
<path fill-rule="evenodd" clip-rule="evenodd" d="M8 7.2C9.32548 7.2 10.4 6.48366 10.4 5.6C10.4 4.71634 9.32548 4 8 4C6.67452 4 5.6 4.71634 5.6 5.6C5.6 6.48366 6.67452 7.2 8 7.2ZM9.14236 5.89932C9.39789 5.72897 9.4 5.60345 9.4 5.6C9.4 5.59655 9.39789 5.47103 9.14236 5.30068C8.89382 5.13498 8.49285 5 8 5C7.50715 5 7.10618 5.13498 6.85764 5.30068C6.60211 5.47103 6.6 5.59655 6.6 5.6C6.6 5.60345 6.60211 5.72897 6.85764 5.89932C7.10618 6.06501 7.50715 6.2 8 6.2C8.49285 6.2 8.89382 6.06501 9.14236 5.89932Z"/>
<path d="M10.3244 6.8C10.058 7.49009 9.1183 8 8 8C6.8817 8 5.94204 7.49009 5.67561 6.8C5.62625 6.92785 5.6 7.06188 5.6 7.2C5.6 8.08366 6.67452 8.8 8 8.8C9.32548 8.8 10.4 8.08366 10.4 7.2C10.4 7.06188 10.3737 6.92785 10.3244 6.8Z"/>
<path d="M8 9.6C9.1183 9.6 10.058 9.09009 10.3244 8.4C10.3737 8.52785 10.4 8.66188 10.4 8.8C10.4 9.68366 9.32548 10.4 8 10.4C6.67452 10.4 5.6 9.68366 5.6 8.8C5.6 8.66188 5.62625 8.52785 5.67561 8.4C5.94204 9.09009 6.8817 9.6 8 9.6Z"/>
<path fill-rule="evenodd" clip-rule="evenodd" d="M3 3C3 1.89543 3.89543 1 5 1H11C12.1046 1 13 1.89543 13 3V11.5C13 12.3284 12.3284 13 11.5 13H4C4 13.5523 4.44772 14 5 14H12.5C12.7761 14 13 14.2239 13 14.5C13 14.7761 12.7761 15 12.5 15H5C3.89543 15 3 14.1046 3 13V3ZM4 12H11.5C11.7761 12 12 11.7761 12 11.5V3C12 2.44772 11.5523 2 11 2H5C4.44772 2 4 2.44772 4 3V12Z"/>
</svg>
