<svg viewBox="0 0 24 24" xmlns="http://www.w3.org/2000/svg">
<path fill-rule="evenodd" clip-rule="evenodd" d="M15.5 9C15.5 10.1046 13.933 11 12 11C10.067 11 8.5 10.1046 8.5 9C8.5 7.89543 10.067 7 12 7C13.933 7 15.5 7.89543 15.5 9ZM14.0234 8.87743C14.0234 8.87743 14.0221 8.88212 14.0163 8.89065C14.0199 8.88155 14.0234 8.87743 14.0234 8.87743ZM13.7307 8.88815C13.8043 8.93025 13.8602 8.96787 13.9024 9C13.8602 9.03213 13.8043 9.06975 13.7307 9.11185C13.3625 9.32221 12.7538 9.5 12 9.5C11.2462 9.5 10.6375 9.32221 10.2693 9.11185C10.1957 9.06975 10.1398 9.03213 10.0976 9C10.1398 8.96787 10.1957 8.93025 10.2693 8.88815C10.6375 8.67779 11.2462 8.5 12 8.5C12.7538 8.5 13.3625 8.67779 13.7307 8.88815ZM9.97663 8.87743C9.97663 8.87743 9.98009 8.88155 9.98368 8.89065C9.97787 8.88212 9.97663 8.87743 9.97663 8.87743ZM9.97663 9.12257C9.97663 9.12257 9.97787 9.11788 9.98368 9.10935C9.98009 9.11845 9.97663 9.12257 9.97663 9.12257ZM14.0163 9.10935C14.0221 9.11788 14.0234 9.12257 14.0234 9.12257C14.0234 9.12257 14.0199 9.11845 14.0163 9.10935Z"/>
<path d="M12 12C13.6309 12 15.0012 11.3626 15.3897 10.5C15.4617 10.6598 15.5 10.8274 15.5 11C15.5 12.1046 13.933 13 12 13C10.067 13 8.5 12.1046 8.5 11C8.5 10.8274 8.53828 10.6598 8.61027 10.5C8.9988 11.3626 10.3691 12 12 12Z"/>
<path d="M15.3897 12.5C15.0012 13.3626 13.6309 14 12 14C10.3691 14 8.9988 13.3626 8.61027 12.5C8.53828 12.6598 8.5 12.8274 8.5 13C8.5 14.1046 10.067 15 12 15C13.933 15 15.5 14.1046 15.5 13C15.5 12.8274 15.4617 12.6598 15.3897 12.5Z"/>
<path fill-rule="evenodd" clip-rule="evenodd" d="M7.25 2C5.45507 2 4 3.45507 4 5.25V18.75C4 20.5449 5.45507 22 7.25 22H19.25C19.6642 22 20 21.6642 20 21.25C20 20.8358 19.6642 20.5 19.25 20.5H7.25C6.5519 20.5 5.94927 20.0912 5.66841 19.5H18.25C19.2165 19.5 20 18.7165 20 17.75V5.25C20 3.45507 18.5449 2 16.75 2H7.25ZM18.25 18H5.5V5.25C5.5 4.2835 6.2835 3.5 7.25 3.5H16.75C17.7165 3.5 18.5 4.2835 18.5 5.25V17.75C18.5 17.8881 18.3881 18 18.25 18Z"/>
</svg>
