<svg width="16" height="16" viewBox="0 0 16 16" fill="none" xmlns="http://www.w3.org/2000/svg">
<path fill-rule="evenodd" clip-rule="evenodd" d="M13 4.99997C13 4.99996 13 4.99998 13 4.99997V11H12V6.80029C11.0878 7.52879 9.6356 8 8 8C6.3644 8 4.91223 7.52879 4 6.80029V11H3V5C3 5.00001 3 4.99999 3 5C3.00003 3.34316 5.23859 2 8 2C10.7614 2 13 3.34313 13 4.99997ZM11.021 6.26383C11.7656 5.81707 12 5.33917 12 5C12 4.99999 12 5.00001 12 5C12 4.66083 11.7656 4.18292 11.021 3.73617C10.2963 3.30135 9.23063 3 8 3C6.76937 3 5.70366 3.30135 4.97896 3.73617C4.23438 4.18292 4.00001 4.6608 4 4.99997C4 4.99998 4 4.99996 4 4.99997C4 5.33914 4.23436 5.81707 4.97896 6.26383C5.70366 6.69865 6.76937 7 8 7C9.23063 7 10.2963 6.69865 11.021 6.26383Z" fill="#666666"/>
<path d="M4 11C4 11.1667 4.05296 11.3618 4.20355 11.5799C4.35778 11.8033 4.61017 12.0426 4.97896 12.2638C5.34631 12.4842 5.80282 12.6707 6.32777 12.8012C6.85163 12.9314 7.4206 13 8 13C8.5794 13 9.14837 12.9314 9.67223 12.8012C10.1972 12.6707 10.6537 12.4842 11.021 12.2638C11.3898 12.0426 11.6422 11.8033 11.7965 11.5799C11.947 11.3618 12 11.1667 12 11H13C13 11.3938 12.8708 11.784 12.6194 12.1481C12.3681 12.512 11.9999 12.8427 11.5355 13.1213C11.0712 13.3999 10.52 13.6209 9.91342 13.7716C9.30679 13.9224 8.65661 14 8 14C7.34339 14 6.69321 13.9224 6.08658 13.7716C5.47995 13.6209 4.92876 13.3999 4.46447 13.1213C4.00014 12.8427 3.63186 12.512 3.3806 12.1481C3.12925 11.784 3 11.3938 3 11H4Z" fill="#666666"/>
</svg>
