<svg viewBox="0 0 24 24" xmlns="http://www.w3.org/2000/svg">
<path d="M13.4351 5.53545C12.8654 5.29946 12.2462 5.20761 11.6325 5.26806C11.0188 5.32851 10.4294 5.53938 9.91666 5.88199C9.4039 6.22461 8.98355 6.68839 8.69284 7.23226C8.52052 7.55466 8.3969 7.8993 8.3248 8.25498C8.24251 8.66094 7.91426 9 7.50005 9C7.08583 9 6.74455 8.66253 6.80353 8.25254C6.89019 7.65007 7.08124 7.06532 7.36996 6.52517C7.77695 5.76375 8.36544 5.11445 9.0833 4.63479C9.80117 4.15512 10.6262 3.85991 11.4855 3.77528C12.3447 3.69066 13.2115 3.81924 14.0091 4.14963C14.8068 4.48003 15.5106 5.00204 16.0584 5.66944C16.6061 6.33683 16.9807 7.129 17.1492 7.97578C17.3176 8.82256 17.2746 9.6978 17.024 10.524L17.0126 10.5616L16.9973 10.5978C16.6618 11.3933 16.064 12.0872 15.5069 12.646C15.2236 12.9302 14.9363 13.1931 14.6811 13.4251L14.6092 13.4904C14.3792 13.6993 14.1859 13.8748 14.0304 14.0303L13.9917 14.069C13.593 14.4675 13.2204 14.84 13.049 15.1945C12.8687 15.5296 12.7974 16.0428 12.769 16.4963C12.7432 16.9097 12.4143 17.2453 12.0001 17.2447C11.5858 17.2441 11.2443 16.9077 11.2637 16.4939C11.2934 15.8642 11.3888 15.1172 11.6985 14.5417C11.9868 13.9453 12.5351 13.4012 12.8834 13.0556L12.8846 13.0543C12.9146 13.0246 12.943 12.9963 12.9697 12.9697C13.1525 12.7868 13.3742 12.5857 13.5969 12.3835L13.6723 12.315C13.9267 12.0838 14.1898 11.8425 14.4447 11.5868C14.9525 11.0776 15.3751 10.5618 15.6 10.0502C15.7688 9.47139 15.7957 8.86017 15.678 8.26841C15.5577 7.66357 15.2901 7.09774 14.8988 6.62103C14.5076 6.14432 14.0049 5.77145 13.4351 5.53545Z" />
<path d="M12 21C12.6214 21 13.125 20.4963 13.125 19.875C13.125 19.2537 12.6214 18.75 12 18.75C11.3787 18.75 10.875 19.2537 10.875 19.875C10.875 20.4963 11.3787 21 12 21Z"/>
</svg>
