<svg viewBox="0 0 24 24" xmlns="http://www.w3.org/2000/svg">
<path fill-rule="evenodd" clip-rule="evenodd" d="M6 3C4.34315 3 3 4.34315 3 6V18C3 19.6569 4.34315 21 6 21H8.25C9.07843 21 9.75 20.3284 9.75 19.5V4.5C9.75 3.67157 9.07843 3 8.25 3H6ZM8.25 4.5H6C5.17157 4.5 4.5 5.17157 4.5 6V8.25H8.25V4.5ZM8.25 9.75H4.5V14.25H8.25V9.75ZM8.25 15.75H4.5V18C4.5 18.8284 5.17157 19.5 6 19.5H8.25V15.75Z" />
<path fill-rule="evenodd" clip-rule="evenodd" d="M15.75 3C14.9216 3 14.25 3.67157 14.25 4.5V19.5C14.25 20.3284 14.9216 21 15.75 21H18C19.6569 21 21 19.6569 21 18V6C21 4.34315 19.6569 3 18 3H15.75ZM18 4.5H15.75V8.25H19.5V6C19.5 5.17157 18.8284 4.5 18 4.5ZM15.75 19.5V15.75H19.5V18C19.5 18.8284 18.8284 19.5 18 19.5H15.75ZM19.5 14.25H15.75V9.75H19.5V14.25Z" />
<path d="M12 3C11.5858 3 11.25 3.33579 11.25 3.75V20.25C11.25 20.6642 11.5858 21 12 21C12.4142 21 12.75 20.6642 12.75 20.25V3.75C12.75 3.33579 12.4142 3 12 3Z" />
</svg>
