<svg viewBox="0 0 24 24" xmlns="http://www.w3.org/2000/svg">
<path fill-rule="evenodd" clip-rule="evenodd" d="M7.25 2C7.66421 2 8 2.33579 8 2.75V3.5H11V2.75C11 2.33579 11.3358 2 11.75 2C12.1642 2 12.5 2.33579 12.5 2.75V3.5H15.5V2.75C15.5 2.33579 15.8358 2 16.25 2C16.6642 2 17 2.33579 17 2.75V3.5H17.75C18.9926 3.5 20 4.50736 20 5.75V16.7505C20 16.9495 19.9209 17.1404 19.7801 17.281L15.2771 21.7805C15.1365 21.9211 14.9458 22 14.747 22H5.75C4.50736 22 3.5 20.9926 3.5 19.75V5.75C3.5 4.50736 4.50736 3.5 5.75 3.5H6.5V2.75C6.5 2.33579 6.83579 2 7.25 2ZM5.75 5C5.33579 5 5 5.33579 5 5.75V19.75C5 20.1642 5.33579 20.5 5.75 20.5H13.997V18.2505C13.997 17.0079 15.0044 16.0005 16.247 16.0005H18.5V5.75C18.5 5.33579 18.1642 5 17.75 5H5.75ZM17.4383 17.5005H16.247C15.8328 17.5005 15.497 17.8363 15.497 18.2505V19.4403L17.4383 17.5005ZM6.5 8.75C6.5 8.33579 6.83579 8 7.25 8H16.25C16.6642 8 17 8.33579 17 8.75C17 9.16421 16.6642 9.5 16.25 9.5H7.25C6.83579 9.5 6.5 9.16421 6.5 8.75ZM6.5 12.75C6.5 12.3358 6.83579 12 7.25 12H16.25C16.6642 12 17 12.3358 17 12.75C17 13.1642 16.6642 13.5 16.25 13.5H7.25C6.83579 13.5 6.5 13.1642 6.5 12.75ZM6.5 16.75C6.5 16.3358 6.83579 16 7.25 16H11.5C11.9142 16 12.25 16.3358 12.25 16.75C12.25 17.1642 11.9142 17.5 11.5 17.5H7.25C6.83579 17.5 6.5 17.1642 6.5 16.75Z"/>
</svg>
