<svg viewBox="0 0 16 16" xmlns="http://www.w3.org/2000/svg">
<path fill-rule="evenodd" clip-rule="evenodd" d="M5 1C5.27614 1 5.5 1.22386 5.5 1.5V2H7.5V1.5C7.5 1.22386 7.72386 1 8 1C8.27614 1 8.5 1.22386 8.5 1.5V2H10.5V1.5C10.5 1.22386 10.7239 1 11 1C11.2761 1 11.5 1.22386 11.5 1.5V2C12.3284 2 13 2.67157 13 3.5V10.5C13 10.6326 12.9473 10.7598 12.8536 10.8536L8.85355 14.8536C8.75979 14.9473 8.63261 15 8.5 15H4.5C3.67157 15 3 14.3284 3 13.5V3.5C3 2.67157 3.67157 2 4.5 2V1.5C4.5 1.22386 4.72386 1 5 1ZM4.5 3C4.22386 3 4 3.22386 4 3.5V13.5C4 13.7761 4.22386 14 4.5 14H8V11.5C8 10.6716 8.67157 10 9.5 10H12V3.5C12 3.22386 11.7761 3 11.5 3H4.5ZM11.2929 11H9.5C9.22386 11 9 11.2239 9 11.5V13.2929L11.2929 11ZM5.5 5.5C5.5 5.22386 5.72386 5 6 5H10C10.2761 5 10.5 5.22386 10.5 5.5C10.5 5.77614 10.2761 6 10 6H6C5.72386 6 5.5 5.77614 5.5 5.5ZM5.5 8.5C5.5 8.22386 5.72386 8 6 8H10C10.2761 8 10.5 8.22386 10.5 8.5C10.5 8.77614 10.2761 9 10 9H6C5.72386 9 5.5 8.77614 5.5 8.5ZM5.5 11.5C5.5 11.2239 5.72386 11 6 11H6.5C6.77614 11 7 11.2239 7 11.5C7 11.7761 6.77614 12 6.5 12H6C5.72386 12 5.5 11.7761 5.5 11.5Z"/>
</svg>
