<svg viewBox="0 0 24 24" xmlns="http://www.w3.org/2000/svg">
<path fill-rule="evenodd" clip-rule="evenodd" d="M12.1287 1.5C12.5265 1.5 12.908 1.65803 13.1893 1.93934L19.0607 7.81066C19.342 8.09196 19.5 8.4735 19.5 8.87132V11.2016C19.0286 10.9674 18.526 10.7866 18 10.6673V9.75H14.25C12.5931 9.75 11.25 8.40685 11.25 6.75V3H6C5.17157 3 4.5 3.67157 4.5 4.5V18C4.5 18.8284 5.17157 19.5 6 19.5H10.1341C10.3228 20.034 10.5769 20.5372 10.8867 21H6C4.34315 21 3 19.6569 3 18V4.5C3 2.84315 4.34315 1.5 6 1.5H12.1287ZM17.3787 8.25L12.75 3.62132V6.75C12.75 7.57843 13.4216 8.25 14.25 8.25H17.3787Z" />
<path fill-rule="evenodd" clip-rule="evenodd" d="M11.25 17.25C11.25 14.3505 13.6005 12 16.5 12C19.3995 12 21.75 14.3505 21.75 17.25C21.75 20.1495 19.3995 22.5 16.5 22.5C13.6005 22.5 11.25 20.1495 11.25 17.25ZM15.75 16.8107V19.5C15.75 19.9142 16.0858 20.25 16.5 20.25C16.9142 20.25 17.25 19.9142 17.25 19.5V16.8107L18.2197 17.7803C18.5126 18.0732 18.9874 18.0732 19.2803 17.7803C19.5732 17.4874 19.5732 17.0126 19.2803 16.7197L17.0303 14.4697C16.7374 14.1768 16.2626 14.1768 15.9697 14.4697L13.7197 16.7197C13.4268 17.0126 13.4268 17.4874 13.7197 17.7803C14.0126 18.0732 14.4874 18.0732 14.7803 17.7803L15.75 16.8107Z" />
</svg>
