<svg viewBox="0 0 24 24" xmlns="http://www.w3.org/2000/svg">
<path fill-rule="evenodd" clip-rule="evenodd" d="M15 2.25C14.5858 2.25 14.25 2.58579 14.25 3V6H9.75V3C9.75 2.58579 9.41421 2.25 9 2.25C8.58579 2.25 8.25 2.58579 8.25 3V6H7.5C6.67157 6 6 6.67157 6 7.5V9.75C6 12.8102 8.29099 15.3353 11.2514 15.7038C11.2505 15.7191 11.25 15.7345 11.25 15.75V21C11.25 21.4142 11.5858 21.75 12 21.75C12.4142 21.75 12.75 21.4142 12.75 21V15.75C12.75 15.7345 12.7495 15.7191 12.7486 15.7038C15.709 15.3353 18 12.8102 18 9.75V7.5C18 6.67157 17.3284 6 16.5 6H15.75V3C15.75 2.58579 15.4142 2.25 15 2.25ZM7.5 7.5H16.5V9.75C16.5 12.2353 14.4853 14.25 12 14.25C9.51472 14.25 7.5 12.2353 7.5 9.75V7.5Z" />
</svg>
