<svg viewBox="0 0 16 16" xmlns="http://www.w3.org/2000/svg">
<path fill-rule="evenodd" clip-rule="evenodd" d="M8 12.5C8 12.7761 7.77614 13 7.5 13L2.5 13C2.22386 13 2 12.7761 2 12.5C2 12.2239 2.22386 12 2.5 12L7.5 12C7.77614 12 8 12.2239 8 12.5ZM9.12371 11.8293C8.94187 11.6214 8.96293 11.3056 9.17075 11.1237L12.1693 8.5L2.5 8.5C2.22386 8.5 2 8.27614 2 8C2 7.72386 2.22386 7.5 2.5 7.5L12.1693 7.5L9.17075 4.87629C8.96293 4.69445 8.94187 4.37857 9.12371 4.17075C9.30555 3.96293 9.62143 3.94187 9.82925 4.12371L13.8293 7.62371C13.9378 7.71866 14 7.85582 14 8C14 8.14418 13.9378 8.28134 13.8293 8.37629L9.82925 11.8763C9.62143 12.0581 9.30555 12.0371 9.12371 11.8293ZM8 3.5C8 3.77614 7.77614 4 7.5 4L2.5 4C2.22386 4 2 3.77614 2 3.5C2 3.22386 2.22386 3 2.5 3L7.5 3C7.77614 3 8 3.22386 8 3.5Z" />
</svg>
