<svg  viewBox="0 0 24 24"  xmlns="http://www.w3.org/2000/svg">
<path fill-rule="evenodd" clip-rule="evenodd" d="M4.5 6.25C4.5 5.2835 5.2835 4.5 6.25 4.5H8.5V8.5H4.5V6.25ZM10 8.5V4.5H14V8.5H10ZM15.5 8.5V4.5H17.75C18.7165 4.5 19.5 5.2835 19.5 6.25V8.5H15.5ZM15.5 10H19.5V11.3135C20.0335 11.4858 20.5368 11.7253 21 12.0218V6.25C21 4.45507 19.5449 3 17.75 3H6.25C4.45507 3 3 4.45507 3 6.25V17.75C3 19.5449 4.45507 21 6.25 21H12.0218C11.7253 20.5368 11.4858 20.0335 11.3135 19.5H10V15.5H11.3135C11.4858 14.9665 11.7253 14.4632 12.0218 14H10V10H14V12.0218C14.4632 11.7253 14.9665 11.4858 15.5 11.3135V10ZM8.5 15.5V19.5H6.25C5.2835 19.5 4.5 18.7165 4.5 17.75V15.5H8.5ZM8.5 14H4.5V10H8.5V14Z" />
<path fill-rule="evenodd" clip-rule="evenodd" d="M12.837 16.4718C13.9385 16.1993 14.5929 15.0658 14.2781 13.9756L14.0573 13.2105C14.5017 12.8534 15.0027 12.5639 15.5448 12.3577L16.0616 12.9015C16.8499 13.731 18.1722 13.7313 18.9607 12.902L19.4722 12.3642C20.0154 12.5729 20.5171 12.8653 20.9615 13.2257L20.7519 13.9361C20.428 15.0337 21.0893 16.1787 22.2019 16.4466L22.9303 16.622C22.9762 16.9079 23 17.2012 23 17.5C23 17.7845 22.9784 18.064 22.9367 18.3368L22.1635 18.5282C21.0619 18.8007 20.4075 19.9341 20.7223 21.0244L20.9431 21.7892C20.4987 22.1464 19.9976 22.4359 19.4555 22.6422L18.9388 22.0984C18.1505 21.2689 16.8282 21.2687 16.0397 22.0979L15.5281 22.6359C14.9849 22.4272 14.4832 22.1349 14.0388 21.7746L14.2485 21.0638C14.5724 19.9663 13.9111 18.8213 12.7986 18.5533L12.0697 18.3778C12.0238 18.092 12 17.7988 12 17.5C12 17.2155 12.0216 16.9361 12.0632 16.6632L12.837 16.4718ZM18.9496 17.5C18.9496 18.3284 18.3006 19 17.5 19C16.6993 19 16.0503 18.3284 16.0503 17.5C16.0503 16.6716 16.6993 16 17.5 16C18.3006 16 18.9496 16.6716 18.9496 17.5Z" />
</svg>
