<svg  viewBox="0 0 32 32"  xmlns="http://www.w3.org/2000/svg">
<path fill-rule="evenodd" clip-rule="evenodd" d="M7 3C4.79086 3 3 4.79086 3 7V25C3 27.2091 4.79086 29 7 29H16.2917C15.7549 28.4003 15.2974 27.7281 14.9355 27H13V21H14.223C14.3822 20.2987 14.6232 19.6285 14.9355 19H13V13H19V14.9355C19.6285 14.6232 20.2987 14.3822 21 14.223V13H27V14.9355C27.7281 15.2974 28.4003 15.7549 29 16.2917V7C29 4.79086 27.2091 3 25 3H7ZM5 7C5 5.89543 5.89543 5 7 5H11V11H5V7ZM13 11V5H19V11H13ZM21 11V5H25C26.1046 5 27 5.89543 27 7V11H21ZM11 21V27H7C5.89543 27 5 26.1046 5 25V21H11ZM11 19H5V13H11V19Z" />
<path fill-rule="evenodd" clip-rule="evenodd" d="M17.9161 27.0442L17.7375 29.0256C18.3193 29.5342 18.9754 29.9598 19.6874 30.2841L21.935 28.8701C22.5859 28.4605 23.4141 28.4605 24.065 28.8701L26.3126 30.2841C27.0246 29.9598 27.6807 29.5342 28.2625 29.0256L28.0839 27.0442C28.0062 26.1827 28.4911 25.3689 29.2857 25.0273L30.8886 24.338C30.9619 23.9029 31 23.4559 31 23C31 22.5441 30.9619 22.0972 30.8886 21.6621L29.2857 20.9728C28.4911 20.6311 28.0062 19.8174 28.0839 18.9559L28.2625 16.9744C27.6807 16.4659 27.0246 16.0403 26.3126 15.7159L24.065 17.13C23.4141 17.5395 22.5859 17.5395 21.935 17.13L19.6874 15.7159C18.9754 16.0403 18.3193 16.4659 17.7375 16.9744L17.9161 18.9559C17.9938 19.8174 17.5089 20.6311 16.7143 20.9728L15.1114 21.6621C15.0381 22.0972 15 22.5441 15 23C15 23.4559 15.0381 23.9029 15.1114 24.338L16.7143 25.0273C17.5089 25.3689 17.9938 26.1827 17.9161 27.0442ZM25 23C25 24.1046 24.1046 25 23 25C21.8954 25 21 24.1046 21 23C21 21.8954 21.8954 21 23 21C24.1046 21 25 21.8954 25 23Z" />
</svg>
