<svg width="24" height="24" viewBox="0 0 24 24" xmlns="http://www.w3.org/2000/svg">
<path d="M4.5 3H7.5C8.32843 3 9 3.67157 9 4.5V5.25H10.5V4.5C10.5 2.84315 9.15685 1.5 7.5 1.5H4.5C2.84315 1.5 1.5 2.84315 1.5 4.5V7.5C1.5 9.15685 2.84315 10.5 4.5 10.5H5.25V9H4.5C3.67157 9 3 8.32843 3 7.5V4.5C3 3.67157 3.67157 3 4.5 3Z" />
<path fill-rule="evenodd" clip-rule="evenodd" d="M6 9C6 7.34315 7.34315 6 9 6H15C16.6569 6 18 7.34315 18 9V15C18 16.6569 16.6569 18 15 18H9C7.34315 18 6 16.6569 6 15V9ZM10.0607 7.5H11.6893L7.5 11.6893V10.0607L10.0607 7.5ZM7.5 13.8107L13.8107 7.5H15C15.1344 7.5 15.2646 7.51767 15.3885 7.55081L7.55081 15.3885C7.51767 15.2646 7.5 15.1344 7.5 15V13.8107ZM8.61147 16.4492C8.73539 16.4823 8.86563 16.5 9 16.5H10.1893L16.5 10.1893V9C16.5 8.86563 16.4823 8.73539 16.4492 8.61147L8.61147 16.4492ZM16.5 12.3107L12.3107 16.5H13.9393L16.5 13.9393V12.3107Z" />
<path d="M13.5 19.5V18.75H15V19.5C15 20.3284 15.6716 21 16.5 21H19.5C20.3284 21 21 20.3284 21 19.5V16.5C21 15.6716 20.3284 15 19.5 15H18.75V13.5H19.5C21.1569 13.5 22.5 14.8431 22.5 16.5V19.5C22.5 21.1569 21.1569 22.5 19.5 22.5H16.5C14.8431 22.5 13.5 21.1569 13.5 19.5Z" />
</svg>
