<svg viewBox="0 0 24 24" xmlns="http://www.w3.org/2000/svg">
<path d="M11.0303 17.0303C10.7374 17.3232 10.2626 17.3232 9.96967 17.0303C9.67678 16.7374 9.67678 16.2626 9.96967 15.9697L13.9393 12L9.96967 8.03033C9.67678 7.73744 9.67678 7.26256 9.96967 6.96967C10.2626 6.67678 10.7374 6.67678 11.0303 6.96967L15.5303 11.4697C15.8232 11.7626 15.8232 12.2374 15.5303 12.5303L11.0303 17.0303Z"/>
<path fill-rule="evenodd" clip-rule="evenodd" d="M21.75 12C21.75 17.3848 17.3848 21.75 12 21.75C6.61522 21.75 2.25 17.3848 2.25 12C2.25 6.61522 6.61522 2.25 12 2.25C17.3848 2.25 21.75 6.61522 21.75 12ZM20.25 12C20.25 16.5563 16.5563 20.25 12 20.25C7.44365 20.25 3.75 16.5563 3.75 12C3.75 7.44365 7.44365 3.75 12 3.75C16.5563 3.75 20.25 7.44365 20.25 12Z"/>
</svg>
