<svg   viewBox="0 0 24 24"   xmlns="http://www.w3.org/2000/svg">
<path fill-rule="evenodd" clip-rule="evenodd" d="M10 2.75C5.99594 2.75 2.75 5.99594 2.75 10C2.75 14.0041 5.99594 17.25 10 17.25C11.7319 17.25 13.3219 16.6427 14.5689 15.6295L19.4697 20.5303C19.7626 20.8232 20.2374 20.8232 20.5303 20.5303C20.8232 20.2374 20.8232 19.7626 20.5303 19.4697L15.6295 14.5689C16.6427 13.3219 17.25 11.7319 17.25 10C17.25 5.99594 14.0041 2.75 10 2.75ZM4.25 10C4.25 6.82436 6.82436 4.25 10 4.25C13.1756 4.25 15.75 6.82436 15.75 10C15.75 13.1756 13.1756 15.75 10 15.75C6.82436 15.75 4.25 13.1756 4.25 10Z"  />
</svg>
