<svg viewBox="0 0 32 32"   xmlns="http://www.w3.org/2000/svg">
<path fill-rule="evenodd" clip-rule="evenodd" d="M13.5 3C7.70101 3 3 7.70101 3 13.5C3 19.299 7.70101 24 13.5 24C16.0394 24 18.3682 23.0985 20.184 21.5982L27.2929 28.7071C27.6834 29.0976 28.3166 29.0976 28.7071 28.7071C29.0976 28.3166 29.0976 27.6834 28.7071 27.2929L21.5982 20.184C23.0985 18.3682 24 16.0394 24 13.5C24 7.70101 19.299 3 13.5 3ZM5 13.5C5 8.80558 8.80558 5 13.5 5C18.1944 5 22 8.80558 22 13.5C22 18.1944 18.1944 22 13.5 22C8.80558 22 5 18.1944 5 13.5Z"  />
</svg>
