<svg width="24" height="24" viewBox="0 0 24 24" fill="none" xmlns="http://www.w3.org/2000/svg">
<path fill-rule="evenodd" clip-rule="evenodd" d="M3.75 2C2.7835 2 2 2.7835 2 3.75V7.75C2 8.7165 2.7835 9.5 3.75 9.5H6V16.25C6 18.3211 7.67893 20 9.75 20H14V20.25C14 21.2165 14.7835 22 15.75 22H20.25C21.2165 22 22 21.2165 22 20.25V17.75C22 16.7835 21.2165 16 20.25 16H15.75C14.7835 16 14 16.7835 14 17.75V18.5H9.75C8.50736 18.5 7.5 17.4926 7.5 16.25V12.75H14V13.25C14 14.2165 14.7835 15 15.75 15H20.25C21.2165 15 22 14.2165 22 13.25V10.75C22 9.7835 21.2165 9 20.25 9H15.75C14.7835 9 14 9.7835 14 10.75V11.25L7.5 11.25V9.5H9.75C10.7165 9.5 11.5 8.7165 11.5 7.75V3.75C11.5 2.7835 10.7165 2 9.75 2H3.75ZM9.75 8C9.88807 8 10 7.88807 10 7.75V3.75C10 3.61193 9.88807 3.5 9.75 3.5H3.75C3.61193 3.5 3.5 3.61193 3.5 3.75V7.75C3.5 7.88807 3.61193 8 3.75 8H9.75ZM15.5 10.75C15.5 10.6119 15.6119 10.5 15.75 10.5H20.25C20.3881 10.5 20.5 10.6119 20.5 10.75V13.25C20.5 13.3881 20.3881 13.5 20.25 13.5H15.75C15.6119 13.5 15.5 13.3881 15.5 13.25V10.75ZM15.75 17.5C15.6119 17.5 15.5 17.6119 15.5 17.75V20.25C15.5 20.3881 15.6119 20.5 15.75 20.5H20.25C20.3881 20.5 20.5 20.3881 20.5 20.25V17.75C20.5 17.6119 20.3881 17.5 20.25 17.5H15.75Z" fill="#666666"/>
</svg>
