<svg width="32" height="32" viewBox="0 0 32 32" fill="none" xmlns="http://www.w3.org/2000/svg">
<path fill-rule="evenodd" clip-rule="evenodd" d="M4.5 2C3.11929 2 2 3.11929 2 4.5V9.5C2 10.8807 3.11929 12 4.5 12H7V16V22C7 24.7614 9.23858 27 12 27H19V27.5C19 28.8807 20.1193 30 21.5 30H27.5C28.8807 30 30 28.8807 30 27.5V24.5C30 23.1193 28.8807 22 27.5 22H21.5C20.1193 22 19 23.1193 19 24.5V25H12C10.3431 25 9 23.6569 9 22V17H19V17.5C19 18.8807 20.1193 20 21.5 20H27.5C28.8807 20 30 18.8807 30 17.5V14.5C30 13.1193 28.8807 12 27.5 12H21.5C20.1193 12 19 13.1193 19 14.5V15H9V12H12.5C13.8807 12 15 10.8807 15 9.5V4.5C15 3.11929 13.8807 2 12.5 2H4.5ZM21 16V17.5C21 17.7761 21.2239 18 21.5 18H27.5C27.7761 18 28 17.7761 28 17.5V14.5C28 14.2239 27.7761 14 27.5 14H21.5C21.2239 14 21 14.2239 21 14.5V16ZM21 26V27.5C21 27.7761 21.2239 28 21.5 28H27.5C27.7761 28 28 27.7761 28 27.5V24.5C28 24.2239 27.7761 24 27.5 24H21.5C21.2239 24 21 24.2239 21 24.5V26ZM8 10H12.5C12.7761 10 13 9.77614 13 9.5V4.5C13 4.22386 12.7761 4 12.5 4H4.5C4.22386 4 4 4.22386 4 4.5V9.5C4 9.77614 4.22386 10 4.5 10H8Z" fill="#666666"/>
</svg>
