<svg viewBox="0 0 24 24" xmlns="http://www.w3.org/2000/svg">
<path d="M11.75 8.5V12.25M11.75 12.25V12.5M11.75 12.25H7.75C6.92157 12.25 6.25 12.9216 6.25 13.75V15.5M11.75 12.25H15.75C16.5784 12.25 17.25 12.9216 17.25 13.75V15.5M14.75 5.75C14.75 7.40685 13.4069 8.75 11.75 8.75C10.0931 8.75 8.75 7.40685 8.75 5.75C8.75 4.09315 10.0931 2.75 11.75 2.75C13.4069 2.75 14.75 4.09315 14.75 5.75ZM9.25 18.25C9.25 19.9069 7.90685 21.25 6.25 21.25C4.59315 21.25 3.25 19.9069 3.25 18.25C3.25 16.5931 4.59315 15.25 6.25 15.25C7.90685 15.25 9.25 16.5931 9.25 18.25ZM20.25 18.25C20.25 19.9069 18.9069 21.25 17.25 21.25C15.5931 21.25 14.25 19.9069 14.25 18.25C14.25 16.5931 15.5931 15.25 17.25 15.25C18.9069 15.25 20.25 16.5931 20.25 18.25Z" stroke="#666666" stroke-width="1.5"/>
</svg>
