<svg width="20" height="20" viewBox="0 0 20 20" fill="none" xmlns="http://www.w3.org/2000/svg">
<path d="M10 7.5C11.3807 7.5 12.5 6.38071 12.5 5C12.5 3.61929 11.3807 2.5 10 2.5C8.61929 2.5 7.5 3.61929 7.5 5C7.5 6.38071 8.61929 7.5 10 7.5ZM10 7.5V10M14.5 12.5C13.1193 12.5 12 13.6193 12 15C12 16.3807 13.1193 17.5 14.5 17.5C15.8807 17.5 17 16.3807 17 15C17 13.6193 15.8807 12.5 14.5 12.5ZM14.5 12.5V11C14.5 10.4477 14.0523 10 13.5 10H10M5.5 12.5C4.11929 12.5 3 13.6193 3 15C3 16.3807 4.11929 17.5 5.5 17.5C6.88071 17.5 8 16.3807 8 15C8 13.6193 6.88071 12.5 5.5 12.5ZM5.5 12.5V11C5.5 10.4477 5.94772 10 6.5 10H10" stroke="#666666"/>
</svg>
