<svg viewBox="0 0 16 16" xmlns="http://www.w3.org/2000/svg">
  <path fill-rule="evenodd" clip-rule="evenodd" d="M8 1C6.61929 1 5.5 2.11929 5.5 3.5C5.5 4.70948 6.35888 5.71836 7.5 5.94999V7H5.5C4.67157 7 4 7.67157 4 8.5V10.05C2.85888 10.2816 2 11.2905 2 12.5C2 13.8807 3.11929 15 4.5 15C5.88071 15 7 13.8807 7 12.5C7 11.2905 6.14112 10.2816 5 10.05V8.5C5 8.22386 5.22386 8 5.5 8H10.5C10.7761 8 11 8.22386 11 8.5V10.05C9.85888 10.2816 9 11.2905 9 12.5C9 13.8807 10.1193 15 11.5 15C12.8807 15 14 13.8807 14 12.5C14 11.2905 13.1411 10.2816 12 10.05V8.5C12 7.67157 11.3284 7 10.5 7H8.5V5.94999C9.64112 5.71836 10.5 4.70948 10.5 3.5C10.5 2.11929 9.38071 1 8 1ZM6.5 3.5C6.5 2.67157 7.17157 2 8 2C8.82843 2 9.5 2.67157 9.5 3.5C9.5 4.32843 8.82843 5 8 5C7.17157 5 6.5 4.32843 6.5 3.5ZM3 12.5C3 11.6716 3.67157 11 4.5 11C5.32843 11 6 11.6716 6 12.5C6 13.3284 5.32843 14 4.5 14C3.67157 14 3 13.3284 3 12.5ZM11.5 11C10.6716 11 10 11.6716 10 12.5C10 13.3284 10.6716 14 11.5 14C12.3284 14 13 13.3284 13 12.5C13 11.6716 12.3284 11 11.5 11Z"/>
</svg>
