<svg viewBox="0 0 20 20" xmlns="http://www.w3.org/2000/svg">
  <path fill-rule="evenodd" clip-rule="evenodd" d="M10 3C8.89543 3 8 3.89543 8 5C8 6.10457 8.89543 7 10 7C11.1046 7 12 6.10457 12 5C12 3.89543 11.1046 3 10 3ZM7 5C7 3.34315 8.34315 2 10 2C11.6569 2 13 3.34315 13 5C13 6.4865 11.9189 7.72048 10.5 7.95852V9.5H13.5C14.3284 9.5 15 10.1716 15 11V12.0415C16.4189 12.2795 17.5 13.5135 17.5 15C17.5 16.6569 16.1569 18 14.5 18C12.8431 18 11.5 16.6569 11.5 15C11.5 13.5135 12.5811 12.2795 14 12.0415V11C14 10.7239 13.7761 10.5 13.5 10.5H6.5C6.22386 10.5 6 10.7239 6 11V12.0415C7.41886 12.2795 8.5 13.5135 8.5 15C8.5 16.6569 7.15685 18 5.5 18C3.84315 18 2.5 16.6569 2.5 15C2.5 13.5135 3.58114 12.2795 5 12.0415V11C5 10.1716 5.67157 9.5 6.5 9.5H9.5V7.95852C8.08114 7.72048 7 6.4865 7 5ZM5.5 13C4.39543 13 3.5 13.8954 3.5 15C3.5 16.1046 4.39543 17 5.5 17C6.60457 17 7.5 16.1046 7.5 15C7.5 13.8954 6.60457 13 5.5 13ZM14.5 13C13.3954 13 12.5 13.8954 12.5 15C12.5 16.1046 13.3954 17 14.5 17C15.6046 17 16.5 16.1046 16.5 15C16.5 13.8954 15.6046 13 14.5 13Z"/>
</svg>
