<svg viewBox="0 0 24 24" xmlns="http://www.w3.org/2000/svg">
<path fill-rule="evenodd" clip-rule="evenodd" d="M6.75 6V4.5C6.75 3.67157 7.42157 3 8.25 3H15.75C16.5784 3 17.25 3.67157 17.25 4.5V6H18.75C20.4069 6 21.75 7.34315 21.75 9V18C21.75 19.6569 20.4069 21 18.75 21H5.25C3.59315 21 2.25 19.6569 2.25 18V9C2.25 7.34315 3.59315 6 5.25 6H6.75ZM8.25 4.5H15.75V6H8.25V4.5ZM3.75 18V9C3.75 8.17157 4.42157 7.5 5.25 7.5H6.75V19.5H5.25C4.42157 19.5 3.75 18.8284 3.75 18ZM8.25 19.5V7.5H15.75V19.5H8.25ZM17.25 19.5H18.75C19.5784 19.5 20.25 18.8284 20.25 18V9C20.25 8.17157 19.5784 7.5 18.75 7.5H17.25V19.5Z" />
</svg>
