<svg viewBox="0 0 24 24" xmlns="http://www.w3.org/2000/svg">
<path d="M14.333 4.8721C12.6079 4.30746 10.7366 4.38761 9.06607 5.09768C7.56398 5.73616 6.31593 6.845 5.5048 8.25H8.25C8.66421 8.25 9 8.58579 9 9C9 9.41422 8.66421 9.75 8.25 9.75H3.75C3.33579 9.75 3 9.41422 3 9V4.5C3 4.08579 3.33579 3.75 3.75 3.75C4.16421 3.75 4.5 4.08579 4.5 4.5V7.02503C5.46911 5.56403 6.8496 4.40993 8.47929 3.71721C10.4839 2.86513 12.7295 2.76895 14.7996 3.44652C16.8697 4.12408 18.6239 5.52941 19.7367 7.40186C20.8496 9.27431 21.2456 11.4868 20.8513 13.629C20.4571 15.7712 19.2993 17.6978 17.5928 19.0513C15.8862 20.4049 13.7466 21.0936 11.5709 20.9898C9.39523 20.8859 7.33101 19.9966 5.76111 18.4866C4.19121 16.9767 3.22218 14.9486 3.03374 12.7786C2.99791 12.366 3.30339 12.0024 3.71605 11.9665C4.12871 11.9307 4.49228 12.2362 4.52812 12.6488C4.68515 14.4572 5.49268 16.1472 6.80092 17.4055C8.10917 18.6638 9.82936 19.4049 11.6424 19.4915C13.4555 19.578 15.2385 19.0041 16.6606 17.8761C18.0828 16.7481 19.0476 15.1427 19.3761 13.3575C19.7047 11.5723 19.3747 9.72859 18.4473 8.16821C17.5199 6.60784 16.0581 5.43673 14.333 4.8721Z"/>
<path d="M11.25 6.75C10.8358 6.75 10.5 7.08579 10.5 7.5V12.75C10.5 13.1642 10.8358 13.5 11.25 13.5H14.25C14.6642 13.5 15 13.1642 15 12.75C15 12.3358 14.6642 12 14.25 12H12V7.5C12 7.08579 11.6642 6.75 11.25 6.75Z" />
</svg>
