<svg width="24" height="24" viewBox="0 0 24 24" xmlns="http://www.w3.org/2000/svg">
<path fill-rule="evenodd" clip-rule="evenodd" d="M6.75 4.5V6H5.25C3.59315 6 2.25 7.34315 2.25 9V18C2.25 19.6569 3.59315 21 5.25 21H18.75C20.4069 21 21.75 19.6569 21.75 18V9C21.75 7.34315 20.4069 6 18.75 6H17.25V4.5C17.25 3.67157 16.5784 3 15.75 3H8.25C7.42157 3 6.75 3.67157 6.75 4.5ZM15.75 4.5H8.25V6H15.75V4.5ZM3.75 12.75V18C3.75 18.8284 4.42157 19.5 5.25 19.5H18.75C19.5784 19.5 20.25 18.8284 20.25 18V12.75H17.25V13.5C17.25 13.9142 16.9142 14.25 16.5 14.25C16.0858 14.25 15.75 13.9142 15.75 13.5V12.75H8.25V13.5C8.25 13.9142 7.91421 14.25 7.5 14.25C7.08579 14.25 6.75 13.9142 6.75 13.5V12.75H3.75ZM17.25 11.25V10.5C17.25 10.0858 16.9142 9.75 16.5 9.75C16.0858 9.75 15.75 10.0858 15.75 10.5V11.25H8.25V10.5C8.25 10.0858 7.91421 9.75 7.5 9.75C7.08579 9.75 6.75 10.0858 6.75 10.5V11.25H3.75V9C3.75 8.17157 4.42157 7.5 5.25 7.5H18.75C19.5784 7.5 20.25 8.17157 20.25 9V11.25H17.25Z" />
</svg>
