<svg width="32" height="32" viewBox="0 0 32 32" fill="none" xmlns="http://www.w3.org/2000/svg">
<path fill-rule="evenodd" clip-rule="evenodd" d="M3 7C3 4.79086 4.79086 3 7 3C9.20914 3 11 4.79086 11 7C11 7.07306 10.998 7.14567 10.9942 7.21777L15.2147 8.2729C15.9838 5.24214 18.73 3 22 3C25.866 3 29 6.13401 29 10C29 13.2405 26.7981 15.9667 23.8088 16.7641L25.2228 21.0061C27.3283 21.1217 29 22.8656 29 25C29 27.2091 27.2091 29 25 29C22.7909 29 21 27.2091 21 25C21 23.4196 21.9165 22.0533 23.2471 21.4035L21.7781 16.9965C20.1743 16.9466 18.7064 16.3571 17.5499 15.4036L10.4305 22.9417C10.7921 23.5431 11 24.2472 11 25C11 27.2091 9.20914 29 7 29C4.79086 29 3 27.2091 3 25C3 22.7909 4.79086 21 7 21C7.73071 21 8.41566 21.1959 9.00517 21.5381L16.1999 13.9202C15.4917 12.8745 15.0589 11.6271 15.0056 10.2822L10.3878 9.12772C9.67983 10.2525 8.42721 11 7 11C4.79086 11 3 9.20914 3 7ZM7 5C5.89543 5 5 5.89543 5 7C5 8.10457 5.89543 9 7 9C8.10457 9 9 8.10457 9 7C9 5.89543 8.10457 5 7 5ZM22 5C19.2386 5 17 7.23858 17 10C17 12.7614 19.2386 15 22 15C24.7614 15 27 12.7614 27 10C27 7.23858 24.7614 5 22 5ZM5 25C5 23.8954 5.89543 23 7 23C8.10457 23 9 23.8954 9 25C9 26.1046 8.10457 27 7 27C5.89543 27 5 26.1046 5 25ZM25 23C23.8954 23 23 23.8954 23 25C23 26.1046 23.8954 27 25 27C26.1046 27 27 26.1046 27 25C27 23.8954 26.1046 23 25 23Z" fill="#666666"/>
</svg>
