<svg width="20" height="20" viewBox="0 0 20 20" fill="none" xmlns="http://www.w3.org/2000/svg">
<path fill-rule="evenodd" clip-rule="evenodd" d="M10 2C14.4183 2 18 5.58172 18 10C18 14.4183 14.4183 18 10 18C5.58172 18 2 14.4183 2 10C2 5.58172 5.58172 2 10 2ZM10 17C10.0255 17 10.1696 16.9898 10.4195 16.7079C10.6683 16.4272 10.9381 15.964 11.185 15.3057C11.4266 14.6616 11.6277 13.8802 11.7698 13H8.23024C8.37228 13.8802 8.57345 14.6616 8.81501 15.3057C9.06185 15.964 9.33166 16.4272 9.58052 16.7079C9.83042 16.9898 9.97447 17 10 17ZM8.0994 12H11.9006C11.965 11.3674 12 10.697 12 10C12 9.30304 11.965 8.63258 11.9006 8H8.0994C8.03499 8.63258 8 9.30304 8 10C8 10.697 8.03499 11.3674 8.0994 12ZM8.23024 7C8.37228 6.11977 8.57345 5.33844 8.81501 4.69427C9.06185 4.03602 9.33166 3.57279 9.58052 3.29209C9.83042 3.01022 9.97447 3 10 3C10.0255 3 10.1696 3.01022 10.4195 3.29209C10.6683 3.57279 10.9381 4.03602 11.185 4.69427C11.4266 5.33844 11.6277 6.11977 11.7698 7H8.23024ZM12.9055 8C12.9672 8.63924 13 9.3094 13 10C13 10.6906 12.9672 11.3608 12.9055 12H16.7101C16.8987 11.3663 17 10.695 17 10C17 9.30503 16.8987 8.63371 16.7101 8H12.9055ZM16.3264 7H12.7819C12.5398 5.4051 12.1105 4.06578 11.5665 3.17596C13.6743 3.65782 15.4196 5.09116 16.3264 7ZM7.21807 7H3.67363C4.58042 5.09116 6.32569 3.65782 8.43348 3.17596C7.88954 4.06578 7.46017 5.4051 7.21807 7ZM3.28988 8H7.09451C7.03281 8.63924 7 9.3094 7 10C7 10.6906 7.03281 11.3608 7.09451 12H3.28988C3.10128 11.3663 3 10.695 3 10C3 9.30503 3.10128 8.63371 3.28988 8ZM11.5665 16.824C12.1105 15.9342 12.5398 14.5949 12.7819 13H16.3264C15.4196 14.9088 13.6743 16.3422 11.5665 16.824ZM8.43348 16.824C6.32569 16.3422 4.58042 14.9088 3.67363 13H7.21807C7.46017 14.5949 7.88954 15.9342 8.43348 16.824Z" fill="#666666"/>
</svg>
