<svg viewBox="0 0 24 24" xmlns="http://www.w3.org/2000/svg">
<path d="M4.5 7.5C4.5 8.12132 3.99632 8.625 3.375 8.625C2.75368 8.625 2.25 8.12132 2.25 7.5C2.25 6.87868 2.75368 6.375 3.375 6.375C3.99632 6.375 4.5 6.87868 4.5 7.5Z" />
<path d="M3.375 13.125C3.99632 13.125 4.5 12.6213 4.5 12C4.5 11.3787 3.99632 10.875 3.375 10.875C2.75368 10.875 2.25 11.3787 2.25 12C2.25 12.6213 2.75368 13.125 3.375 13.125Z" />
<path d="M3.375 17.625C3.99632 17.625 4.5 17.1213 4.5 16.5C4.5 15.8787 3.99632 15.375 3.375 15.375C2.75368 15.375 2.25 15.8787 2.25 16.5C2.25 17.1213 2.75368 17.625 3.375 17.625Z" />
<path d="M6.75 6.75C6.33579 6.75 6 7.08579 6 7.5C6 7.91421 6.33579 8.25 6.75 8.25H21C21.4142 8.25 21.75 7.91421 21.75 7.5C21.75 7.08579 21.4142 6.75 21 6.75H6.75Z" />
<path d="M6 12C6 11.5858 6.33579 11.25 6.75 11.25H21C21.4142 11.25 21.75 11.5858 21.75 12C21.75 12.4142 21.4142 12.75 21 12.75H6.75C6.33579 12.75 6 12.4142 6 12Z" />
<path d="M6.75 15.75C6.33579 15.75 6 16.0858 6 16.5C6 16.9142 6.33579 17.25 6.75 17.25H21C21.4142 17.25 21.75 16.9142 21.75 16.5C21.75 16.0858 21.4142 15.75 21 15.75H6.75Z" />
</svg>
