<svg viewBox="0 0 32 32"   xmlns="http://www.w3.org/2000/svg">
<path fill-rule="evenodd" clip-rule="evenodd" d="M8.29289 5.29289C8.68342 4.90237 9.31658 4.90237 9.70711 5.29289L15.7071 11.2929C16.0976 11.6834 16.0976 12.3166 15.7071 12.7071C15.3166 13.0976 14.6834 13.0976 14.2929 12.7071L10 8.41421V26C10 26.5523 9.55228 27 9 27C8.44772 27 8 26.5523 8 26V8.41421L3.70711 12.7071C3.31658 13.0976 2.68342 13.0976 2.29289 12.7071C1.90237 12.3166 1.90237 11.6834 2.29289 11.2929L8.29289 5.29289ZM23 5C23.5523 5 24 5.44772 24 6V23.5858L28.2929 19.2929C28.6834 18.9024 29.3166 18.9024 29.7071 19.2929C30.0976 19.6834 30.0976 20.3166 29.7071 20.7071L23.7071 26.7071C23.3166 27.0976 22.6834 27.0976 22.2929 26.7071L16.2929 20.7071C15.9024 20.3166 15.9024 19.6834 16.2929 19.2929C16.6834 18.9024 17.3166 18.9024 17.7071 19.2929L22 23.5858V6C22 5.44772 22.4477 5 23 5Z"  />
</svg>
