<svg viewBox="0 0 16 16"   xmlns="http://www.w3.org/2000/svg">
<path fill-rule="evenodd" clip-rule="evenodd" d="M4.14645 2.14645C4.34171 1.95118 4.65829 1.95118 4.85355 2.14645L7.85355 5.14645C8.04882 5.34171 8.04882 5.65829 7.85355 5.85355C7.65829 6.04882 7.34171 6.04882 7.14645 5.85355L5 3.70711V13.5C5 13.7761 4.77614 14 4.5 14C4.22386 14 4 13.7761 4 13.5V3.70711L1.85355 5.85355C1.65829 6.04882 1.34171 6.04882 1.14645 5.85355C0.951184 5.65829 0.951184 5.34171 1.14645 5.14645L4.14645 2.14645ZM11.5 2C11.7761 2 12 2.22386 12 2.5V12.2929L14.1464 10.1464C14.3417 9.95118 14.6583 9.95118 14.8536 10.1464C15.0488 10.3417 15.0488 10.6583 14.8536 10.8536L11.8536 13.8536C11.6583 14.0488 11.3417 14.0488 11.1464 13.8536L8.14645 10.8536C7.95118 10.6583 7.95118 10.3417 8.14645 10.1464C8.34171 9.95118 8.65829 9.95118 8.85355 10.1464L11 12.2929V2.5C11 2.22386 11.2239 2 11.5 2Z"  />
</svg>
