<svg   viewBox="0 0 24 24"   xmlns="http://www.w3.org/2000/svg">
<path fill-rule="evenodd" clip-rule="evenodd" d="M6.21967 4.21967C6.51256 3.92678 6.98744 3.92678 7.28033 4.21967L11.7803 8.71967C12.0732 9.01256 12.0732 9.48744 11.7803 9.78033C11.4874 10.0732 11.0126 10.0732 10.7197 9.78033L7.5 6.56066V19.25C7.5 19.6642 7.16421 20 6.75 20C6.33579 20 6 19.6642 6 19.25V6.56066L2.78033 9.78033C2.48744 10.0732 2.01256 10.0732 1.71967 9.78033C1.42678 9.48744 1.42678 9.01256 1.71967 8.71967L6.21967 4.21967ZM17.25 4C17.6642 4 18 4.33579 18 4.75V17.4393L21.2197 14.2197C21.5126 13.9268 21.9874 13.9268 22.2803 14.2197C22.5732 14.5126 22.5732 14.9874 22.2803 15.2803L17.7803 19.7803C17.4874 20.0732 17.0126 20.0732 16.7197 19.7803L12.2197 15.2803C11.9268 14.9874 11.9268 14.5126 12.2197 14.2197C12.5126 13.9268 12.9874 13.9268 13.2803 14.2197L16.5 17.4393V4.75C16.5 4.33579 16.8358 4 17.25 4Z"  />
</svg>
