<svg viewBox="0 0 20 20"   xmlns="http://www.w3.org/2000/svg">
<path fill-rule="evenodd" clip-rule="evenodd" d="M5.14645 3.14645C5.34171 2.95118 5.65829 2.95118 5.85355 3.14645L9.35355 6.64645C9.54882 6.84171 9.54882 7.15829 9.35355 7.35355C9.15829 7.54882 8.84171 7.54882 8.64645 7.35355L6 4.70711V16.5C6 16.7761 5.77614 17 5.5 17C5.22386 17 5 16.7761 5 16.5V4.70711L2.35355 7.35355C2.15829 7.54882 1.84171 7.54882 1.64645 7.35355C1.45118 7.15829 1.45118 6.84171 1.64645 6.64645L5.14645 3.14645ZM14.5 3C14.7761 3 15 3.22386 15 3.5V15.2929L17.6464 12.6464C17.8417 12.4512 18.1583 12.4512 18.3536 12.6464C18.5488 12.8417 18.5488 13.1583 18.3536 13.3536L14.8536 16.8536C14.6583 17.0488 14.3417 17.0488 14.1464 16.8536L10.6464 13.3536C10.4512 13.1583 10.4512 12.8417 10.6464 12.6464C10.8417 12.4512 11.1583 12.4512 11.3536 12.6464L14 15.2929V3.5C14 3.22386 14.2239 3 14.5 3Z"  />
</svg>
