<svg viewBox="0 0 16 16" xmlns="http://www.w3.org/2000/svg">
<path fill-rule="evenodd" clip-rule="evenodd" d="M3 3C3 1.89543 3.89543 1 5 1H5.5C5.77614 1 6 1.22386 6 1.5C6 1.77614 5.77614 2 5.5 2H5C4.44771 2 4 2.44772 4 3V4.98165C4 6.18279 3.42852 7.29712 2.4862 8C3.42852 8.70288 4 9.81721 4 11.0184V13C4 13.5523 4.44771 14 5 14H5.5C5.77614 14 6 14.2239 6 14.5C6 14.7761 5.77614 15 5.5 15H5C3.89543 15 3 14.1046 3 13V11.0184C3 9.97076 2.40812 9.01308 1.47112 8.54458C1.02236 8.3202 1.02236 7.6798 1.47112 7.45542C2.40812 6.98692 3 6.02924 3 4.98165V3Z"/>
<path fill-rule="evenodd" clip-rule="evenodd" d="M13 3C13 1.89543 12.1046 1 11 1H10.5C10.2239 1 10 1.22386 10 1.5C10 1.77614 10.2239 2 10.5 2H11C11.5523 2 12 2.44772 12 3V4.98165C12 6.18279 12.5715 7.29712 13.5138 8C12.5715 8.70288 12 9.81721 12 11.0184V13C12 13.5523 11.5523 14 11 14H10.5C10.2239 14 10 14.2239 10 14.5C10 14.7761 10.2239 15 10.5 15H11C12.1046 15 13 14.1046 13 13V11.0184C13 9.97076 13.5919 9.01308 14.5289 8.54458C14.9776 8.3202 14.9776 7.6798 14.5289 7.45542C13.5919 6.98692 13 6.02924 13 4.98165V3Z"/>
<path fill-rule="evenodd" clip-rule="evenodd" d="M5.68765 5.10957C5.90328 4.93706 6.21792 4.97202 6.39043 5.18765L8 7.19961L9.60956 5.18765C9.78207 4.97202 10.0967 4.93706 10.3123 5.10957C10.528 5.28207 10.5629 5.59672 10.3904 5.81235L8.64031 8L10.3904 10.1877C10.5629 10.4033 10.528 10.7179 10.3123 10.8904C10.0967 11.0629 9.78207 11.028 9.60956 10.8123L8 8.80039L6.39043 10.8123C6.21792 11.028 5.90328 11.0629 5.68765 10.8904C5.47202 10.7179 5.43706 10.4033 5.60956 10.1877L7.35968 8L5.60956 5.81235C5.43706 5.59672 5.47202 5.28207 5.68765 5.10957Z"/>
</svg>
