<svg viewBox="0 0 20 20" xmlns="http://www.w3.org/2000/svg">
<path fill-rule="evenodd" clip-rule="evenodd" d="M4.00003 4C4.00003 2.89543 4.89546 2 6.00003 2H6.50003C6.77617 2 7.00003 2.22386 7.00003 2.5C7.00003 2.77614 6.77617 3 6.50003 3H6.00003C5.44774 3 5.00003 3.44772 5.00003 4V6.98165C5.00003 8.18279 4.42855 9.29712 3.48623 10C4.42855 10.7029 5.00003 11.8172 5.00003 13.0184V16C5.00003 16.5523 5.44774 17 6.00003 17H6.50003C6.77617 17 7.00003 17.2239 7.00003 17.5C7.00003 17.7761 6.77617 18 6.50003 18H6.00003C4.89546 18 4.00003 17.1046 4.00003 16V13.0184C4.00003 11.9708 3.40815 11.0131 2.47115 10.5446C2.02239 10.3202 2.02239 9.6798 2.47115 9.45542C3.40815 8.98692 4.00003 8.02924 4.00003 6.98165V4ZM13 2.5C13 2.22386 13.2239 2 13.5 2H14C15.1046 2 16 2.89543 16 4V6.98165C16 8.02924 16.5919 8.98692 17.5289 9.45542C17.9777 9.6798 17.9777 10.3202 17.5289 10.5446C16.5919 11.0131 16 11.9708 16 13.0184V16C16 17.1046 15.1046 18 14 18H13.5C13.2239 18 13 17.7761 13 17.5C13 17.2239 13.2239 17 13.5 17H14C14.5523 17 15 16.5523 15 16V13.0184C15 11.8172 15.5715 10.7029 16.5138 10C15.5715 9.29712 15 8.18279 15 6.98165V4C15 3.44772 14.5523 3 14 3H13.5C13.2239 3 13 2.77614 13 2.5ZM7.16784 7.1263C7.37424 6.94284 7.69027 6.96143 7.87373 7.16782L10 9.5599L12.1263 7.16782C12.3098 6.96143 12.6258 6.94284 12.8322 7.1263C13.0386 7.30975 13.0572 7.62579 12.8737 7.83218L10.669 10.3125L12.8737 12.7928C13.0572 12.9992 13.0386 13.3152 12.8322 13.4987C12.6258 13.6822 12.3098 13.6636 12.1263 13.4572L10 11.0651L7.87373 13.4572C7.69027 13.6636 7.37424 13.6822 7.16784 13.4987C6.96145 13.3152 6.94286 12.9992 7.12632 12.7928L9.33105 10.3125L7.12632 7.83218C6.94286 7.62579 6.96145 7.30975 7.16784 7.1263Z"/>
</svg>
