<svg viewBox="0 0 32 32" xmlns="http://www.w3.org/2000/svg">
<path fill-rule="evenodd" clip-rule="evenodd" d="M5 6C5 3.79086 6.79086 2 9 2H10C10.5523 2 11 2.44772 11 3C11 3.55228 10.5523 4 10 4H9C7.89543 4 7 4.89543 7 6V10.7889C7 12.7927 6.14265 14.6829 4.67394 16C6.14265 17.3171 7 19.2073 7 21.2111V26C7 27.1046 7.89543 28 9 28H10C10.5523 28 11 28.4477 11 29C11 29.5523 10.5523 30 10 30H9C6.79086 30 5 28.2091 5 26V21.2111C5 19.5393 4.16449 17.9782 2.7735 17.0509L2.4453 16.8321C2.1671 16.6466 2 16.3344 2 16C2 15.6656 2.1671 15.3534 2.4453 15.1679L2.7735 14.9491C4.16449 14.0218 5 12.4607 5 10.7889V6Z"/>
<path fill-rule="evenodd" clip-rule="evenodd" d="M27 6C27 3.79086 25.2091 2 23 2H22C21.4477 2 21 2.44772 21 3C21 3.55228 21.4477 4 22 4H23C24.1046 4 25 4.89543 25 6V10.7889C25 12.7927 25.8574 14.6829 27.3261 16C25.8574 17.3171 25 19.2073 25 21.2111V26C25 27.1046 24.1046 28 23 28H22C21.4477 28 21 28.4477 21 29C21 29.5523 21.4477 30 22 30H23C25.2091 30 27 28.2091 27 26V21.2111C27 19.5393 27.8355 17.9782 29.2265 17.0509L29.5547 16.8321C29.8329 16.6466 30 16.3344 30 16C30 15.6656 29.8329 15.3534 29.5547 15.1679L29.2265 14.9491C27.8355 14.0218 27 12.4607 27 10.7889V6Z"/>
<path fill-rule="evenodd" clip-rule="evenodd" d="M11.3356 11.2526C11.7484 10.8857 12.3805 10.9229 12.7474 11.3356L16 14.9948L19.2526 11.3356C19.6195 10.9229 20.2516 10.8857 20.6644 11.2526C21.0771 11.6195 21.1143 12.2516 20.7474 12.6644L17.338 16.5L20.7474 20.3356C21.1143 20.7484 21.0771 21.3805 20.6644 21.7474C20.2516 22.1143 19.6195 22.0771 19.2526 21.6644L16 18.0052L12.7474 21.6644C12.3805 22.0771 11.7484 22.1143 11.3356 21.7474C10.9229 21.3805 10.8857 20.7484 11.2526 20.3356L14.662 16.5L11.2526 12.6644C10.8857 12.2516 10.9229 11.6195 11.3356 11.2526Z"/>
</svg>
