<svg viewBox="0 0 16 16" xmlns="http://www.w3.org/2000/svg">
<path d="M2 4C2 2.89543 2.89543 2 4 2H12C13.1046 2 14 2.89543 14 4V6.25716C13.6929 6.00353 13.3578 5.78261 13 5.59971V4C13 3.44772 12.5523 3 12 3H4C3.44772 3 3 3.44772 3 4V10C3 10.5523 3.44772 11 4 11H5.02242C5.05337 11.3434 5.11588 11.6777 5.20703 12H4C2.89543 12 2 11.1046 2 10V4Z" />
<path d="M5.59971 13H4.5C4.22386 13 4 13.2239 4 13.5C4 13.7761 4.22386 14 4.5 14H6.25716C6.00353 13.6929 5.78261 13.3578 5.59971 13Z" />
<path fill-rule="evenodd" clip-rule="evenodd" d="M6.6347 9.92007C7.72265 9.64216 8.36865 8.52325 8.06536 7.4421L7.89393 6.83101C8.14858 6.6498 8.42291 6.49444 8.71309 6.36876L9.06843 6.7458C9.85736 7.58292 11.1881 7.58362 11.9779 6.74733L12.3213 6.38381C12.617 6.51486 12.896 6.67686 13.1541 6.86569L13.0112 7.34391C12.6819 8.44606 13.3479 9.59818 14.4673 9.86286L14.9705 9.98183C14.99 10.1519 15 10.3248 15 10.5C15 10.6426 14.9934 10.7835 14.9804 10.9227L14.3658 11.0797C13.2779 11.3576 12.6319 12.4765 12.9352 13.5577L13.1066 14.1687C12.8519 14.3499 12.5776 14.5053 12.2875 14.631L11.9321 14.254C11.1432 13.4168 9.81242 13.4161 9.02261 14.2524L8.67895 14.6163C8.38326 14.4853 8.10432 14.3234 7.84624 14.1346L7.9893 13.6559C8.31864 12.5537 7.65265 11.4016 6.53322 11.1369L6.02947 11.0178C6.01 10.8479 6 10.6751 6 10.5C6 10.3574 6.00663 10.2164 6.0196 10.0772L6.6347 9.92007ZM11.5 10.5C11.5 11.0523 11.0523 11.5 10.5 11.5C9.94774 11.5 9.50002 11.0523 9.50002 10.5C9.50002 9.94772 9.94774 9.5 10.5 9.5C11.0523 9.5 11.5 9.94772 11.5 10.5Z" />
</svg>
