<svg width="24" height="24" viewBox="0 0 24 24" fill="none" xmlns="http://www.w3.org/2000/svg">
<path fill-rule="evenodd" clip-rule="evenodd" d="M18.5 6C18.5 6.23033 18.2743 6.84266 16.986 7.48679C15.7875 8.08605 14.0268 8.5 12 8.5C9.97324 8.5 8.2125 8.08605 7.01397 7.48679C5.72575 6.84268 5.50001 6.23036 5.5 6.00002C5.5 6.00001 5.5 6.00001 5.5 6C5.5 5.76967 5.72571 5.15734 7.01397 4.51321C8.2125 3.91395 9.97324 3.5 12 3.5C14.0268 3.5 15.7875 3.91395 16.986 4.51321C18.2743 5.15734 18.5 5.76967 18.5 6ZM18.5 8.33236C17.0479 9.34229 14.6776 10 12 10C9.32244 10 6.95211 9.34229 5.5 8.33236V12C5.5 12.2082 5.70408 12.8318 7.01397 13.4868C8.25823 14.1089 10.0511 14.5 12 14.5C13.9489 14.5 15.7418 14.1089 16.986 13.4868C18.2959 12.8318 18.5 12.2082 18.5 12V8.33236ZM18.5 14.3319C18.2482 14.5074 17.9667 14.6735 17.6569 14.8284C16.1566 15.5786 14.1218 16 12 16C9.87824 16 7.84342 15.5786 6.34315 14.8284C6.03335 14.6735 5.7518 14.5074 5.5 14.3319V18C5.5 18.1101 5.53904 18.3022 5.76408 18.5738C5.9981 18.8563 6.40111 19.1804 7.01397 19.4868C7.62082 19.7902 8.37561 20.0471 9.24274 20.2267C10.1075 20.4058 11.0455 20.5 12 20.5C12.9545 20.5 13.8925 20.4058 14.7573 20.2267C15.6244 20.0471 16.3792 19.7902 16.986 19.4868C17.5989 19.1804 18.0019 18.8563 18.2359 18.5738C18.461 18.3022 18.5 18.1101 18.5 18V14.3319ZM20 18C20 18.5247 19.7935 19.0449 19.391 19.5307C18.989 20.016 18.3998 20.457 17.6569 20.8284C16.914 21.1999 16.0321 21.4945 15.0615 21.6955C14.0909 21.8965 13.0506 22 12 22C10.9494 22 9.90914 21.8965 8.93853 21.6955C7.96793 21.4945 7.08601 21.1999 6.34315 20.8284C5.60024 20.457 5.01098 20.016 4.60896 19.5307C4.20646 19.0449 4 18.5247 4 18V12V6.00002C4 6.00001 4 6.00001 4 6C4 3.79086 7.58172 2 12 2C16.4183 2 20 3.79086 20 6V12V18Z" fill="#666666"/>
</svg>
