<svg width="24" height="24" viewBox="0 0 24 24" xmlns="http://www.w3.org/2000/svg">
<path d="M11.25 3.75C11.25 3.33579 11.5858 3 12 3C12.4142 3 12.75 3.33579 12.75 3.75V10.6825L18.711 7.1433C19.0672 6.93184 19.5273 7.04914 19.7388 7.40531C19.9502 7.76148 19.8329 8.22164 19.4768 8.4331L13.4691 12L19.4768 15.5669C19.8329 15.7784 19.9502 16.2385 19.7388 16.5947C19.5273 16.9509 19.0672 17.0682 18.711 16.8567L12.75 13.3175V20.25C12.75 20.6642 12.4142 21 12 21C11.5858 21 11.25 20.6642 11.25 20.25V13.3175L5.28901 16.8567C4.93285 17.0682 4.47269 16.9509 4.26122 16.5947C4.04976 16.2385 4.16706 15.7784 4.52323 15.5669L10.5309 12L4.52323 8.4331C4.16706 8.22164 4.04976 7.76148 4.26122 7.40531C4.47269 7.04914 4.93285 6.93184 5.28901 7.1433L11.25 10.6825V3.75Z"/>
</svg>
