<svg viewBox="0 0 20 20" xmlns="http://www.w3.org/2000/svg">
<path fill-rule="evenodd" clip-rule="evenodd" d="M10.8253 3.13545C10.2971 2.91538 9.7029 2.91538 9.17473 3.13545C8.0236 3.61509 7.10482 4.52463 6.61358 5.67086L6.38611 6.20162C6.13136 6.79604 6 7.43602 6 8.08274V14.4999C6 14.7761 6.22386 14.9999 6.5 14.9999H13.5C13.7761 14.9999 14 14.7761 14 14.4999V8.08274C14 7.43602 13.8686 6.79604 13.6139 6.20162L13.3864 5.67086C12.8952 4.52463 11.9764 3.61509 10.8253 3.13545ZM8.79011 2.21238C9.56444 1.88974 10.4356 1.88974 11.2099 2.21238C12.6013 2.79212 13.7118 3.89149 14.3056 5.27694L14.533 5.8077C14.8368 6.51656 14.9955 7.27899 14.9999 8.04998C16.1411 8.28158 17 9.29047 17 10.5V13C17 13.5523 16.5523 14 16 14H15V14.4999C15 15.153 14.5826 15.7087 14 15.9146V16.5C14 17.3284 13.3284 18 12.5 18H7.5C6.67157 18 6 17.3284 6 16.5V15.9146C5.4174 15.7087 5 15.153 5 14.4999V14H4C3.44772 14 3 13.5523 3 13V10.5C3 9.29047 3.85893 8.28157 5.00009 8.04997C5.00447 7.27899 5.16317 6.51656 5.46697 5.8077L5.69444 5.27694C6.2882 3.89149 7.39873 2.79212 8.79011 2.21238ZM15 13V9.08534C15.5826 9.29125 16 9.84687 16 10.5V13H15ZM5 9.08534C4.4174 9.29125 4 9.84687 4 10.5V13H5V9.08534ZM7 16.5V15.9999H13V16.5C13 16.7761 12.7761 17 12.5 17H7.5C7.22386 17 7 16.7761 7 16.5ZM11 7.99998C11 8.55227 10.5523 8.99998 10 8.99998C9.44772 8.99998 9 8.55227 9 7.99998C9 7.4477 9.44772 6.99998 10 6.99998C10.5523 6.99998 11 7.4477 11 7.99998ZM12 7.99998C12 9.10455 11.1046 9.99998 10 9.99998C8.89543 9.99998 8 9.10455 8 7.99998C8 6.89541 8.89543 5.99998 10 5.99998C11.1046 5.99998 12 6.89541 12 7.99998Z" />
</svg>
