<svg viewBox="0 0 24 24" xmlns="http://www.w3.org/2000/svg">
<path fill-rule="evenodd" clip-rule="evenodd" d="M11.75 13C13.4069 13 14.75 11.6568 14.75 9.99998C14.75 8.34313 13.4069 6.99998 11.75 6.99998C10.0931 6.99998 8.75 8.34313 8.75 9.99998C8.75 11.6568 10.0931 13 11.75 13ZM11.75 11.5C12.5784 11.5 13.25 10.8284 13.25 9.99998C13.25 9.17156 12.5784 8.49998 11.75 8.49998C10.9216 8.49998 10.25 9.17156 10.25 9.99998C10.25 10.8284 10.9216 11.5 11.75 11.5Z" />
<path fill-rule="evenodd" clip-rule="evenodd" d="M7.52351 4.66522C6.32132 6.19527 5.61512 8.06927 5.51291 10.0089C4.04968 10.52 3 11.9124 3 13.55V15.75C3 16.4403 3.55964 17 4.25 17H5.60352C5.83848 17.8307 6.45408 18.5017 7.25 18.8125V20.25C7.25 21.2165 8.0335 22 9 22H15C15.9665 22 16.75 21.2165 16.75 20.25V18.5553C17.2999 18.1967 17.7135 17.6468 17.8965 17H19.75C20.4404 17 21 16.4403 21 15.75V13.55C21 11.7322 19.7065 10.2164 17.9897 9.87297C17.9012 8.04266 17.246 6.28095 16.1095 4.83454C15.3696 3.89279 14.4303 3.12659 13.359 2.59098L13.1666 2.49474C12.1081 1.96552 10.8527 2.01374 9.83794 2.62257C8.94986 3.15542 8.16239 3.85209 7.52351 4.66522ZM12.4957 3.83638C11.896 3.53652 11.1847 3.56384 10.6097 3.90881C9.87963 4.34685 9.22996 4.92125 8.70298 5.59195C7.60558 6.98864 7 8.72562 7 10.4988V16.25C7 16.9403 7.55964 17.5 8.25 17.5H15.25C15.9404 17.5 16.5 16.9403 16.5 16.25V10.3005C16.5 8.65425 15.9471 7.05573 14.9301 5.76127C14.327 4.99368 13.5613 4.36918 12.6882 3.93262L12.4957 3.83638ZM15.25 19H8.75V20.25C8.75 20.3881 8.86193 20.5 9 20.5H15C15.1381 20.5 15.25 20.3881 15.25 20.25V19ZM18 11.4281V15.5H19.5V13.55C19.5 12.5704 18.8739 11.7369 18 11.4281ZM4.5 13.55C4.5 12.7699 4.89701 12.0826 5.5 11.6789V15.5H4.5V13.55Z" />
</svg>
