<svg viewBox="0 0 32 32"   xmlns="http://www.w3.org/2000/svg">
<path fill-rule="evenodd" clip-rule="evenodd" d="M11 5C11.5523 5 12 5.44772 12 6V23.5858L16.2929 19.2929C16.6834 18.9024 17.3166 18.9024 17.7071 19.2929C18.0976 19.6834 18.0976 20.3166 17.7071 20.7071L11.7071 26.7071C11.3166 27.0976 10.6834 27.0976 10.2929 26.7071L4.29289 20.7071C3.90237 20.3166 3.90237 19.6834 4.29289 19.2929C4.68342 18.9024 5.31658 18.9024 5.70711 19.2929L10 23.5858V6C10 5.44772 10.4477 5 11 5ZM15 7C15 6.44772 15.4477 6 16 6H28C28.5523 6 29 6.44772 29 7C29 7.55228 28.5523 8 28 8H16C15.4477 8 15 7.55228 15 7ZM15 11C15 10.4477 15.4477 10 16 10H24C24.5523 10 25 10.4477 25 11C25 11.5523 24.5523 12 24 12H16C15.4477 12 15 11.5523 15 11ZM15 15C15 14.4477 15.4477 14 16 14H20C20.5523 14 21 14.4477 21 15C21 15.5523 20.5523 16 20 16H16C15.4477 16 15 15.5523 15 15Z"  />
</svg>
