<svg viewBox="0 0 20 20"   xmlns="http://www.w3.org/2000/svg">
<path fill-rule="evenodd" clip-rule="evenodd" d="M6.5 3C6.77614 3 7 3.22386 7 3.5V15.2929L9.64645 12.6464C9.84171 12.4512 10.1583 12.4512 10.3536 12.6464C10.5488 12.8417 10.5488 13.1583 10.3536 13.3536L6.85355 16.8536C6.65829 17.0488 6.34171 17.0488 6.14645 16.8536L2.64645 13.3536C2.45118 13.1583 2.45118 12.8417 2.64645 12.6464C2.84171 12.4512 3.15829 12.4512 3.35355 12.6464L6 15.2929V3.5C6 3.22386 6.22386 3 6.5 3Z"  />
<path fill-rule="evenodd" clip-rule="evenodd" d="M9 4.5C9 4.22386 9.22386 4 9.5 4H16.5C16.7761 4 17 4.22386 17 4.5C17 4.77614 16.7761 5 16.5 5H9.5C9.22386 5 9 4.77614 9 4.5Z"  />
<path fill-rule="evenodd" clip-rule="evenodd" d="M9 7.5C9 7.22386 9.22386 7 9.5 7H14.5C14.7761 7 15 7.22386 15 7.5C15 7.77614 14.7761 8 14.5 8H9.5C9.22386 8 9 7.77614 9 7.5Z"  />
<path fill-rule="evenodd" clip-rule="evenodd" d="M9 10.5C9 10.2239 9.22386 10 9.5 10H11.5C11.7761 10 12 10.2239 12 10.5C12 10.7761 11.7761 11 11.5 11H9.5C9.22386 11 9 10.7761 9 10.5Z"  />
</svg>
