<svg   viewBox="0 0 24 24"   xmlns="http://www.w3.org/2000/svg">
<path fill-rule="evenodd" clip-rule="evenodd" d="M8.75 4C9.16421 4 9.5 4.33579 9.5 4.75V17.4393L12.7197 14.2197C13.0126 13.9268 13.4874 13.9268 13.7803 14.2197C14.0732 14.5126 14.0732 14.9874 13.7803 15.2803L9.28033 19.7803C8.98744 20.0732 8.51256 20.0732 8.21967 19.7803L3.71967 15.2803C3.42678 14.9874 3.42678 14.5126 3.71967 14.2197C4.01256 13.9268 4.48744 13.9268 4.78033 14.2197L8 17.4393V4.75C8 4.33579 8.33579 4 8.75 4Z"  />
<path fill-rule="evenodd" clip-rule="evenodd" d="M11.5 5.25C11.5 4.83579 11.8358 4.5 12.25 4.5H20.22C20.6342 4.5 20.97 4.83579 20.97 5.25C20.97 5.66421 20.6342 6 20.22 6H12.25C11.8358 6 11.5 5.66421 11.5 5.25Z"  />
<path fill-rule="evenodd" clip-rule="evenodd" d="M11.5 8.25C11.5 7.83579 11.8358 7.5 12.25 7.5H17.25C17.6642 7.5 18 7.83579 18 8.25C18 8.66421 17.6642 9 17.25 9H12.25C11.8358 9 11.5 8.66421 11.5 8.25Z"  />
<path fill-rule="evenodd" clip-rule="evenodd" d="M11.5 11.25C11.5 10.8358 11.8358 10.5 12.25 10.5H15.25C15.6642 10.5 16 10.8358 16 11.25C16 11.6642 15.6642 12 15.25 12H12.25C11.8358 12 11.5 11.6642 11.5 11.25Z"  />
</svg>
