<svg width="24" height="24" viewBox="0 0 24 24" xmlns="http://www.w3.org/2000/svg">
<path fill-rule="evenodd" clip-rule="evenodd" d="M12.3107 6.75L10.409 4.84835C9.70575 4.14509 8.75192 3.75 7.75736 3.75H4.5C3.25736 3.75 2.25 4.75736 2.25 6V17.25C2.25 18.9069 3.59315 20.25 5.25 20.25H11.6367C11.3269 19.7872 11.0728 19.284 10.8841 18.75H5.25C4.42157 18.75 3.75 18.0784 3.75 17.25V10.372C3.98458 10.4549 4.23702 10.5 4.5 10.5H8C8.81139 10.5 9.60089 10.2368 10.25 9.75L12.25 8.25H18.75C19.5784 8.25 20.25 8.92157 20.25 9.75V10.4516C20.7961 10.723 21.3002 11.0662 21.75 11.4688V9.75C21.75 8.09315 20.4069 6.75 18.75 6.75H12.3107ZM4.5 5.25C4.08579 5.25 3.75 5.58579 3.75 6V8.25C3.75 8.66421 4.08579 9 4.5 9H8C8.48683 9 8.96053 8.8421 9.35 8.55L10.8582 7.41885L9.34835 5.90901C8.92639 5.48705 8.3541 5.25 7.75736 5.25H4.5Z" />
<path fill-rule="evenodd" clip-rule="evenodd" d="M22.5 16.5C22.5 19.3995 20.1495 21.75 17.25 21.75C14.3505 21.75 12 19.3995 12 16.5C12 13.6005 14.3505 11.25 17.25 11.25C20.1495 11.25 22.5 13.6005 22.5 16.5ZM15.1287 15.4393C14.8358 15.1464 14.8358 14.6716 15.1287 14.3787C15.4216 14.0858 15.8964 14.0858 16.1893 14.3787L17.25 15.4393L18.3107 14.3787C18.6035 14.0858 19.0784 14.0858 19.3713 14.3787C19.6642 14.6716 19.6642 15.1464 19.3713 15.4393L18.3107 16.5L19.3713 17.5607C19.6642 17.8536 19.6642 18.3284 19.3713 18.6213C19.0784 18.9142 18.6035 18.9142 18.3107 18.6213L17.25 17.5607L16.1893 18.6213C15.8964 18.9142 15.4216 18.9142 15.1287 18.6213C14.8358 18.3284 14.8358 17.8536 15.1287 17.5607L16.1893 16.5L15.1287 15.4393Z" />
</svg>
