<svg width="32" height="32" viewBox="0 0 32 32" fill="none" xmlns="http://www.w3.org/2000/svg">
<path fill-rule="evenodd" clip-rule="evenodd" d="M16 25C16 25.5523 15.5523 26 15 26L4 26C3.44772 26 3 25.5523 3 25C3 24.4477 3.44772 24 4 24L15 24C15.5523 24 16 24.4477 16 25ZM20.2929 23.7071C19.9024 23.3166 19.9024 22.6834 20.2929 22.2929L25.5858 17L4 17C3.44772 17 3 16.5523 3 16C3 15.4477 3.44772 15 4 15L25.5858 15L20.2929 9.70711C19.9024 9.31658 19.9024 8.68342 20.2929 8.29289C20.6834 7.90237 21.3166 7.90237 21.7071 8.29289L28.7071 15.2929C29.0976 15.6834 29.0976 16.3166 28.7071 16.7071L21.7071 23.7071C21.3166 24.0976 20.6834 24.0976 20.2929 23.7071ZM16 7C16 7.55228 15.5523 8 15 8L4 8C3.44772 8 3 7.55228 3 7C3 6.44772 3.44772 6 4 6L15 6C15.5523 6 16 6.44772 16 7Z" fill="#666666"/>
</svg>
