<svg viewBox="0 0 20 20" xmlns="http://www.w3.org/2000/svg">
<path d="M17.5 10L17.8345 10.3716C17.9398 10.2768 18 10.1417 18 10C18 9.85826 17.9398 9.72317 17.8345 9.62835L17.5 10ZM2.49997 9.5C2.22383 9.5 1.99997 9.72386 1.99997 10C1.99997 10.2761 2.22383 10.5 2.49997 10.5V9.5ZM12.8345 5.12835C12.6292 4.94362 12.3131 4.96026 12.1284 5.16552C11.9436 5.37077 11.9603 5.68692 12.1655 5.87165L12.8345 5.12835ZM12.1655 14.1284C11.9603 14.3131 11.9436 14.6292 12.1284 14.8345C12.3131 15.0397 12.6292 15.0564 12.8345 14.8716L12.1655 14.1284ZM2.49997 4C2.22383 4 1.99997 4.22386 1.99997 4.5C1.99997 4.77614 2.22383 5 2.49997 5V4ZM9.5 5C9.77614 5 10 4.77614 10 4.5C10 4.22386 9.77614 4 9.5 4L9.5 5ZM2.49997 15C2.22383 15 1.99997 15.2239 1.99997 15.5C1.99997 15.7761 2.22383 16 2.49997 16V15ZM9.5 16C9.77614 16 10 15.7761 10 15.5C10 15.2239 9.77614 15 9.5 15V16ZM17.5 9.5L2.49997 9.5V10.5L17.5 10.5V9.5ZM17.8345 9.62835L12.8345 5.12835L12.1655 5.87165L17.1655 10.3716L17.8345 9.62835ZM12.8345 14.8716L17.8345 10.3716L17.1655 9.62835L12.1655 14.1284L12.8345 14.8716ZM2.49997 5H9.5L9.5 4H2.49997V5ZM2.49997 16H9.5V15H2.49997V16Z" />
</svg>
