<svg viewBox="0 0 24 24" xmlns="http://www.w3.org/2000/svg">
<path fill-rule="evenodd" clip-rule="evenodd" d="M11.25 3C11.25 2.58579 11.5858 2.25 12 2.25C12.4142 2.25 12.75 2.58579 12.75 3V3.75H19.0986C19.3494 3.75 19.5835 3.87533 19.7226 4.08397L20.7226 5.58398C20.8906 5.8359 20.8906 6.1641 20.7226 6.41603L19.7226 7.91603C19.5835 8.12467 19.3494 8.25 19.0986 8.25H12.75V9.75H18C18.8284 9.75 19.5 10.4216 19.5 11.25V12.75C19.5 13.5784 18.8284 14.25 18 14.25H12.75V21C12.75 21.4142 12.4142 21.75 12 21.75C11.5858 21.75 11.25 21.4142 11.25 21V14.25H4.90137C4.6506 14.25 4.41643 14.1247 4.27733 13.916L3.27733 12.416C3.10938 12.1641 3.10938 11.8359 3.27733 11.584L4.27733 10.084C4.41643 9.87533 4.6506 9.75 4.90137 9.75H11.25V8.25H5.99998C5.17155 8.25 4.49998 7.57843 4.49998 6.75V5.25C4.49998 4.42157 5.17155 3.75 5.99998 3.75H11.25V3ZM18.6972 5.25H6.37498C6.16787 5.25 5.99998 5.41789 5.99998 5.625V6.375C5.99998 6.58211 6.16787 6.75 6.37498 6.75H18.6972L19.1972 6L18.6972 5.25ZM4.80276 12L5.30276 11.25H17.625C17.8321 11.25 18 11.4179 18 11.625V12.375C18 12.5821 17.8321 12.75 17.625 12.75H5.30276L4.80276 12Z"/>
</svg>
