<svg width="24" height="24" viewBox="0 0 24 24" xmlns="http://www.w3.org/2000/svg">
<path d="M7.875 7.5C8.49632 7.5 9 6.99632 9 6.375C9 5.75368 8.49632 5.25 7.875 5.25C7.25368 5.25 6.75 5.75368 6.75 6.375C6.75 6.99632 7.25368 7.5 7.875 7.5Z" />
<path d="M9 10.125C9 10.7463 8.49632 11.25 7.875 11.25C7.25368 11.25 6.75 10.7463 6.75 10.125C6.75 9.50368 7.25368 9 7.875 9C8.49632 9 9 9.50368 9 10.125Z" />
<path d="M7.875 15C8.49632 15 9 14.4963 9 13.875C9 13.2537 8.49632 12.75 7.875 12.75C7.25368 12.75 6.75 13.2537 6.75 13.875C6.75 14.4963 7.25368 15 7.875 15Z" />
<path d="M12.75 6.375C12.75 6.99632 12.2463 7.5 11.625 7.5C11.0037 7.5 10.5 6.99632 10.5 6.375C10.5 5.75368 11.0037 5.25 11.625 5.25C12.2463 5.25 12.75 5.75368 12.75 6.375Z" />
<path d="M11.625 11.25C12.2463 11.25 12.75 10.7463 12.75 10.125C12.75 9.50368 12.2463 9 11.625 9C11.0037 9 10.5 9.50368 10.5 10.125C10.5 10.7463 11.0037 11.25 11.625 11.25Z" />
<path d="M12.75 13.875C12.75 14.4963 12.2463 15 11.625 15C11.0037 15 10.5 14.4963 10.5 13.875C10.5 13.2537 11.0037 12.75 11.625 12.75C12.2463 12.75 12.75 13.2537 12.75 13.875Z" />
<path d="M15.375 15C15.9963 15 16.5 14.4963 16.5 13.875C16.5 13.2537 15.9963 12.75 15.375 12.75C14.7537 12.75 14.25 13.2537 14.25 13.875C14.25 14.4963 14.7537 15 15.375 15Z" />
<path fill-rule="evenodd" clip-rule="evenodd" d="M18.75 21.75H4.5C4.08579 21.75 3.75 21.4142 3.75 21V5.25C3.75 3.59315 5.09315 2.25 6.75 2.25H12.75C14.4069 2.25 15.75 3.59315 15.75 5.25V9.75H16.5C18.1569 9.75 19.5 11.0931 19.5 12.75V21C19.5 21.4142 19.1642 21.75 18.75 21.75ZM6.75 3.75H12.75C13.5784 3.75 14.25 4.42157 14.25 5.25V11.25H16.5C17.3284 11.25 18 11.9216 18 12.75V20.25H16.5V18C16.5 17.1716 15.8284 16.5 15 16.5H8.25C7.42157 16.5 6.75 17.1716 6.75 18V20.25H5.25V5.25C5.25 4.42157 5.92157 3.75 6.75 3.75ZM15 18V20.25H12V18H15ZM10.5 18V20.25H8.25V18H10.5Z" />
</svg>
