<svg viewBox="0 0 16 16" xmlns="http://www.w3.org/2000/svg">
<path fill-rule="evenodd" clip-rule="evenodd" d="M14.6913 1.03807C14.8782 1.11547 15 1.29778 15 1.50001V4.50001C15 5.88073 13.8807 7.00001 12.5 7.00001H9.70711L8.70711 8.00001H12.5C12.7761 8.00001 13 8.22387 13 8.50001C13 8.77616 12.7761 9.00001 12.5 9.00001H7.70711L6.70711 10H12.5C12.7203 10 12.9147 10.1442 12.9785 10.3551C13.0424 10.566 12.9607 10.7938 12.7774 10.916L12.6895 10.9746C10.7085 12.2953 8.38089 13 6 13H3.70711L1.85355 14.8536C1.65829 15.0488 1.34171 15.0488 1.14645 14.8536C0.951184 14.6583 0.951184 14.3417 1.14645 14.1465L3.00183 12.2911C3.08828 7.37017 6.22264 3.00885 10.8775 1.36596L11.8336 1.02852C11.9866 0.974513 12.1563 0.998123 12.2888 1.09184C12.4213 1.18557 12.5 1.33775 12.5 1.50001V2.79291L14.1464 1.14646C14.2894 1.00346 14.5045 0.960684 14.6913 1.03807ZM11.5 3.79291V2.20671L11.2103 2.30895C7.29758 3.68992 4.55857 7.16935 4.07609 11.2168L11.5 3.79291ZM4.70711 12H6C7.59266 12 9.15933 11.6561 10.5956 11H5.70711L4.70711 12ZM10.7071 6.00001H12.5C13.3284 6.00001 14 5.32844 14 4.50001V2.70712L10.7071 6.00001Z" />
</svg>
