<svg viewBox="0 0 20 20" xmlns="http://www.w3.org/2000/svg">
<path d="M14.3246 2.16434C13.6112 2.12026 12.8982 2.2568 12.2516 2.56135C11.605 2.86589 11.0456 3.32859 10.6252 3.90665C10.2707 4.39417 10.0247 4.95046 9.90206 5.53808L9.89665 5.56442C9.88297 5.6321 9.87093 5.70019 9.86054 5.76863L9.28923 9H5.49995C5.22381 9 4.99995 9.22386 4.99995 9.5C4.99995 9.77614 5.22381 10 5.49995 10H9.11243L8.5385 13.2462C8.53229 13.2673 8.5274 13.289 8.52393 13.3113C8.4448 13.8208 8.2456 14.3041 7.94278 14.7214C7.63995 15.1387 7.2422 15.4779 6.78238 15.7111C6.32255 15.9443 5.81384 16.0647 5.29827 16.0625C4.7827 16.0602 4.27506 15.9353 3.81729 15.6982C3.5721 15.5711 3.27035 15.6669 3.14332 15.9121C3.01628 16.1573 3.11205 16.459 3.35724 16.5861C3.95587 16.8962 4.6197 17.0595 5.29391 17.0625C5.96812 17.0654 6.63335 16.9079 7.23466 16.603C7.83598 16.298 8.35611 15.8544 8.75211 15.3087C9.13633 14.7793 9.39299 14.1685 9.50244 13.5241L9.50479 13.5246L10.1279 10H13.5C13.7761 10 14 9.77614 14 9.5C14 9.22386 13.7761 9 13.5 9H10.3047L10.8222 6.07342C10.8296 6.04815 10.8351 6.02196 10.8386 5.99499C10.8413 5.97325 10.8443 5.95156 10.8475 5.92991L10.8791 5.75135C10.9722 5.29868 11.1611 4.87009 11.434 4.49479C11.7554 4.05275 12.1832 3.69892 12.6777 3.46603C13.1721 3.23314 13.7174 3.12873 14.2629 3.16244C14.8084 3.19615 15.3366 3.3669 15.7987 3.65889C16.0321 3.80642 16.3409 3.73677 16.4885 3.50334C16.636 3.2699 16.5663 2.96108 16.3329 2.81355C15.7287 2.43172 15.038 2.20843 14.3246 2.16434Z" />
</svg>
