<svg viewBox="0 0 24 24" xmlns="http://www.w3.org/2000/svg">
<path d="M17.1989 2.4475C16.3176 2.39304 15.4369 2.56171 14.6381 2.93791C13.8393 3.31411 13.1484 3.88569 12.6291 4.59976C12.1902 5.20324 11.886 5.89202 11.7348 6.61957L11.7287 6.64939C11.7121 6.73181 11.6974 6.81471 11.6848 6.89804L11.0479 10.5H6.75006C6.33585 10.5 6.00006 10.8358 6.00006 11.25C6.00006 11.6642 6.33585 12 6.75006 12H10.7827L10.1 15.8614C10.0919 15.8903 10.0854 15.9201 10.0806 15.9506C9.98932 16.5384 9.75947 17.0961 9.41006 17.5776C9.06065 18.059 8.60171 18.4505 8.07114 18.7195C7.54057 18.9886 6.9536 19.1276 6.35871 19.125C5.76382 19.1224 5.17808 18.9783 4.64988 18.7046C4.2821 18.514 3.82948 18.6577 3.63892 19.0255C3.44836 19.3933 3.59203 19.8459 3.95981 20.0364C4.69929 20.4196 5.51932 20.6213 6.35217 20.625C7.18501 20.6286 8.00677 20.434 8.74957 20.0573C9.49236 19.6806 10.1349 19.1326 10.6241 18.4586C11.0985 17.8048 11.4155 17.0507 11.5508 16.2551L11.5536 16.2556L12.306 12H16.2501C16.6643 12 17.0001 11.6642 17.0001 11.25C17.0001 10.8358 16.6643 10.5 16.2501 10.5H12.5712L13.133 7.32217C13.143 7.28688 13.1504 7.25042 13.1552 7.21297C13.1583 7.18857 13.1617 7.16422 13.1653 7.13992L13.2024 6.92982C13.31 6.40826 13.5277 5.91445 13.8422 5.48197C14.2131 4.97192 14.7067 4.56365 15.2772 4.29494C15.8478 4.02622 16.4769 3.90574 17.1063 3.94464C17.7358 3.98354 18.3453 4.18056 18.8784 4.51747C19.2286 4.73876 19.6918 4.63429 19.9131 4.28414C20.1344 3.93399 20.0299 3.47075 19.6798 3.24946C18.9334 2.77778 18.0801 2.50195 17.1989 2.4475Z" />
</svg>
