<svg viewBox="0 0 24 24" xmlns="http://www.w3.org/2000/svg">
<path fill-rule="evenodd" clip-rule="evenodd" d="M8.78691 9.52335C10.2241 8.99828 11.25 7.61895 11.25 6C11.25 3.92893 9.57107 2.25 7.5 2.25C5.42893 2.25 3.75 3.92893 3.75 6C3.75 7.8155 5.04014 9.32968 6.75364 9.67572C6.75123 9.70016 6.75 9.72493 6.75 9.75V14.25C6.75 14.2751 6.75123 14.2998 6.75363 14.3243C5.04014 14.6703 3.75 16.1845 3.75 18C3.75 20.0711 5.42893 21.75 7.5 21.75C9.57107 21.75 11.25 20.0711 11.25 18C11.25 16.1845 9.95986 14.6703 8.24637 14.3243C8.24877 14.2998 8.25 14.2751 8.25 14.25V11.4982C8.67491 12.0448 9.18022 12.5304 9.75315 12.9367C10.8787 13.735 12.2066 14.1858 13.5737 14.2436C13.9187 15.9585 15.4335 17.25 17.25 17.25C19.3211 17.25 21 15.5711 21 13.5C21 11.4289 19.3211 9.75 17.25 9.75C15.4386 9.75 13.9271 11.0344 13.5766 12.7421C12.5187 12.6859 11.4929 12.3316 10.6209 11.7132C9.82684 11.15 9.19729 10.394 8.78691 9.52335ZM7.5 8.25C8.74264 8.25 9.75 7.24264 9.75 6C9.75 4.75736 8.74264 3.75 7.5 3.75C6.25736 3.75 5.25 4.75736 5.25 6C5.25 7.24264 6.25736 8.25 7.5 8.25ZM9.75 18C9.75 19.2426 8.74264 20.25 7.5 20.25C6.25736 20.25 5.25 19.2426 5.25 18C5.25 16.7574 6.25736 15.75 7.5 15.75C8.74264 15.75 9.75 16.7574 9.75 18ZM17.25 15.75C18.4926 15.75 19.5 14.7426 19.5 13.5C19.5 12.2574 18.4926 11.25 17.25 11.25C16.0074 11.25 15 12.2574 15 13.5C15 14.7426 16.0074 15.75 17.25 15.75Z" />
</svg>
