<svg viewBox="0 0 24 24" xmlns="http://www.w3.org/2000/svg">
<path fill-rule="evenodd" clip-rule="evenodd" d="M18.3726 18.75C19.4296 18.7506 20.4467 18.3454 21.2137 17.6179C21.9821 16.8891 22.4408 15.8926 22.4947 14.8349C22.5486 13.7772 22.1936 12.7393 21.5032 11.9362C20.9431 11.2845 20.1969 10.8278 19.3724 10.6224C19.0688 8.99723 18.2352 7.51258 16.9948 6.40522C15.6276 5.18462 13.8608 4.5069 12.028 4.50005C10.1953 4.4932 8.42342 5.15769 7.04713 6.36803C5.7844 7.4785 4.93484 8.97793 4.6276 10.6224C3.80135 10.8283 3.05389 11.2864 2.49342 11.9401C1.80508 12.7429 1.45138 13.7795 1.50539 14.8357C1.5594 15.8918 2.01699 16.8869 2.78365 17.6154C3.5503 18.3438 4.56746 18.75 5.625 18.75H18.3726ZM12.0224 6.00004C10.5562 5.99456 9.13874 6.52615 8.03771 7.49443C6.93667 8.4627 6.2283 9.80062 6.04637 11.2555C6.04172 11.2927 6.03441 11.329 6.02466 11.3641C5.98118 11.7017 5.71046 11.9775 5.35723 12.0137C4.68776 12.0823 4.07022 12.4055 3.63218 12.9164C3.19414 13.4273 2.96906 14.087 3.00343 14.7591C3.0378 15.4312 3.329 16.0644 3.81687 16.528C4.30474 16.9915 4.95202 17.25 5.625 17.25H18.3651C18.3667 17.25 18.3683 17.25 18.3699 17.25C19.0438 17.2513 19.6925 16.9934 20.1815 16.5296C20.6704 16.0658 20.9623 15.4317 20.9966 14.7586C21.0309 14.0855 20.805 13.425 20.3657 12.9139C19.9264 12.4028 19.3073 12.0803 18.6367 12.0131C18.2754 11.9769 17.9998 11.6899 17.9651 11.3419C17.9627 11.3281 17.9607 11.3142 17.959 11.3C17.788 9.84383 17.0896 8.50065 15.9959 7.52417C14.9021 6.5477 13.4886 6.00552 12.0224 6.00004Z" />
</svg>
