<svg viewBox="0 0 24 24" xmlns="http://www.w3.org/2000/svg">
<path d="M19.1264 4.98871C19.4177 4.69421 19.8926 4.69159 20.1871 4.98287C20.4816 5.27414 20.4842 5.74901 20.1929 6.04351L12.2819 14.0422C11.9906 14.3367 11.5158 14.3393 11.2213 14.048L3.2226 6.13702C2.9281 5.84574 2.92548 5.37088 3.21676 5.07637C3.50803 4.78187 3.9829 4.77925 4.2774 5.07053L11.7428 12.4541L19.1264 4.98871Z" />
<path d="M19.1264 9.98871C19.4177 9.69421 19.8926 9.69159 20.1871 9.98287C20.4816 10.2741 20.4842 10.749 20.1929 11.0435L12.2819 19.0422C11.9906 19.3367 11.5158 19.3393 11.2213 19.048L3.2226 11.137C2.9281 10.8457 2.92548 10.3709 3.21676 10.0764C3.50803 9.78187 3.9829 9.77925 4.2774 10.0705L11.7428 17.4541L19.1264 9.98871Z" />
</svg>
