<svg  viewBox="0 0 16 16"  xmlns="http://www.w3.org/2000/svg">
  <path fill-rule="evenodd" clip-rule="evenodd" d="M9.99999 12C10.2761 12 10.5 12.2239 10.5 12.5V17.3773L12.1655 15.8784C12.3708 15.6936 12.6869 15.7103 12.8716 15.9155C13.0564 16.1208 13.0397 16.4369 12.8345 16.6216L10.3345 18.8716C10.1443 19.0428 9.85566 19.0428 9.66551 18.8716L7.16552 16.6216C6.96026 16.4369 6.94362 16.1208 7.12835 15.9155C7.31308 15.7103 7.62923 15.6936 7.83448 15.8784L9.49999 17.3773V12.5C9.49999 12.2239 9.72385 12 9.99999 12Z" />
  <path fill-rule="evenodd" clip-rule="evenodd" d="M10 8C10.2761 8 10.5 7.77614 10.5 7.5V2.62268L12.1655 4.12165C12.3708 4.30638 12.6869 4.28974 12.8716 4.08448C13.0564 3.87923 13.0397 3.56308 12.8345 3.37835L10.3345 1.12835C10.1443 0.957216 9.85567 0.957216 9.66552 1.12835L7.16552 3.37835C6.96026 3.56308 6.94362 3.87923 7.12835 4.08448C7.31308 4.28974 7.62923 4.30638 7.83448 4.12165L9.5 2.62268V7.5C9.5 7.77614 9.72386 8 10 8Z" />
  <path fill-rule="evenodd" clip-rule="evenodd" d="M3 10C3 9.72386 3.22386 9.5 3.5 9.5H16.5C16.7761 9.5 17 9.72386 17 10C17 10.2761 16.7761 10.5 16.5 10.5H3.5C3.22386 10.5 3 10.2761 3 10Z" />
</svg>
