<svg  viewBox="0 0 20 20"  xmlns="http://www.w3.org/2000/svg">
  <path fill-rule="evenodd" clip-rule="evenodd" d="M12 14C12.4142 14 12.75 14.3358 12.75 14.75V19.5504L14.4922 17.948C14.7971 17.6675 15.2715 17.6874 15.552 17.9922C15.8324 18.2971 15.8125 18.7716 15.5077 19.052L12.5077 21.8112C12.2207 22.0752 11.7793 22.0752 11.4923 21.8112L8.49223 19.052C8.18736 18.7716 8.16751 18.2971 8.44791 17.9923C8.72831 17.6874 9.20277 17.6675 9.50765 17.9479L11.25 19.5504V14.75C11.25 14.3358 11.5858 14 12 14Z" />
  <path fill-rule="evenodd" clip-rule="evenodd" d="M12 9.99997C12.4142 9.99997 12.75 9.66418 12.75 9.24997V4.24186L14.5483 5.59867C14.8789 5.84815 15.3492 5.78235 15.5987 5.45169C15.8482 5.12104 15.7824 4.65075 15.4517 4.40127L12.4517 2.13775C12.1844 1.93602 11.8156 1.93602 11.5483 2.13775L8.54827 4.40127C8.21762 4.65075 8.15182 5.12104 8.4013 5.45169C8.65078 5.78235 9.12107 5.84815 9.45172 5.59867L11.25 4.24186V9.24997C11.25 9.66418 11.5858 9.99997 12 9.99997Z" />
  <path fill-rule="evenodd" clip-rule="evenodd" d="M3 12C3 11.5858 3.33579 11.25 3.75 11.25H20.25C20.6642 11.25 21 11.5858 21 12C21 12.4142 20.6642 12.75 20.25 12.75H3.75C3.33579 12.75 3 12.4142 3 12Z" />
</svg>
