<svg  viewBox="0 0 32 32"  xmlns="http://www.w3.org/2000/svg">
<path fill-rule="evenodd" clip-rule="evenodd" d="M2 8C2 6.34315 3.34315 5 5 5H27C28.6569 5 30 6.34315 30 8V24C30 25.6569 28.6569 27 27 27H5C3.34315 27 2 25.6569 2 24V8ZM5 7C4.44772 7 4 7.44772 4 8V12H12C12.5523 12 13 12.4477 13 13C13 13.5523 12.5523 14 12 14H4V24C4 24.5523 4.44772 25 5 25H27C27.5523 25 28 24.5523 28 24V14H20C19.4477 14 19 13.5523 19 13C19 12.4477 19.4477 12 20 12H28V8C28 7.44772 27.5523 7 27 7H5ZM16 10C16.5523 10 17 10.4477 17 11V18.5858L19.2929 16.2929C19.6834 15.9024 20.3166 15.9024 20.7071 16.2929C21.0976 16.6834 21.0976 17.3166 20.7071 17.7071L16.7071 21.7071C16.3166 22.0976 15.6834 22.0976 15.2929 21.7071L11.2929 17.7071C10.9024 17.3166 10.9024 16.6834 11.2929 16.2929C11.6834 15.9024 12.3166 15.9024 12.7071 16.2929L15 18.5858V11C15 10.4477 15.4477 10 16 10Z" />
</svg>
