<svg viewBox="0 0 16 16" xmlns="http://www.w3.org/2000/svg">
<path fill-rule="evenodd" clip-rule="evenodd" d="M2 4.6001C2 3.77167 2.67157 3.1001 3.5 3.1001H12.5C13.3284 3.1001 14 3.77167 14 4.6001V11.4001C14 12.2285 13.3284 12.9001 12.5 12.9001H3.5C2.67157 12.9001 2 12.2285 2 11.4001V4.6001ZM3.5 4.1001C3.22386 4.1001 3 4.32396 3 4.6001V6H6.00002C6.27616 6 6.50002 6.22386 6.50002 6.5C6.50002 6.77614 6.27616 7 6.00002 7H3V11.4001C3 11.6762 3.22386 11.9001 3.5 11.9001H12.5C12.7761 11.9001 13 11.6762 13 11.4001V7H10C9.72387 7 9.50002 6.77614 9.50002 6.5C9.50002 6.22386 9.72387 6 10 6H13V4.6001C13 4.32396 12.7761 4.1001 12.5 4.1001H3.5ZM8.00002 5.5001C8.27616 5.5001 8.50002 5.72396 8.50002 6.0001V8.79288L9.14644 8.14645C9.34171 7.95119 9.65829 7.95118 9.85355 8.14644C10.0488 8.34171 10.0488 8.65829 9.85356 8.85355L8.35357 10.3536C8.2598 10.4473 8.13263 10.5 8.00002 10.5C7.86741 10.5 7.74023 10.4473 7.64647 10.3536L6.14645 8.85356C5.95119 8.65829 5.95118 8.34171 6.14644 8.14645C6.34171 7.95119 6.65829 7.95118 6.85355 8.14644L7.50002 8.7929V6.0001C7.50002 5.72396 7.72387 5.5001 8.00002 5.5001Z"/>
</svg>
