<svg viewBox="0 0 24 24" xmlns="http://www.w3.org/2000/svg">
<path fill-rule="evenodd" clip-rule="evenodd" d="M11.7182 2.05495C11.8989 1.98168 12.1011 1.98168 12.2818 2.05495L21.5318 5.80495C21.8148 5.91969 22 6.19459 22 6.5V17C22 17.293 21.8294 17.5592 21.5631 17.6815L12.3131 21.9315C12.1252 22.0179 11.9099 22.0228 11.7182 21.9451L2.46822 18.1951C2.18519 18.0803 2 17.8054 2 17.5V6.5C2 6.19459 2.18519 5.91969 2.46822 5.80495L11.7182 2.05495ZM3.5 7.61334V16.9948L11.25 20.1367V10.7552L3.5 7.61334ZM12.75 10.7552V20.08L20.5 16.5192V7.61334L12.75 10.7552ZM19.2538 6.5L12 9.44071L4.74625 6.5L12 3.55929L19.2538 6.5Z" />
</svg>
