<svg viewBox="0 0 16 16" xmlns="http://www.w3.org/2000/svg">
<path fill-rule="evenodd" clip-rule="evenodd" d="M12.1464 1.14646C12.3417 0.951198 12.6583 0.951198 12.8536 1.14646L14.8536 3.14646C15.0488 3.34172 15.0488 3.6583 14.8536 3.85357C14.6583 4.04883 14.3417 4.04883 14.1464 3.85357L13 2.70712V9.49999C13 10.7096 12.1409 11.7186 10.9996 11.9501C10.9999 11.9667 11 11.9833 11 12C11 13.6569 9.65685 15 8 15C6.34315 15 5 13.6569 5 12C5 11.8154 5.01667 11.6347 5.04859 11.4594C3.88335 11.2469 3 10.2266 3 9.00001V5.99359L2.49862 5.99229C1.67024 5.99014 1.00043 5.31691 1.00251 4.48853L1.00751 2.49886C1.00959 1.67039 1.68292 1.00048 2.51139 1.00263L4.50137 1.00778C5.32975 1.00993 5.99956 1.68317 5.99748 2.51155L5.99248 4.50122C5.9904 5.32969 5.31707 5.99959 4.4886 5.99745L4 5.99618V9.00001C4 9.79589 4.61984 10.447 5.40313 10.4969C5.92228 9.60192 6.89085 9 8 9C9.29362 9 10.396 9.81879 10.8172 10.9664C11.4933 10.8208 12 10.2196 12 9.49999V2.70712L10.8536 3.85357C10.6583 4.04883 10.3417 4.04883 10.1464 3.85357C9.95119 3.6583 9.95119 3.34172 10.1464 3.14646L12.1464 1.14646ZM2.0075 2.50137C2.0082 2.22521 2.23264 2.00191 2.5088 2.00263L4.49878 2.00778C4.77491 2.0085 4.99818 2.23291 4.99748 2.50904L4.99249 4.49871C4.99179 4.77486 4.76735 4.99816 4.49119 4.99745L2.50121 4.99229C2.22508 4.99158 2.00181 4.76716 2.0025 4.49104L2.0075 2.50137ZM6 12C6 10.8954 6.89543 10 8 10C9.10457 10 10 10.8954 10 12C10 13.1046 9.10457 14 8 14C6.89543 14 6 13.1046 6 12Z" />
</svg>
