<svg viewBox="0 0 20 20" xmlns="http://www.w3.org/2000/svg">
<path fill-rule="evenodd" clip-rule="evenodd" d="M14.1464 2.14646C14.3417 1.9512 14.6583 1.9512 14.8536 2.14646L17.8536 5.14646C18.0488 5.34172 18.0488 5.6583 17.8536 5.85357C17.6583 6.04883 17.3417 6.04883 17.1464 5.85357L15 3.70712V12.375C15 13.5898 14.1335 14.6023 12.9848 14.828C12.8195 16.6072 11.3224 18 9.5 18C7.7103 18 6.23434 16.6567 6.02535 14.9234C5.42957 14.7248 5.00005 14.1626 5.00005 13.5001V8.99099L3.49862 8.9871C2.67024 8.98495 2.00043 8.31171 2.00251 7.48334L2.01252 3.49883C2.0146 2.67036 2.68793 2.00046 3.5164 2.00261L7.50137 2.01293C8.32975 2.01507 8.99956 2.68831 8.99748 3.51669L8.98747 7.50119C8.98539 8.32966 8.31206 8.99957 7.48359 8.99742L6.00005 8.99358V13.5001C6.00005 13.5981 6.02824 13.6895 6.07696 13.7666C6.41402 12.1857 7.81854 11 9.5 11C11.1974 11 12.6126 12.2083 12.9323 13.8117C13.55 13.6261 14 13.0531 14 12.375V3.70712L11.8536 5.85357C11.6583 6.04883 11.3417 6.04883 11.1464 5.85357C10.9512 5.6583 10.9512 5.34172 11.1464 5.14646L14.1464 2.14646ZM3.01251 3.50135C3.01321 3.22519 3.23765 3.00189 3.51381 3.0026L7.49878 3.01293C7.77491 3.01364 7.99818 3.23805 7.99748 3.51418L7.98747 7.49868C7.98678 7.77484 7.76234 7.99814 7.48618 7.99742L3.50121 7.9871C3.22508 7.98639 3.00181 7.76197 3.0025 7.48585L3.01251 3.50135ZM7 14.5C7 13.1193 8.11929 12 9.5 12C10.8807 12 12 13.1193 12 14.5C12 15.8807 10.8807 17 9.5 17C8.11929 17 7 15.8807 7 14.5Z" />
</svg>
