<svg width="32" height="32" viewBox="0 0 32 32" fill="none" xmlns="http://www.w3.org/2000/svg">
<path fill-rule="evenodd" clip-rule="evenodd" d="M6.02277 3.00518C4.36583 3.00089 3.01917 4.3407 3.01501 5.99764L3.00501 9.97698C3.00085 11.6337 4.34048 12.9802 5.99723 12.9845L6.99999 12.9871V21C6.99999 22.6569 8.34313 24 9.99999 24H10.0224C10.275 26.8032 12.631 29 15.5 29C18.369 29 20.725 26.8032 20.9776 24H21C22.6568 24 24 22.6568 24 21V6.83424L26.783 9.69704C27.1679 10.093 27.801 10.102 28.197 9.71703C28.593 9.33207 28.602 8.69897 28.217 8.30296L23.717 3.67387C23.5287 3.48019 23.2701 3.37091 23 3.37091C22.7299 3.37091 22.4712 3.48019 22.283 3.67387L17.783 8.30295C17.398 8.69895 17.4069 9.33206 17.8029 9.71702C18.199 10.102 18.8321 10.093 19.217 9.69703L22 6.83423V21C22 21.5523 21.5523 22 21 22H20.793C20.14 19.6915 18.0175 18 15.5 18C12.9824 18 10.86 19.6915 10.207 22H9.99999C9.4477 22 8.99999 21.5523 8.99999 21V12.9923L9.9772 12.9948C11.6341 12.9991 12.9808 11.6593 12.985 10.0024L12.995 6.02302C12.9991 4.36626 11.6595 3.01978 10.0027 3.01549L6.02277 3.00518ZM5.015 6.00266C5.01639 5.45035 5.46528 5.00375 6.01759 5.00518L9.99756 5.01549C10.5498 5.01692 10.9964 5.46574 10.995 6.01799L10.985 9.99734C10.9836 10.5496 10.5347 10.9963 9.98238 10.9948L6.00242 10.9845C5.45016 10.9831 5.00362 10.5343 5.00501 9.982L5.015 6.00266ZM12 23.5C12 21.567 13.567 20 15.5 20C17.433 20 19 21.567 19 23.5C19 25.433 17.433 27 15.5 27C13.567 27 12 25.433 12 23.5Z" fill="#666666"/>
</svg>
