<svg viewBox="0 0 24 24" xmlns="http://www.w3.org/2000/svg">
<path d="M12.75 6C12.75 6.41421 12.4142 6.75 12 6.75C11.5858 6.75 11.25 6.41421 11.25 6C11.25 5.58579 11.5858 5.25 12 5.25C12.4142 5.25 12.75 5.58579 12.75 6Z"/>
<path fill-rule="evenodd" clip-rule="evenodd" d="M11.55 1.65C11.8167 1.45 12.1834 1.45 12.45 1.65L21.45 8.4C21.7083 8.59369 21.8136 8.93091 21.7115 9.23717C21.6094 9.54343 21.3228 9.75 21 9.75H20.25V18H20.4922C20.7989 18 21.0747 18.1867 21.1886 18.4715L22.0886 20.7215C22.2857 21.2141 21.9228 21.75 21.3922 21.75H2.6078C2.0772 21.75 1.71438 21.2141 1.91144 20.7215L2.81144 18.4715C2.92534 18.1867 3.20112 18 3.5078 18H3.75002V9.75H3.00002C2.6772 9.75 2.39059 9.54343 2.28851 9.23717C2.18642 8.93091 2.29176 8.59369 2.55002 8.4L11.55 1.65ZM18.75 18V9.75H17.25V18H18.75ZM15.75 18V9.75H14.25V18H15.75ZM11.25 18V9.75H12.75V18H11.25ZM9.75002 18V9.75H8.25002V18H9.75002ZM5.25002 9.75H6.75002V18H5.25002V9.75ZM18.75 8.25L12 3.1875L5.25002 8.25H18.75ZM4.01557 19.5L3.71557 20.25H20.2845L19.9845 19.5H4.01557Z"/>
</svg>
