<svg viewBox="0 0 32 32" xmlns="http://www.w3.org/2000/svg">
  <path fill-rule="evenodd" clip-rule="evenodd" d="M16 4C14.3431 4 13 5.34315 13 7C13 8.65685 14.3431 10 16 10C17.6569 10 19 8.65685 19 7C19 5.34315 17.6569 4 16 4ZM11 7C11 4.23858 13.2386 2 16 2C18.7614 2 21 4.23858 21 7C21 9.76142 18.7614 12 16 12C13.2386 12 11 9.76142 11 7Z"/>
  <path fill-rule="evenodd" clip-rule="evenodd" d="M8 22C6.34315 22 5 23.3431 5 25C5 26.6569 6.34315 28 8 28C9.65685 28 11 26.6569 11 25C11 23.3431 9.65685 22 8 22ZM3 25C3 22.2386 5.23858 20 8 20C10.7614 20 13 22.2386 13 25C13 27.7614 10.7614 30 8 30C5.23858 30 3 27.7614 3 25Z"/>
  <path fill-rule="evenodd" clip-rule="evenodd" d="M24 22C22.3431 22 21 23.3431 21 25C21 26.6569 22.3431 28 24 28C25.6569 28 27 26.6569 27 25C27 23.3431 25.6569 22 24 22ZM19 25C19 22.2386 21.2386 20 24 20C26.7614 20 29 22.2386 29 25C29 27.7614 26.7614 30 24 30C21.2386 30 19 27.7614 19 25Z"/>
  <path fill-rule="evenodd" clip-rule="evenodd" d="M16 10C16.5523 10 17 10.4477 17 11V15H22.5C23.8807 15 25 16.1193 25 17.5V21C25 21.5523 24.5523 22 24 22C23.4477 22 23 21.5523 23 21V17.5C23 17.2239 22.7761 17 22.5 17H9.5C9.22386 17 9 17.2239 9 17.5V21C9 21.5523 8.55228 22 8 22C7.44772 22 7 21.5523 7 21V17.5C7 16.1193 8.11929 15 9.5 15H15V11C15 10.4477 15.4477 10 16 10Z"/>
</svg>
