<svg width="24" height="24" viewBox="0 0 24 24" xmlns="http://www.w3.org/2000/svg">
<path fill-rule="evenodd" clip-rule="evenodd" d="M16.4395 9C17.0684 9 17.418 9.72745 17.0252 10.2185L12.5857 15.7679C12.2854 16.1432 11.7146 16.1432 11.4143 15.7679L6.97482 10.2185C6.58196 9.72745 6.93159 9 7.56047 9H16.4395ZM12 14.0988L9.12094 10.5H14.8791L12 14.0988Z" />
<path fill-rule="evenodd" clip-rule="evenodd" d="M3 6C3 4.34315 4.34315 3 6 3H18C19.6569 3 21 4.34315 21 6V18C21 19.6569 19.6569 21 18 21H6C4.34315 21 3 19.6569 3 18V6ZM6 4.5H18C18.8284 4.5 19.5 5.17157 19.5 6V18C19.5 18.8284 18.8284 19.5 18 19.5H6C5.17157 19.5 4.5 18.8284 4.5 18V6C4.5 5.17157 5.17157 4.5 6 4.5Z" />
</svg>
