<svg viewBox="0 0 24 24" xmlns="http://www.w3.org/2000/svg">
<path fill-rule="evenodd" clip-rule="evenodd" d="M12 1.99998C12.4142 1.99998 12.75 2.33577 12.75 2.74998V14.7733L16.7141 10.7253C17.004 10.4293 17.4788 10.4243 17.7747 10.7141C18.0707 11.004 18.0757 11.4788 17.7859 11.7748L12.5359 17.1358C12.3948 17.2799 12.2016 17.3611 12 17.3611C11.7984 17.3611 11.6052 17.2799 11.4641 17.1358L6.21415 11.7748C5.92434 11.4788 5.92931 11.004 6.22525 10.7141C6.52119 10.4243 6.99604 10.4293 7.28585 10.7253L11.25 14.7733V2.74998C11.25 2.33577 11.5858 1.99998 12 1.99998ZM3.75 16C4.16421 16 4.5 16.3358 4.5 16.75V19.25C4.5 19.9403 5.05964 20.5 5.75 20.5H18.25C18.9404 20.5 19.5 19.9403 19.5 19.25V16.75C19.5 16.3358 19.8358 16 20.25 16C20.6642 16 21 16.3358 21 16.75V19.25C21 20.7688 19.7688 22 18.25 22H5.75C4.23122 22 3 20.7688 3 19.25V16.75C3 16.3358 3.33579 16 3.75 16Z"/>
</svg>
