<svg viewBox="0 0 24 24" xmlns="http://www.w3.org/2000/svg">
<path d="M13.0334 4.56485C12.3787 4.43463 11.7001 4.50146 11.0834 4.75691C10.4667 5.01236 9.93964 5.44494 9.56879 5.99995C9.19794 6.55497 9 7.20749 9 7.875V12H12.75C13.1642 12 13.5 12.3358 13.5 12.75C13.5 13.1642 13.1642 13.5 12.75 13.5H9V19.5L16.5 19.5V17.25C16.5 16.8358 16.8358 16.5 17.25 16.5C17.6642 16.5 18 16.8358 18 17.25V20.25C18 20.6642 17.6642 21 17.25 21H6C5.58579 21 5.25 20.6642 5.25 20.25C5.25 19.8358 5.58579 19.5 6 19.5L7.5 19.5V13.5H6C5.58579 13.5 5.25 13.1642 5.25 12.75C5.25 12.3358 5.58579 12 6 12H7.5V7.5C7.5 7.41656 7.51363 7.3363 7.53878 7.26133C7.63353 6.51463 7.90032 5.79706 8.32159 5.1666C8.85726 4.36491 9.61863 3.74007 10.5094 3.37109C11.4002 3.00211 12.3804 2.90557 13.3261 3.09367C14.2717 3.28178 15.1404 3.74608 15.8221 4.42786C16.115 4.72075 16.115 5.19562 15.8221 5.48852C15.5293 5.78141 15.0544 5.78141 14.7615 5.48852C14.2895 5.01651 13.6881 4.69508 13.0334 4.56485Z"/>
</svg>
