<svg viewBox="0 0 24 24" xmlns="http://www.w3.org/2000/svg">
<path fill-rule="evenodd" clip-rule="evenodd" d="M3 6.25C3 4.45507 4.45507 3 6.25 3H17.75C19.5449 3 21 4.45507 21 6.25V17.75C21 19.5449 19.5449 21 17.75 21H6.25C4.45507 21 3 19.5449 3 17.75V6.25ZM6.25 4.5C5.2835 4.5 4.5 5.2835 4.5 6.25V17.75C4.5 18.7165 5.2835 19.5 6.25 19.5H17.75C18.7165 19.5 19.5 18.7165 19.5 17.75V6.25C19.5 5.2835 18.7165 4.5 17.75 4.5H6.25Z"/>
<path d="M9.25 12.25C9.25 12.9404 8.69036 13.5 8 13.5C7.30964 13.5 6.75 12.9404 6.75 12.25C6.75 11.5596 7.30964 11 8 11C8.69036 11 9.25 11.5596 9.25 12.25Z"/>
<path d="M13.25 12.25C13.25 12.9404 12.6904 13.5 12 13.5C11.3096 13.5 10.75 12.9404 10.75 12.25C10.75 11.5596 11.3096 11 12 11C12.6904 11 13.25 11.5596 13.25 12.25Z"/>
<path d="M16 13.5C16.6904 13.5 17.25 12.9404 17.25 12.25C17.25 11.5596 16.6904 11 16 11C15.3096 11 14.75 11.5596 14.75 12.25C14.75 12.9404 15.3096 13.5 16 13.5Z"/>
</svg>
