<svg viewBox="0 0 32 32" xmlns="http://www.w3.org/2000/svg">
<path fill-rule="evenodd" clip-rule="evenodd" d="M3 7.5C3 5.01472 5.01472 3 7.5 3H24.5C26.9853 3 29 5.01472 29 7.5V24.5C29 26.9853 26.9853 29 24.5 29H7.5C5.01472 29 3 26.9853 3 24.5V7.5ZM7.5 5C6.11929 5 5 6.11929 5 7.5V24.5C5 25.8807 6.11929 27 7.5 27H24.5C25.8807 27 27 25.8807 27 24.5V7.5C27 6.11929 25.8807 5 24.5 5H7.5Z"/>
<path d="M12 16.25C12 17.2165 11.2165 18 10.25 18C9.2835 18 8.5 17.2165 8.5 16.25C8.5 15.2835 9.2835 14.5 10.25 14.5C11.2165 14.5 12 15.2835 12 16.25Z"/>
<path d="M18 16.25C18 17.2165 17.2165 18 16.25 18C15.2835 18 14.5 17.2165 14.5 16.25C14.5 15.2835 15.2835 14.5 16.25 14.5C17.2165 14.5 18 15.2835 18 16.25Z"/>
<path d="M22.25 18C23.2165 18 24 17.2165 24 16.25C24 15.2835 23.2165 14.5 22.25 14.5C21.2835 14.5 20.5 15.2835 20.5 16.25C20.5 17.2165 21.2835 18 22.25 18Z"/>
</svg>
