<svg viewBox="0 0 24 24" xmlns="http://www.w3.org/2000/svg">
<path fill-rule="evenodd" clip-rule="evenodd" d="M17.2199 2.223C17.5127 1.93048 17.9872 1.93048 18.28 2.22301L21.78 5.7194C22.0731 6.01215 22.0733 6.48702 21.7806 6.78007C21.4878 7.07311 21.0129 7.07335 20.7199 6.78061L18.5 4.56295V15.25C18.5 16.7688 17.2687 18 15.75 18H15.4999C15.4999 20.2091 13.7091 22 11.4999 22C9.2908 22 7.49994 20.2091 7.49994 18C7.49994 17.9849 7.50002 17.9698 7.50019 17.9547C6.22001 17.7197 5.24995 16.5981 5.24995 15.25V9.9897L4.74788 9.9884C3.22919 9.98447 2.0012 8.7502 2.00501 7.2315L2.01125 4.74828C2.01507 3.22942 3.24951 2.00127 4.76837 2.0052L7.25209 2.01164C8.77079 2.01557 9.99878 3.24984 9.99496 4.76854L9.98872 7.25175C9.98491 8.77062 8.75047 9.99877 7.23161 9.99483L6.74995 9.99359V15.25C6.74995 15.8714 7.20334 16.3869 7.79736 16.4837C8.39478 15.0264 9.8275 14 11.4999 14C13.1786 14 14.6158 15.0341 15.2092 16.5H15.75C16.4403 16.5 17 15.9403 17 15.25V4.56294L14.78 6.78061C14.4869 7.07335 14.0121 7.07311 13.7193 6.78006C13.4266 6.48702 13.4268 6.01215 13.7199 5.7194L17.2199 2.223ZM3.51125 4.75205C3.51298 4.06166 4.07409 3.50341 4.76448 3.5052L7.24821 3.51163C7.93852 3.51342 8.4967 4.07445 8.49497 4.76477L8.48873 7.24799C8.487 7.93838 7.92589 8.49663 7.2355 8.49484L4.75177 8.48841C4.06145 8.48662 3.50328 7.92559 3.50501 7.23527L3.51125 4.75205ZM8.99994 18C8.99994 16.6193 10.1192 15.5 11.4999 15.5C12.8807 15.5 13.9999 16.6193 13.9999 18C13.9999 19.3807 12.8807 20.5 11.4999 20.5C10.1192 20.5 8.99994 19.3807 8.99994 18Z" />
</svg>
