<svg viewBox="0 0 24 24" xmlns="http://www.w3.org/2000/svg">
<path fill-rule="evenodd" clip-rule="evenodd" d="M12.75 7.5C12.75 9.98528 10.7353 12 8.25 12C5.76472 12 3.75 9.98528 3.75 7.5C3.75 5.01472 5.76472 3 8.25 3C10.7353 3 12.75 5.01472 12.75 7.5ZM11.25 7.5C11.25 9.15685 9.90685 10.5 8.25 10.5C6.59315 10.5 5.25 9.15685 5.25 7.5C5.25 5.84315 6.59315 4.5 8.25 4.5C9.90685 4.5 11.25 5.84315 11.25 7.5Z" />
<path fill-rule="evenodd" clip-rule="evenodd" d="M20.625 8.625C20.625 10.489 19.114 12 17.25 12C15.386 12 13.875 10.489 13.875 8.625C13.875 6.76104 15.386 5.25 17.25 5.25C19.114 5.25 20.625 6.76104 20.625 8.625ZM19.275 8.625C19.275 9.74338 18.3684 10.65 17.25 10.65C16.1316 10.65 15.225 9.74338 15.225 8.625C15.225 7.50662 16.1316 6.6 17.25 6.6C18.3684 6.6 19.275 7.50662 19.275 8.625Z" />
<path fill-rule="evenodd" clip-rule="evenodd" d="M12.75 13.5C12.9962 13.5 13.24 13.5485 13.4675 13.6427C13.695 13.737 13.9017 13.8751 14.0758 14.0492C14.2499 14.2233 14.388 14.43 14.4823 14.6575C14.5765 14.885 14.625 15.1288 14.625 15.375V17.625C14.625 18.7173 13.9552 19.767 12.7578 20.5418C11.5623 21.3154 9.94083 21.75 8.25 21.75C6.55917 21.75 4.93768 21.3154 3.74219 20.5418C2.54481 19.767 1.875 18.7173 1.875 17.625V15.375C1.875 15.1288 1.9235 14.885 2.01773 14.6575C2.11195 14.43 2.25006 14.2233 2.42417 14.0492C2.59828 13.8751 2.80498 13.737 3.03247 13.6427C3.25995 13.5485 3.50377 13.5 3.75 13.5H12.75ZM3.75 15C3.70075 15 3.65199 15.0097 3.60649 15.0285C3.561 15.0474 3.51966 15.075 3.48483 15.1098C3.45001 15.1447 3.42239 15.186 3.40355 15.2315C3.3847 15.277 3.375 15.3258 3.375 15.375V17.625C3.375 18.0606 3.64573 18.6928 4.55707 19.2825C5.46754 19.8716 6.79348 20.25 8.25 20.25C9.70652 20.25 11.0325 19.8716 11.9429 19.2825C12.8543 18.6928 13.125 18.0606 13.125 17.625V15.375C13.125 15.3258 13.1153 15.277 13.0965 15.2315C13.0776 15.186 13.05 15.1447 13.0152 15.1098C12.9803 15.075 12.939 15.0474 12.8935 15.0285C12.848 15.0097 12.7992 15 12.75 15H3.75Z"/>
<path d="M17.25 20.25C16.6131 20.25 15.9891 20.1637 15.4106 20.0005C15.6853 19.5706 15.8912 19.1039 16.0097 18.6068C16.394 18.6986 16.8124 18.75 17.25 18.75C18.2888 18.75 19.2188 18.4605 19.8433 18.0282C20.4617 17.6001 20.625 17.1589 20.625 16.875L20.625 15H16.1041C16.0689 14.6855 15.9897 14.3769 15.8681 14.0834C15.7833 13.8787 15.6788 13.6834 15.5562 13.5H20.625C20.822 13.5 21.017 13.5388 21.199 13.6142C21.381 13.6896 21.5464 13.8001 21.6857 13.9393C21.8249 14.0786 21.9354 14.244 22.0108 14.426C22.0862 14.608 22.125 14.803 22.125 15L22.125 16.875C22.125 17.7684 21.6131 18.6274 20.6971 19.2615C19.783 19.8944 18.5431 20.25 17.25 20.25Z" />
</svg>
