<svg viewBox="0 0 16 16" xmlns="http://www.w3.org/2000/svg">
<path d="M7.49999 5C7.22385 5 6.99999 5.22386 6.99999 5.5C6.99999 5.77614 7.22385 6 7.49999 6H10.5C10.7761 6 11 5.77614 11 5.5C11 5.22386 10.7761 5 10.5 5H7.49999Z"/>
<path d="M7.49999 7C7.22385 7 6.99999 7.22386 6.99999 7.5C6.99999 7.77614 7.22385 8 7.49999 8H10.5C10.7761 8 11 7.77614 11 7.5C11 7.22386 10.7761 7 10.5 7H7.49999Z"/>
<path fill-rule="evenodd" clip-rule="evenodd" d="M6.49999 2C5.67157 2 4.99999 2.67157 4.99999 3.5V10.5C4.99999 11.3284 5.67157 12 6.49999 12H11.5C12.3284 12 13 11.3284 13 10.5V3.5C13 2.67157 12.3284 2 11.5 2H6.49999ZM5.99999 3.5C5.99999 3.22386 6.22385 3 6.49999 3H11.5C11.7761 3 12 3.22386 12 3.5V10.5C12 10.7761 11.7761 11 11.5 11H6.49999C6.22385 11 5.99999 10.7761 5.99999 10.5V3.5Z"/>
<path d="M3 5.00001C3 4.25973 3.4022 3.61338 4 3.26757V10.5C4 11.8807 5.11929 13 6.5 13H11L11.0052 13H12.7324C12.3866 13.5978 11.7403 14 11 14H6.5C4.567 14 3 12.433 3 10.5V5.00001Z"/>
</svg>
