<svg viewBox="0 0 24 24" xmlns="http://www.w3.org/2000/svg">
<path d="M10.25 6.5C9.83579 6.5 9.5 6.83579 9.5 7.25C9.5 7.66421 9.83579 8 10.25 8H16.25C16.6642 8 17 7.66421 17 7.25C17 6.83579 16.6642 6.5 16.25 6.5H10.25Z" />
<path d="M10.25 9.5C9.83579 9.5 9.5 9.83579 9.5 10.25C9.5 10.6642 9.83579 11 10.25 11H16.25C16.6642 11 17 10.6642 17 10.25C17 9.83579 16.6642 9.5 16.25 9.5H10.25Z"/>
<path fill-rule="evenodd" clip-rule="evenodd" d="M9.25 2C7.73122 2 6.5 3.23122 6.5 4.75V16.75C6.5 18.2688 7.73122 19.5 9.25 19.5H17.25C18.7688 19.5 20 18.2688 20 16.75V4.75C20 3.23122 18.7688 2 17.25 2H9.25ZM8 4.75C8 4.05964 8.55964 3.5 9.25 3.5H17.25C17.9404 3.5 18.5 4.05964 18.5 4.75V16.75C18.5 17.4404 17.9404 18 17.25 18H9.25C8.55964 18 8 17.4404 8 16.75V4.75Z"/>
<path d="M4 7.25002C4 6.09941 4.59792 5.08846 5.5 4.51093V16.75C5.5 18.8211 7.17893 20.5 9.25 20.5H16.75L16.7576 20.5H19.4891C18.9116 21.4021 17.9006 22 16.75 22H9.25C6.3505 22 4 19.6495 4 16.75V7.25002Z"/>
</svg>
