<svg width="24" height="24" viewBox="0 0 24 24" xmlns="http://www.w3.org/2000/svg">
<path fill-rule="evenodd" clip-rule="evenodd" d="M10.409 4.84835L12.3107 6.75H18.75C20.4069 6.75 21.75 8.09315 21.75 9.75V17.25C21.75 17.8426 21.5782 18.3951 21.2816 18.8603L20.1664 17.7451C20.2206 17.5901 20.25 17.4235 20.25 17.25V9.75C20.25 8.92157 19.5784 8.25 18.75 8.25H12.25L10.25 9.75C9.60089 10.2368 8.81139 10.5 8 10.5H4.5C4.23702 10.5 3.98458 10.4549 3.75 10.372V17.25C3.75 18.0784 4.42157 18.75 5.25 18.75H9.80269C10.1293 19.3146 10.5453 19.8211 11.0313 20.25H5.25C3.59315 20.25 2.25 18.9069 2.25 17.25V6C2.25 4.75736 3.25736 3.75 4.5 3.75H7.75736C8.75192 3.75 9.70575 4.14509 10.409 4.84835ZM3.75 6C3.75 5.58579 4.08579 5.25 4.5 5.25H7.75736C8.3541 5.25 8.92639 5.48705 9.34835 5.90901L10.8582 7.41885L9.35 8.55C8.96053 8.8421 8.48683 9 8 9H4.5C4.08579 9 3.75 8.66421 3.75 8.25V6Z" />
<path fill-rule="evenodd" clip-rule="evenodd" d="M15 20.25C15.9719 20.25 16.8718 19.9419 17.6074 19.4181L19.682 21.4926C19.9749 21.7855 20.4497 21.7855 20.7426 21.4926C21.0355 21.1997 21.0355 20.7249 20.7426 20.432L18.6681 18.3574C19.1919 17.6218 19.5 16.7219 19.5 15.75C19.5 13.2647 17.4853 11.25 15 11.25C12.5147 11.25 10.5 13.2647 10.5 15.75C10.5 18.2353 12.5147 20.25 15 20.25ZM15 18.75C16.6569 18.75 18 17.4069 18 15.75C18 14.0931 16.6569 12.75 15 12.75C13.3431 12.75 12 14.0931 12 15.75C12 17.4069 13.3431 18.75 15 18.75Z" />
</svg>
