<svg viewBox="0 0 24 24" xmlns="http://www.w3.org/2000/svg">
<path fill-rule="evenodd" clip-rule="evenodd" d="M11.4829 6.88859C9.45958 6.05758 7.17171 6.16785 5.23767 7.18961C1.57312 9.12559 1.57312 14.3744 5.23767 16.3103L6.01508 16.7211C7.46313 17.4861 9.17277 17.5816 10.6971 16.9828L21.5 12.7388V11.0027L11.4829 6.88859ZM4.53698 5.86332C6.86449 4.63369 9.61782 4.50098 12.0528 5.50106L22.5349 9.80621C22.8163 9.92177 23 10.1958 23 10.5V13.25C23 13.5583 22.8112 13.8353 22.5242 13.948L11.2455 18.3789C9.31457 19.1375 7.14879 19.0165 5.3144 18.0473L4.53699 17.6366C-0.193318 15.1376 -0.193318 8.36234 4.53698 5.86332Z" />
<path fill-rule="evenodd" clip-rule="evenodd" d="M1.74996 11.75C1.74996 11.3358 2.08575 11 2.49996 11H22C22.4142 11 22.75 11.3358 22.75 11.75C22.75 12.1642 22.4142 12.5 22 12.5H2.49996C2.08575 12.5 1.74996 12.1642 1.74996 11.75Z" />
<path fill-rule="evenodd" clip-rule="evenodd" d="M22.5368 5.05436C22.8172 5.17041 23 5.44392 23 5.74733V10.5C23 10.9142 22.6642 11.25 22.25 11.25C21.8357 11.25 21.5 10.9142 21.5 10.5V7.55904L19.5305 9.53012C19.2377 9.82313 18.7629 9.82333 18.4698 9.53056C18.1768 9.23778 18.1766 8.76291 18.4694 8.4699L21.7194 5.21721C21.9339 5.00259 22.2565 4.93831 22.5368 5.05436ZM22.25 12.4962C22.6642 12.4962 23 12.832 23 13.2462V18.2497C23 18.5628 22.8055 18.8429 22.5121 18.9524C22.2188 19.0618 21.8883 18.9775 21.6832 18.7409L19.07 15.7259L16.3689 19.6735C16.2291 19.8778 15.9975 20 15.75 20H11.5C11.3245 20 11.1546 19.9385 11.0198 19.8262L9.51982 18.5762C9.20161 18.311 9.15862 17.8381 9.42379 17.5199C9.68897 17.2017 10.1619 17.1587 10.4801 17.4238L11.7715 18.5H15.3544L18.381 14.0765L19.5667 14.0088L21.5 16.2393V13.2462C21.5 12.832 21.8357 12.4962 22.25 12.4962Z" />
</svg>
