<svg width="16" height="16" viewBox="0 0 16 16" fill="none" xmlns="http://www.w3.org/2000/svg">
<path fill-rule="evenodd" clip-rule="evenodd" d="M7.6094 4.35685C6.29877 3.84716 4.82875 3.95134 3.6031 4.64077C1.37343 5.89496 1.37343 9.10517 3.6031 10.3594L4.06458 10.6189C4.99808 11.144 6.11771 11.2234 7.11594 10.8352L14 8.15803V6.8421L7.6094 4.35685ZM3.11284 3.76919C4.59936 2.93302 6.38227 2.80667 7.97185 3.42484L14.6813 6.03406C14.8735 6.1088 15 6.29386 15 6.50006V8.50006C15 8.70627 14.8735 8.89133 14.6813 8.96607L7.47838 11.7672C6.2012 12.2639 4.76869 12.1624 3.57431 11.4905L3.11284 11.2309C0.203516 9.59444 0.203517 5.40568 3.11284 3.76919Z" fill="#666666"/>
<path fill-rule="evenodd" clip-rule="evenodd" d="M1.00001 7.50001C1.00001 7.22386 1.22387 7.00001 1.50001 7.00001H14.5C14.7762 7.00001 15 7.22386 15 7.50001C15 7.77615 14.7762 8.00001 14.5 8.00001H1.50001C1.22387 8.00001 1.00001 7.77615 1.00001 7.50001Z" fill="#666666"/>
<path fill-rule="evenodd" clip-rule="evenodd" d="M14.6599 3.02627C14.8632 3.09485 15 3.28549 15 3.50005V7.00005C15 7.27619 14.7762 7.50005 14.5 7.50005C14.2239 7.50005 14 7.27619 14 7.00005V4.98236L13.1979 6.03613C13.0306 6.25586 12.7169 6.29839 12.4972 6.13113C12.2775 5.96387 12.2349 5.65015 12.4022 5.43043L14.1022 3.19719C14.2322 3.02647 14.4565 2.9577 14.6599 3.02627ZM14.5 8.00001C14.7762 8.00001 15 8.22392 15 8.50006V11.5C15 11.7161 14.8613 11.9077 14.656 11.9751C14.4508 12.0425 14.2254 11.9704 14.0974 11.7965L12.8344 10.0808L11.2244 12.6645C11.1331 12.811 10.9727 12.9 10.8 12.9H7.60003C7.46742 12.9 7.34024 12.8473 7.24648 12.7536L6.44648 11.9536C6.25121 11.7583 6.25121 11.4417 6.44648 11.2465C6.64174 11.0512 6.95832 11.0512 7.15358 11.2465L7.80714 11.9H10.5225L12.3757 8.92615L13.2027 8.89419L14 9.97737V8.50005C14 8.2239 14.2239 8.00001 14.5 8.00001Z" fill="#666666"/>
</svg>
