<svg width="24" height="24" viewBox="0 0 24 24" fill="none" xmlns="http://www.w3.org/2000/svg">
<path fill-rule="evenodd" clip-rule="evenodd" d="M12 10.5C11.1716 10.5 10.5 11.1716 10.5 12C10.5 12.8284 11.1716 13.5 12 13.5C12.8284 13.5 13.5 12.8284 13.5 12C13.5 11.1716 12.8284 10.5 12 10.5ZM9 12C9 10.3432 10.3431 9 12 9C13.6569 9 15 10.3432 15 12C15 13.6569 13.6569 15 12 15C10.3431 15 9 13.6569 9 12Z" fill="#666666"/>
<path fill-rule="evenodd" clip-rule="evenodd" d="M21.584 2.07846C21.8388 2.20522 22 2.46534 22 2.75V8C22 10.6234 19.8734 12.75 17.25 12.75H15.7581L21.8481 20.7974C22.0198 21.0244 22.0483 21.3291 21.9215 21.584C21.7948 21.8389 21.5347 22 21.25 22H16C13.3766 22 11.25 19.8734 11.25 17.25V15.7581L3.20258 21.8481C2.97559 22.0198 2.67092 22.0483 2.41604 21.9215C2.16116 21.7948 2 21.5347 2 21.25V16C2 13.3767 4.12665 11.25 6.75 11.25H7.91532L2.14026 3.18671C1.97657 2.95817 1.95444 2.65728 2.08291 2.40724C2.21138 2.15721 2.46889 2 2.75 2H8C10.6234 2 12.75 4.12665 12.75 6.75V8.24189L20.7974 2.15195C21.0244 1.98017 21.3291 1.95171 21.584 2.07846ZM4.20968 3.5L9.98475 11.5633C10.1484 11.7918 10.1706 12.0927 10.0421 12.3428C9.91362 12.5928 9.65612 12.75 9.375 12.75H6.75C4.95508 12.75 3.5 14.2051 3.5 16V19.7419L11.5474 13.6519C11.7744 13.4802 12.0791 13.4517 12.334 13.5785C12.5888 13.7052 12.75 13.9653 12.75 14.25V17.25C12.75 19.0449 14.2051 20.5 16 20.5H19.7419L13.6519 12.4526C13.4802 12.2256 13.4517 11.9209 13.5785 11.666C13.7052 11.4112 13.9653 11.25 14.25 11.25H17.25C19.0449 11.25 20.5 9.79493 20.5 8V4.25812L12.4526 10.3481C12.2256 10.5198 11.9209 10.5483 11.666 10.4215C11.4112 10.2948 11.25 10.0347 11.25 9.75V6.75C11.25 4.95508 9.79493 3.5 8 3.5H4.20968Z" fill="#666666"/>
</svg>
