<svg width="20" height="20" viewBox="0 0 20 20" fill="none" xmlns="http://www.w3.org/2000/svg">
<path fill-rule="evenodd" clip-rule="evenodd" d="M10 8.49999C9.1716 8.49999 8.50002 9.17157 8.50002 9.99999C8.50002 10.8284 9.1716 11.5 10 11.5C10.8285 11.5 11.5 10.8284 11.5 9.99999C11.5 9.17157 10.8285 8.49999 10 8.49999ZM7.50002 9.99999C7.50002 8.61928 8.61931 7.49999 10 7.49999C11.3807 7.49999 12.5 8.61928 12.5 9.99999C12.5 11.3807 11.3807 12.5 10 12.5C8.61931 12.5 7.50002 11.3807 7.50002 9.99999Z" fill="#666666"/>
<path fill-rule="evenodd" clip-rule="evenodd" d="M17.726 2.05403C17.8941 2.1392 18 2.31161 18 2.50003V6.50002C18 8.70914 16.2092 10.5 14 10.5L12.9867 10.5L17.9032 17.2044C18.0146 17.3563 18.0312 17.558 17.946 17.726C17.8608 17.8941 17.6884 18 17.5 18H13.5C11.2909 18 9.50002 16.2092 9.50002 14V12.9867L2.79568 17.9032C2.64374 18.0147 2.44206 18.0312 2.27399 17.946C2.10592 17.8609 2 17.6885 2 17.5V13.5C2 11.2909 3.79088 9.5 6.00003 9.50002L7.01329 9.50003L2.0968 2.79571C1.98538 2.64377 1.96883 2.4421 2.054 2.27403C2.13917 2.10595 2.31158 2.00003 2.5 2.00003H6.50002C8.70916 2.00003 10.5 3.79089 10.5 6.00003V7.01333L17.2043 2.09683C17.3563 1.98541 17.5579 1.96886 17.726 2.05403ZM3.4867 3.00003L8.4032 9.70435C8.51463 9.85629 8.53118 10.058 8.44601 10.226C8.36084 10.3941 8.18842 10.5 8 10.5L6.00002 10.5C4.34316 10.5 3 11.8432 3 13.5V16.5133L9.70434 11.5968C9.85628 11.4854 10.058 11.4689 10.226 11.554C10.3941 11.6392 10.5 11.8116 10.5 12V14C10.5 15.6569 11.8432 17 13.5 17H16.5133L11.5968 10.2957C11.4854 10.1438 11.4688 9.9421 11.554 9.77403C11.6392 9.60596 11.8116 9.50003 12 9.50003L14 9.50002C15.6569 9.50001 17 8.15686 17 6.50002V3.48674L10.2957 8.40323C10.1438 8.51466 9.94209 8.53121 9.77402 8.44604C9.60594 8.36087 9.50002 8.18845 9.50002 8.00003V6.00003C9.50002 4.34318 8.15688 3.00003 6.50002 3.00003H3.4867Z" fill="#666666"/>
</svg>
