<svg width="32" height="32" viewBox="0 0 32 32" fill="none" xmlns="http://www.w3.org/2000/svg">
<path fill-rule="evenodd" clip-rule="evenodd" d="M16 14C14.8954 14 14 14.8954 14 16C14 17.1046 14.8954 18 16 18C17.1046 18 18 17.1046 18 16C18 14.8954 17.1046 14 16 14ZM12 16C12 13.7909 13.7909 12 16 12C18.2091 12 20 13.7909 20 16C20 18.2091 18.2091 20 16 20C13.7909 20 12 18.2091 12 16Z" fill="#666666"/>
<path fill-rule="evenodd" clip-rule="evenodd" d="M29.4418 2.10287C29.7835 2.27116 30 2.61904 30 3.00001V9.00001C30 13.4183 26.4183 17 22 17H21.0309L29.7926 28.3903C30.0249 28.6923 30.0654 29.1 29.8971 29.4418C29.7288 29.7835 29.381 30 29 30H23C18.5817 30 15 26.4183 15 22V21.0309L3.60972 29.7926C3.30775 30.0249 2.90003 30.0654 2.55825 29.8971C2.21647 29.7289 2 29.381 2 29V23C2 18.5817 5.58173 15 10 15H10.5307L2.19261 3.59002C1.97045 3.28601 1.93789 2.88298 2.10837 2.54725C2.27885 2.21152 2.62347 2.00001 3 2.00001H9C13.4183 2.00001 17 5.58173 17 10V10.9691L28.3903 2.20738C28.6923 1.9751 29.1 1.93458 29.4418 2.10287ZM4.96933 4.00001L13.3074 15.41C13.5296 15.714 13.5621 16.117 13.3916 16.4528C13.2212 16.7885 12.8765 17 12.5 17H10C6.6863 17 4 19.6863 4 23V26.9691L15.3903 18.2074C15.6923 17.9751 16.1 17.9346 16.4418 18.1029C16.7835 18.2712 17 18.619 17 19V22C17 25.3137 19.6863 28 23 28H26.9691L18.2074 16.6097C17.9751 16.3078 17.9346 15.9 18.1029 15.5583C18.2712 15.2165 18.619 15 19 15H22C25.3137 15 28 12.3137 28 9.00001V5.03087L16.6097 13.7926C16.3077 14.0249 15.9 14.0654 15.5583 13.8971C15.2165 13.7289 15 13.381 15 13V10C15 6.6863 12.3137 4.00001 9 4.00001H4.96933Z" fill="#666666"/>
</svg>
