<svg width="16" height="16" viewBox="0 0 16 16" fill="none" xmlns="http://www.w3.org/2000/svg">
<path fill-rule="evenodd" clip-rule="evenodd" d="M8.00002 6.5C7.17159 6.5 6.50002 7.17157 6.50002 8C6.50002 8.82843 7.17159 9.5 8.00002 9.5C8.82844 9.5 9.50002 8.82843 9.50002 8C9.50002 7.17157 8.82844 6.5 8.00002 6.5ZM5.50002 8C5.50002 6.61929 6.6193 5.5 8.00002 5.5C9.38073 5.5 10.5 6.61929 10.5 8C10.5 9.38071 9.38073 10.5 8.00002 10.5C6.6193 10.5 5.50002 9.38071 5.50002 8Z" fill="#666666"/>
<path fill-rule="evenodd" clip-rule="evenodd" d="M13.7406 2.06173C13.9006 2.14954 14 2.31754 14 2.50003V5.00003C14 6.7989 12.6429 8.28081 10.8967 8.47779L13.9218 13.2316C14.0198 13.3856 14.0261 13.5807 13.9383 13.7406C13.8505 13.9006 13.6825 14 13.5 14H11C9.20113 14 7.71922 12.6429 7.52223 10.8967L2.76844 13.9219C2.61448 14.0198 2.41937 14.0261 2.2594 13.9383C2.09942 13.8505 2 13.6825 2 13.5V11C2 9.20116 3.35709 7.71925 5.10331 7.52226L2.07817 2.76847C1.98019 2.61451 1.97388 2.4194 2.0617 2.25943C2.14951 2.09945 2.31751 2.00003 2.5 2.00003H5C6.79887 2.00003 8.28078 3.35712 8.47777 5.10334L13.2316 2.0782C13.3855 1.98023 13.5806 1.97391 13.7406 2.06173ZM3.41084 3.00003L6.42183 7.73159C6.51981 7.88555 6.52612 8.08067 6.4383 8.24064C6.35048 8.40061 6.18249 8.50003 6 8.50003L5.50002 8.50003C4.1193 8.50001 3 9.61931 3 11V12.5892L7.73156 9.5782C7.88552 9.48023 8.08063 9.47391 8.2406 9.56173C8.40058 9.64954 8.5 9.81754 8.5 10L8.5 10.5C8.50001 11.8807 9.61929 13 11 13H12.5892L9.57817 8.26847C9.4802 8.11451 9.47388 7.9194 9.5617 7.75943C9.64951 7.59946 9.81751 7.50003 10 7.50003L10.5 7.50003C11.8807 7.50001 13 6.38073 13 5.00003V3.41087L8.26844 6.42186C8.11448 6.51984 7.91937 6.52615 7.75939 6.43833C7.59942 6.35052 7.5 6.18252 7.5 6.00003L7.5 5.50004C7.50001 4.11933 6.38072 3.00003 5 3.00003H3.41084Z" fill="#666666"/>
</svg>
