<svg  viewBox="0 0 16 16"  xmlns="http://www.w3.org/2000/svg">
<path fill-rule="evenodd" clip-rule="evenodd" d="M5.12381 11.6658L3.75505 11.898C3.58355 11.9271 3.40801 11.8659 3.29979 11.7297C2.93597 11.2718 2.63764 10.7596 2.41897 10.2071C2.35492 10.0453 2.38971 9.86255 2.50071 9.7285L3.40387 8.63778C3.71025 8.26778 3.71025 7.73222 3.40387 7.36222L2.50071 6.2715C2.38971 6.13745 2.35492 5.95472 2.41897 5.79289C2.63764 5.24042 2.93597 4.72816 3.29979 4.27028C3.40801 4.13408 3.58355 4.07292 3.75505 4.10201L5.1496 4.33854C5.62321 4.41887 6.08703 4.15109 6.25426 3.70076L6.74694 2.37412C6.8076 2.21078 6.9487 2.08922 7.12109 2.06392C7.40796 2.02181 7.70144 2 8 2C8.29856 2 8.59202 2.02181 8.87888 2.06391C9.05128 2.08922 9.19238 2.21077 9.25304 2.37411L9.74571 3.70076C9.91295 4.15109 10.3768 4.41887 10.8504 4.33854L12.2449 4.102C12.4165 4.07291 12.592 4.13408 12.7002 4.27027C13.064 4.72815 13.3624 5.2404 13.581 5.79287C13.6031 5.84875 13.6135 5.90711 13.613 5.96511C13.1781 5.66602 12.698 5.42786 12.1852 5.26296C12.1581 5.22171 12.1305 5.18088 12.1022 5.14049L11.8884 5.17675C11.4449 5.06139 10.9796 5 10.5 5C10.211 5 9.92721 5.02229 9.65024 5.06525C9.2734 4.838 8.9708 4.48655 8.80827 4.0489L8.42534 3.01778C8.28529 3.00601 8.14344 3 8 3C7.85655 3 7.71469 3.00602 7.57463 3.01778L7.19171 4.0489C6.85723 4.94955 5.9296 5.48512 4.98237 5.32446L3.89775 5.14049C3.73577 5.37235 3.59306 5.61841 3.47183 5.87635L4.17409 6.72444C4.78684 7.46443 4.78684 8.53557 4.17409 9.27556L3.47183 10.1236C3.59306 10.3816 3.73577 10.6277 3.89775 10.8595L4.98237 10.6755C4.98913 10.6744 4.99589 10.6733 5.00265 10.6722C5.01311 11.0121 5.05439 11.3442 5.12381 11.6658ZM6.29349 6.95648C6.4589 6.68655 6.68656 6.45889 6.95649 6.29348C6.71716 6.49529 6.4953 6.71715 6.29349 6.95648Z" />
<path fill-rule="evenodd" clip-rule="evenodd" d="M10.5 15C12.9853 15 15 12.9853 15 10.5C15 8.01472 12.9853 6 10.5 6C8.01472 6 6 8.01472 6 10.5C6 12.9853 8.01472 15 10.5 15ZM12.8536 9.35355C13.0488 9.15829 13.0488 8.84171 12.8536 8.64645C12.6583 8.45118 12.3417 8.45118 12.1464 8.64645L9.5 11.2929L8.85355 10.6464C8.65829 10.4512 8.34171 10.4512 8.14645 10.6464C7.95118 10.8417 7.95118 11.1583 8.14645 11.3536L9.14645 12.3536C9.34171 12.5488 9.65829 12.5488 9.85355 12.3536L12.8536 9.35355Z" />
</svg>
