<svg width="16" height="16" xmlns="http://www.w3.org/2000/svg">
<path fill-rule="evenodd" clip-rule="evenodd" d="M0.14043 13.42C0.0683597 13.2609 0.0332755 13.0865 0.0161979 12.8549C0.00559854 12.8136 -8.21686e-07 12.7705 -8.17822e-07 12.7263L6.54806e-09 3.29664C-8.49809e-06 2.83583 -1.45675e-05 2.45551 0.0282838 2.1457C0.0576759 1.82392 0.120757 1.52812 0.279024 1.25029C0.524459 0.819422 0.916089 0.469117 1.39778 0.249581C1.7084 0.108016 2.03909 0.0515914 2.39883 0.0253009C2.74518 -1.1308e-05 3.17035 -5.81063e-06 3.6855 7.85745e-07L11.4167 1.46163e-06C11.754 -8.3359e-06 12.0451 -1.70453e-05 12.2848 0.0175024C12.5378 0.0359935 12.7895 0.0768193 13.0317 0.187187C13.3929 0.351839 13.6867 0.614568 13.8707 0.937716C13.9941 1.15433 14.0398 1.37943 14.0604 1.60575C14.08 1.82018 14.08 2.08052 14.08 2.38229L14.08 3.43479C14.08 3.75096 13.7935 4.00726 13.44 4.00726C13.0865 4.00726 12.8 3.75096 12.8 3.43479L12.8 2.40436C12.8 2.0743 12.7995 1.86119 12.7847 1.69898C12.7705 1.54347 12.7464 1.48581 12.7302 1.4575C12.6689 1.34979 12.571 1.26221 12.4506 1.20733C12.4189 1.1929 12.3544 1.17134 12.1806 1.15863C11.9992 1.14538 11.761 1.14493 11.392 1.14493L4.32087 1.14493L7.40056 1.96098C8.18953 2.17004 8.58401 2.27457 8.87656 2.48309C9.1348 2.66717 9.33561 2.9077 9.45957 3.18146C9.6 3.49159 9.6 3.8596 9.6 4.59563L9.6 12.9216C9.6 13.3608 9.6 13.7226 9.58732 14.0254L11.84 14.0254C12.1935 14.0254 12.48 13.7691 12.48 13.4529L12.48 12.5942C12.48 12.2781 12.7665 12.0218 13.12 12.0218C13.4735 12.0218 13.76 12.2781 13.76 12.5942L13.76 13.4529C13.76 14.4014 12.9004 15.1703 11.84 15.1703L9.33577 15.1703C9.32717 15.1839 9.3183 15.1972 9.30913 15.2104C9.05438 15.5758 8.65547 15.8422 8.19145 15.9569C7.66167 16.0879 6.99293 15.9107 5.65544 15.5563L2.19944 14.6405C1.41047 14.4315 1.01598 14.3269 0.723438 14.1184C0.465196 13.9343 0.264394 13.6938 0.14043 13.42ZM3.581 2.14299L7.03699 3.05875C7.93467 3.29662 8.02875 3.34278 8.07885 3.37849C8.16493 3.43985 8.23187 3.52003 8.27319 3.61128C8.29724 3.66439 8.32 3.75819 8.32 4.59563L8.32 12.9216C8.32 13.5668 8.31879 13.9744 8.28872 14.2756C8.26466 14.5165 8.22876 14.5937 8.22245 14.6054C8.1377 14.7264 8.00541 14.8148 7.85157 14.8531C7.83731 14.8552 7.74428 14.864 7.47926 14.8162C7.14787 14.7565 6.7106 14.6418 6.019 14.4585L2.56301 13.5427C1.66532 13.3049 1.57125 13.2587 1.52115 13.223C1.43507 13.1616 1.36813 13.0815 1.32681 12.9902C1.30276 12.9371 1.28 12.8433 1.28 12.0059L1.28 3.67988C1.28 3.03469 1.2812 2.62708 1.31128 2.32589C1.33534 2.085 1.37125 2.00774 1.37755 1.99613C1.4623 1.87506 1.59458 1.7867 1.74843 1.74841C1.76267 1.7463 1.85569 1.73745 2.12074 1.78524C2.45213 1.84499 2.8894 1.95974 3.581 2.14299ZM1.74642 1.74878L1.74843 1.74841C1.74714 1.74861 1.74639 1.74876 1.74642 1.74878ZM1.37852 1.99451C1.37851 1.99448 1.37813 1.99508 1.37755 1.99613L1.37852 1.99451ZM7.85358 14.8527L7.85157 14.8531C7.85286 14.8529 7.8536 14.8527 7.85358 14.8527ZM8.22148 14.607C8.22149 14.607 8.22187 14.6064 8.22245 14.6054L8.22148 14.607Z"/>
<path d="M13.8925 5.89232C13.6426 5.66876 13.2374 5.66876 12.9875 5.89232C12.7375 6.11589 12.7375 6.47835 12.9875 6.70191L13.8149 7.44205L11.52 7.44205C11.1665 7.44205 10.88 7.69835 10.88 8.01451C10.88 8.33068 11.1665 8.58698 11.52 8.58698L13.8149 8.58698L12.9875 9.32711C12.7375 9.55068 12.7375 9.91314 12.9875 10.1367C13.2374 10.3603 13.6426 10.3603 13.8925 10.1367L15.8125 8.41931C16.0625 8.19575 16.0625 7.83328 15.8125 7.60972L13.8925 5.89232Z"/>
</svg>
