<svg width="24" height="24" xmlns="http://www.w3.org/2000/svg">
<path fill-rule="evenodd" clip-rule="evenodd" d="M0.210645 20.13C0.10254 19.8913 0.0499133 19.6297 0.0242969 19.2823C0.00839781 19.2203 -1.23253e-06 19.1558 -1.22673e-06 19.0895L9.82207e-09 4.94496C-1.27471e-05 4.25375 -2.18512e-05 3.68327 0.0424257 3.21855C0.0865139 2.73588 0.181135 2.29219 0.418535 1.87543C0.786689 1.22913 1.37413 0.703676 2.09668 0.374371C2.5626 0.162024 3.05863 0.0773871 3.59825 0.0379513C4.11777 -1.6962e-05 4.75552 -8.71595e-06 5.52825 1.17862e-06L17.125 2.19244e-06C17.631 -1.25038e-05 18.0677 -2.55679e-05 18.4272 0.0262535C18.8068 0.0539903 19.1842 0.115229 19.5475 0.28078C20.0894 0.527759 20.53 0.921852 20.8061 1.40657C20.9912 1.73149 21.0596 2.06914 21.0907 2.40863C21.12 2.73027 21.12 3.12077 21.12 3.57344L21.12 5.15219C21.12 5.62643 20.6902 6.01089 20.16 6.01089C19.6298 6.01089 19.2 5.62643 19.2 5.15219L19.2 3.60653C19.2 3.11145 19.1993 2.79178 19.177 2.54848C19.1557 2.3152 19.1196 2.22871 19.0954 2.18626C19.0033 2.02468 18.8565 1.89332 18.6758 1.81099C18.6284 1.78936 18.5317 1.757 18.2709 1.73794C17.9989 1.71807 17.6415 1.7174 17.088 1.7174L6.4813 1.7174L11.1008 2.94147C12.2843 3.25505 12.876 3.41185 13.3148 3.72464C13.7022 4.00075 14.0034 4.36155 14.1894 4.77219C14.4 5.23738 14.4 5.78941 14.4 6.89345L14.4 19.3824C14.4 20.0411 14.4 20.5839 14.381 21.0381L17.76 21.0381C18.2902 21.0381 18.72 20.6536 18.72 20.1794L18.72 18.8913C18.72 18.4171 19.1498 18.0327 19.68 18.0327C20.2102 18.0327 20.64 18.4171 20.64 18.8913L20.64 20.1794C20.64 21.6021 19.3506 22.7555 17.76 22.7555L14.0037 22.7555C13.9908 22.7758 13.9774 22.7959 13.9637 22.8156C13.5816 23.3636 12.9832 23.7633 12.2872 23.9354C11.4925 24.1318 10.4894 23.866 8.48316 23.3344L3.29916 21.9608C2.1157 21.6472 1.52398 21.4904 1.08516 21.1776C0.697793 20.9015 0.39659 20.5407 0.210645 20.13ZM5.37149 3.21449L10.5555 4.58813C11.902 4.94493 12.0431 5.01417 12.1183 5.06774C12.2474 5.15977 12.3478 5.28004 12.4098 5.41692C12.4459 5.49659 12.48 5.63728 12.48 6.89345L12.48 19.3824C12.48 20.3502 12.4782 20.9616 12.4331 21.4134C12.397 21.7747 12.3431 21.8906 12.3337 21.908C12.2066 22.0896 12.0081 22.2222 11.7774 22.2796C11.756 22.2828 11.6164 22.296 11.2189 22.2244C10.7218 22.1347 10.0659 21.9626 9.0285 21.6877L3.84451 20.3141C2.49799 19.9573 2.35687 19.8881 2.28172 19.8345C2.1526 19.7425 2.0522 19.6222 1.99021 19.4853C1.95414 19.4056 1.92 19.265 1.92 18.0088L1.92 5.51981C1.92 4.55203 1.92181 3.94062 1.96692 3.48884C2.00301 3.1275 2.05687 3.01161 2.06633 2.99419C2.19345 2.81259 2.39187 2.68006 2.62264 2.62262C2.64401 2.61945 2.78353 2.60618 3.18111 2.67786C3.6782 2.76749 4.3341 2.9396 5.37149 3.21449ZM2.61963 2.62317L2.62264 2.62262C2.62071 2.62291 2.61959 2.62314 2.61963 2.62317ZM2.06778 2.99177C2.06776 2.99173 2.06719 2.99262 2.06633 2.99419L2.06778 2.99177ZM11.7804 22.2791L11.7774 22.2796C11.7793 22.2793 11.7804 22.2791 11.7804 22.2791ZM12.3322 21.9105C12.3322 21.9105 12.3328 21.9096 12.3337 21.908L12.3322 21.9105Z"/>
<path d="M20.8388 8.83849C20.4639 8.50314 19.8561 8.50314 19.4812 8.83849C19.1063 9.17383 19.1063 9.71752 19.4812 10.0529L20.7224 11.1631L17.28 11.1631C16.7498 11.1631 16.32 11.5475 16.32 12.0218C16.32 12.496 16.7498 12.8805 17.28 12.8805L20.7224 12.8805L19.4812 13.9907C19.1063 14.326 19.1063 14.8697 19.4812 15.2051C19.8561 15.5404 20.4639 15.5404 20.8388 15.2051L23.7188 12.629C24.0937 12.2936 24.0937 11.7499 23.7188 11.4146L20.8388 8.83849Z"/>
</svg>
