<svg width="32" height="32" xmlns="http://www.w3.org/2000/svg">
<path fill-rule="evenodd" clip-rule="evenodd" d="M0.28086 26.8401C0.136719 26.5217 0.066551 26.1729 0.0323958 25.7098C0.0111971 25.6271 -1.64337e-06 25.5411 -1.63564e-06 25.4527L1.30961e-08 6.59328C-1.69962e-05 5.67166 -2.91349e-05 4.91102 0.0565676 4.2914C0.115352 3.64784 0.241514 3.05625 0.558047 2.50057C1.04892 1.63884 1.83218 0.938234 2.79557 0.499161C3.4168 0.216032 4.07818 0.103183 4.79766 0.0506017C5.49036 -2.26161e-05 6.3407 -1.16213e-05 7.371 1.57149e-06L22.8333 2.92325e-06C23.508 -1.66718e-05 24.0902 -3.40906e-05 24.5696 0.0350047C25.0757 0.0719871 25.579 0.153639 26.0633 0.374373C26.7859 0.703679 27.3733 1.22914 27.7415 1.87543C27.9882 2.30865 28.0795 2.75886 28.1209 3.2115C28.16 3.64036 28.16 4.16103 28.16 4.76458L28.16 6.86958C28.16 7.50191 27.5869 8.01451 26.88 8.01451C26.1731 8.01451 25.6 7.50191 25.6 6.86958L25.6 4.80871C25.6 4.1486 25.599 3.72237 25.5694 3.39797C25.541 3.08693 25.4927 2.97162 25.4605 2.91501C25.3378 2.69958 25.142 2.52442 24.9011 2.41465C24.8378 2.38581 24.7089 2.34267 24.3612 2.31726C23.9985 2.29075 23.522 2.28986 22.784 2.28986L8.64174 2.28986L14.8011 3.92195C16.3791 4.34007 17.168 4.54913 17.7531 4.96618C18.2696 5.33433 18.6712 5.8154 18.9191 6.36292C19.2 6.98318 19.2 7.71921 19.2 9.19127L19.2 25.8432C19.2 26.7215 19.2 27.4452 19.1746 28.0508L23.68 28.0508C24.3869 28.0508 24.96 27.5382 24.96 26.9059L24.96 25.1885C24.96 24.5561 25.5331 24.0435 26.24 24.0435C26.9469 24.0435 27.52 24.5561 27.52 25.1885L27.52 26.9059C27.52 28.8028 25.8008 30.3406 23.68 30.3406L18.6715 30.3406C18.6543 30.3678 18.6366 30.3945 18.6183 30.4208C18.1088 31.1515 17.3109 31.6844 16.3829 31.9138C15.3233 32.1757 13.9859 31.8213 11.3109 31.1125L4.39888 29.281C2.82094 28.8629 2.03197 28.6538 1.44688 28.2368C0.930391 27.8686 0.528787 27.3876 0.28086 26.8401ZM7.16199 4.28599L14.074 6.1175C15.8693 6.59323 16.0575 6.68556 16.1577 6.75698C16.3299 6.8797 16.4637 7.04005 16.5464 7.22256C16.5945 7.32879 16.64 7.51637 16.64 9.19127L16.64 25.8432C16.64 27.1336 16.6376 27.9488 16.5774 28.5512C16.5293 29.0329 16.4575 29.1875 16.4449 29.2107C16.2754 29.4529 16.0108 29.6296 15.7031 29.7062C15.6746 29.7104 15.4886 29.7281 14.9585 29.6325C14.2957 29.513 13.4212 29.2835 12.038 28.917L5.12601 27.0855C3.33065 26.6097 3.14249 26.5174 3.04229 26.446C2.87013 26.3233 2.73626 26.1629 2.65362 25.9804C2.60552 25.8742 2.56 25.6866 2.56 24.0117L2.56 7.35975C2.56 6.06937 2.56241 5.25416 2.62256 4.65179C2.67068 4.16999 2.74249 4.01548 2.75511 3.99225C2.9246 3.75012 3.18917 3.57341 3.49686 3.49682C3.52535 3.4926 3.71138 3.4749 4.24147 3.57048C4.90426 3.68999 5.7788 3.91947 7.16199 4.28599ZM3.49284 3.49756L3.49686 3.49682C3.49428 3.49721 3.49279 3.49752 3.49284 3.49756ZM2.75704 3.98902C2.75701 3.98897 2.75626 3.99015 2.75511 3.99225L2.75704 3.98902ZM15.7072 29.7054L15.7031 29.7062C15.7057 29.7058 15.7072 29.7055 15.7072 29.7054ZM16.443 29.214C16.443 29.214 16.4437 29.2128 16.4449 29.2107L16.443 29.214Z"/>
<path d="M27.7851 11.7846C27.2852 11.3375 26.4748 11.3375 25.9749 11.7846C25.475 12.2318 25.475 12.9567 25.9749 13.4038L27.6298 14.8841L23.04 14.8841C22.3331 14.8841 21.76 15.3967 21.76 16.029C21.76 16.6614 22.3331 17.174 23.04 17.174L27.6298 17.174L25.9749 18.6542C25.475 19.1014 25.475 19.8263 25.9749 20.2734C26.4748 20.7205 27.2852 20.7205 27.7851 20.2734L31.6251 16.8386C32.125 16.3915 32.125 15.6666 31.6251 15.2194L27.7851 11.7846Z"/>
</svg>
