<svg viewBox="0 0 24 24" xmlns="http://www.w3.org/2000/svg">
<path fill-rule="evenodd" clip-rule="evenodd" d="M4 6.00002V18C4 18.5247 4.20646 19.0449 4.60896 19.5307C5.01098 20.016 5.60024 20.457 6.34315 20.8284C7.08601 21.1999 7.96793 21.4945 8.93853 21.6955C9.69059 21.8513 10.4845 21.9485 11.2926 21.9843C11.3653 21.7861 11.4811 21.6001 11.6403 21.441L12.5934 20.4878C12.3967 20.4959 12.1987 20.5 12 20.5C11.0455 20.5 10.1075 20.4058 9.24274 20.2267C8.37561 20.0471 7.62082 19.7902 7.01397 19.4868C6.40111 19.1804 5.9981 18.8563 5.76408 18.5738C5.53904 18.3022 5.5 18.1101 5.5 18V8.33236C6.95211 9.34229 9.32244 10 12 10C14.6776 10 17.0479 9.34229 18.5 8.33236V12.3568C18.6497 12.3148 18.8033 12.2848 18.9594 12.2674C19.3169 12.2277 19.6664 12.2431 20 12.3063V6C20 3.79086 16.4183 2 12 2C7.58172 2 4 3.79088 4 6.00002ZM16.986 7.48679C18.2743 6.84266 18.5 6.23033 18.5 6C18.5 5.76967 18.2743 5.15734 16.986 4.51321C15.7875 3.91395 14.0268 3.5 12 3.5C9.97324 3.5 8.2125 3.91395 7.01397 4.51321C5.72571 5.15734 5.5 5.76967 5.5 6C5.50001 6.23034 5.72575 6.84268 7.01397 7.48679C8.2125 8.08605 9.97324 8.5 12 8.5C14.0268 8.5 15.7875 8.08605 16.986 7.48679Z" />
<path d="M14.5701 21.3398L13.0546 22.8553C12.8593 23.0505 12.5428 23.0505 12.3475 22.8553C12.1522 22.66 12.1522 22.3434 12.3475 22.1482L12.5036 21.9921C12.5037 21.9921 12.5035 21.9921 12.5036 21.9921L13.8629 20.6326C13.8124 20.5565 13.7659 20.4775 13.7239 20.3959C13.7238 20.3959 13.7239 20.3959 13.7239 20.3959C13.5078 19.977 13.4071 19.4899 13.4641 18.9772C13.5111 18.554 13.7008 18.1593 14.0019 17.8582L14.9188 16.9413C15.3093 16.5508 15.9425 16.5508 16.333 16.9413L18.2615 18.8698C18.652 19.2603 18.652 19.8935 18.2615 20.284L17.3446 21.2009C17.0435 21.502 16.6488 21.6917 16.2256 21.7387C15.8193 21.7838 15.4291 21.7299 15.0762 21.5981C14.9264 21.5421 14.7833 21.4722 14.6486 21.3898C14.6221 21.3736 14.5959 21.3569 14.5701 21.3398Z" />
<path d="M19.4293 13.2468C19.9065 13.2616 20.351 13.4118 20.7254 13.6602L22.2409 12.1447C22.4362 11.9495 22.7527 11.9495 22.948 12.1447C23.1433 12.34 23.1433 12.6566 22.948 12.8518L21.4325 14.3673C21.7423 14.8343 21.8995 15.4103 21.8314 16.0228C21.7844 16.4461 21.5947 16.8407 21.2936 17.1418L20.3767 18.0587C20.209 18.2264 19.9966 18.3221 19.7779 18.3458C19.711 18.353 19.6434 18.3535 19.5764 18.3473C19.3523 18.3265 19.1339 18.2303 18.9624 18.0587L17.034 16.1302C16.6435 15.7397 16.6435 15.1066 17.034 14.716L17.9509 13.7992C18.1108 13.6392 18.2971 13.5108 18.5 13.4184C18.6792 13.3368 18.8714 13.2834 19.0698 13.2613C19.1139 13.2564 19.1578 13.2527 19.2014 13.2501C19.2781 13.2455 19.3541 13.2445 19.4293 13.2468Z" />
</svg>
