<svg viewBox="0 0 16 16" xmlns="http://www.w3.org/2000/svg">
<path d="M11.4424 5.96537C11.8577 5.61292 12 5.26433 12 5C12 4.66083 11.7656 4.18293 11.021 3.73617C10.2963 3.30135 9.23063 3 8 3C6.76937 3 5.70366 3.30135 4.97896 3.73617C4.23436 4.18293 4 4.66083 4 5C4 5.33917 4.23436 5.81707 4.97896 6.26383C5.70366 6.69865 6.76937 7 8 7C8.8196 7 9.56605 6.86633 10.1873 6.64859C10.183 6.65286 10.1787 6.65714 10.1744 6.66145L9.50735 7.32848C9.329 7.50684 9.19137 7.7105 9.09447 7.92791C8.74222 7.9751 8.37596 8 8 8C6.3644 8 4.91223 7.52879 4 6.80029V10.9883C3.99667 11.2161 4.09452 11.513 4.42379 11.8405C4.75971 12.1747 5.29318 12.4909 6.00243 12.7106C6.05729 12.7276 6.11277 12.7438 6.16884 12.7594C6.17709 12.7915 6.18584 12.8234 6.19508 12.8552L5.46456 13.5857C4.74926 13.3332 4.14866 12.9773 3.71855 12.5495C3.24792 12.0813 3 11.5455 3 11V5C3 3.34315 5.23858 2 8 2C10.7614 2 13 3.34315 13 5V5.95715L12.9336 6.02357C12.5518 5.91236 12.1409 5.87257 11.7179 5.91957C11.625 5.9299 11.533 5.94523 11.4424 5.96537Z" />
<path d="M13 7.11877C12.6996 6.96963 12.3591 6.89 12 6.90123V11H12.8739C12.9178 10.9719 12.96 10.9401 13 10.9045V7.11877Z" />
<path d="M10.7403 7.50971C11.1601 7.34436 11.5359 7.14212 11.855 6.91067C11.8461 6.91154 11.8372 6.91247 11.8284 6.91346C11.4702 6.95325 11.1363 7.11375 10.8815 7.36855L10.7403 7.50971Z" />
<path d="M7.87954 13.9991C7.44098 13.9928 7.00634 13.9519 6.58678 13.8777L7.38018 13.0843C7.35689 13.0462 7.33478 13.0073 7.31388 12.9677C7.64636 12.9992 7.98732 13.008 8.32968 12.9926C9.14613 12.9558 9.90941 12.7839 10.5334 12.5129L10.8222 13.1778L10.3685 13.6315C10.3632 13.6368 10.3579 13.642 10.3526 13.6472C9.77855 13.8308 9.14859 13.946 8.49771 13.9851C8.35326 13.9352 8.2158 13.8699 8.08729 13.7914L7.87954 13.9991Z" />
<path d="M15.1642 5.91427C15.3595 6.10953 15.3595 6.42611 15.1642 6.62138L13.8698 7.91578C14.1038 8.29846 14.2194 8.76049 14.165 9.25009C14.1252 9.60824 13.9647 9.94217 13.7099 10.197L13.0429 10.864C12.6524 11.2545 12.0192 11.2545 11.6287 10.864L10.2145 9.4498C9.82393 9.05928 9.82393 8.42611 10.2145 8.03559L10.8815 7.36855C11.1363 7.11375 11.4702 6.95325 11.8284 6.91346C12.318 6.85906 12.78 6.97472 13.1627 7.20867L14.4571 5.91427C14.6524 5.71901 14.9689 5.71901 15.1642 5.91427Z" />
<path d="M6.08578 15.0858C5.89052 14.8906 5.89052 14.574 6.08578 14.3787L7.38018 13.0843C7.14622 12.7016 7.03056 12.2396 7.08496 11.75C7.12476 11.3919 7.28526 11.0579 7.54006 10.8031L8.2071 10.1361C8.59762 9.74557 9.23079 9.74557 9.62131 10.1361L11.0355 11.5503C11.426 11.9408 11.426 12.574 11.0355 12.9645L10.3685 13.6315C10.1137 13.8863 9.77975 14.0469 9.4216 14.0867C8.932 14.1411 8.46997 14.0253 8.08729 13.7914L6.79288 15.0858C6.59762 15.2811 6.28104 15.2811 6.08578 15.0858Z" />
</svg>
