<svg viewBox="0 0 20 20" xmlns="http://www.w3.org/2000/svg">
<path fill-rule="evenodd" clip-rule="evenodd" d="M5 7.43538V14.5C5 14.7253 5.07412 14.9817 5.27207 15.2604C5.47404 15.5449 5.79847 15.8412 6.26123 16.1111C6.72221 16.38 7.29043 16.6049 7.93877 16.7616C8.58592 16.9179 9.28708 17 10 17L10.0504 16.9999L9.37867 17.6716C9.28867 17.7616 9.21249 17.8602 9.15015 17.9647C8.6545 17.9233 8.16855 17.8458 7.7039 17.7336C6.97594 17.5577 6.31451 17.2999 5.75736 16.9749C5.20018 16.6499 4.75824 16.264 4.45672 15.8394C4.15511 15.4146 4 14.9595 4 14.5V5.5C4 3.567 6.68629 2 10 2C13.3137 2 16 3.567 16 5.5V9.90088C15.9067 9.90288 15.8126 9.90905 15.7179 9.91957C15.4692 9.94722 15.2275 10.0106 15 10.1064V7.43538C13.9251 8.37845 12.087 9 10 9C7.91303 9 6.07492 8.37845 5 7.43538ZM13.7388 7.11109C14.6708 6.56739 15 5.96317 15 5.5C15 5.03683 14.6708 4.43261 13.7388 3.88891C12.8312 3.35952 11.5116 3 10 3C8.48837 3 7.16875 3.35952 6.26123 3.88891C5.32916 4.43261 5 5.03683 5 5.5C5 5.96317 5.32916 6.56739 6.26123 7.11109C7.16875 7.64048 8.48837 8 10 8C11.5116 8 12.8312 7.64048 13.7388 7.11109Z" />
<path d="M15.2298 15.8238C15.1822 15.7249 15.1175 15.6323 15.0355 15.5503L13.6213 14.1361C13.2308 13.7456 12.5976 13.7456 12.2071 14.1361L11.5401 14.8031C11.2853 15.0579 11.1248 15.3919 11.085 15.75C11.0306 16.2396 11.1462 16.7016 11.3802 17.0843L10.4755 17.989C10.4754 17.989 10.4755 17.989 10.4755 17.989L10.0858 18.3787C9.89052 18.574 9.89052 18.8906 10.0858 19.0858C10.281 19.2811 10.5976 19.2811 10.7929 19.0858L12.0873 17.7914C12.47 18.0254 12.932 18.1411 13.4216 18.0867C13.7797 18.0469 14.1137 17.8864 14.3685 17.6316L15.0355 16.9645C15.2659 16.7341 15.3604 16.4193 15.3189 16.1196C15.3189 16.1196 15.3189 16.1196 15.3189 16.1196C15.3049 16.018 15.2751 15.918 15.2298 15.8238C15.2298 15.8237 15.2298 15.8238 15.2298 15.8238Z" />
<path d="M15 11.2614C15.236 11.0688 15.5234 10.9473 15.8284 10.9135C15.8783 10.9079 15.9278 10.9041 15.9771 10.9021C15.9847 10.9017 15.9924 10.9015 16 10.9012C16.4256 10.8879 16.825 11.0022 17.1627 11.2087L18.4571 9.91427C18.6524 9.71901 18.9689 9.71901 19.1642 9.91427C19.3595 10.1095 19.3595 10.4261 19.1642 10.6214L17.8698 11.9158C18.1038 12.2985 18.2194 12.7605 18.165 13.2501C18.1252 13.6082 17.9647 13.9422 17.7099 14.197L17.0429 14.864C16.6524 15.2545 16.0192 15.2545 15.6287 14.864L14.2145 13.4498C13.8239 13.0593 13.8239 12.4261 14.2145 12.0356L14.8815 11.3686C14.9193 11.3307 14.9589 11.295 15 11.2614Z" />
</svg>
