<svg viewBox="0 0 16 16" xmlns="http://www.w3.org/2000/svg">
<path fill-rule="evenodd" clip-rule="evenodd" d="M2 2.5C2 2.22386 2.22386 2 2.5 2H13.5C13.7761 2 14 2.22386 14 2.5C14 2.77614 13.7761 3 13.5 3H3V13.5C3 13.7761 2.77614 14 2.5 14C2.22386 14 2 13.7761 2 13.5V2.5ZM5.03846 4.53846H10.527C10.8032 4.53846 11.027 4.76232 11.027 5.03846C11.027 5.3146 10.8032 5.53846 10.527 5.53846H6.24557L13.8536 13.1464C14.0488 13.3417 14.0488 13.6583 13.8536 13.8536C13.6583 14.0488 13.3417 14.0488 13.1464 13.8536L5.53846 6.24557V10.527C5.53846 10.8032 5.3146 11.027 5.03846 11.027C4.76232 11.027 4.53846 10.8032 4.53846 10.527V5.03846C4.53846 4.76232 4.76232 4.53846 5.03846 4.53846Z"/>
</svg>
