<svg viewBox="0 0 20 20" xmlns="http://www.w3.org/2000/svg">
<path fill-rule="evenodd" clip-rule="evenodd" d="M2 2.5C2 2.22386 2.22386 2 2.5 2H17.5C17.7761 2 18 2.22386 18 2.5C18 2.77614 17.7761 3 17.5 3H3V17.5C3 17.7761 2.77614 18 2.5 18C2.22386 18 2 17.7761 2 17.5V2.5ZM6.5 6H13.4459C13.7221 6 13.9459 6.22386 13.9459 6.5C13.9459 6.77614 13.7221 7 13.4459 7H7.70711L17.8536 17.1464C18.0488 17.3417 18.0488 17.6583 17.8536 17.8536C17.6583 18.0488 17.3417 18.0488 17.1464 17.8536L7 7.70711V13.4459C7 13.7221 6.77614 13.9459 6.5 13.9459C6.22386 13.9459 6 13.7221 6 13.4459V6.5C6 6.22386 6.22386 6 6.5 6Z"/>
</svg>
