<svg width="24" height="24" viewBox="0 0 24 24" xmlns="http://www.w3.org/2000/svg">
<path fill-rule="evenodd" clip-rule="evenodd" d="M18.75 9C20.4069 9 21.75 7.65685 21.75 6C21.75 4.34315 20.4069 3 18.75 3C17.0931 3 15.75 4.34315 15.75 6C15.75 7.01762 16.2567 7.9169 17.0315 8.45933L15.3876 11.4732C15.0368 11.3293 14.6526 11.25 14.25 11.25C12.5931 11.25 11.25 12.5931 11.25 14.25C11.25 14.4656 11.2727 14.6758 11.3159 14.8785L7.89746 16.5877C7.39238 15.6429 6.39627 15 5.25 15C3.59315 15 2.25 16.3431 2.25 18C2.25 19.6569 3.59315 21 5.25 21C6.87703 21 8.20154 19.7048 8.2487 18.0892L11.9873 16.2199C12.5373 16.8511 13.3471 17.25 14.25 17.25C15.9069 17.25 17.25 15.9069 17.25 14.25C17.25 13.5447 17.0066 12.8963 16.5993 12.3842L18.4531 8.9855C18.5508 8.99509 18.6498 9 18.75 9ZM18.75 7.5C19.5784 7.5 20.25 6.82843 20.25 6C20.25 5.17157 19.5784 4.5 18.75 4.5C17.9216 4.5 17.25 5.17157 17.25 6C17.25 6.82843 17.9216 7.5 18.75 7.5ZM14.25 15.75C15.0784 15.75 15.75 15.0784 15.75 14.25C15.75 13.4216 15.0784 12.75 14.25 12.75C13.4216 12.75 12.75 13.4216 12.75 14.25C12.75 15.0784 13.4216 15.75 14.25 15.75ZM6.75 18C6.75 18.8284 6.07843 19.5 5.25 19.5C4.42157 19.5 3.75 18.8284 3.75 18C3.75 17.1716 4.42157 16.5 5.25 16.5C6.07843 16.5 6.75 17.1716 6.75 18Z"/>
</svg>
