<svg width="24" height="24" viewBox="0 0 24 24" xmlns="http://www.w3.org/2000/svg">
<path d="M8.03033 16.2803C7.73744 16.5732 7.26256 16.5732 6.96967 16.2803L3.21967 12.5303C2.92678 12.2374 2.92678 11.7626 3.21967 11.4697L6.96967 7.71967C7.26256 7.42678 7.73744 7.42678 8.03033 7.71967C8.32322 8.01256 8.32322 8.48744 8.03033 8.78033L5.56066 11.25H18.4393L15.9697 8.78033C15.6768 8.48744 15.6768 8.01256 15.9697 7.71967C16.2626 7.42678 16.7374 7.42678 17.0303 7.71967L20.7803 11.4697C21.0732 11.7626 21.0732 12.2374 20.7803 12.5303L17.0303 16.2803C16.7374 16.5732 16.2626 16.5732 15.9697 16.2803C15.6768 15.9874 15.6768 15.5126 15.9697 15.2197L18.4393 12.75H5.56066L8.03033 15.2197C8.32322 15.5126 8.32322 15.9874 8.03033 16.2803Z" />
</svg>
