<svg viewBox="0 0 16 16" xmlns="http://www.w3.org/2000/svg">
  <path fill-rule="evenodd" clip-rule="evenodd" d="M8 2C7.44772 2 7 2.44772 7 3C7 3.55228 7.44772 4 8 4C8.55228 4 9 3.55228 9 3C9 2.44772 8.55228 2 8 2ZM6 3C6 1.89543 6.89543 1 8 1C9.10457 1 10 1.89543 10 3C10 3.93329 9.36074 4.71727 8.4962 4.93797C8.49871 4.95831 8.50001 4.97903 8.50001 5.00005V5.70381C8.55802 5.72432 8.61507 5.74852 8.67082 5.77639L10.1708 6.52639C10.679 6.78048 11 7.29988 11 7.86803V9.63197C11 9.84593 10.9545 10.053 10.8706 10.2415L11.9913 11.2726C12.2874 11.0993 12.6321 11 13 11C14.1046 11 15 11.8954 15 13C15 14.1046 14.1046 15 13 15C11.8954 15 11 14.1046 11 13C11 12.6265 11.1024 12.2769 11.2807 11.9777L10.1828 10.9676C10.1788 10.9696 10.1748 10.9716 10.1708 10.9736L8.67082 11.7236C8.24853 11.9348 7.75147 11.9348 7.32918 11.7236L5.82918 10.9736C5.808 10.963 5.78715 10.952 5.76663 10.9405L4.7231 11.984C4.89904 12.2818 5 12.6291 5 13C5 14.1046 4.10457 15 3 15C1.89543 15 1 14.1046 1 13C1 11.8954 1.89543 11 3 11C3.37091 11 3.71824 11.101 4.016 11.2769L5.10628 10.1866C5.03719 10.0131 5 9.82534 5 9.63197V7.86803C5 7.29988 5.321 6.78048 5.82918 6.52639L7.32918 5.77639C7.38493 5.74852 7.44199 5.72432 7.50001 5.7038V5.00005C7.50001 4.97903 7.50131 4.95831 7.50383 4.93797C6.63927 4.71728 6 3.9333 6 3ZM8.22361 6.67082C8.08284 6.60044 7.91716 6.60044 7.77639 6.67082L6.27639 7.42082C6.107 7.50552 6 7.67865 6 7.86803V9.63197C6 9.82135 6.107 9.99448 6.27639 10.0792L7.77639 10.8292C7.91716 10.8996 8.08284 10.8996 8.22361 10.8292L9.72361 10.0792C9.893 9.99448 10 9.82135 10 9.63197V7.86803C10 7.67865 9.893 7.50552 9.72361 7.42082L8.22361 6.67082ZM3 12C2.44772 12 2 12.4477 2 13C2 13.5523 2.44772 14 3 14C3.55228 14 4 13.5523 4 13C4 12.4477 3.55228 12 3 12ZM13 12C12.4477 12 12 12.4477 12 13C12 13.5523 12.4477 14 13 14C13.5523 14 14 13.5523 14 13C14 12.4477 13.5523 12 13 12Z"/>
</svg>
