<svg width="24" height="24" viewBox="0 0 24 24" xmlns="http://www.w3.org/2000/svg">
<path d="M12.2197 7.71967C12.5126 7.42678 12.9874 7.42678 13.2803 7.71967L17.0303 11.4697C17.3232 11.7626 17.3232 12.2374 17.0303 12.5303L13.2803 16.2803C12.9874 16.5732 12.5126 16.5732 12.2197 16.2803C11.9268 15.9874 11.9268 15.5126 12.2197 15.2197L14.6893 12.75H7.5C7.08579 12.75 6.75 12.4142 6.75 12C6.75 11.5858 7.08579 11.25 7.5 11.25H14.6893L12.2197 8.78033C11.9268 8.48744 11.9268 8.01256 12.2197 7.71967Z" />
<path fill-rule="evenodd" clip-rule="evenodd" d="M21.75 12C21.75 17.3848 17.3848 21.75 12 21.75C6.61522 21.75 2.25 17.3848 2.25 12C2.25 6.61522 6.61522 2.25 12 2.25C17.3848 2.25 21.75 6.61522 21.75 12ZM20.25 12C20.25 16.5563 16.5563 20.25 12 20.25C7.44365 20.25 3.75 16.5563 3.75 12C3.75 7.44365 7.44365 3.75 12 3.75C16.5563 3.75 20.25 7.44365 20.25 12Z" />
</svg>
