<svg viewBox="0 0 16 16" xmlns="http://www.w3.org/2000/svg">
<path d="M8.35355 1.14645C8.25978 1.05268 8.1326 1 7.99999 1C7.86739 1 7.74021 1.05268 7.64644 1.14645L4.04641 4.74645C3.85115 4.94171 3.85115 5.25829 4.04641 5.45355C4.24167 5.64882 4.55825 5.64882 4.75352 5.45356L7.49999 2.7071L7.49999 5.88947C7.81274 5.68555 8.14752 5.51259 8.49999 5.37495L8.49999 2.70711L10.801 5.00809C11.2441 5.03199 11.6734 5.10836 12.0826 5.23109C12.1278 5.06387 12.0848 4.87773 11.9535 4.74645L8.35355 1.14645Z"/>
<path d="M6.25716 14C6.57052 14.3794 6.93379 14.7161 7.33692 15H4C2.89543 15 2 14.1046 2 13V11.5C2 11.2239 2.22386 11 2.5 11C2.77614 11 3 11.2239 3 11.5V13C3 13.5523 3.44772 14 4 14H6.25716Z"/>
<path fill-rule="evenodd" clip-rule="evenodd" d="M10.5 15C12.9853 15 15 12.9853 15 10.5C15 8.01472 12.9853 6 10.5 6C8.01472 6 6 8.01472 6 10.5C6 12.9853 8.01472 15 10.5 15ZM9.765 8.47812C9.43198 8.26998 9 8.50941 9 8.90212V12.0979C9 12.4906 9.43198 12.73 9.765 12.5219L12.3216 10.924C12.6349 10.7282 12.6349 10.2718 12.3216 10.076L9.765 8.47812Z"/>
</svg>
