<svg viewBox="0 0 24 24" xmlns="http://www.w3.org/2000/svg">
<path d="M11.25 7.93934V2.25C11.25 1.83579 11.5858 1.5 12 1.5C12.4142 1.5 12.75 1.83579 12.75 2.25V7.93934L14.4697 6.21967C14.7626 5.92678 15.2374 5.92678 15.5303 6.21967C15.8232 6.51256 15.8232 6.98744 15.5303 7.28033L12.5303 10.2803C12.2374 10.5732 11.7626 10.5732 11.4697 10.2803L8.46967 7.28033C8.17678 6.98744 8.17678 6.51256 8.46967 6.21967C8.76256 5.92678 9.23744 5.92678 9.53033 6.21967L11.25 7.93934Z"/>
<path fill-rule="evenodd" clip-rule="evenodd" d="M8.25 18H5.25C3.59315 18 2.25 16.6569 2.25 15V6C2.25 4.34315 3.59315 3 5.25 3H6.75C7.16421 3 7.5 3.33579 7.5 3.75C7.5 4.16421 7.16421 4.5 6.75 4.5H5.25C4.42157 4.5 3.75 5.17157 3.75 6V15C3.75 15.8284 4.42157 16.5 5.25 16.5H18.75C19.5784 16.5 20.25 15.8284 20.25 15V6C20.25 5.17157 19.5784 4.5 18.75 4.5H17.25C16.8358 4.5 16.5 4.16421 16.5 3.75C16.5 3.33579 16.8358 3 17.25 3H18.75C20.4069 3 21.75 4.34315 21.75 6V15C21.75 16.6569 20.4069 18 18.75 18H15.75V20.25H17.25C17.6642 20.25 18 20.5858 18 21C18 21.4142 17.6642 21.75 17.25 21.75H6.75C6.33579 21.75 6 21.4142 6 21C6 20.5858 6.33579 20.25 6.75 20.25H8.25V18ZM14.25 18V20.25H9.75V18H14.25Z"/>
</svg>
