<svg viewBox="0 0 24 24" xmlns="http://www.w3.org/2000/svg">
<path fill-rule="evenodd" clip-rule="evenodd" d="M5.25 2.25C3.59315 2.25 2.25 3.59315 2.25 5.25V12.75C2.25 14.4069 3.59315 15.75 5.25 15.75H8.25V18.75C8.25 20.4069 9.59315 21.75 11.25 21.75H18.75C20.4069 21.75 21.75 20.4069 21.75 18.75V11.25C21.75 9.59315 20.4069 8.25 18.75 8.25H15.75V5.25C15.75 3.59315 14.4069 2.25 12.75 2.25H5.25ZM14.25 8.25V5.25C14.25 4.42157 13.5784 3.75 12.75 3.75H5.25C4.42157 3.75 3.75 4.42157 3.75 5.25V12.75C3.75 13.5784 4.42157 14.25 5.25 14.25H8.25V11.25C8.25 9.59315 9.59315 8.25 11.25 8.25H14.25ZM9.75 14.25V11.25C9.75 10.4216 10.4216 9.75 11.25 9.75H14.25V12.75C14.25 13.5784 13.5784 14.25 12.75 14.25H9.75ZM9.75 15.75H12.75C14.4069 15.75 15.75 14.4069 15.75 12.75V9.75H18.75C19.5784 9.75 20.25 10.4216 20.25 11.25V18.75C20.25 19.5784 19.5784 20.25 18.75 20.25H11.25C10.4216 20.25 9.75 19.5784 9.75 18.75V15.75Z" />
</svg>
