<svg viewBox="0 0 24 24" xmlns="http://www.w3.org/2000/svg">
<path d="M14.9491 5.67271C13.965 5.38469 12.9384 5.24072 11.9012 5.25046C9.76348 5.27054 7.68279 5.94268 5.9373 7.17704C4.19181 8.41139 2.86469 10.1491 2.13335 12.158C1.99165 12.5472 2.1923 12.9776 2.58152 13.1193C2.97075 13.261 3.40114 13.0604 3.54284 12.6711C3.67212 12.3161 3.82311 11.9708 3.99449 11.6373L5.56102 12.5927C5.91465 12.8084 6.37617 12.6966 6.59186 12.343C6.80755 11.9894 6.69573 11.5278 6.3421 11.3122L4.7888 10.3647C5.3501 9.61315 6.02866 8.9496 6.80338 8.40175C8.11768 7.47231 9.65371 6.91476 11.2498 6.7813V9C11.2498 9.41421 11.5856 9.75 11.9998 9.75C12.414 9.75 12.7498 9.41421 12.7498 9V6.7813C13.1594 6.81555 13.5652 6.87774 13.9644 6.96704L14.9491 5.67271Z" />
<path d="M20.06 11.7457C20.184 11.9953 20.2967 12.2512 20.3975 12.5129C20.5465 12.8994 20.9806 13.0919 21.3671 12.9429C21.7536 12.7939 21.9461 12.3598 21.7971 11.9733C21.2172 10.4689 20.3013 9.12496 19.1275 8.0398L18.5875 9.61789C18.8363 9.88518 19.0685 10.1673 19.2829 10.4626L17.8901 11.3122C17.5365 11.5278 17.4247 11.9894 17.6404 12.343C17.8561 12.6966 18.3176 12.8084 18.6712 12.5927L20.06 11.7457Z" />
<path fill-rule="evenodd" clip-rule="evenodd" d="M18.0916 6.43367C18.3672 5.62825 17.3005 5.05928 16.7851 5.73677L10.034 14.6109C9.09264 15.8483 9.46637 17.6327 10.8252 18.3883C12.2156 19.1615 13.9669 18.4887 14.482 16.9834L18.0916 6.43367ZM15.1711 10.3357L11.2278 15.5191C10.8395 16.0295 10.9936 16.7657 11.5542 17.0774C12.1278 17.3964 12.8503 17.1188 13.0627 16.4978L15.1711 10.3357Z" />
</svg>
