<svg viewBox="0 0 24 24" xmlns="http://www.w3.org/2000/svg">
<path d="M12.3041 2.3145C12.3875 2.35143 12.4645 2.40366 12.5306 2.46978C12.5859 2.52509 12.6315 2.58812 12.6665 2.65613L15.4899 7.95002L21.5054 9.01156C21.7755 9.05923 21.998 9.25053 22.0857 9.51042C22.1733 9.7703 22.1122 10.0573 21.9261 10.2589L17.6752 14.864L18.7398 21.2519C18.7862 21.5301 18.6725 21.8109 18.4456 21.9784C18.2187 22.146 17.9169 22.1721 17.6646 22.046L12 19.2137L6.33543 22.046C6.08311 22.1721 5.78135 22.146 5.55444 21.9784C5.32753 21.8109 5.21384 21.5301 5.26022 21.2519L6.32485 14.864L2.07391 10.2589C1.88788 10.0573 1.82669 9.7703 1.91436 9.51042C2.00203 9.25053 2.22457 9.05923 2.49468 9.01156L8.51009 7.95002L11.3335 2.65615C11.3685 2.58813 11.4141 2.5251 11.4694 2.46978C11.5355 2.40366 11.6126 2.35143 11.696 2.3145C11.8841 2.23123 12.1046 2.22581 12.3041 2.3145Z"/>
</svg>
