<svg width="16" height="16" viewBox="0 0 16 16" fill="none" xmlns="http://www.w3.org/2000/svg">
<path fill-rule="evenodd" clip-rule="evenodd" d="M7.99997 3.5C7.99997 3.22386 8.22383 3 8.49997 3H13.5C13.7761 3 14 3.22386 14 3.5C14 3.77614 13.7761 4 13.5 4H8.49997C8.22383 4 7.99997 3.77614 7.99997 3.5ZM6.87626 4.17075C7.0581 4.37857 7.03704 4.69445 6.82922 4.87629L3.83069 7.5H13.5C13.7761 7.5 14 7.72386 14 8C14 8.27614 13.7761 8.5 13.5 8.5H3.83069L6.82922 11.1237C7.03704 11.3056 7.0581 11.6214 6.87626 11.8293C6.69442 12.0371 6.37854 12.0581 6.17072 11.8763L2.17072 8.37629C2.06221 8.28134 1.99997 8.14418 1.99997 8C1.99997 7.85582 2.06221 7.71866 2.17072 7.62371L6.17072 4.12371C6.37854 3.94187 6.69442 3.96293 6.87626 4.17075ZM7.99997 12.5C7.99997 12.2239 8.22383 12 8.49997 12H13.5C13.7761 12 14 12.2239 14 12.5C14 12.7761 13.7761 13 13.5 13H8.49997C8.22383 13 7.99997 12.7761 7.99997 12.5Z" fill="#666666"/>
</svg>
