<svg width="24" height="24" viewBox="0 0 24 24" xmlns="http://www.w3.org/2000/svg">
<g clip-path="url(#clip0)">
<path fill-rule="evenodd" clip-rule="evenodd" d="M20.1526 3.18198C20.4455 2.88909 20.9203 2.88909 21.2132 3.18198C21.5061 3.47487 21.5061 3.94975 21.2132 4.24264L18.5616 6.89429C18.5469 6.909 18.5317 6.92298 18.5161 6.93621C19.7702 8.69376 19.6085 11.1506 18.0313 12.7279L16.4403 14.3189C16.1474 14.6118 15.6725 14.6118 15.3796 14.3189L10.0763 9.01561C9.78341 8.72272 9.78341 8.24784 10.0763 7.95495L11.6673 6.36396C13.2446 4.78667 15.7015 4.62505 17.459 5.8791C17.4722 5.86352 17.4862 5.84834 17.5009 5.83363L20.1526 3.18198ZM15.9099 12.7279L16.9706 11.6673C18.1422 10.4957 18.1422 8.59619 16.9706 7.42462C15.799 6.25305 13.8995 6.25305 12.7279 7.42462L11.6673 8.48528L15.9099 12.7279Z" />
<path fill-rule="evenodd" clip-rule="evenodd" d="M3.18201 20.1525C2.88912 20.4454 2.88912 20.9203 3.18201 21.2132C3.4749 21.5061 3.94978 21.5061 4.24267 21.2132L6.89432 18.5616C6.90903 18.5468 6.92301 18.5317 6.93624 18.5161C8.69379 19.7701 11.1507 19.6085 12.728 18.0312L14.3189 16.4402C14.6118 16.1473 14.6118 15.6725 14.3189 15.3796L9.01564 10.0763C8.72275 9.78338 8.24787 9.78338 7.95498 10.0763L6.36399 11.6673C4.7867 13.2445 4.62508 15.7014 5.87913 17.459C5.86355 17.4722 5.84837 17.4862 5.83366 17.5009L3.18201 20.1525ZM12.728 15.9099L11.6673 16.9706C10.4957 18.1421 8.59622 18.1421 7.42465 16.9706C6.25308 15.799 6.25308 13.8995 7.42465 12.7279L8.48531 11.6673L12.728 15.9099Z" />
</g>
<defs>
<clipPath id="clip0">
<rect width="24" height="24"/>
</clipPath>
</defs>
</svg>
