<svg width="32" height="32" viewBox="0 0 32 32" fill="none" xmlns="http://www.w3.org/2000/svg">
<path fill-rule="evenodd" clip-rule="evenodd" d="M15.6154 3.07692C15.8615 2.97436 16.1385 2.97436 16.3846 3.07692L28.3846 8.07692C28.7573 8.23219 29 8.5963 29 9V23C29 23.4037 28.7573 23.7678 28.3846 23.9231L16.3846 28.9231C16.1385 29.0256 15.8615 29.0256 15.6154 28.9231L3.61538 23.9231C3.24274 23.7678 3 23.4037 3 23V9C3 8.5963 3.24274 8.23219 3.61538 8.07692L15.6154 3.07692ZM5 10.4713V22.3333L15 26.5V14.4293L5 10.4713ZM17 14.4293V26.5L27 22.3333V10.4713L17 14.4293ZM25.3429 8.9762L16 12.6741L6.65711 8.9762L16 5.08333L25.3429 8.9762Z" fill="#666666"/>
</svg>
