<svg width="16" height="16" viewBox="0 0 16 16" fill="none" xmlns="http://www.w3.org/2000/svg">
<path fill-rule="evenodd" clip-rule="evenodd" d="M7.82051 1.03333C7.93604 0.988891 8.06396 0.988891 8.17949 1.03333L14.6795 3.53333C14.8726 3.60759 15 3.79311 15 4V12C15 12.2069 14.8726 12.3924 14.6795 12.4667L8.17949 14.9667C8.06396 15.0111 7.93604 15.0111 7.82051 14.9667L1.32051 12.4667C1.12741 12.3924 1 12.2069 1 12V4C1 3.79311 1.12741 3.60759 1.32051 3.53333L7.82051 1.03333ZM2 4.75445V11.6566L7.5 13.772V7.08137L2 4.75445ZM8.5 7.08137V13.772L14 11.6566V4.75445L8.5 7.08137ZM13.1646 4.02208L8 2.03571L2.83543 4.02208L8 6.20709L13.1646 4.02208Z" fill="#666666"/>
</svg>
