<svg viewBox="0 0 20 20" xmlns="http://www.w3.org/2000/svg">
<path fill-rule="evenodd" clip-rule="evenodd" d="M6.5 3C5.67157 3 5 3.67157 5 4.5V15.5C5 16.3284 5.67157 17 6.5 17H13.5C14.3284 17 15 16.3284 15 15.5V8H11.5C10.6716 8 10 7.32843 10 6.5V3H6.5ZM14.7929 7L11 3.20711L11 6.5C11 6.77614 11.2239 7 11.5 7H14.7929ZM4 4.5C4 3.11929 5.11929 2 6.5 2H10.5C10.9528 2 11.387 2.17985 11.7071 2.5L15.5 6.29289C15.8201 6.61304 16 7.04725 16 7.5V15.5C16 16.8807 14.8807 18 13.5 18H6.5C5.11929 18 4 16.8807 4 15.5V4.5Z"/>
</svg>
