<svg viewBox="0 0 24 24" xmlns="http://www.w3.org/2000/svg">
<path d="M12.75 8.56066L14.4697 10.2803C14.7626 10.5732 15.2374 10.5732 15.5303 10.2803C15.8232 9.98744 15.8232 9.51256 15.5303 9.21967L12.5303 6.21967C12.2374 5.92678 11.7626 5.92678 11.4697 6.21967L8.46967 9.21967C8.17678 9.51256 8.17678 9.98744 8.46967 10.2803C8.76256 10.5732 9.23744 10.5732 9.53033 10.2803L11.25 8.56066V15C11.25 15.4142 11.5858 15.75 12 15.75C12.4142 15.75 12.75 15.4142 12.75 15V8.56066Z"/>
<path fill-rule="evenodd" clip-rule="evenodd" d="M20.25 5.25V18C20.25 18.8284 19.5784 19.5 18.75 19.5H5.45067C5.71003 19.9484 6.19479 20.25 6.75 20.25H19.5C19.9142 20.25 20.25 20.5858 20.25 21C20.25 21.4142 19.9142 21.75 19.5 21.75H6.75C5.35212 21.75 4.17755 20.7939 3.84451 19.5C3.78281 19.2603 3.75 19.009 3.75 18.75V5.25C3.75 3.59315 5.09315 2.25 6.75 2.25H17.25C18.9069 2.25 20.25 3.59315 20.25 5.25ZM6.75 3.75H17.25C18.0784 3.75 18.75 4.42157 18.75 5.25V18H5.25V5.25C5.25 4.42157 5.92157 3.75 6.75 3.75Z" />
</svg>
