<svg viewBox="0 0 32 32" xmlns="http://www.w3.org/2000/svg">
<path fill-rule="evenodd" clip-rule="evenodd" d="M16 3C16.2781 3 16.5436 3.11578 16.7328 3.31955L23.2328 10.3195C23.6086 10.7243 23.5852 11.357 23.1805 11.7328C22.7757 12.1086 22.143 12.0852 21.7672 11.6805L17 6.54654V25.4535L21.7672 20.3195C22.143 19.9148 22.7757 19.8914 23.1805 20.2672C23.5852 20.643 23.6086 21.2757 23.2328 21.6805L16.7328 28.6805C16.5436 28.8842 16.2781 29 16 29C15.7219 29 15.4564 28.8842 15.2672 28.6805L8.76721 21.6805C8.39141 21.2757 8.41484 20.643 8.81955 20.2672C9.22426 19.8914 9.85699 19.9148 10.2328 20.3195L15 25.4535V6.54654L10.2328 11.6805C9.85699 12.0852 9.22426 12.1086 8.81955 11.7328C8.41484 11.357 8.39141 10.7243 8.76721 10.3195L15.2672 3.31955C15.4564 3.11578 15.7219 3 16 3Z" />
</svg>
