<svg width="16" height="16" viewBox="0 0 16 16" fill="none" xmlns="http://www.w3.org/2000/svg">
<path fill-rule="evenodd" clip-rule="evenodd" d="M7.14645 1.14645C7.34171 0.951184 7.65829 0.951184 7.85355 1.14645L10.8536 4.14645C11.0488 4.34171 11.0488 4.65829 10.8536 4.85355C10.6583 5.04882 10.3417 5.04882 10.1464 4.85355L8 2.70711V13.2929L10.1464 11.1464C10.3417 10.9512 10.6583 10.9512 10.8536 11.1464C11.0488 11.3417 11.0488 11.6583 10.8536 11.8536L7.85355 14.8536C7.65829 15.0488 7.34171 15.0488 7.14645 14.8536L4.14645 11.8536C3.95118 11.6583 3.95118 11.3417 4.14645 11.1464C4.34171 10.9512 4.65829 10.9512 4.85355 11.1464L7 13.2929V2.70711L4.85355 4.85355C4.65829 5.04882 4.34171 5.04882 4.14645 4.85355C3.95118 4.65829 3.95118 4.34171 4.14645 4.14645L7.14645 1.14645Z" fill="#666666"/>
</svg>
