<svg viewBox="0 0 24 24" xmlns="http://www.w3.org/2000/svg">
<path fill-rule="evenodd" clip-rule="evenodd" d="M11.4697 2.21967C11.7626 1.92678 12.2374 1.92678 12.5303 2.21967L17.0303 6.71967C17.3232 7.01256 17.3232 7.48744 17.0303 7.78033C16.7374 8.07322 16.2626 8.07322 15.9697 7.78033L12.75 4.56066V19.4388L15.9697 16.2196C16.2626 15.9268 16.7375 15.9268 17.0304 16.2197C17.3232 16.5126 17.3232 16.9875 17.0303 17.2804L12.5303 21.7796C12.2374 22.0724 11.7626 22.0724 11.4697 21.7796L6.96972 17.2804C6.6768 16.9875 6.67676 16.5126 6.96962 16.2197C7.26249 15.9268 7.73736 15.9268 8.03028 16.2196L11.25 19.4388V4.56066L8.03033 7.78033C7.73744 8.07322 7.26256 8.07322 6.96967 7.78033C6.67678 7.48744 6.67678 7.01256 6.96967 6.71967L11.4697 2.21967Z" />
</svg>
