<svg viewBox="0 0 24 24" xmlns="http://www.w3.org/2000/svg">
<path d="M11.25 2.25C11.25 1.83579 11.5858 1.5 12 1.5C12.4142 1.5 12.75 1.83579 12.75 2.25V3.75C12.75 4.16421 12.4142 4.5 12 4.5C11.5858 4.5 11.25 4.16421 11.25 3.75V2.25Z" />
<path fill-rule="evenodd" clip-rule="evenodd" d="M12 18C15.3137 18 18 15.3137 18 12C18 8.68629 15.3137 6 12 6C8.68629 6 6 8.68629 6 12C6 15.3137 8.68629 18 12 18ZM12 16.5C14.4853 16.5 16.5 14.4853 16.5 12C16.5 9.51472 14.4853 7.5 12 7.5C9.51472 7.5 7.5 9.51472 7.5 12C7.5 14.4853 9.51472 16.5 12 16.5Z" />
<path d="M12 19.5C11.5858 19.5 11.25 19.8358 11.25 20.25V21.75C11.25 22.1642 11.5858 22.5 12 22.5C12.4142 22.5 12.75 22.1642 12.75 21.75V20.25C12.75 19.8358 12.4142 19.5 12 19.5Z" />
<path d="M1.5 12C1.5 11.5858 1.83579 11.25 2.25 11.25H3.75C4.16421 11.25 4.5 11.5858 4.5 12C4.5 12.4142 4.16421 12.75 3.75 12.75H2.25C1.83579 12.75 1.5 12.4142 1.5 12Z" />
<path d="M20.25 11.25C19.8358 11.25 19.5 11.5858 19.5 12C19.5 12.4142 19.8358 12.75 20.25 12.75H21.75C22.1642 12.75 22.5 12.4142 22.5 12C22.5 11.5858 22.1642 11.25 21.75 11.25H20.25Z" />
<path d="M4.57538 19.4246C4.28249 19.1317 4.28249 18.6569 4.57538 18.364L5.63604 17.3033C5.92893 17.0104 6.40381 17.0104 6.6967 17.3033C6.98959 17.5962 6.98959 18.0711 6.6967 18.364L5.63604 19.4246C5.34315 19.7175 4.86827 19.7175 4.57538 19.4246Z" />
<path d="M17.3033 5.63604C17.0104 5.92893 17.0104 6.40381 17.3033 6.6967C17.5962 6.98959 18.0711 6.98959 18.364 6.6967L19.4246 5.63604C19.7175 5.34315 19.7175 4.86827 19.4246 4.57538C19.1317 4.28249 18.6569 4.28249 18.364 4.57538L17.3033 5.63604Z" />
<path d="M4.57538 4.57538C4.28249 4.86827 4.28249 5.34315 4.57538 5.63604L5.63604 6.6967C5.92893 6.98959 6.40381 6.98959 6.6967 6.6967C6.98959 6.40381 6.98959 5.92893 6.6967 5.63604L5.63604 4.57538C5.34315 4.28249 4.86827 4.28249 4.57538 4.57538Z" />
<path d="M17.3033 18.364C17.0104 18.0711 17.0104 17.5962 17.3033 17.3033C17.5962 17.0104 18.0711 17.0104 18.364 17.3033L19.4246 18.364C19.7175 18.6569 19.7175 19.1317 19.4246 19.4246C19.1317 19.7175 18.6569 19.7175 18.364 19.4246L17.3033 18.364Z" />
</svg>
