<svg width="24" height="24" viewBox="0 0 24 24" xmlns="http://www.w3.org/2000/svg">
<path d="M13.7197 2.46967C14.0126 2.17678 14.4874 2.17678 14.7803 2.46967L19.2803 6.96967C19.5732 7.26256 19.5732 7.73744 19.2803 8.03033L14.7803 12.5303C14.4874 12.8232 14.0126 12.8232 13.7197 12.5303C13.4268 12.2374 13.4268 11.7626 13.7197 11.4697L16.9393 8.25H5.25C4.83579 8.25 4.5 7.91421 4.5 7.5C4.5 7.08579 4.83579 6.75 5.25 6.75H16.9393L13.7197 3.53033C13.4268 3.23744 13.4268 2.76256 13.7197 2.46967Z" />
<path d="M7.06066 17.25L10.2803 20.4697C10.5732 20.7626 10.5732 21.2374 10.2803 21.5303C9.98744 21.8232 9.51256 21.8232 9.21967 21.5303L4.71967 17.0303C4.42678 16.7374 4.42678 16.2626 4.71967 15.9697L9.21967 11.4697C9.51256 11.1768 9.98744 11.1768 10.2803 11.4697C10.5732 11.7626 10.5732 12.2374 10.2803 12.5303L7.06066 15.75H18.75C19.1642 15.75 19.5 16.0858 19.5 16.5C19.5 16.9142 19.1642 17.25 18.75 17.25H7.06066Z" />
</svg>
