<svg viewBox="0 0 16 16" xmlns="http://www.w3.org/2000/svg">
<path fill-rule="evenodd" clip-rule="evenodd" d="M9.5 1C9.77614 1 10 1.22386 10 1.5V5.29289L14.1464 1.14645C14.3417 0.951184 14.6583 0.951184 14.8536 1.14645C15.0488 1.34171 15.0488 1.65829 14.8536 1.85355L10.7071 6H14.5C14.7761 6 15 6.22386 15 6.5C15 6.77614 14.7761 7 14.5 7H9.5C9.22386 7 9 6.77614 9 6.5V1.5C9 1.22386 9.22386 1 9.5 1ZM1.5 10C1.22386 10 1 9.77614 1 9.5C1 9.22386 1.22386 9 1.5 9H6.5C6.77614 9 7 9.22386 7 9.5V14.5C7 14.7761 6.77614 15 6.5 15C6.22386 15 6 14.7761 6 14.5V10.7071L1.85355 14.8536C1.65829 15.0488 1.34171 15.0488 1.14645 14.8536C0.951184 14.6583 0.951184 14.3417 1.14645 14.1464L5.29289 10H1.5Z"/>
</svg>
