<svg viewBox="0 0 24 24" xmlns="http://www.w3.org/2000/svg">
<path fill-rule="evenodd" clip-rule="evenodd" d="M13.75 2C14.1642 2 14.5 2.33579 14.5 2.75V8.43934L20.7197 2.21967C21.0126 1.92678 21.4874 1.92678 21.7803 2.21967C22.0732 2.51256 22.0732 2.98744 21.7803 3.28033L15.5607 9.5H21.25C21.6642 9.5 22 9.83579 22 10.25C22 10.6642 21.6642 11 21.25 11H13.75C13.3358 11 13 10.6642 13 10.25V2.75C13 2.33579 13.3358 2 13.75 2ZM2.75 14.5C2.33579 14.5 2 14.1642 2 13.75C2 13.3358 2.33579 13 2.75 13H10.25C10.6642 13 11 13.3358 11 13.75V21.25C11 21.6642 10.6642 22 10.25 22C9.83579 22 9.5 21.6642 9.5 21.25V15.5607L3.28033 21.7803C2.98744 22.0732 2.51256 22.0732 2.21967 21.7803C1.92678 21.4874 1.92678 21.0126 2.21967 20.7197L8.43934 14.5H2.75Z"/>
</svg>
