<svg width="32" height="32" viewBox="0 0 32 32" fill="none" xmlns="http://www.w3.org/2000/svg">
<path fill-rule="evenodd" clip-rule="evenodd" d="M8 2C6.34315 2 5 3.34315 5 5V27C5 28.6569 6.34315 30 8 30H17.3427C16.638 29.4298 16.0211 28.7553 15.5155 28H8C7.44772 28 7 27.5523 7 27V5C7 4.44772 7.44772 4 8 4H17V9C17 10.6569 18.3431 12 20 12H25V14.223C25.7013 14.3822 26.3715 14.6232 27 14.9355V11V10.8284C27 10.0328 26.6839 9.26972 26.1213 8.70711L20.2929 2.87868C19.7303 2.31607 18.9672 2 18.1716 2H18H8ZM24.5858 10H20C19.4477 10 19 9.55228 19 9V4.41421L24.5858 10ZM17.7375 29.0256L17.9161 27.0442C17.9938 26.1827 17.5089 25.3689 16.7143 25.0273L15.1114 24.338C15.0381 23.9029 15 23.4559 15 23C15 22.5441 15.0381 22.0972 15.1114 21.6621L16.7143 20.9728C17.5089 20.6311 17.9938 19.8174 17.9161 18.9559L17.7375 16.9744C18.3193 16.4659 18.9754 16.0403 19.6874 15.7159L21.935 17.13C22.5859 17.5395 23.4141 17.5395 24.065 17.13L26.3126 15.7159C27.0246 16.0403 27.6807 16.4659 28.2625 16.9744L28.0839 18.9559C28.0062 19.8174 28.4911 20.6311 29.2857 20.9728L30.8886 21.6621C30.9619 22.0972 31 22.5441 31 23C31 23.4559 30.9619 23.9029 30.8886 24.338L29.2857 25.0273C28.4911 25.3689 28.0062 26.1827 28.0839 27.0442L28.2625 29.0256C27.6807 29.5342 27.0246 29.9598 26.3126 30.2841L24.065 28.8701C23.4141 28.4605 22.5859 28.4605 21.935 28.8701L19.6874 30.2841C18.9754 29.9598 18.3193 29.5342 17.7375 29.0256ZM23 25C24.1046 25 25 24.1046 25 23C25 21.8954 24.1046 21 23 21C21.8954 21 21 21.8954 21 23C21 24.1046 21.8954 25 23 25Z" fill="#666666"/>
</svg>
