<svg viewBox="0 0 24 24" xmlns="http://www.w3.org/2000/svg">
<path d="M17.1449 4.5H12C11.5858 4.5 11.25 4.83579 11.25 5.25C11.25 5.66421 11.5858 6 12 6H18.0505C17.6323 5.59014 17.3164 5.07616 17.1449 4.5Z" />
<path d="M7.5 3C7.08579 3 6.75 3.33579 6.75 3.75V18.4393L4.28033 15.9697C3.98744 15.6768 3.51256 15.6768 3.21967 15.9697C2.92678 16.2626 2.92678 16.7374 3.21967 17.0303L6.96967 20.7803C7.26256 21.0732 7.73744 21.0732 8.03033 20.7803L11.7803 17.0303C12.0732 16.7374 12.0732 16.2626 11.7803 15.9697C11.4874 15.6768 11.0126 15.6768 10.7197 15.9697L8.25 18.4393V3.75C8.25 3.33579 7.91421 3 7.5 3Z" />
<path d="M11.25 9C11.25 8.58579 11.5858 8.25 12 8.25H18C18.4142 8.25 18.75 8.58579 18.75 9C18.75 9.41421 18.4142 9.75 18 9.75H12C11.5858 9.75 11.25 9.41421 11.25 9Z" />
<path d="M11.25 12.75C11.25 12.3358 11.5858 12 12 12H15.75C16.1642 12 16.5 12.3358 16.5 12.75C16.5 13.1642 16.1642 13.5 15.75 13.5H12C11.5858 13.5 11.25 13.1642 11.25 12.75Z" />
<path d="M23 3.5C23 4.88071 21.8807 6 20.5 6C19.1193 6 18 4.88071 18 3.5C18 2.11929 19.1193 1 20.5 1C21.8807 1 23 2.11929 23 3.5Z" fill="#D9A54C"/>
</svg>
