<svg viewBox="0 0 16 16" xmlns="http://www.w3.org/2000/svg">
<path fill-rule="evenodd" clip-rule="evenodd" d="M8 2C11.3137 2 14 4.68629 14 8C14 11.3137 11.3137 14 8 14C4.68629 14 2 11.3137 2 8C2 4.68629 4.68629 2 8 2ZM8 13C8.2456 13 8.73715 12.7749 9.22689 11.7954C9.41137 11.4265 9.57225 10.9898 9.69879 10.5H6.30121C6.42775 10.9898 6.58863 11.4265 6.77311 11.7954C7.26285 12.7749 7.7544 13 8 13ZM6.10357 9.5H9.89643C9.96324 9.02891 10 8.52588 10 8C10 7.47412 9.96324 6.97109 9.89643 6.5H6.10357C6.03676 6.97109 6 7.47412 6 8C6 8.52588 6.03676 9.02891 6.10357 9.5ZM6.30121 5.5C6.42775 5.01019 6.58863 4.57352 6.77311 4.20457C7.26285 3.22509 7.7544 3 8 3C8.2456 3 8.73715 3.22509 9.22689 4.20457C9.41137 4.57352 9.57225 5.01019 9.69879 5.5H6.30121ZM10.9055 6.5C10.9672 6.97943 11 7.48205 11 8C11 8.51795 10.9672 9.02057 10.9055 9.5H12.7711C12.9198 9.02648 13 8.5226 13 8C13 7.4774 12.9198 6.97352 12.7711 6.5H10.9055ZM12.3311 5.5H10.728C10.5388 4.67556 10.2589 3.95166 9.91388 3.37938C10.9337 3.80227 11.7833 4.55295 12.3311 5.5ZM5.27202 5.5H3.66891C4.21675 4.55295 5.06629 3.80227 6.08612 3.37938C5.7411 3.95166 5.46122 4.67556 5.27202 5.5ZM3.2289 6.5H5.09451C5.03281 6.97943 5 7.48205 5 8C5 8.51795 5.03281 9.02057 5.09451 9.5H3.2289C3.08018 9.02648 3 8.5226 3 8C3 7.4774 3.08018 6.97352 3.2289 6.5ZM9.91388 12.6206C10.2589 12.0483 10.5388 11.3244 10.728 10.5H12.3311C11.7833 11.447 10.9337 12.1977 9.91388 12.6206ZM6.08612 12.6206C5.06629 12.1977 4.21675 11.447 3.66891 10.5H5.27202C5.46122 11.3244 5.7411 12.0483 6.08612 12.6206Z" />
</svg>
