<svg viewBox="0 0 16 16" xmlns="http://www.w3.org/2000/svg">
<path fill-rule="evenodd" clip-rule="evenodd" d="M3.75505 11.898L5.12381 11.6658C5.05439 11.3442 5.01311 11.0121 5.00265 10.6722L4.98237 10.6755L3.89775 10.8595C3.73577 10.6277 3.59306 10.3816 3.47183 10.1236L4.17409 9.27556C4.78684 8.53557 4.78684 7.46443 4.17409 6.72444L3.47183 5.87635C3.59306 5.61841 3.73577 5.37235 3.89775 5.14049L4.98237 5.32446C5.9296 5.48512 6.85723 4.94955 7.19171 4.0489L7.57463 3.01778C7.71469 3.00602 7.85655 3 8 3C8.14344 3 8.28529 3.00601 8.42534 3.01778L8.80827 4.0489C8.9708 4.48655 9.2734 4.838 9.65024 5.06525C9.92721 5.02229 10.211 5 10.5 5C10.9796 5 11.4449 5.06139 11.8884 5.17675L12.1022 5.14049C12.1305 5.18088 12.1581 5.22171 12.1852 5.26296C12.698 5.42786 13.1781 5.66602 13.613 5.96511C13.6135 5.90711 13.6031 5.84875 13.581 5.79287C13.3624 5.2404 13.064 4.72815 12.7002 4.27027C12.592 4.13408 12.4165 4.07291 12.2449 4.102L10.8504 4.33854C10.3768 4.41887 9.91295 4.15109 9.74571 3.70076L9.25304 2.37411C9.19238 2.21077 9.05128 2.08922 8.87888 2.06391C8.59202 2.02181 8.29856 2 8 2C7.70144 2 7.40796 2.02181 7.12109 2.06392C6.9487 2.08922 6.8076 2.21078 6.74694 2.37412L6.25426 3.70076C6.08703 4.15109 5.62321 4.41887 5.1496 4.33854L3.75505 4.10201C3.58355 4.07292 3.40801 4.13408 3.29979 4.27028C2.93597 4.72816 2.63764 5.24042 2.41897 5.79289C2.35492 5.95472 2.38971 6.13745 2.50071 6.2715L3.40387 7.36222C3.71025 7.73222 3.71025 8.26778 3.40387 8.63778L2.50071 9.7285C2.38971 9.86255 2.35492 10.0453 2.41897 10.2071C2.63764 10.7596 2.93597 11.2718 3.29979 11.7297C3.40801 11.8659 3.58355 11.9271 3.75505 11.898ZM6.29349 6.95648C6.4589 6.68655 6.68656 6.45889 6.95649 6.29348C6.71716 6.49529 6.4953 6.71715 6.29349 6.95648ZM15 10.5C15 12.9853 12.9853 15 10.5 15C8.01472 15 6 12.9853 6 10.5C6 8.01472 8.01472 6 10.5 6C12.9853 6 15 8.01472 15 10.5ZM9 8.90212C9 8.50941 9.43198 8.26998 9.765 8.47812L12.3216 10.076C12.6349 10.2718 12.6349 10.7282 12.3216 10.924L9.765 12.5219C9.43198 12.73 9 12.4906 9 12.0979V8.90212Z" />
</svg>
