<svg viewBox="0 0 24 24" xmlns="http://www.w3.org/2000/svg">
<path d="M9.93954 2.2125C9.64929 2.2733 9.41064 2.47415 9.28384 2.74222L8.3959 4.61941C8.21786 4.9958 7.82523 5.22249 7.41025 5.18848L5.34317 5.01907C5.04795 4.99487 4.75501 5.10088 4.5571 5.32128C3.63945 6.34326 2.92922 7.55528 2.49269 8.8911C2.40071 9.17256 2.45543 9.47915 2.62393 9.72263L3.80616 11.4309C4.04311 11.7733 4.04311 12.2267 3.80616 12.5691L2.62393 14.2774C2.45543 14.5209 2.40071 14.8274 2.49269 15.1089C2.92922 16.4447 3.63945 17.6567 4.5571 18.6787C4.75501 18.8991 5.04795 19.0051 5.34317 18.9809L7.41025 18.8115C7.82523 18.7775 8.21786 19.0042 8.3959 19.3806L9.28384 21.2578C9.41064 21.5259 9.64929 21.7267 9.93953 21.7875C10.6045 21.9268 11.2937 22 12 22C12.2628 22 12.5232 21.9899 12.781 21.97C12.3659 21.5319 12.0111 21.0361 11.7301 20.4958C11.3196 20.483 10.9172 20.4413 10.5245 20.3726L9.75186 18.7392C9.30677 17.7982 8.32519 17.2315 7.28773 17.3165L5.48855 17.464C4.85628 16.7114 4.35271 15.8487 4.01059 14.9096L5.0396 13.4227C5.63196 12.5667 5.63196 11.4333 5.0396 10.5773L4.01059 9.09043C4.35271 8.15131 4.85628 7.28855 5.48855 6.53601L7.28773 6.68346C8.32518 6.76849 9.30676 6.20177 9.75186 5.2608L10.5245 3.62735C11.0029 3.54373 11.4958 3.5 12 3.5C12.5041 3.5 12.9971 3.54373 13.4755 3.62735L14.2481 5.26079C14.6932 6.20177 15.6748 6.76849 16.7122 6.68346L18.5114 6.53601C19.1437 7.28855 19.6473 8.1513 19.9894 9.09042L18.9604 10.5773C18.8446 10.7447 18.7514 10.9226 18.6809 11.107C19.1841 11.1994 19.6671 11.3497 20.1226 11.5508C20.1433 11.5096 20.1671 11.4696 20.1938 11.4309L21.376 9.72263C21.5445 9.47914 21.5993 9.17255 21.5073 8.89109C21.0708 7.55528 20.3605 6.34326 19.4429 5.32128C19.245 5.10088 18.952 4.99487 18.6568 5.01907L16.5897 5.18848C16.1747 5.22249 15.7821 4.9958 15.6041 4.61941L14.7161 2.74222C14.5893 2.47415 14.3507 2.2733 14.0604 2.2125C13.3955 2.07323 12.7063 2 12 2C11.2937 2 10.6045 2.07323 9.93954 2.2125Z" />
<path d="M12 8.25C13.8175 8.25 15.333 9.54292 15.6769 11.2592C15.1719 11.4064 14.6924 11.6133 14.2464 11.8717C14.1799 10.6887 13.1996 9.75 12 9.75C10.7574 9.75 9.75003 10.7574 9.75003 12C9.75003 13.1996 10.6888 14.1799 11.8717 14.2464C11.6133 14.6924 11.4065 15.1719 11.2592 15.6768C9.54295 15.3329 8.25003 13.8175 8.25003 12C8.25003 9.92893 9.92897 8.25 12 8.25Z" />
<path fill-rule="evenodd" clip-rule="evenodd" d="M23 17.5C23 20.5376 20.5376 23 17.5 23C14.4624 23 12 20.5376 12 17.5C12 14.4624 14.4624 12 17.5 12C20.5376 12 23 14.4624 23 17.5ZM16 15.8498C16 15.4685 16.4096 15.2275 16.7428 15.4127L19.7133 17.0629C20.0562 17.2534 20.0562 17.7466 19.7133 17.9371L16.7428 19.5873C16.4096 19.7725 16 19.5315 16 19.1502V15.8498Z" />
</svg>
