<svg width="32" height="32" viewBox="0 0 32 32" fill="none" xmlns="http://www.w3.org/2000/svg">
<path fill-rule="evenodd" clip-rule="evenodd" d="M16.9588 4.93477C16.0697 4.44983 14.9903 4.472 14.1219 4.99304C12.2867 6.09416 10.8524 7.75414 10.0293 9.7297L9.925 9.97999C9.31438 11.4455 9 13.0174 9 14.605V23C9 23.5523 9.44772 24 10 24H14.0549C14.1316 24.6935 14.287 25.3632 14.5121 26H11V27.5C11 27.7761 11.2239 28 11.5 28H15.5155C16.0211 28.7553 16.638 29.4298 17.3427 30H11.5C10.1193 30 9 28.8807 9 27.5V25.8293C8.14759 25.528 7.47199 24.8524 7.17071 24H4.5C3.67157 24 3 23.3284 3 22.5V17C3 14.4993 4.83575 12.4274 7.23313 12.0584C7.413 11.0843 7.696 10.1296 8.07885 9.21076L8.18314 8.96047C9.17064 6.59045 10.8913 4.59903 13.0929 3.27805C14.5695 2.39212 16.4048 2.35443 17.9165 3.17898L18.2572 3.36486C20.5339 4.60666 22.3758 6.51556 23.5356 8.83505C24.0469 9.85765 24.428 10.936 24.6731 12.0449C26.8673 12.3402 28.6104 14.0587 28.9427 16.2409C27.912 15.3339 26.6721 14.659 25.3047 14.2978C25.1973 14.2458 25.0863 14.2001 24.9722 14.161L24.9757 14.2175C24.3399 14.0751 23.6787 14 23 14L22.9545 14.0001C22.8242 12.5164 22.4156 11.0672 21.7467 9.72948C20.7696 7.77523 19.2177 6.16691 17.2995 5.12065L16.9588 4.93477ZM7 14.605V22H5V17C5 15.6912 5.83806 14.5782 7.0068 14.1683C7.00227 14.3137 7 14.4593 7 14.605Z" fill="#666666"/>
<path fill-rule="evenodd" clip-rule="evenodd" d="M16.3017 16.9888C17.2153 15.9715 18.3573 15.1634 19.647 14.6453C19.8738 14.1435 20 13.5865 20 13C20 10.7909 18.2091 9 16 9C13.7909 9 12 10.7909 12 13C12 15.2091 13.7909 17 16 17C16.1015 17 16.2021 16.9962 16.3017 16.9888ZM16 15C17.1046 15 18 14.1046 18 13C18 11.8954 17.1046 11 16 11C14.8954 11 14 11.8954 14 13C14 14.1046 14.8954 15 16 15Z" fill="#666666"/>
<path fill-rule="evenodd" clip-rule="evenodd" d="M17.7375 29.0256L17.9161 27.0442C17.9938 26.1827 17.5089 25.3689 16.7143 25.0273L15.1114 24.338C15.0381 23.9029 15 23.4559 15 23C15 22.5441 15.0381 22.0972 15.1114 21.6621L16.7143 20.9728C17.5089 20.6311 17.9938 19.8174 17.9161 18.9559L17.7375 16.9744C18.3193 16.4659 18.9754 16.0403 19.6874 15.7159L21.935 17.13C22.5859 17.5395 23.4141 17.5395 24.065 17.13L26.3126 15.7159C27.0246 16.0403 27.6807 16.4659 28.2625 16.9744L28.0839 18.9559C28.0062 19.8174 28.4911 20.6311 29.2857 20.9728L30.8886 21.6621C30.9619 22.0972 31 22.5441 31 23C31 23.4559 30.9619 23.9029 30.8886 24.338L29.2857 25.0273C28.4911 25.3689 28.0062 26.1827 28.0839 27.0442L28.2625 29.0256C27.6807 29.5342 27.0246 29.9598 26.3126 30.2841L24.065 28.8701C23.4141 28.4605 22.5859 28.4605 21.935 28.8701L19.6874 30.2841C18.9754 29.9598 18.3193 29.5342 17.7375 29.0256ZM23 25C24.1046 25 25 24.1046 25 23C25 21.8954 24.1046 21 23 21C21.8954 21 21 21.8954 21 23C21 24.1046 21.8954 25 23 25Z" fill="#666666"/>
</svg>
