<svg viewBox="0 0 20 20" xmlns="http://www.w3.org/2000/svg">
<path d="M6 7C6 5.89543 6.89543 5 8 5H8.5C8.77614 5 9 5.22386 9 5.5C9 5.77614 8.77614 6 8.5 6H8C7.44772 6 7 6.44772 7 7V8.22383C7 8.67797 6.84544 9.11859 6.56174 9.47322L6.14031 10L6.56174 10.5268C6.84544 10.8814 7 11.322 7 11.7762V13C7 13.5523 7.44772 14 8 14H8.5C8.77614 14 9 14.2239 9 14.5C9 14.7761 8.77614 15 8.5 15H8C6.89543 15 6 14.1046 6 13V11.7762C6 11.5491 5.92272 11.3288 5.78087 11.1515L5.10957 10.3123C4.96348 10.1297 4.96348 9.87026 5.10957 9.68765L5.78087 8.84852C5.92272 8.67121 6 8.4509 6 8.22383V7Z"/>
<path d="M11 5.5C11 5.22386 11.2239 5 11.5 5H12C13.1046 5 14 5.89543 14 7V8.22383C14 8.4509 14.0773 8.67121 14.2191 8.84852L14.8904 9.68765C15.0365 9.87026 15.0365 10.1297 14.8904 10.3123L14.2191 11.1515C14.0773 11.3288 14 11.5491 14 11.7762V13C14 14.1046 13.1046 15 12 15H11.5C11.2239 15 11 14.7761 11 14.5C11 14.2239 11.2239 14 11.5 14H12C12.5523 14 13 13.5523 13 13V11.7762C13 11.322 13.1546 10.8814 13.4383 10.5268L13.8597 10L13.4383 9.47322C13.1546 9.11859 13 8.67797 13 8.22383V7C13 6.44772 12.5523 6 12 6H11.5C11.2239 6 11 5.77614 11 5.5Z"/>
<path d="M10 11C10.2761 11 10.5 10.7761 10.5 10.5V7.5C10.5 7.22386 10.2761 7 10 7C9.72386 7 9.5 7.22386 9.5 7.5V10.5C9.5 10.7761 9.72386 11 10 11Z"/>
<path d="M10 11.75C10.4142 11.75 10.75 12.0858 10.75 12.5C10.75 12.9142 10.4142 13.25 10 13.25C9.58579 13.25 9.25 12.9142 9.25 12.5C9.25 12.0858 9.58579 11.75 10 11.75Z"/>
<path fill-rule="evenodd" clip-rule="evenodd" d="M3 6C3 4.34315 4.34315 3 6 3H14C15.6569 3 17 4.34315 17 6V14C17 15.6569 15.6569 17 14 17H6C4.34315 17 3 15.6569 3 14V6ZM6 4C4.89543 4 4 4.89543 4 6V14C4 15.1046 4.89543 16 6 16H14C15.1046 16 16 15.1046 16 14V6C16 4.89543 15.1046 4 14 4H6Z"/>
</svg>
