<svg viewBox="0 0 32 32" xmlns="http://www.w3.org/2000/svg">
<path d="M9 10C9 8.34315 10.3431 7 12 7H13C13.5523 7 14 7.44772 14 8C14 8.55228 13.5523 9 13 9H12C11.4477 9 11 9.44772 11 10V13.1716C11 13.9672 10.6839 14.7303 10.1213 15.2929L9.41421 16L10.1213 16.7071C10.6839 17.2697 11 18.0328 11 18.8284V22C11 22.5523 11.4477 23 12 23H13C13.5523 23 14 23.4477 14 24C14 24.5523 13.5523 25 13 25H12C10.3431 25 9 23.6569 9 22V18.8284C9 18.5632 8.89464 18.3089 8.70711 18.1213L7.29289 16.7071C6.90237 16.3166 6.90237 15.6834 7.29289 15.2929L8.70711 13.8787C8.89464 13.6911 9 13.4368 9 13.1716V10Z"/>
<path d="M20 9H19C18.4477 9 18 8.55228 18 8C18 7.44772 18.4477 7 19 7H20C21.6569 7 23 8.34315 23 10V13.1716C23 13.4368 23.1054 13.6911 23.2929 13.8787L24.7071 15.2929C24.8946 15.4804 25 15.7348 25 16C25 16.2652 24.8946 16.5196 24.7071 16.7071L23.2929 18.1213C23.1054 18.3089 23 18.5632 23 18.8284V22C23 23.6569 21.6569 25 20 25H19C18.4477 25 18 24.5523 18 24C18 23.4477 18.4477 23 19 23H20C20.5523 23 21 22.5523 21 22V18.8284C21 18.0328 21.3161 17.2697 21.8787 16.7071L22.5858 16L21.8787 15.2929C21.3161 14.7303 21 13.9672 21 13.1716V10C21 9.44772 20.5523 9 20 9Z"/>
<path d="M16 16C16.5523 16 17 15.5523 17 15V11C17 10.4477 16.5523 10 16 10C15.4477 10 15 10.4477 15 11V15C15 15.5523 15.4477 16 16 16Z"/>
<path d="M16 18.1699C16.9665 18.1699 17.75 18.9534 17.75 19.9199C17.75 20.8864 16.9665 21.6699 16 21.6699C15.0335 21.6699 14.25 20.8864 14.25 19.9199C14.25 18.9534 15.0335 18.1699 16 18.1699Z"/>
<path fill-rule="evenodd" clip-rule="evenodd" d="M3 7.5C3 5.01472 5.01472 3 7.5 3H24.5C26.9853 3 29 5.01472 29 7.5V24.5C29 26.9853 26.9853 29 24.5 29H7.5C5.01472 29 3 26.9853 3 24.5V7.5ZM7.5 5C6.11929 5 5 6.11929 5 7.5V24.5C5 25.8807 6.11929 27 7.5 27H24.5C25.8807 27 27 25.8807 27 24.5V7.5C27 6.11929 25.8807 5 24.5 5H7.5Z"/>
</svg>
