<svg viewBox="0 0 24 24" xmlns="http://www.w3.org/2000/svg">
<path d="M6 8.25C6 7.83579 6.33579 7.5 6.75 7.5H17.25C17.6642 7.5 18 7.83579 18 8.25C18 8.66421 17.6642 9 17.25 9H6.75C6.33579 9 6 8.66421 6 8.25Z" />
<path d="M6.75 11.25C6.33579 11.25 6 11.5858 6 12C6 12.4142 6.33579 12.75 6.75 12.75H12C12.4142 12.75 12.75 12.4142 12.75 12C12.75 11.5858 12.4142 11.25 12 11.25H6.75Z" />
<path fill-rule="evenodd" clip-rule="evenodd" d="M1.5 6C1.5 3.92893 3.17893 2.25 5.25 2.25H18.75C20.8211 2.25 22.5 3.92893 22.5 6V14.25C22.5 16.3211 20.8211 18 18.75 18H13L8.4 21.45C7.41115 22.1916 6 21.4861 6 20.25V18H5.25C3.17893 18 1.5 16.3211 1.5 14.25V6ZM5.25 3.75C4.00736 3.75 3 4.75736 3 6V14.25C3 15.4926 4.00736 16.5 5.25 16.5H7.5V20.25L12.5 16.5H18.75C19.9926 16.5 21 15.4926 21 14.25V6C21 4.75736 19.9926 3.75 18.75 3.75H5.25Z" />
</svg>
