<svg viewBox="0 0 24 24" xmlns="http://www.w3.org/2000/svg">
<path fill-rule="evenodd" clip-rule="evenodd" d="M12 8.25C9.92893 8.25 8.25 9.92893 8.25 12C8.25 14.0711 9.92893 15.75 12 15.75C14.0711 15.75 15.75 14.0711 15.75 12C15.75 9.92893 14.0711 8.25 12 8.25ZM6.75 12C6.75 9.1005 9.1005 6.75 12 6.75C14.8995 6.75 17.25 9.1005 17.25 12C17.25 14.8995 14.8995 17.25 12 17.25C9.1005 17.25 6.75 14.8995 6.75 12Z" />
<path fill-rule="evenodd" clip-rule="evenodd" d="M18.0728 6.26588C18.3402 6.58224 18.3005 7.05545 17.9841 7.32282L15.6233 9.31805C15.307 9.58542 14.8337 9.54571 14.5664 9.22934C14.299 8.91298 14.3387 8.43977 14.6551 8.1724L17.0159 6.17718C17.3322 5.9098 17.8055 5.94952 18.0728 6.26588ZM5.95324 6.23663C6.23676 5.93466 6.7114 5.91971 7.01337 6.20324L9.13837 8.19846C9.44034 8.48199 9.45529 8.95663 9.17176 9.2586C8.88824 9.56056 8.4136 9.57551 8.11163 9.29199L5.98663 7.29676C5.68466 7.01324 5.66971 6.5386 5.95324 6.23663ZM14.5639 14.7943C14.8296 14.4765 15.3026 14.4344 15.6204 14.7001L17.9812 16.6747C18.2989 16.9404 18.341 17.4134 18.0753 17.7312C17.8096 18.0489 17.3366 18.091 17.0188 17.8253L14.658 15.8507C14.3403 15.585 14.2982 15.112 14.5639 14.7943ZM9.17442 14.7649C9.45638 15.0684 9.43896 15.5429 9.13552 15.8249L7.01052 17.7994C6.70709 18.0814 6.23253 18.064 5.95058 17.7605C5.66862 17.4571 5.68604 16.9825 5.98947 16.7006L8.11447 14.726C8.41791 14.4441 8.89247 14.4615 9.17442 14.7649Z" />
<path fill-rule="evenodd" clip-rule="evenodd" d="M19 3.5C18.1716 3.5 17.5 4.17157 17.5 5C17.5 5.82843 18.1716 6.5 19 6.5C19.8284 6.5 20.5 5.82843 20.5 5C20.5 4.17157 19.8284 3.5 19 3.5ZM16 5C16 3.34315 17.3431 2 19 2C20.6569 2 22 3.34315 22 5C22 6.65685 20.6569 8 19 8C17.3431 8 16 6.65685 16 5Z" />
<path fill-rule="evenodd" clip-rule="evenodd" d="M5 3.5C4.17157 3.5 3.5 4.17157 3.5 5C3.5 5.82843 4.17157 6.5 5 6.5C5.82843 6.5 6.5 5.82843 6.5 5C6.5 4.17157 5.82843 3.5 5 3.5ZM2 5C2 3.34315 3.34315 2 5 2C6.65685 2 8 3.34315 8 5C8 6.65685 6.65685 8 5 8C3.34315 8 2 6.65685 2 5Z" />
<path fill-rule="evenodd" clip-rule="evenodd" d="M5 17.5C4.17157 17.5 3.5 18.1716 3.5 19C3.5 19.8284 4.17157 20.5 5 20.5C5.82843 20.5 6.5 19.8284 6.5 19C6.5 18.1716 5.82843 17.5 5 17.5ZM2 19C2 17.3431 3.34315 16 5 16C6.65685 16 8 17.3431 8 19C8 20.6569 6.65685 22 5 22C3.34315 22 2 20.6569 2 19Z" />
<path fill-rule="evenodd" clip-rule="evenodd" d="M19 17.5C18.1716 17.5 17.5 18.1716 17.5 19C17.5 19.8284 18.1716 20.5 19 20.5C19.8284 20.5 20.5 19.8284 20.5 19C20.5 18.1716 19.8284 17.5 19 17.5ZM16 19C16 17.3431 17.3431 16 19 16C20.6569 16 22 17.3431 22 19C22 20.6569 20.6569 22 19 22C17.3431 22 16 20.6569 16 19Z" />
</svg>
