<svg viewBox="0 0 16 16" xmlns="http://www.w3.org/2000/svg">
  <path fill-rule="evenodd" clip-rule="evenodd" d="M8 5.5C6.61929 5.5 5.5 6.61929 5.5 8C5.5 9.38071 6.61929 10.5 8 10.5C9.38071 10.5 10.5 9.38071 10.5 8C10.5 6.61929 9.38071 5.5 8 5.5ZM4.5 8C4.5 6.067 6.067 4.5 8 4.5C9.933 4.5 11.5 6.067 11.5 8C11.5 9.933 9.933 11.5 8 11.5C6.067 11.5 4.5 9.933 4.5 8Z"/>
  <path fill-rule="evenodd" clip-rule="evenodd" d="M3.87037 3.92463C4.05008 3.71497 4.36573 3.69069 4.57539 3.8704L6.32539 5.3704C6.53505 5.55011 6.55934 5.86576 6.37962 6.07542C6.19991 6.28509 5.88426 6.30937 5.6746 6.12965L3.9246 4.62965C3.71494 4.44994 3.69066 4.13429 3.87037 3.92463ZM12.1296 3.92463C12.3093 4.13429 12.2851 4.44994 12.0754 4.62965L10.3254 6.12965C10.1157 6.30937 9.80008 6.28509 9.62037 6.07542C9.44066 5.86576 9.46494 5.55011 9.6746 5.3704L11.4246 3.8704C11.6343 3.69069 11.9499 3.71497 12.1296 3.92463ZM6.37962 10.1746C6.55934 10.3843 6.53505 10.6999 6.32539 10.8797L4.57539 12.3797C4.36573 12.5594 4.05008 12.5351 3.87037 12.3254C3.69066 12.1158 3.71494 11.8001 3.9246 11.6204L5.6746 10.1204C5.88426 9.94069 6.19991 9.96497 6.37962 10.1746ZM9.62037 10.1746C9.80008 9.96497 10.1157 9.94069 10.3254 10.1204L12.0754 11.6204C12.2851 11.8001 12.3093 12.1158 12.1296 12.3254C11.9499 12.5351 11.6343 12.5594 11.4246 12.3797L9.6746 10.8797C9.46494 10.6999 9.44066 10.3843 9.62037 10.1746Z"/>
  <path fill-rule="evenodd" clip-rule="evenodd" d="M13 2C12.4477 2 12 2.44772 12 3C12 3.55228 12.4477 4 13 4C13.5523 4 14 3.55228 14 3C14 2.44772 13.5523 2 13 2ZM11 3C11 1.89543 11.8954 1 13 1C14.1046 1 15 1.89543 15 3C15 4.10457 14.1046 5 13 5C11.8954 5 11 4.10457 11 3Z"/>
  <path fill-rule="evenodd" clip-rule="evenodd" d="M3 2C2.44772 2 2 2.44772 2 3C2 3.55228 2.44772 4 3 4C3.55228 4 4 3.55228 4 3C4 2.44772 3.55228 2 3 2ZM1 3C1 1.89543 1.89543 1 3 1C4.10457 1 5 1.89543 5 3C5 4.10457 4.10457 5 3 5C1.89543 5 1 4.10457 1 3Z"/>
  <path fill-rule="evenodd" clip-rule="evenodd" d="M3 12C2.44772 12 2 12.4477 2 13C2 13.5523 2.44772 14 3 14C3.55228 14 4 13.5523 4 13C4 12.4477 3.55228 12 3 12ZM1 13C1 11.8954 1.89543 11 3 11C4.10457 11 5 11.8954 5 13C5 14.1046 4.10457 15 3 15C1.89543 15 1 14.1046 1 13Z"/>
  <path fill-rule="evenodd" clip-rule="evenodd" d="M13 12C12.4477 12 12 12.4477 12 13C12 13.5523 12.4477 14 13 14C13.5523 14 14 13.5523 14 13C14 12.4477 13.5523 12 13 12ZM11 13C11 11.8954 11.8954 11 13 11C14.1046 11 15 11.8954 15 13C15 14.1046 14.1046 15 13 15C11.8954 15 11 14.1046 11 13Z"/>
</svg>
