<svg viewBox="0 0 32 32" xmlns="http://www.w3.org/2000/svg">
  <path fill-rule="evenodd" clip-rule="evenodd" d="M16 11C13.2386 11 11 13.2386 11 16C11 18.7614 13.2386 21 16 21C18.7614 21 21 18.7614 21 16C21 13.2386 18.7614 11 16 11ZM9 16C9 12.134 12.134 9 16 9C19.866 9 23 12.134 23 16C23 19.866 19.866 23 16 23C12.134 23 9 19.866 9 16Z"/>
  <path fill-rule="evenodd" clip-rule="evenodd" d="M7.26721 7.56955C7.64301 7.16484 8.27574 7.1414 8.68045 7.51721L12.1805 10.7672C12.5852 11.143 12.6086 11.7757 12.2328 12.1805C11.857 12.5852 11.2243 12.6086 10.8195 12.2328L7.31955 8.98279C6.91484 8.60699 6.8914 7.97426 7.26721 7.56955ZM24.7328 7.56955C25.1086 7.97426 25.0852 8.60699 24.6805 8.98279L21.1805 12.2328C20.7757 12.6086 20.143 12.5852 19.7672 12.1805C19.3914 11.7757 19.4148 11.143 19.8195 10.7672L23.3195 7.51721C23.7243 7.1414 24.357 7.16484 24.7328 7.56955ZM12.2593 19.8492C12.6187 20.2685 12.5701 20.8998 12.1508 21.2593L8.65079 24.2593C8.23147 24.6187 7.60017 24.5701 7.24074 24.1508C6.88132 23.7315 6.92988 23.1002 7.34921 22.7407L10.8492 19.7407C11.2685 19.3813 11.8998 19.4299 12.2593 19.8492ZM19.7407 19.8492C20.1002 19.4299 20.7315 19.3813 21.1508 19.7407L24.6508 22.7407C25.0701 23.1002 25.1187 23.7315 24.7593 24.1508C24.3998 24.5701 23.7685 24.6187 23.3492 24.2593L19.8492 21.2593C19.4299 20.8998 19.3813 20.2685 19.7407 19.8492Z"/>
  <path fill-rule="evenodd" clip-rule="evenodd" d="M26 4C24.8954 4 24 4.89543 24 6C24 7.10457 24.8954 8 26 8C27.1046 8 28 7.10457 28 6C28 4.89543 27.1046 4 26 4ZM22 6C22 3.79086 23.7909 2 26 2C28.2091 2 30 3.79086 30 6C30 8.20914 28.2091 10 26 10C23.7909 10 22 8.20914 22 6Z"/>
  <path fill-rule="evenodd" clip-rule="evenodd" d="M6 4C4.89543 4 4 4.89543 4 6C4 7.10457 4.89543 8 6 8C7.10457 8 8 7.10457 8 6C8 4.89543 7.10457 4 6 4ZM2 6C2 3.79086 3.79086 2 6 2C8.20914 2 10 3.79086 10 6C10 8.20914 8.20914 10 6 10C3.79086 10 2 8.20914 2 6Z"/>
  <path fill-rule="evenodd" clip-rule="evenodd" d="M6 24C4.89543 24 4 24.8954 4 26C4 27.1046 4.89543 28 6 28C7.10457 28 8 27.1046 8 26C8 24.8954 7.10457 24 6 24ZM2 26C2 23.7909 3.79086 22 6 22C8.20914 22 10 23.7909 10 26C10 28.2091 8.20914 30 6 30C3.79086 30 2 28.2091 2 26Z"/>
  <path fill-rule="evenodd" clip-rule="evenodd" d="M26 24C24.8954 24 24 24.8954 24 26C24 27.1046 24.8954 28 26 28C27.1046 28 28 27.1046 28 26C28 24.8954 27.1046 24 26 24ZM22 26C22 23.7909 23.7909 22 26 22C28.2091 22 30 23.7909 30 26C30 28.2091 28.2091 30 26 30C23.7909 30 22 28.2091 22 26Z"/>
</svg>
