<svg viewBox="0 0 24 24" xmlns="http://www.w3.org/2000/svg">
<path d="M11.6907 7.45777C11.5767 7.18824 11.3163 7.00965 11.0238 7.00038C10.7313 6.9911 10.4601 7.15282 10.3292 7.41459L8.78647 10.5H7.75C7.33579 10.5 7 10.8358 7 11.25C7 11.6642 7.33579 12 7.75 12H9.25C9.53408 12 9.79378 11.8395 9.92082 11.5854L10.9432 9.54063L13.0593 14.5422C13.1699 14.8037 13.4187 14.9803 13.7021 14.9985C13.9855 15.0166 14.2548 14.8732 14.3978 14.6279L15.9308 12H16.75C17.1642 12 17.5 11.6642 17.5 11.25C17.5 10.8358 17.1642 10.5 16.75 10.5H15.5C15.2332 10.5 14.9866 10.6417 14.8522 10.8721L13.857 12.5781L11.6907 7.45777Z"/>
<path fill-rule="evenodd" clip-rule="evenodd" d="M7.25 2C5.45507 2 4 3.45507 4 5.25V18.75C4 20.5449 5.45507 22 7.25 22H19.25C19.6642 22 20 21.6642 20 21.25C20 20.8358 19.6642 20.5 19.25 20.5H7.25C6.5519 20.5 5.94927 20.0912 5.66841 19.5H18.25C19.2165 19.5 20 18.7165 20 17.75V5.25C20 3.45507 18.5449 2 16.75 2H7.25ZM18.25 18H5.5V5.25C5.5 4.2835 6.2835 3.5 7.25 3.5H16.75C17.7165 3.5 18.5 4.2835 18.5 5.25V17.75C18.5 17.8881 18.3881 18 18.25 18Z"/>
</svg>
