<svg viewBox="0 0 32 32" xmlns="http://www.w3.org/2000/svg">
<path fill-rule="evenodd" clip-rule="evenodd" d="M16 17C18.2091 17 20 15.2091 20 13C20 10.7909 18.2091 9 16 9C13.7909 9 12 10.7909 12 13C12 15.2091 13.7909 17 16 17ZM16 15C17.1046 15 18 14.1046 18 13C18 11.8954 17.1046 11 16 11C14.8954 11 14 11.8954 14 13C14 14.1046 14.8954 15 16 15Z" />
<path fill-rule="evenodd" clip-rule="evenodd" d="M23 25.8293C23.8524 25.528 24.528 24.8524 24.8293 24H27.5C28.3284 24 29 23.3284 29 22.5V17C29 14.4668 27.1162 12.3737 24.6731 12.0449C24.428 10.936 24.0469 9.85765 23.5356 8.83505C22.3758 6.51556 20.5339 4.60666 18.2572 3.36486L17.9165 3.17898C16.4048 2.35443 14.5695 2.39212 13.0929 3.27805C10.8913 4.59903 9.17064 6.59045 8.18314 8.96047L8.07885 9.21076C7.696 10.1296 7.413 11.0843 7.23313 12.0584C4.83575 12.4274 3 14.4993 3 17V22.5C3 23.3284 3.67157 24 4.5 24H7.17071C7.47199 24.8524 8.14759 25.528 9 25.8293V27.5C9 28.8807 10.1193 30 11.5 30H20.5C21.8807 30 23 28.8807 23 27.5V25.8293ZM16.9588 4.93477C16.0697 4.44983 14.9903 4.472 14.1219 4.99304C12.2867 6.09416 10.8524 7.75414 10.0293 9.7297L9.925 9.97999C9.31438 11.4455 9 13.0174 9 14.605V23C9 23.5523 9.44772 24 10 24H22C22.5523 24 23 23.5523 23 23V15.0385C23 13.1955 22.5709 11.3779 21.7467 9.72948C20.7696 7.77523 19.2177 6.16691 17.2995 5.12065L16.9588 4.93477ZM21 26H11V27.5C11 27.7761 11.2239 28 11.5 28H20.5C20.7761 28 21 27.7761 21 27.5V26ZM25 22H27V17C27 15.6834 26.1519 14.5649 24.9722 14.161C24.9907 14.4527 25 14.7453 25 15.0385V22ZM7 14.605V22H5V17C5 15.6912 5.83806 14.5782 7.0068 14.1683C7.00227 14.3137 7 14.4593 7 14.605Z" />
</svg>
