<svg viewBox="0 0 24 24" xmlns="http://www.w3.org/2000/svg">
<path fill-rule="evenodd" clip-rule="evenodd" d="M7.55426 17.2185C7.57526 17.2395 7.60226 17.25 7.63526 17.25H8.82776C9.12176 17.25 9.36926 17.2065 9.57026 17.1195C9.77426 17.0295 9.92876 16.893 10.0338 16.71C10.1418 16.527 10.2018 16.296 10.2138 16.017C10.2168 15.888 10.2183 15.774 10.2183 15.675C10.2183 15.576 10.2168 15.4605 10.2138 15.3285C10.2048 15.0615 10.1448 14.838 10.0338 14.658C9.92276 14.475 9.76376 14.337 9.55676 14.244C9.34976 14.148 9.09926 14.1 8.80526 14.1H7.63526C7.60226 14.1 7.57526 14.1105 7.55426 14.1315C7.53326 14.1525 7.52276 14.1795 7.52276 14.2125V17.1375C7.52276 17.1675 7.53326 17.1945 7.55426 17.2185ZM8.80526 16.602H8.33276V14.748H8.78276C8.98076 14.748 9.12926 14.796 9.22826 14.892C9.33026 14.985 9.38426 15.1335 9.39026 15.3375C9.39626 15.4215 9.39926 15.498 9.39926 15.567C9.40226 15.636 9.40226 15.705 9.39926 15.774C9.39926 15.843 9.39626 15.921 9.39026 16.008C9.38726 16.149 9.36326 16.263 9.31826 16.35C9.27626 16.437 9.21176 16.5015 9.12476 16.5435C9.04076 16.5825 8.93426 16.602 8.80526 16.602Z"/>
<path fill-rule="evenodd" clip-rule="evenodd" d="M10.834 16.755C10.948 16.935 11.107 17.07 11.311 17.16C11.515 17.25 11.755 17.295 12.031 17.295C12.307 17.295 12.547 17.25 12.751 17.16C12.955 17.07 13.114 16.935 13.228 16.755C13.345 16.572 13.408 16.344 13.417 16.071C13.423 15.942 13.426 15.813 13.426 15.684C13.426 15.552 13.423 15.4215 13.417 15.2925C13.408 15.0225 13.345 14.796 13.228 14.613C13.111 14.427 12.9505 14.2875 12.7465 14.1945C12.5425 14.1015 12.304 14.055 12.031 14.055C11.761 14.055 11.5225 14.1015 11.3155 14.1945C11.1115 14.2875 10.951 14.427 10.834 14.613C10.72 14.796 10.657 15.0225 10.645 15.2925C10.642 15.4215 10.6405 15.552 10.6405 15.684C10.6405 15.813 10.642 15.942 10.645 16.071C10.657 16.344 10.72 16.572 10.834 16.755ZM12.418 16.503C12.319 16.599 12.19 16.647 12.031 16.647C11.875 16.647 11.746 16.599 11.644 16.503C11.545 16.407 11.491 16.254 11.482 16.044C11.479 15.912 11.4775 15.7875 11.4775 15.6705C11.4775 15.5535 11.479 15.432 11.482 15.306C11.488 15.165 11.515 15.051 11.563 14.964C11.611 14.874 11.6755 14.808 11.7565 14.766C11.8375 14.724 11.929 14.703 12.031 14.703C12.136 14.703 12.229 14.724 12.31 14.766C12.391 14.808 12.454 14.874 12.499 14.964C12.547 15.051 12.574 15.165 12.58 15.306C12.586 15.432 12.589 15.5535 12.589 15.6705C12.589 15.7875 12.586 15.912 12.58 16.044C12.574 16.254 12.52 16.407 12.418 16.503Z"/>
<path d="M14.5101 17.1555C14.7141 17.2485 14.9571 17.295 15.2391 17.295C15.4371 17.295 15.6201 17.271 15.7881 17.223C15.9561 17.172 16.1031 17.1 16.2291 17.007C16.3551 16.911 16.4526 16.797 16.5216 16.665C16.5936 16.53 16.6311 16.3785 16.6341 16.2105C16.6371 16.1835 16.6281 16.161 16.6071 16.143C16.5891 16.125 16.5666 16.116 16.5396 16.116H15.9321C15.8931 16.116 15.8616 16.125 15.8376 16.143C15.8166 16.158 15.8001 16.188 15.7881 16.233C15.7491 16.389 15.6816 16.497 15.5856 16.557C15.4896 16.617 15.3726 16.647 15.2346 16.647C15.0696 16.647 14.9391 16.602 14.8431 16.512C14.7471 16.419 14.6946 16.266 14.6856 16.053C14.6766 15.795 14.6766 15.543 14.6856 15.297C14.6946 15.084 14.7471 14.9325 14.8431 14.8425C14.9391 14.7495 15.0696 14.703 15.2346 14.703C15.3726 14.703 15.4881 14.733 15.5811 14.793C15.6771 14.85 15.7461 14.958 15.7881 15.117C15.8031 15.162 15.8211 15.1935 15.8421 15.2115C15.8631 15.2265 15.8931 15.234 15.9321 15.234H16.5396C16.5666 15.234 16.5891 15.225 16.6071 15.207C16.6281 15.189 16.6371 15.1665 16.6341 15.1395C16.6311 14.9715 16.5936 14.8215 16.5216 14.6895C16.4526 14.5545 16.3551 14.4405 16.2291 14.3475C16.1031 14.2515 15.9561 14.1795 15.7881 14.1315C15.6201 14.0805 15.4371 14.055 15.2391 14.055C14.9601 14.055 14.7186 14.1015 14.5146 14.1945C14.3106 14.2875 14.1516 14.4255 14.0376 14.6085C13.9236 14.7915 13.8606 15.0135 13.8486 15.2745C13.8456 15.4035 13.8441 15.5385 13.8441 15.6795C13.8441 15.8205 13.8456 15.9525 13.8486 16.0755C13.8606 16.3425 13.9221 16.566 14.0331 16.746C14.1471 16.926 14.3061 17.0625 14.5101 17.1555Z"/>
<path fill-rule="evenodd" clip-rule="evenodd" d="M13.9393 2.68934C13.658 2.40803 13.2765 2.25 12.8787 2.25H6.75C5.09315 2.25 3.75 3.59315 3.75 5.25V18.75C3.75 20.4069 5.09315 21.75 6.75 21.75H17.25C18.9069 21.75 20.25 20.4069 20.25 18.75V9.62132C20.25 9.2235 20.092 8.84196 19.8107 8.56066L13.9393 2.68934ZM6.75 3.75H12V7.5C12 9.15685 13.3431 10.5 15 10.5H18.75V18.75C18.75 19.5784 18.0784 20.25 17.25 20.25H6.75C5.92157 20.25 5.25 19.5784 5.25 18.75V5.25C5.25 4.42157 5.92157 3.75 6.75 3.75ZM13.5 4.37132L18.1287 9H15C14.1716 9 13.5 8.32843 13.5 7.5V4.37132Z"/>
</svg>
