<svg viewBox="0 0 16 16" xmlns="http://www.w3.org/2000/svg">
<path d="M8.20238 10.0255C8.26393 10.1666 8.29471 10.3399 8.29471 10.5453C8.29471 10.7508 8.26393 10.9241 8.20238 11.0652C8.14178 11.2063 8.05607 11.3133 7.94528 11.3863C7.83448 11.4592 7.70475 11.4956 7.55607 11.4956C7.4074 11.4956 7.27767 11.4592 7.16687 11.3863C7.05607 11.3133 6.9699 11.2063 6.90835 11.0652C6.84774 10.9241 6.81744 10.7508 6.81744 10.5453C6.81744 10.3399 6.84774 10.1666 6.90835 10.0255C6.9699 9.88436 7.05607 9.77735 7.16687 9.70443C7.27767 9.63152 7.4074 9.59506 7.55607 9.59506C7.70475 9.59506 7.83448 9.63152 7.94528 9.70443C8.05607 9.77735 8.14178 9.88436 8.20238 10.0255Z"/>
<path fill-rule="evenodd" clip-rule="evenodd" d="M5 1C3.89543 1 3 1.89543 3 3V8H2.5C2.22386 8 2 8.22386 2 8.5V12.5C2 12.7761 2.22386 13 2.5 13H3C3 14.1046 3.89543 15 5 15H11C12.1046 15 13 14.1046 13 13H13.5C13.7761 13 14 12.7761 14 12.5V8.5C14 8.22386 13.7761 8 13.5 8H13V5.41421C13 5.01639 12.842 4.63486 12.5607 4.35355L9.64645 1.43934C9.36514 1.15804 8.98361 1 8.58579 1H5ZM12 8V6H9.5C8.67157 6 8 5.32843 8 4.5V2H5C4.44772 2 4 2.44772 4 3V8H12ZM12 13H4C4 13.5523 4.44772 14 5 14H11C11.5523 14 12 13.5523 12 13ZM11.7929 5H9.5C9.22386 5 9 4.77614 9 4.5V2.20711L11.7929 5ZM8.73789 11.355C8.85816 11.1325 8.91829 10.8626 8.91829 10.5453C8.91829 10.2281 8.85816 9.95822 8.73789 9.73568C8.61858 9.51315 8.4557 9.34364 8.24926 9.22716C8.04376 9.10974 7.8127 9.05103 7.55607 9.05103C7.29755 9.05103 7.06554 9.10974 6.86005 9.22716C6.65456 9.34364 6.49215 9.51315 6.37284 9.73568C6.25352 9.95822 6.19386 10.2281 6.19386 10.5453C6.19386 10.8616 6.25352 11.131 6.37284 11.3536C6.49215 11.5761 6.65456 11.7461 6.86005 11.8635C7.06554 11.9809 7.29755 12.0397 7.55607 12.0397C7.8127 12.0397 8.04376 11.9814 8.24926 11.8649C8.4557 11.7475 8.61858 11.5775 8.73789 11.355ZM4.08875 11.7499C4.08875 11.888 4.20067 11.9999 4.33875 11.9999H5.69741C5.83744 11.9999 5.95096 11.8864 5.95096 11.7463C5.95096 11.6063 5.83744 11.4928 5.69741 11.4928H4.8038C4.74857 11.4928 4.7038 11.448 4.7038 11.3928V9.39833C4.7038 9.22848 4.56612 9.0908 4.39627 9.0908C4.22643 9.0908 4.08875 9.22848 4.08875 9.39833V11.7499ZM11.5052 10.0311C11.3854 10.0311 11.2863 9.94704 11.2191 9.8479C11.1831 9.79392 11.1391 9.74847 11.087 9.71154C11.0358 9.67366 10.9771 9.64478 10.9108 9.62489C10.8455 9.605 10.773 9.59506 10.6935 9.59506C10.5448 9.59506 10.4141 9.63199 10.3015 9.70585C10.1897 9.77972 10.1026 9.8872 10.0401 10.0283C9.97759 10.1684 9.94634 10.3399 9.94634 10.5425C9.94634 10.7452 9.97712 10.9175 10.0387 11.0595C10.1002 11.2016 10.1873 11.31 10.3 11.3848C10.4127 11.4587 10.5458 11.4956 10.6992 11.4956C10.8384 11.4956 10.9572 11.471 11.0557 11.4218C11.1552 11.3716 11.2309 11.301 11.283 11.2101C11.3334 11.1237 11.3598 11.0224 11.3623 10.9061H10.9691C10.8412 10.9061 10.7375 10.8025 10.7375 10.6746C10.7375 10.5467 10.8412 10.4431 10.9691 10.4431H11.8049C11.8877 10.4431 11.9549 10.5102 11.9549 10.5931V10.8095C11.9549 11.0652 11.9009 11.2849 11.7929 11.4686C11.685 11.6514 11.5363 11.7925 11.3469 11.8919C11.1575 11.9904 10.9407 12.0397 10.6963 12.0397C10.4236 12.0397 10.184 11.9795 9.97759 11.8593C9.77115 11.7381 9.61017 11.5662 9.49464 11.3436C9.38006 11.1202 9.32276 10.855 9.32276 10.5482C9.32276 10.3124 9.35686 10.1022 9.42504 9.9175C9.49417 9.7319 9.59076 9.5747 9.71481 9.44591C9.83886 9.31712 9.98328 9.21911 10.148 9.15188C10.3128 9.08464 10.4913 9.05103 10.6836 9.05103C10.8483 9.05103 11.0017 9.07517 11.1438 9.12347C11.2858 9.17082 11.4118 9.23805 11.5216 9.32517C11.6324 9.41229 11.7229 9.51599 11.7929 9.63625C11.8001 9.64853 11.8071 9.66093 11.8138 9.67346C11.9076 9.84955 11.75 10.0311 11.5505 10.0311H11.5052Z"/>
</svg>
