<svg viewBox="0 0 20 20" xmlns="http://www.w3.org/2000/svg">
<path d="M10.253 11.818C10.3299 11.9944 10.3684 12.211 10.3684 12.4679C10.3684 12.7248 10.3299 12.9414 10.253 13.1178C10.1772 13.2941 10.0701 13.4279 9.93163 13.519C9.79313 13.6102 9.63097 13.6558 9.44512 13.6558C9.25928 13.6558 9.09711 13.6102 8.95862 13.519C8.82012 13.4279 8.71241 13.2941 8.63546 13.1178C8.55971 12.9414 8.52183 12.7248 8.52183 12.4679C8.52183 12.211 8.55971 11.9944 8.63546 11.818C8.71241 11.6417 8.82012 11.5079 8.95862 11.4168C9.09711 11.3256 9.25928 11.28 9.44512 11.28C9.63097 11.28 9.79313 11.3256 9.93163 11.4168C10.0701 11.5079 10.1772 11.6417 10.253 11.818Z"/>
<path fill-rule="evenodd" clip-rule="evenodd" d="M6 2C4.89543 2 4 2.89543 4 4V9H3C2.44772 9 2 9.44772 2 10V15C2 15.5523 2.44772 16 3 16H4C4 17.1046 4.89543 18 6 18H14C15.1046 18 16 17.1046 16 16H17C17.5523 16 18 15.5523 18 15V10C18 9.44772 17.5523 9 17 9H16V7.62132C16 7.59436 15.9995 7.56746 15.9984 7.54063C15.9995 7.52723 16 7.51368 16 7.5C16 7.45831 15.9949 7.41782 15.9853 7.37911C15.9315 6.93793 15.7317 6.52463 15.4142 6.20711L11.7929 2.58579C11.4754 2.26826 11.0621 2.06853 10.6209 2.01471C10.5822 2.0051 10.5417 2 10.5 2C10.4863 2 10.4728 2.00055 10.4594 2.00163C10.4325 2.00054 10.4056 2 10.3787 2H6ZM15 9V8H11.5C10.6716 8 10 7.32843 10 6.5V3H6C5.44772 3 5 3.44772 5 4V9H15ZM15 16H5C5 16.5523 5.44772 17 6 17H14C14.5523 17 15 16.5523 15 16ZM14.7836 7C14.7599 6.97011 14.7344 6.94146 14.7071 6.91421L11.0858 3.29289C11.0585 3.26565 11.0299 3.24014 11 3.21644V6.5C11 6.77614 11.2239 7 11.5 7H14.7836ZM10.9224 13.48C11.0727 13.2018 11.1479 12.8644 11.1479 12.4679C11.1479 12.0714 11.0727 11.734 10.9224 11.4558C10.7732 11.1777 10.5696 10.9658 10.3116 10.8202C10.0547 10.6734 9.76591 10.6 9.44512 10.6C9.12197 10.6 8.83196 10.6734 8.5751 10.8202C8.31823 10.9658 8.11522 11.1777 7.96608 11.4558C7.81693 11.734 7.74235 12.0714 7.74235 12.4679C7.74235 12.8633 7.81693 13.2 7.96608 13.4782C8.11522 13.7564 8.31823 13.9688 8.5751 14.1156C8.83196 14.2624 9.12197 14.3358 9.44512 14.3358C9.76591 14.3358 10.0547 14.263 10.3116 14.1174C10.5696 13.9706 10.7732 13.7581 10.9224 13.48ZM5.11096 13.7861C5.11096 14.0622 5.33482 14.2861 5.61096 14.2861H7.12179C7.29683 14.2861 7.43873 14.1442 7.43873 13.9691C7.43873 13.7941 7.29683 13.6522 7.12179 13.6522H6.02978C5.94694 13.6522 5.87978 13.585 5.87978 13.5022V11.0341C5.87978 10.8218 5.70768 10.6497 5.49537 10.6497C5.28307 10.6497 5.11096 10.8218 5.11096 11.0341V13.7861ZM14.3816 11.8251C14.2318 11.8251 14.108 11.72 14.0239 11.5961C13.9789 11.5286 13.9238 11.4718 13.8587 11.4256C13.7948 11.3783 13.7214 11.3422 13.6386 11.3173C13.5569 11.2925 13.4663 11.28 13.3669 11.28C13.1811 11.28 13.0177 11.3262 12.8769 11.4185C12.7372 11.5109 12.6283 11.6452 12.5501 11.8216C12.472 11.9968 12.433 12.211 12.433 12.4643C12.433 12.7177 12.4714 12.9331 12.5484 13.1107C12.6253 13.2882 12.7342 13.4237 12.8751 13.5173C13.0159 13.6096 13.1823 13.6558 13.374 13.6558C13.548 13.6558 13.6966 13.625 13.8197 13.5634C13.944 13.5007 14.0387 13.4125 14.1038 13.2989C14.1667 13.1909 14.1998 13.0642 14.203 12.9189H13.7114C13.5515 12.9189 13.422 12.7893 13.422 12.6295C13.422 12.4696 13.5515 12.3401 13.7114 12.3401H14.6936C14.8317 12.3401 14.9436 12.452 14.9436 12.5901V12.7982C14.9436 13.1178 14.8761 13.3924 14.7412 13.622C14.6063 13.8505 14.4204 14.0268 14.1837 14.1511C13.9469 14.2742 13.6759 14.3358 13.3705 14.3358C13.0296 14.3358 12.7301 14.2606 12.472 14.1103C12.214 13.9588 12.0127 13.7439 11.8683 13.4658C11.7251 13.1864 11.6535 12.855 11.6535 12.4714C11.6535 12.1767 11.6961 11.9139 11.7813 11.6831C11.8677 11.4511 11.9885 11.2546 12.1435 11.0936C12.2986 10.9326 12.4791 10.8101 12.6851 10.7261C12.8911 10.642 13.1142 10.6 13.3545 10.6C13.5604 10.6 13.7522 10.6302 13.9298 10.6906C14.1073 10.7497 14.2648 10.8338 14.4021 10.9427C14.5406 11.0516 14.6536 11.1812 14.7412 11.3315C14.7502 11.3469 14.7589 11.3624 14.7672 11.378C14.8845 11.5982 14.6875 11.8251 14.4381 11.8251H14.3816Z"/>
</svg>
