<svg width="32" height="32" xmlns="http://www.w3.org/2000/svg">
<path d="M14.9967 0C14.3062 0 13.7465 0.457891 13.7465 1.02273V28.9773C13.7465 29.5421 14.3062 30 14.9967 30C15.6872 30 16.247 29.5421 16.247 28.9773V1.02273C16.247 0.457891 15.6872 0 14.9967 0Z"/>
<path d="M20.4171 25.2198C19.7249 25.2198 19.1637 25.6789 19.1637 26.2452C19.1637 26.8115 19.7249 27.2706 20.4172 27.2706L24.9989 27.2703C27.7609 27.2703 30 25.4388 30 23.1794V6.82284C30 4.5635 27.7609 2.73193 24.9989 2.73193L20.4139 2.73215C19.7234 2.73219 19.1637 3.19007 19.1637 3.75488C19.1637 4.31974 19.7235 4.77764 20.414 4.77761L24.9989 4.77739C26.3799 4.77739 27.4995 5.69317 27.4995 6.82284V23.1794C27.4995 24.3091 26.3799 25.2249 24.9989 25.2249L21.6099 25.2252L21.6066 25.2198H20.4171Z"/>
<path d="M9.57824 2.73221C10.2687 2.73221 10.8285 3.1901 10.8285 3.75494C10.8285 4.31978 10.2687 4.77767 9.57824 4.77767H5.00109C3.62007 4.77767 2.50055 5.69345 2.50055 6.82312L2.50054 23.1797C2.50054 24.3094 3.62008 25.2252 5.00109 25.2252H9.57824C10.2687 25.2252 10.8285 25.6831 10.8285 26.2479C10.8285 26.8127 10.2687 27.2706 9.57824 27.2706H5.00109C2.23906 27.2706 0 25.4391 0 23.1797V6.82312C0 4.56377 2.23906 2.73221 5.00109 2.73221H9.57824Z"/>
<path d="M9.66193 13.9773C10.3524 13.9773 10.9122 14.4352 10.9122 15C10.9122 15.5648 10.3524 16.0227 9.66193 16.0227H6.25136C5.56085 16.0227 5.00109 15.5648 5.00109 15C5.00109 14.4352 5.56085 13.9773 6.25136 13.9773H9.66193Z"/>
<path d="M10.9122 10.9197C10.9122 10.3549 10.3524 9.89702 9.66193 9.89702H6.25136C5.56085 9.89702 5.00109 10.3549 5.00109 10.9197C5.00109 11.4846 5.56085 11.9425 6.25136 11.9425H9.66193C10.3524 11.9425 10.9122 11.4846 10.9122 10.9197Z"/>
<path d="M9.66193 18.0575C10.3524 18.0575 10.9122 18.5154 10.9122 19.0803C10.9122 19.6451 10.3524 20.103 9.66193 20.103H6.25136C5.56085 20.103 5.00109 19.6451 5.00109 19.0803C5.00109 18.5154 5.56085 18.0575 6.25136 18.0575H9.66193Z"/>
<path d="M24.9924 15C24.9924 14.4352 24.4326 13.9773 23.7421 13.9773H20.3316C19.6411 13.9773 19.0813 14.4352 19.0813 15C19.0813 15.5648 19.6411 16.0227 20.3316 16.0227H23.7421C24.4326 16.0227 24.9924 15.5648 24.9924 15Z"/>
<path d="M23.7421 9.89702C24.4326 9.89702 24.9924 10.3549 24.9924 10.9197C24.9924 11.4846 24.4326 11.9425 23.7421 11.9425H20.3316C19.6411 11.9425 19.0813 11.4846 19.0813 10.9197C19.0813 10.3549 19.6411 9.89702 20.3316 9.89702H23.7421Z"/>
<path d="M24.9924 19.0803C24.9924 18.5154 24.4326 18.0575 23.7421 18.0575H20.3316C19.6411 18.0575 19.0813 18.5154 19.0813 19.0803C19.0813 19.6451 19.6411 20.103 20.3316 20.103H23.7421C24.4326 20.103 24.9924 19.6451 24.9924 19.0803Z"/>
</svg>
