<svg width="24" height="24" xmlns="http://www.w3.org/2000/svg">
<path d="M11.9974 0C11.445 0 10.9972 0.366313 10.9972 0.818183V23.1818C10.9972 23.6337 11.445 24 11.9974 24C12.5498 24 12.9976 23.6337 12.9976 23.1818V0.818182C12.9976 0.366313 12.5498 0 11.9974 0Z"/>
<path d="M16.3337 20.1759C15.7799 20.1759 15.3309 20.5431 15.3309 20.9962C15.3309 21.4492 15.7799 21.8165 16.3338 21.8165L19.9991 21.8163C22.2088 21.8163 24 20.351 24 18.5435V5.45827C24 3.6508 22.2088 2.18555 19.9991 2.18555L16.3311 2.18572C15.7787 2.18575 15.3309 2.55205 15.3309 3.0039C15.3309 3.45579 15.7788 3.82211 16.3312 3.82209L19.9991 3.82191C21.1039 3.82191 21.9996 4.55454 21.9996 5.45827V18.5435C21.9996 19.4473 21.1039 20.1799 19.9991 20.1799L17.2879 20.1801L17.2853 20.1759H16.3337Z"/>
<path d="M7.66259 2.18577C8.215 2.18577 8.66281 2.55208 8.66281 3.00395C8.66281 3.45582 8.215 3.82213 7.66259 3.82213H4.00087C2.89606 3.82213 2.00044 4.55476 2.00044 5.4585L2.00044 18.5438C2.00044 19.4475 2.89606 20.1801 4.00087 20.1801H7.66259C8.215 20.1801 8.66281 20.5464 8.66281 20.9983C8.66281 21.4502 8.215 21.8165 7.66259 21.8165H4.00087C1.79125 21.8165 0 20.3512 0 18.5438V5.4585C0 3.65102 1.79125 2.18577 4.00087 2.18577H7.66259Z"/>
<path d="M7.72954 11.1818C8.28195 11.1818 8.72976 11.5481 8.72976 12C8.72976 12.4519 8.28195 12.8182 7.72954 12.8182H5.00109C4.44868 12.8182 4.00087 12.4519 4.00087 12C4.00087 11.5481 4.44868 11.1818 5.00109 11.1818H7.72954Z"/>
<path d="M8.72976 8.7358C8.72976 8.28393 8.28195 7.91761 7.72954 7.91761H5.00109C4.44868 7.91761 4.00087 8.28393 4.00087 8.7358C4.00087 9.18767 4.44868 9.55398 5.00109 9.55398H7.72954C8.28195 9.55398 8.72976 9.18767 8.72976 8.7358Z"/>
<path d="M7.72954 14.446C8.28195 14.446 8.72976 14.8123 8.72976 15.2642C8.72976 15.7161 8.28195 16.0824 7.72954 16.0824H5.00109C4.44868 16.0824 4.00087 15.7161 4.00087 15.2642C4.00087 14.8123 4.44868 14.446 5.00109 14.446H7.72954Z"/>
<path d="M19.9939 12C19.9939 11.5481 19.5461 11.1818 18.9937 11.1818H16.2652C15.7128 11.1818 15.265 11.5481 15.265 12C15.265 12.4519 15.7128 12.8182 16.2652 12.8182H18.9937C19.5461 12.8182 19.9939 12.4519 19.9939 12Z"/>
<path d="M18.9937 7.91761C19.5461 7.91761 19.9939 8.28393 19.9939 8.7358C19.9939 9.18767 19.5461 9.55398 18.9937 9.55398H16.2652C15.7128 9.55398 15.265 9.18767 15.265 8.7358C15.265 8.28393 15.7128 7.91761 16.2652 7.91761H18.9937Z"/>
<path d="M19.9939 15.2642C19.9939 14.8123 19.5461 14.446 18.9937 14.446H16.2652C15.7128 14.446 15.265 14.8123 15.265 15.2642C15.265 15.7161 15.7128 16.0824 16.2652 16.0824H18.9937C19.5461 16.0824 19.9939 15.7161 19.9939 15.2642Z"/>
</svg>
