<svg viewBox="0 0 32 32" xmlns="http://www.w3.org/2000/svg">
<path fill-rule="evenodd" clip-rule="evenodd" d="M16 2C16.5523 2 17 2.44772 17 3V9.82578L18.8492 8.24074C19.2686 7.88132 19.8999 7.92988 20.2593 8.34921C20.6187 8.76853 20.5701 9.39983 20.1508 9.75926L16.6508 12.7593C16.2763 13.0802 15.7237 13.0802 15.3492 12.7593L11.8492 9.75926C11.4299 9.39983 11.3813 8.76853 11.7408 8.34921C12.1002 7.92988 12.7315 7.88132 13.1508 8.24074L15 9.82578V3C15 2.44772 15.4477 2 16 2Z" />
<path fill-rule="evenodd" clip-rule="evenodd" d="M16 30C16.5523 30 17 29.5523 17 29V22.1742L18.8492 23.7593C19.2685 24.1187 19.8998 24.0701 20.2593 23.6508C20.6187 23.2315 20.5701 22.6002 20.1508 22.2407L16.6508 19.2407C16.2763 18.9198 15.7237 18.9198 15.3492 19.2407L11.8492 22.2407C11.4299 22.6002 11.3813 23.2315 11.7407 23.6508C12.1002 24.0701 12.7315 24.1187 13.1508 23.7593L15 22.1742V29C15 29.5523 15.4477 30 16 30Z" />
<path fill-rule="evenodd" clip-rule="evenodd" d="M4 16C4 15.4477 4.44772 15 5 15H27C27.5523 15 28 15.4477 28 16C28 16.5523 27.5523 17 27 17H5C4.44772 17 4 16.5523 4 16Z" />
</svg>
