<svg viewBox="0 0 24 24" xmlns="http://www.w3.org/2000/svg">
<path d="M15.7009 4.3922C15.8483 4.00512 15.6541 3.57179 15.267 3.42434C14.8799 3.27688 14.4466 3.47113 14.2991 3.85821L8.29914 19.6082C8.15168 19.9953 8.34593 20.4286 8.733 20.5761C9.12008 20.7235 9.55341 20.5293 9.70087 20.1422L15.7009 4.3922Z"/>
<path d="M7.24156 6.93374C7.5544 7.20522 7.58794 7.67891 7.31646 7.99176L4.01388 11.7976L7.29252 15.2323C7.57852 15.532 7.56748 16.0067 7.26786 16.2927C6.96823 16.5787 6.49349 16.5677 6.20748 16.2681L2.45748 12.3395C2.1903 12.0596 2.17993 11.6223 2.43354 11.3301L6.18354 7.00865C6.45502 6.6958 6.92871 6.66227 7.24156 6.93374Z" />
<path d="M16.7584 6.93374C16.4456 7.20522 16.4121 7.67891 16.6835 7.99176L19.9861 11.7976L16.7075 15.2323C16.4215 15.532 16.4325 16.0067 16.7321 16.2927C17.0318 16.5787 17.5065 16.5677 17.7925 16.2681L21.5425 12.3395C21.8097 12.0596 21.8201 11.6223 21.5665 11.3301L17.8165 7.00865C17.545 6.6958 17.0713 6.66227 16.7584 6.93374Z" />
</svg>
