<svg viewBox="0 0 24 24" xmlns="http://www.w3.org/2000/svg">
<path d="M8.03771 5.99443C9.13874 5.02615 10.5562 4.49456 12.0224 4.50004C13.4886 4.50552 14.9021 5.0477 15.9959 6.02417C17.0896 7.00065 17.788 8.34383 17.959 9.80004C17.9607 9.81415 17.9627 9.82813 17.9651 9.84195C17.9998 10.1899 18.2754 10.4769 18.6367 10.5131C19.3073 10.5803 19.9264 10.9028 20.3657 11.4139C20.805 11.925 21.0309 12.5855 20.9966 13.2586C20.9623 13.9317 20.6704 14.5658 20.1815 15.0296C19.6925 15.4934 19.0438 15.7513 18.3699 15.75L18.3651 15.75H18C17.5858 15.75 17.25 16.0858 17.25 16.5C17.25 16.9142 17.5858 17.25 18 17.25H18.3726C19.4296 17.2506 20.4467 16.8454 21.2137 16.1179C21.9821 15.3891 22.4408 14.3926 22.4947 13.3349C22.5486 12.2772 22.1936 11.2393 21.5032 10.4362C20.9431 9.78446 20.1969 9.32783 19.3724 9.12239C19.0688 7.49723 18.2352 6.01258 16.9948 4.90522C15.6276 3.68462 13.8608 3.0069 12.028 3.00005C10.1953 2.9932 8.42342 3.65769 7.04713 4.86803C5.7844 5.9785 4.93484 7.47793 4.6276 9.12239C3.80135 9.32827 3.05389 9.78637 2.49342 10.4401C1.80508 11.2429 1.45138 12.2795 1.50539 13.3357C1.5594 14.3918 2.01699 15.3869 2.78365 16.1154C3.5503 16.8438 4.56746 17.25 5.625 17.25H6.00001C6.41422 17.25 6.75001 16.9142 6.75001 16.5C6.75001 16.0858 6.41422 15.75 6.00001 15.75H5.625C4.95202 15.75 4.30474 15.4915 3.81687 15.028C3.329 14.5644 3.0378 13.9312 3.00343 13.2591C2.96906 12.587 3.19414 11.9273 3.63218 11.4164C4.07022 10.9055 4.68776 10.5823 5.35723 10.5137C5.71046 10.4775 5.98118 10.2017 6.02466 9.86408C6.03441 9.82898 6.04172 9.79274 6.04637 9.75552C6.2283 8.30062 6.93667 6.9627 8.03771 5.99443Z"/>
<path d="M12.75 14.5607V20.25C12.75 20.6642 12.4142 21 12 21C11.5858 21 11.25 20.6642 11.25 20.25V14.5607L9.53033 16.2803C9.23744 16.5732 8.76256 16.5732 8.46967 16.2803C8.17678 15.9874 8.17678 15.5126 8.46967 15.2197L11.4697 12.2197C11.7626 11.9268 12.2374 11.9268 12.5303 12.2197L15.5303 15.2197C15.8232 15.5126 15.8232 15.9874 15.5303 16.2803C15.2374 16.5732 14.7626 16.5732 14.4697 16.2803L12.75 14.5607Z"/>
</svg>
