<svg viewBox="0 0 24 24" xmlns="http://www.w3.org/2000/svg">
<path fill-rule="evenodd" clip-rule="evenodd" d="M11.9495 4.50028C13.0687 4.48773 14.1524 4.8927 14.9891 5.63616C15.8254 6.37926 16.3548 7.4072 16.4743 8.51948L16.4745 8.5211L16.5057 8.82639C16.5449 9.20903 16.8672 9.5 17.2518 9.5H18C18.3283 9.5 18.6534 9.56466 18.9567 9.6903C19.26 9.81594 19.5356 10.0001 19.7678 10.2322C19.9999 10.4644 20.1841 10.74 20.3097 11.0433C20.4 11.2613 20.4588 11.4906 20.4848 11.7243C21.013 11.9979 21.499 12.3418 21.9303 12.7436C21.9765 12.4991 22 12.2501 22 12C22 11.4747 21.8965 10.9546 21.6955 10.4693C21.4945 9.98396 21.1999 9.54301 20.8284 9.17157C20.457 8.80014 20.016 8.5055 19.5307 8.30448C19.0454 8.10346 18.5253 8 18 8H17.9161C17.689 6.65594 17.0098 5.42514 15.9855 4.51488C14.8699 3.52361 13.425 2.98364 11.9327 3.00038C10.4405 3.01712 9.008 3.58937 7.91496 4.60542C6.94433 5.50769 6.30323 6.70241 6.08393 8H6C5.47471 8 4.95457 8.10346 4.46927 8.30448C3.98396 8.5055 3.54301 8.80014 3.17157 9.17157C2.80014 9.54301 2.5055 9.98396 2.30448 10.4693C2.10346 10.9546 2 11.4747 2 12C2 12.5253 2.10346 13.0454 2.30448 13.5307C2.5055 14.016 2.80014 14.457 3.17157 14.8284C3.54301 15.1999 3.98396 15.4945 4.46927 15.6955C4.95457 15.8965 5.47471 16 6 16H11.1739C11.2986 15.4722 11.4876 14.9693 11.7322 14.5H6C5.6717 14.5 5.34661 14.4353 5.04329 14.3097C4.73998 14.1841 4.46438 13.9999 4.23223 13.7678C4.00009 13.5356 3.81594 13.26 3.6903 12.9567C3.56466 12.6534 3.5 12.3283 3.5 12C3.5 11.6717 3.56466 11.3466 3.6903 11.0433C3.81594 10.74 4.00009 10.4644 4.23223 10.2322C4.46438 10.0001 4.73998 9.81594 5.04329 9.6903C5.3466 9.56466 5.6717 9.5 6 9.5H6.74416C7.12164 9.5 7.4403 9.21945 7.48812 8.84502L7.51257 8.65355C7.51393 8.64293 7.51506 8.63227 7.51596 8.6216C7.61008 7.5063 8.11645 6.46611 8.93623 5.70407C9.75601 4.94203 10.8303 4.51284 11.9495 4.50028Z"/>
<path fill-rule="evenodd" clip-rule="evenodd" d="M17.5 23C20.5376 23 23 20.5376 23 17.5C23 14.4624 20.5376 12 17.5 12C14.4624 12 12 14.4624 12 17.5C12 20.5376 14.4624 23 17.5 23ZM17.8075 14.0135C17.1989 13.9599 16.5869 14.0664 16.0323 14.3226C15.4777 14.5788 14.9998 14.9757 14.6461 15.4739C14.4862 15.699 14.5392 16.0111 14.7644 16.171C14.9895 16.3309 15.3016 16.2779 15.4615 16.0528C15.7141 15.6969 16.0555 15.4134 16.4516 15.2304C16.8478 15.0474 17.2849 14.9713 17.7196 15.0097C18.1543 15.048 18.5714 15.1995 18.9294 15.449C19.1486 15.6017 19.341 15.788 19.5 16H18.5C18.2239 16 18 16.2239 18 16.5C18 16.7761 18.2239 17 18.5 17H20.5C20.7761 17 21 16.7761 21 16.5V14.5C21 14.2239 20.7761 14 20.5 14C20.2239 14 20 14.2239 20 14.5V15.0505C19.8478 14.8952 19.681 14.7538 19.5012 14.6286C19 14.2792 18.4161 14.0672 17.8075 14.0135ZM14.5001 18C14.2239 18 14.0001 18.2239 14.0001 18.5V20.5C14.0001 20.7761 14.2239 21 14.5001 21C14.7762 21 15.0001 20.7761 15.0001 20.5V19.9495C15.1522 20.1048 15.3191 20.2462 15.4989 20.3714C16.0001 20.7208 16.584 20.9328 17.1926 20.9865C17.8011 21.0401 18.4132 20.9336 18.9678 20.6774C19.5224 20.4212 20.0003 20.0243 20.354 19.5261C20.5138 19.301 20.4609 18.9889 20.2357 18.829C20.0105 18.6691 19.6984 18.7221 19.5386 18.9472C19.2859 19.3031 18.9446 19.5866 18.5484 19.7696C18.1523 19.9526 17.7151 20.0287 17.2804 19.9903C16.8457 19.952 16.4286 19.8005 16.0706 19.551C15.8514 19.3983 15.6591 19.212 15.5001 19H16.5001C16.7762 19 17.0001 18.7761 17.0001 18.5C17.0001 18.2239 16.7762 18 16.5001 18H14.5001Z"/>
</svg>
