<svg viewBox="0 0 20 20" xmlns="http://www.w3.org/2000/svg">
<path fill-rule="evenodd" clip-rule="evenodd" d="M13.5 18C15.9853 18 18 15.9853 18 13.5C18 11.0147 15.9853 9 13.5 9C11.0147 9 9 11.0147 9 13.5C9 15.9853 11.0147 18 13.5 18ZM11 16C11 16.2761 11.2238 16.5 11.5 16.5C11.7761 16.5 12 16.2761 12 16V15.8481C12.1131 15.9134 12.2307 15.9714 12.3519 16.0216C12.7159 16.1724 13.106 16.25 13.5 16.25C13.894 16.25 14.2841 16.1724 14.648 16.0216C15.012 15.8709 15.3427 15.6499 15.6213 15.3713C15.8166 15.1761 15.8166 14.8595 15.6213 14.6642C15.426 14.469 15.1095 14.469 14.9142 14.6642C14.7285 14.8499 14.508 14.9972 14.2654 15.0978C14.0227 15.1983 13.7626 15.25 13.5 15.25C13.2373 15.25 12.9773 15.1983 12.7346 15.0978C12.6651 15.069 12.5973 15.0363 12.5317 15H13C13.2761 15 13.5 14.7761 13.5 14.5C13.5 14.2239 13.2761 14 13 14H11.5C11.2238 14 11 14.2239 11 14.5V16ZM15.4999 13C15.776 13 15.9999 12.7761 15.9999 12.5V11C15.9999 10.7239 15.776 10.5 15.4999 10.5C15.2237 10.5 14.9999 10.7239 14.9999 11V11.1519C14.8867 11.0866 14.7692 11.0286 14.6479 10.9784C14.284 10.8276 13.8938 10.75 13.4999 10.75C13.1059 10.75 12.7158 10.8276 12.3518 10.9784C11.9879 11.1291 11.6571 11.3501 11.3786 11.6287C11.1833 11.8239 11.1833 12.1405 11.3786 12.3358C11.5738 12.531 11.8904 12.531 12.0857 12.3358C12.2714 12.1501 12.4919 12.0028 12.7345 11.9022C12.9772 11.8017 13.2372 11.75 13.4999 11.75C13.7625 11.75 14.0226 11.8017 14.2652 11.9022C14.3348 11.931 14.4025 11.9637 14.4681 12H13.9999C13.7237 12 13.4999 12.2239 13.4999 12.5C13.4999 12.7761 13.7237 13 13.9999 13H15.4999Z"/>
<path fill-rule="evenodd" clip-rule="evenodd" d="M9.96732 3.00013C10.9402 2.99218 11.8827 3.33912 12.6183 3.97598C13.3538 4.61285 13.832 5.49598 13.9634 6.46003C13.9971 6.7078 14.2088 6.89253 14.4588 6.89253C14.7318 6.89253 15.0608 7.02632 15.4567 7.1903C15.76 7.31594 16.0356 7.50009 16.2678 7.73223C16.4999 7.96438 16.6841 8.23998 16.8097 8.54329C16.9029 8.76826 16.9625 9.00521 16.9871 9.24656C17.338 9.53453 17.6525 9.86506 17.923 10.2303C17.9741 9.99079 18 9.74604 18 9.5C18 9.04037 17.9095 8.58525 17.7336 8.16061C17.5577 7.73597 17.2999 7.35013 16.9749 7.02513C16.6499 6.70012 16.264 6.44231 15.8394 6.26642L15.7767 6.24033C15.5411 6.1421 15.223 6.00948 14.8863 5.93981C14.6577 4.88597 14.0934 3.9304 13.2728 3.21998C12.3534 2.4239 11.1753 1.99023 9.95915 2.00017C8.743 2.0101 7.57216 2.46296 6.66584 3.27396C5.8624 3.9929 5.31567 4.94959 5.10126 5.99878C4.76681 6.04874 4.44227 6.14975 4.16061 6.26642C3.73597 6.44231 3.35013 6.70012 3.02513 7.02513C2.70012 7.35013 2.44231 7.73597 2.26642 8.16061C2.09053 8.58525 2 9.04037 2 9.5C2 9.95963 2.09053 10.4148 2.26642 10.8394C2.44231 11.264 2.70012 11.6499 3.02513 11.9749C3.35013 12.2999 3.73597 12.5577 4.16061 12.7336C4.58525 12.9095 5.04037 13 5.5 13H8.02242C8.05337 12.6566 8.11588 12.3223 8.20703 12H5.5C5.17169 12 4.84661 11.9353 4.54329 11.8097C4.23998 11.6841 3.96438 11.4999 3.73223 11.2678C3.50009 11.0356 3.31594 10.76 3.1903 10.4567C3.06466 10.1534 3 9.8283 3 9.5C3 9.1717 3.06466 8.84661 3.1903 8.54329C3.31594 8.23998 3.50009 7.96438 3.73223 7.73223C3.96438 7.50009 4.23998 7.31594 4.54329 7.1903C4.8695 7.05518 5.22448 6.96547 5.53186 6.96547C5.78503 6.96547 5.99825 6.77624 6.02832 6.52486C6.14389 5.55879 6.60762 4.66797 7.33267 4.01917C8.05773 3.37037 8.9944 3.00808 9.96732 3.00013Z"/>
</svg>
