<svg width="24" height="24" viewBox="0 0 24 24" fill="none" xmlns="http://www.w3.org/2000/svg">
<path fill-rule="evenodd" clip-rule="evenodd" d="M13.5052 2.83831C12.5909 2.24026 11.4091 2.24026 10.4948 2.83831L4.24475 6.92606C3.46808 7.43404 3 8.29948 3 9.22752V15.4534C3 16.4483 3.53738 17.3656 4.40523 17.8521L10.6552 21.3559C11.4906 21.8242 12.5094 21.8242 13.3448 21.3559L19.5948 17.8521C20.4626 17.3656 21 16.4483 21 15.4534V9.22752C21 8.29948 20.5319 7.43404 19.7552 6.92606L13.5052 2.83831ZM11.3158 4.09365C11.7314 3.82181 12.2686 3.82181 12.6842 4.09365L18.9342 8.18141C19.2872 8.4123 19.5 8.80569 19.5 9.22752V15.4534C19.5 15.9056 19.2557 16.3226 18.8613 16.5437L17.7448 17.1696L15.8546 15.1848C16.5701 14.3199 17 13.2102 17 12C17 9.23856 14.7614 6.99999 12 6.99999C9.23858 6.99999 7 9.23856 7 12C7 14.7614 9.23858 17 12 17C13.01 17 13.9501 16.7005 14.7362 16.1855L16.3944 17.9266L12.6113 20.0475C12.2316 20.2604 11.7684 20.2604 11.3887 20.0475L5.13874 16.5437C4.74427 16.3226 4.5 15.9056 4.5 15.4534V9.22752C4.5 8.80569 4.71276 8.4123 5.0658 8.1814L11.3158 4.09365ZM12 8.49999C10.067 8.49999 8.5 10.067 8.5 12C8.5 13.933 10.067 15.5 12 15.5C13.933 15.5 15.5 13.933 15.5 12C15.5 10.067 13.933 8.49999 12 8.49999Z" fill="#666666"/>
</svg>
