<svg viewBox="0 0 24 24" xmlns="http://www.w3.org/2000/svg">
<path fill-rule="evenodd" clip-rule="evenodd" d="M15 9.75C15 11.4069 13.6569 12.75 12 12.75C10.3431 12.75 9 11.4069 9 9.75C9 8.09315 10.3431 6.75 12 6.75C13.6569 6.75 15 8.09315 15 9.75ZM13.5 9.75C13.5 10.5784 12.8284 11.25 12 11.25C11.1716 11.25 10.5 10.5784 10.5 9.75C10.5 8.92157 11.1716 8.25 12 8.25C12.8284 8.25 13.5 8.92157 13.5 9.75Z"/>
<path fill-rule="evenodd" clip-rule="evenodd" d="M12 2.25C7.40567 2.25 3.75 6.17072 3.75 10.92C3.75 14.017 5.7116 16.7211 7.57986 18.5836C8.52834 19.5292 9.48761 20.2928 10.2372 20.8223C10.6119 21.0869 10.9398 21.2971 11.1935 21.4444C11.3192 21.5173 11.435 21.5798 11.5341 21.6265C11.5828 21.6494 11.6381 21.6737 11.6947 21.6938L11.697 21.6946C11.7315 21.7068 11.8528 21.75 12 21.75C12.1472 21.75 12.2685 21.7068 12.303 21.6946L12.3053 21.6938C12.3619 21.6737 12.4172 21.6494 12.4659 21.6265C12.565 21.5798 12.6808 21.5173 12.8065 21.4444C13.0602 21.2971 13.3881 21.0869 13.7628 20.8223C14.5124 20.2928 15.4717 19.5292 16.4201 18.5836C18.2884 16.7211 20.25 14.017 20.25 10.92C20.25 6.17072 16.5943 2.25 12 2.25ZM5.25 10.92C5.25 6.92109 8.31006 3.75 12 3.75C15.6899 3.75 18.75 6.92109 18.75 10.92C18.75 13.403 17.1491 15.7389 15.3611 17.5214C14.4815 18.3983 13.5892 19.1085 12.8974 19.5971C12.5513 19.8415 12.2611 20.0265 12.0534 20.1471C12.0346 20.158 12.0169 20.1682 12 20.1777C11.9831 20.1682 11.9654 20.158 11.9466 20.1471C11.7389 20.0265 11.4487 19.8415 11.1026 19.5971C10.4108 19.1085 9.51854 18.3983 8.63889 17.5214C6.8509 15.7389 5.25 13.403 5.25 10.92Z" />
</svg>
