<svg width="32" height="32" viewBox="0 0 32 32" fill="none" xmlns="http://www.w3.org/2000/svg">
<path fill-rule="evenodd" clip-rule="evenodd" d="M24 14.917C26.8377 14.441 29 11.973 29 9C29 5.68629 26.3137 3 23 3C20.027 3 17.559 5.16229 17.083 8H15V6C15 4.34315 13.6569 3 12 3H6C4.34315 3 3 4.34315 3 6V12C3 13.6569 4.34315 15 6 15H8V17.083C5.16229 17.559 3 20.027 3 23C3 26.3137 5.68629 29 9 29C11.973 29 14.441 26.8377 14.917 24H17V26C17 27.6569 18.3431 29 20 29H26C27.6569 29 29 27.6569 29 26V20C29 18.3431 27.6569 17 26 17H24V14.917ZM23 5C20.7909 5 19 6.79086 19 9C19 11.2091 20.7909 13 23 13C25.2091 13 27 11.2091 27 9C27 6.79086 25.2091 5 23 5ZM22 14.917C19.4875 14.4955 17.5045 12.5125 17.083 10H15V12C15 13.6569 13.6569 15 12 15H10V17.083C12.5125 17.5045 14.4955 19.4875 14.917 22H17V20C17 18.3431 18.3431 17 20 17H22V14.917ZM20 19C19.4477 19 19 19.4477 19 20V26C19 26.5523 19.4477 27 20 27H26C26.5523 27 27 26.5523 27 26V20C27 19.4477 26.5523 19 26 19H20ZM13 6C13 5.44772 12.5523 5 12 5H6C5.44772 5 5 5.44772 5 6V12C5 12.5523 5.44772 13 6 13H12C12.5523 13 13 12.5523 13 12V6ZM13 23C13 20.7909 11.2091 19 9 19C6.79086 19 5 20.7909 5 23C5 25.2091 6.79086 27 9 27C11.2091 27 13 25.2091 13 23Z" fill="#666666"/>
</svg>
