<svg viewBox="0 0 16 16" xmlns="http://www.w3.org/2000/svg">
<path fill-rule="evenodd" clip-rule="evenodd" d="M12 2.00006C10.8954 2.00006 9.99997 2.89549 9.99997 4.00006C9.99997 5.10236 10.8917 5.99638 11.9932 6.00005C11.9954 6.00002 11.9977 6 12 6C12.0022 6 12.0045 6.00002 12.0068 6.00005C13.1082 5.99638 14 5.10236 14 4.00006C14 2.89549 13.1045 2.00006 12 2.00006ZM12.5 6.95858C13.9188 6.72055 15 5.48656 15 4.00006C15 2.34321 13.6568 1.00006 12 1.00006C10.5135 1.00006 9.27952 2.08118 9.04146 3.5H6.99997V2.50006C6.99997 1.67163 6.3284 1.00006 5.49997 1.00006H2.49997C1.67154 1.00006 0.999969 1.67163 0.999969 2.50006V5.50006C0.999969 6.32849 1.67154 7.00006 2.49997 7.00006H3.49996V9.04154C2.08111 9.27958 0.999969 10.5136 0.999969 12.0001C0.999969 13.6569 2.34312 15.0001 3.99997 15.0001C5.65682 15.0001 6.99997 13.6569 6.99997 12.0001C6.99997 12 6.99997 12 6.99997 12H8.99997V13.5001C8.99997 14.3285 9.67154 15.0001 10.5 15.0001H13.5C14.3284 15.0001 15 14.3285 15 13.5001V10.5001C15 9.67163 14.3284 9.00006 13.5 9.00006H12.5V6.95858ZM11.5 6.95858C10.2437 6.74782 9.25218 5.75628 9.04144 4.5H6.99997V5.50006C6.99997 6.32849 6.3284 7.00006 5.49997 7.00006H4.49996V9.04154C5.58412 9.22342 6.4711 9.9868 6.82924 11H8.99997V10.5001C8.99997 9.67163 9.67154 9.00006 10.5 9.00006H11.5V6.95858ZM4.00757 6.00006H5.49997C5.77611 6.00006 5.99997 5.7762 5.99997 5.50006V4.00288C5.99996 4.00192 5.99996 4.00096 5.99996 4C5.99996 3.99904 5.99996 3.99809 5.99997 3.99713V2.50006C5.99997 2.22392 5.77611 2.00006 5.49997 2.00006H2.49997C2.22383 2.00006 1.99997 2.22392 1.99997 2.50006V5.50006C1.99997 5.7762 2.22383 6.00006 2.49997 6.00006H3.99235C3.99488 6.00002 3.99742 6 3.99996 6C4.0025 6 4.00504 6.00002 4.00757 6.00006ZM3.99997 10.0001C2.8954 10.0001 1.99997 10.8955 1.99997 12.0001C1.99997 13.1046 2.8954 14.0001 3.99997 14.0001C5.10454 14.0001 5.99997 13.1046 5.99997 12.0001C5.99997 10.8955 5.10454 10.0001 3.99997 10.0001ZM10.5 10.0001C10.2238 10.0001 9.99997 10.2239 9.99997 10.5001V13.5001C9.99997 13.7762 10.2238 14.0001 10.5 14.0001H13.5C13.7761 14.0001 14 13.7762 14 13.5001V10.5001C14 10.2239 13.7761 10.0001 13.5 10.0001H10.5Z" />
</svg>
