<svg viewBox="0 0 24 24" xmlns="http://www.w3.org/2000/svg">
<path fill-rule="evenodd" clip-rule="evenodd" d="M11 8C11 7.44771 11.4477 7 12 7C12.5523 7 13 7.44771 13 8C13 8.55229 12.5523 9 12 9C11.4477 9 11 8.55229 11 8Z"/>
<path fill-rule="evenodd" clip-rule="evenodd" d="M12 17C12.4142 17 12.75 16.6642 12.75 16.25V11.25C12.75 10.8358 12.4142 10.5 12 10.5C11.5858 10.5 11.25 10.8358 11.25 11.25V16.25C11.25 16.6642 11.5858 17 12 17Z"/>
<path fill-rule="evenodd" clip-rule="evenodd" d="M21.75 12C21.75 17.3848 17.3848 21.75 12 21.75C6.61522 21.75 2.25 17.3848 2.25 12C2.25 6.61522 6.61522 2.25 12 2.25C17.3848 2.25 21.75 6.61522 21.75 12ZM20.25 12C20.25 16.5563 16.5563 20.25 12 20.25C7.44365 20.25 3.75 16.5563 3.75 12C3.75 7.44365 7.44365 3.75 12 3.75C16.5563 3.75 20.25 7.44365 20.25 12Z"/>
</svg>
